<?xml version="1.0" standalone="no"?>
<!DOCTYPE svg PUBLIC "-//W3C//DTD SVG 1.1//EN" "http://www.w3.org/Graphics/SVG/1.1/DTD/svg11.dtd" >
<svg>
<metadata>
Created by FontForge 20090914 at Wed Dec 19 17:41:25 2012
 By www-data
Copyright (c) 2009 Dave Crossland &#60;dave@lab6.com&#62;
</metadata>
<defs>
<font id="Cantarell-Bold" horiz-adv-x="1341" >
  <font-face 
    font-family="Cantarell"
    font-weight="700"
    font-stretch="normal"
    units-per-em="2048"
    panose-1="2 0 8 3 0 0 0 0 0 0"
    ascent="1514"
    descent="-534"
    x-height="988"
    cap-height="1421"
    bbox="-123 -585 2414 2157"
    underline-thickness="116"
    underline-position="-233"
    unicode-range="U+0020-U+FB04"
  />
<missing-glyph horiz-adv-x="748" 
d="M68 0v1365h544v-1365h-544zM136 68h408v1229h-408v-1229z" />
    <glyph glyph-name=".notdef" horiz-adv-x="748" 
d="M68 0v1365h544v-1365h-544zM136 68h408v1229h-408v-1229z" />
    <glyph glyph-name="space" unicode=" " horiz-adv-x="560" 
 />
    <glyph glyph-name="exclam" unicode="!" horiz-adv-x="650" 
d="M184 241h282v-282h-282v282zM199 1462h252v-1045h-252v1045z" />
    <glyph glyph-name="quotedbl" unicode="&#x22;" horiz-adv-x="795" 
d="M459 1552h267v-510h-267v510zM69 1552h267v-510h-267v510z" />
    <glyph glyph-name="numbersign" unicode="#" horiz-adv-x="1402" 
d="M322 1462h242v-391h276v391h242v-391h316v-232h-316v-270h316v-232h-316v-408h-242v408h-276v-408h-242v408h-316v232h316v270h-318v232h318v391zM564 839v-270h276v270h-276z" />
    <glyph glyph-name="dollar" unicode="$" horiz-adv-x="1364" 
d="M523 968c0 -16.667 11.8291 -31.8311 35.4961 -45.498s54.5 -26 92.5 -37l126 -35c46 -12.333 91.833 -27.166 137.5 -44.499s87.5 -37.166 125.5 -59.499s68.833 -51 92.5 -86s35.5 -74.167 35.5 -117.5c0 -31.333 -5 -62.166 -15 -92.499s-26.833 -61 -50.5 -92
s-58.667 -58.667 -105 -83s-101.5 -41.833 -165.5 -52.5v-288h-249v277c-100.667 5.33301 -207 29.666 -319 72.999l-37 14l75 191l39 -15c61.333 -24.667 113 -41.5 155 -50.5s88 -13.5 138 -13.5c98 0 167.5 9.33301 208.5 28s61.5 47.334 61.5 86.001
c-1.33301 17.333 -14.166 32.666 -38.499 45.999s-55.5 25.166 -93.5 35.499l-125 32.5c-45.333 11.333 -90.5 25.166 -135.5 41.499s-86.167 35.5 -123.5 57.5s-67.666 51 -90.999 87s-35 77 -35 123c0 28 5.33301 56 16 84s27.334 56.167 50.001 84.5
s56 54.166 100 77.499s95.667 40.666 155 51.999v265h249v-248c52.667 -1.33301 95.5 -4.83301 128.5 -10.5s74.167 -15.167 123.5 -28.5l41 -11l-68 -192l-38 9c-86.667 22.667 -171 34 -253 34c-79.333 0 -139.666 -10 -180.999 -30s-62 -42 -62 -66z" />
    <glyph glyph-name="percent" unicode="%" horiz-adv-x="1493" 
d="M411 1227c-64 0 -96 -44.333 -96 -133c0 -102 32.333 -153 97 -153c65.333 0 98 49.333 98 148c0 92 -33 138 -99 138zM412 1404c26.667 0 52.668 -2.49707 78.001 -7.49707s51.5 -14.833 78.5 -29.5s50.5 -33.167 70.5 -55.5s36.5 -52.333 49.5 -90
s19.5 -80.834 19.5 -129.501c0 -98.667 -28.167 -177.834 -84.5 -237.501s-127.166 -89.5 -212.499 -89.5c-36.667 0 -70.834 5.66699 -102.501 17s-60.834 29.166 -87.501 53.499s-47.667 58.5 -63 102.5s-23 95.667 -23 155c0 98.667 27 175.167 81 229.5
s119.333 81.5 196 81.5zM1136 486.003c-65.333 0 -98 -44.333 -98 -133c0 -102 33 -153 99 -153c64.667 0 97 49.333 97 148c0 92 -32.667 138 -98 138zM1137 664.003c26.667 0 52.167 -2.66699 76.5 -8s49 -15.333 74 -30s46.5 -33.5 64.5 -56.5s32.833 -53.167 44.5 -90.5
s17.5 -80 17.5 -128c0 -99.333 -26 -178.5 -78 -237.5s-118.667 -88.5 -200 -88.5c-38.667 0 -74.667 5.66699 -108 17s-64.5 29 -93.5 53s-51.833 58 -68.5 102s-25 95.667 -25 155c0 98 29.167 174.5 87.5 229.5s127.833 82.5 208.5 82.5zM1190 1421h271l-1104 -1421h-272
z" />
    <glyph glyph-name="ampersand" unicode="&#x26;" horiz-adv-x="1589" 
d="M1081 1175c0 -28.667 -3.66797 -56.666 -11.001 -83.999s-19.666 -54 -36.999 -80s-33.166 -48.167 -47.499 -66.5s-35.833 -40.333 -64.5 -66s-49.834 -44.167 -63.501 -55.5l-69.5 -55l288 -307l322 352l150 -152l-322 -359l322 -343h-315l-178 184
c-32 -30.667 -62.667 -57.334 -92 -80.001s-65.833 -46.667 -109.5 -72s-92.5 -44.833 -146.5 -58.5s-111 -20.5 -171 -20.5c-122.667 0 -219.5 35 -290.5 105s-106.5 158.333 -106.5 265c0 48 7.5 95 22.5 141s32.5 85.333 52.5 118s45.667 65.667 77 99
s57.333 58.833 78 76.5s45 37.167 73 58.5c-57.333 59.333 -101.833 115.333 -133.5 168s-47.5 112.667 -47.5 180c0 105.333 43.167 191.333 129.5 258s191.833 100 316.5 100c111.333 0 201.5 -29 270.5 -87s103.5 -131 103.5 -219zM689.999 1256
c-50 0 -92.5 -14.501 -127.5 -43.501s-52.5 -61.833 -52.5 -98.5c0 -9.33301 0.833008 -18.166 2.5 -26.499s5.16699 -17.333 10.5 -27s10 -17.667 14 -24s11 -15 21 -26l22.5 -25c5 -5.66699 14.5 -15.5 28.5 -29.5l30 -30c78.667 60 127 99.333 145 118
c32.667 33.333 49 66.333 49 99c0 29.333 -12.833 55.5 -38.5 78.5s-60.5 34.5 -104.5 34.5zM596.999 616c-28 -22 -50.001 -39.834 -66.001 -53.501s-34.333 -31 -55 -52s-36.5 -40 -47.5 -57s-20.5 -36.5 -28.5 -58.5s-12 -44.667 -12 -68
c0 -51.333 19.333 -95.166 58 -131.499s87.667 -54.5 147 -54.5c56 0 108.833 14.5 158.5 43.5s99.834 67.5 150.501 115.5z" />
    <glyph glyph-name="quotesingle" unicode="'" horiz-adv-x="405" 
d="M69 1552h267v-510h-267v510z" />
    <glyph glyph-name="parenleft" unicode="(" horiz-adv-x="742" 
d="M515 1602l204.003 -107.001l-22 -37c-75.333 -125.333 -137.666 -263.333 -186.999 -414s-74 -307.334 -74 -470.001c0 -161.333 24.833 -317.166 74.5 -467.499s111.834 -286.833 186.501 -409.5l21 -34l-198 -128l-22 36c-38.667 63.333 -74.834 129.333 -108.501 198
s-67.334 146.834 -101.001 234.501s-60.334 181.167 -80.001 280.5s-29.5 196.666 -29.5 291.999c0 94 9.66699 190 29 288s45.666 190.333 78.999 277s66.666 163.834 99.999 231.501s69.333 133.167 108 196.5z" />
    <glyph glyph-name="parenright" unicode=")" horiz-adv-x="742" 
d="M563 576c0 -96 -9.99805 -194.165 -29.998 -294.498s-47 -194.5 -81 -282.5s-67.667 -165.833 -101 -233.5s-69 -132.5 -107 -194.5l-22 -36l-198 128l21 34c74.667 122.667 136.834 259.167 186.501 409.5s74.5 306.166 74.5 467.499c0 162 -24.833 318.5 -74.5 469.5
s-111.834 289.167 -186.501 414.5l-22 37l204 107l20 -33c38.667 -63.333 74.667 -128.833 108 -196.5s66.666 -144.834 99.999 -231.501s59.666 -179 78.999 -277s29 -194 29 -288z" />
    <glyph glyph-name="asterisk" unicode="*" horiz-adv-x="1196" 
d="M470 1462h256l-15 -281l234 154l128 -223l-250 -125l250 -127l-128 -223l-234 154l15 -280h-256l15 280l-234 -154l-128 223l251 127l-251 125l128 223l234 -154z" />
    <glyph glyph-name="plus" unicode="+" horiz-adv-x="1400" 
d="M585 1274h230v-506h501v-220h-501v-506h-230v506h-501v220h501v506z" />
    <glyph glyph-name="comma" unicode="," horiz-adv-x="570" 
d="M172 211h269l-191 -472h-269z" />
    <glyph glyph-name="hyphen" unicode="-" horiz-adv-x="1210" 
d="M134 769h942v-221h-942v221z" />
    <glyph glyph-name="period" unicode="." horiz-adv-x="570" 
d="M139 251h292v-292h-292v292z" />
    <glyph glyph-name="slash" unicode="/" horiz-adv-x="726" 
d="M506 1462h257l-523 -1593h-257z" />
    <glyph glyph-name="zero" unicode="0" horiz-adv-x="1464" 
d="M731 1205c-32 0 -63.8301 -4.66504 -95.4971 -13.998s-64.334 -25.5 -98.001 -48.5s-63.167 -52 -88.5 -87s-46.166 -80.667 -62.499 -137s-24.5 -119.833 -24.5 -190.5c0 -76.667 8.16699 -145.667 24.5 -207s37.333 -110.833 63 -148.5s55.5 -69 89.5 -94
s67 -42.333 99 -52s64 -14.5 96 -14.5c31.333 0 63 4.83301 95 14.5s64.667 26.834 98 51.501s62.666 55.5 87.999 92.5s46.166 85.667 62.499 146s24.5 128.5 24.5 204.5c0 72 -8.16699 136.667 -24.5 194s-37.333 103.666 -63 138.999s-55.334 64.666 -89.001 87.999
s-66.5 39.666 -98.5 48.999s-64 14 -96 14zM731.003 1440c56 0 111.499 -6.83301 166.499 -20.5s110.5 -38 166.5 -73s104.833 -78.667 146.5 -131s75.834 -120.666 102.501 -204.999s40 -179.5 40 -285.5c0 -110.667 -13.167 -210 -39.5 -298
s-60.166 -159.333 -101.499 -214s-90 -100 -146 -136s-111.167 -61.167 -165.5 -75.5s-109.833 -21.5 -166.5 -21.5c-39.333 0 -78.666 3.66699 -117.999 11s-79.833 19.666 -121.5 36.999s-80.834 39 -117.501 65s-71.5 59 -104.5 99s-61.333 85 -85 135
s-42.334 109.167 -56.001 177.5s-20.5 142.5 -20.5 222.5c0 76 6.83301 146.667 20.5 212s32.334 122 56.001 170s52 91.167 85 129.5s67.667 69.833 104 94.5s75.166 45.167 116.499 61.5s81.5 28 120.5 35s78.167 10.5 117.5 10.5z" />
    <glyph glyph-name="one" unicode="1" horiz-adv-x="1464" 
d="M665 1421h288v-1190h344v-231h-992v231h359v942l-317 -108l-97 207z" />
    <glyph glyph-name="two" unicode="2" horiz-adv-x="1464" 
d="M236 131c26.667 78 61.8311 150.996 105.498 218.996s89.334 125.667 137.001 173s97.5 91.5 149.5 132.5s101 76.667 147 107s87.667 59 125 86s67 53.667 89 80s33 52.5 33 78.5c0 52 -31.167 97.5 -93.5 136.5s-138.5 58.5 -228.5 58.5
c-109.333 0 -241.666 -26.667 -396.999 -80l-38 -13l-77 206l36 16c156.667 66.667 327.667 100 513 100c166.667 0 299 -36.167 397 -108.5s147 -163.166 147 -272.499c0 -47.333 -9.5 -91.666 -28.5 -132.999s-45 -78.666 -78 -111.999s-70 -65.666 -111 -96.999
l-132 -97.5c-47 -33.667 -92.5 -68 -136.5 -103s-87.167 -76.5 -129.5 -124.5s-77.5 -98.333 -105.5 -151h747v-232h-1071v131z" />
    <glyph glyph-name="three" unicode="3" horiz-adv-x="1464" 
d="M238 1332c58 28.667 126.833 53.501 206.5 74.501s163.5 31.5 251.5 31.5c152.667 0 276.5 -33.333 371.5 -100s142.5 -152.667 142.5 -258c0 -61.333 -14 -118.166 -42 -170.499s-66.667 -95.166 -116 -128.499c75.333 -32.667 130.833 -77.834 166.5 -135.501
s53.5 -122.834 53.5 -195.501c0 -148.667 -58.833 -268.334 -176.5 -359.001s-274.167 -136 -469.5 -136c-147.333 0 -285.333 26.667 -414 80l-36 15l73 211l37 -10c141.333 -37.333 255.333 -56 342 -56c107.333 0 198.833 20.833 274.5 62.5s113.5 95.5 113.5 161.5
c0 20 -3.66699 39.333 -11 58s-21.666 38.334 -42.999 59.001s-48.833 38.667 -82.5 54s-79.834 28 -138.501 38s-126 15 -202 15h-47v228h47c62 0 117.5 4 166.5 12s88.167 18.167 117.5 30.5s53.5 26.833 72.5 43.5s32 32.667 39 48s10.5 31 10.5 47
c0 43.333 -25.333 79.166 -76 107.499s-116.667 42.5 -198 42.5c-108 0 -222 -26.333 -342 -79l-39 -18l-86 210z" />
    <glyph glyph-name="four" unicode="4" horiz-adv-x="1546" 
d="M755 1421h341v-886h248v-232h-248v-303h-246v303h-730v158zM819 535v574l-382 -574h382z" />
    <glyph glyph-name="five" unicode="5" horiz-adv-x="1464" 
d="M243 1421l1020 0.000976562v-232h-765v-260c68 5.33301 129.667 8 185 8c82.667 0 157.5 -7 224.5 -21s122.5 -33.333 166.5 -58s82 -52.167 114 -82.5s56.5 -63.5 73.5 -99.5s29.333 -70.333 37 -103s11.5 -65.667 11.5 -99c0 -30 -2.83301 -59.833 -8.5 -89.5
s-15.667 -61 -30 -94s-32.833 -64.167 -55.5 -93.5s-52.5 -57.5 -89.5 -84.5s-79 -50 -126 -69s-103.667 -34.333 -170 -46s-139.166 -17.5 -218.499 -17.5c-138.667 0 -271.334 12 -398.001 36l-41 8l49 232l40 -9c98.667 -20.667 210.334 -31 335.001 -31
c70.667 0 133.5 5.33301 188.5 16s98.5 24.334 130.5 41.001s58.333 36.167 79 58.5s34.667 43.666 42 63.999s11 41.166 11 62.499c0 20.667 -3.66699 41.167 -11 61.5s-21 41.833 -41 64.5s-45.5 42.5 -76.5 59.5s-72.333 31.167 -124 42.5s-110.5 17 -176.5 17
c-81.333 0 -191.333 -8 -330 -24l-46 -5v747z" />
    <glyph glyph-name="six" unicode="6" horiz-adv-x="1464" 
d="M1027 1432c38 0 81.3301 -2.33496 129.997 -7.00195l40 -4l-19 -230l-42 4c-34.667 4 -69.334 6 -104.001 6c-76 0 -144.333 -5.66699 -205 -17s-111 -26.333 -151 -45s-74.833 -41.5 -104.5 -68.5s-52.667 -54.167 -69 -81.5s-29.833 -57.666 -40.5 -90.999
c89.333 50 192 75 308 75c157.333 0 283.5 -43.833 378.5 -131.5s142.5 -201.167 142.5 -340.5c0 -71.333 -13.333 -138.833 -40 -202.5s-64.167 -119.5 -112.5 -167.5s-109 -86 -182 -114s-153.5 -42 -241.5 -42c-36 0 -70.667 2.33301 -104 7s-68.666 13 -105.999 25
s-71.666 27.667 -102.999 47s-61.666 45 -90.999 77s-54.166 68.5 -74.499 109.5s-36.666 90.833 -48.999 149.5s-18.5 123.334 -18.5 194.001c0 128.667 15.167 242.5 45.5 341.5s71.333 180 123 243s114.667 114.667 189 155s152.166 68.5 233.499 84.5s170.333 24 267 24
zM724.997 750.998c-86.667 0 -159.5 -24 -218.5 -72s-88.5 -109.333 -88.5 -184c0 -76.667 30.833 -145.5 92.5 -206.5s137.167 -91.5 226.5 -91.5c83.333 0 155.5 28.333 216.5 85s91.5 124 91.5 202c0 80 -31.667 144.5 -95 193.5s-138.333 73.5 -225 73.5z" />
    <glyph glyph-name="seven" unicode="7" horiz-adv-x="1464" 
d="M131 1421h1202v-149l-761 -1272h-290l724 1179h-875v242z" />
    <glyph glyph-name="eight" unicode="8" horiz-adv-x="1464" 
d="M724 1215c-66.667 0 -122.167 -16.167 -166.5 -48.5s-66.5 -69.166 -66.5 -110.499c0 -22.667 6.66699 -43.667 20 -63s28.833 -35.5 46.5 -48.5s41.167 -25.667 70.5 -38s54.5 -21.833 75.5 -28.5s46.5 -14 76.5 -22c72 40.667 122.833 74.5 152.5 101.5
s44.5 56.833 44.5 89.5c0 53.333 -24.333 94.666 -73 123.999s-108.667 44 -180 44zM1055 438c0 39.333 -9.16699 74.6719 -27.5 106.005s-45 58.166 -80 80.499s-72.167 41.166 -111.5 56.499s-85.333 29.666 -138 42.999c-90 -25.333 -161 -63.833 -213 -115.5
s-78 -105.834 -78 -162.501c0 -62.667 31 -117.334 93 -164.001s144.333 -70 247 -70c94 0 168.833 21.833 224.5 65.5s83.5 97.167 83.5 160.5zM724 1440.01c170.667 0 298.334 -32.334 383.001 -97.001s127 -154.667 127 -270c0 -54.667 -13.833 -104.334 -41.5 -149.001
s-68.834 -88 -123.501 -130c82.667 -44.667 144.167 -98.667 184.5 -162s60.5 -132.333 60.5 -207c0 -56.667 -12.333 -111.167 -37 -163.5s-60.167 -99.666 -106.5 -141.999s-107 -76.166 -182 -101.499s-158.5 -38 -250.5 -38c-170 0 -310.5 39.833 -421.5 119.5
s-166.5 182.167 -166.5 307.5c0 74 22 144.833 66 212.5s103 123.834 177 168.501c-60.667 41.333 -103 88 -127 140s-36 101.667 -36 149c0 103.333 44 189.666 132 258.999s208.667 104 362 104z" />
    <glyph glyph-name="nine" unicode="9" horiz-adv-x="1464" 
d="M750 1441c36 0 70.499 -2.33398 103.499 -7.00098s68 -13 105 -25s71.167 -27.833 102.5 -47.5s61.666 -45.5 90.999 -77.5s54.166 -68.667 74.499 -110s36.5 -91.5 48.5 -150.5s18 -124.167 18 -195.5c0 -92 -7.83301 -176.333 -23.5 -253s-37.5 -143.667 -65.5 -201
s-62.667 -108.333 -104 -153s-86 -81.667 -134 -111s-101.333 -53.5 -160 -72.5s-118.167 -32.5 -178.5 -40.5s-124.5 -12 -192.5 -12c-44.667 0 -88 2 -130 6l-40 4l19 230l42 -4c28 -3.33301 63 -5 105 -5c82 0 154.667 6.5 218 19.5s114.833 29.5 154.5 49.5
s73.334 45.667 101.001 77s48.334 62 62.001 92s24.834 64.333 33.501 103c-90.667 -49.333 -192.667 -74 -306 -74c-154.667 0 -280.5 42.833 -377.5 128.5s-145.5 194.834 -145.5 327.501c0 68 14 132.5 42 193.5s66.667 114.167 116 159.5s110.5 81.5 183.5 108.5
s152.167 40.5 237.5 40.5zM724.999 1219c-80.667 0 -152.167 -27.332 -214.5 -81.999s-93.5 -115.334 -93.5 -182.001c0 -69.333 32 -128.333 96 -177s138.667 -73 224 -73c84.667 0 157 23.5 217 70.5s90 103.167 90 168.5c0 66.667 -31.833 129.167 -95.5 187.5
s-138.167 87.5 -223.5 87.5z" />
    <glyph glyph-name="colon" unicode=":" horiz-adv-x="570" 
d="M139 251h292v-292h-292v292zM139 1034h292v-292h-292v292z" />
    <glyph glyph-name="semicolon" unicode=";" horiz-adv-x="570" 
d="M172 211h269l-191 -472h-269zM139 1034h292v-292h-292v292z" />
    <glyph glyph-name="less" unicode="&#x3c;" horiz-adv-x="1073" 
d="M1014 1194v-246l-647 -326l647 -311v-256l-955 452v217z" />
    <glyph glyph-name="equal" unicode="=" horiz-adv-x="1400" 
d="M179 542h1042v-232h-1042v232zM179 995h1042v-232h-1042v232z" />
    <glyph glyph-name="greater" unicode="&#x3e;" horiz-adv-x="1073" 
d="M59 1194l955 -470v-217l-955 -452v256l647 311l-647 326v246z" />
    <glyph glyph-name="question" unicode="?" horiz-adv-x="1046" 
d="M270 241h282v-282h-282v282zM917 1097c0 -57.333 -7.00098 -108.831 -21.001 -154.498s-32.167 -83.334 -54.5 -113.001s-47 -57 -74 -82l-81 -71.5c-27 -22.667 -51.667 -46.334 -74 -71.001s-40.5 -55 -54.5 -91s-21 -76.667 -21 -122v-41h-252v41
c0 60 7 114.333 21 163s32.333 89.167 55 121.5s47.667 62 75 89s54.833 51.333 82.5 73s52.834 43.167 75.501 64.5s41 46 55 74s21 58.667 21 92c0 16 -1.83301 31.333 -5.5 46s-11.5 30.667 -23.5 48s-27.667 32.333 -47 45s-46 23.334 -80 32.001s-73.333 13 -118 13
c-36.667 0 -76.834 -4.33301 -120.501 -13s-79.5 -19 -107.5 -31l-38 -16l-83 196l35 17c96.667 48 210.334 72 341.001 72c153.333 0 274 -32.333 362 -97s132 -159.334 132 -284.001z" />
    <glyph glyph-name="at" unicode="@" horiz-adv-x="2100" 
d="M1276 959l17.9971 49.9951h183v-757c0 -68.667 5.66699 -117.667 17 -147s35 -44 71 -44c12 0 25.333 3.66699 40 11s31 21.333 49 42s34.167 46.834 48.5 78.501s26.5 75.167 36.5 130.5s15 117.666 15 186.999c0 79.333 -5.83301 151.166 -17.5 215.499
s-32.5 126.5 -62.5 186.5s-69.167 110.333 -117.5 151s-111 73.167 -188 97.5s-166.5 36.5 -268.5 36.5c-79.333 0 -152.5 -8.83301 -219.5 -26.5s-124.333 -41.5 -172 -71.5s-90.334 -65.833 -128.001 -107.5s-68.167 -84.834 -91.5 -129.501s-42.666 -92.5 -57.999 -143.5
s-26 -99.167 -32 -144.5s-9 -90.666 -9 -135.999c0 -88 11.5 -169.333 34.5 -244s54.333 -138.5 94 -191.5s86.167 -98.333 139.5 -136s110.333 -65.5 171 -83.5s123.334 -27 188.001 -27c97.333 0 188.666 21 273.999 63l36 17l101 -190l-37 -19
c-122 -63.333 -255 -95 -399 -95c-44 0 -88.833 3 -134.5 9s-97.167 17.5 -154.5 34.5s-111.5 38.833 -162.5 65.5s-101.5 62.834 -151.5 108.501s-93 97.834 -129 156.501s-65 130.834 -87 216.501s-33 179.5 -33 281.5c0 71.333 4.5 140.5 13.5 207.5
s24.667 135.5 47 205.5s50.5 135 84.5 195s77.5 116.667 130.5 170s113.333 98.833 181 136.5s148 67.334 241 89.001s194.5 32.5 304.5 32.5c102 0 194.833 -9.66699 278.5 -29s154.834 -45.166 213.501 -77.499s110.334 -72.333 155.001 -120
s80.334 -97.167 107.001 -148.5s48.334 -108.5 65.001 -171.5s28 -123.167 34 -180.5s9 -118.333 9 -183c0 -79.333 -5.83301 -152.166 -17.5 -218.499s-27 -122.666 -46 -168.999s-41.667 -87.5 -68 -123.5s-53.333 -64.667 -81 -86s-56.834 -39 -87.501 -53
s-58.667 -23.5 -84 -28.5s-50.333 -7.5 -75 -7.5c-58 0 -110.5 13.833 -157.5 41.5s-83.167 65.5 -108.5 113.5c-80.667 -40 -164 -60 -250 -60c-136 0 -248.167 46.667 -336.5 140s-132.5 217.666 -132.5 372.999c0 162 45.5 294.333 136.5 397s210.167 154 357.5 154
c74.667 0 148.667 -14.667 222 -44zM1077 798.995c-84.667 0 -153.001 -28.332 -205.001 -84.999s-78 -136.334 -78 -239.001c0 -103.333 27 -183.333 81 -240s123 -85 207 -85c53.333 0 106 12 158 36v581c-57.333 21.333 -111.666 32 -162.999 32z" />
    <glyph glyph-name="A" unicode="A" horiz-adv-x="1547" 
d="M693 1421h276l562 -1421h-259l-159 372h-580l-159 -372h-244zM1025 603l-202 527l-203 -527h405z" />
    <glyph glyph-name="B" unicode="B" horiz-adv-x="1588" 
d="M775 1209l-233 0.00390625v-394c144.667 3.33301 245.667 10 303 20c138.667 25.333 212.667 83 222 173c0.666992 7.33301 1 14.666 1 21.999c0 21.333 -3.66699 41.166 -11 59.499s-20.5 37.166 -39.5 56.499s-49.167 34.666 -90.5 45.999s-92 17 -152 17zM791 655.004
c-5.33301 0 -88.333 -3.66699 -249 -11v-412h224c26.667 0 49.5 0.166992 68.5 0.5s45.167 1.83301 78.5 4.5s62 6.5 86 11.5s50.333 12.5 79 22.5s51.834 22 69.501 36s32.667 31.833 45 53.5s18.5 46.167 18.5 73.5c0 68.667 -37.833 122.667 -113.5 162
s-177.834 59 -306.501 59zM290 1421h541.998c60.667 0 116.167 -4.66699 166.5 -14s92.833 -21.5 127.5 -36.5s65.5 -33 92.5 -54s48.333 -42.333 64 -64s28.5 -44.667 38.5 -69s16.667 -46.333 20 -66s5 -39.167 5 -58.5c0 -45.333 -12.333 -91.333 -37 -138
s-55.667 -86 -93 -118c74.667 -30.667 134.5 -78.5 179.5 -143.5s67.5 -136.167 67.5 -213.5c0 -22 -2.16699 -44.5 -6.5 -67.5s-12.833 -49.5 -25.5 -79.5s-29.167 -58.5 -49.5 -85.5s-47.833 -53.833 -82.5 -80.5s-74.667 -49.5 -120 -68.5s-101.166 -34.5 -167.499 -46.5
s-139.166 -18 -218.499 -18h-503v1421z" />
    <glyph glyph-name="C" unicode="C" horiz-adv-x="1615" 
d="M1085 1431c149.333 0 291.002 -26.334 425.002 -79.001l37 -15l-79 -216l-38 13c-129.333 43.333 -246.333 65 -351 65c-82.667 0 -159.167 -13.5 -229.5 -40.5s-128.666 -63.167 -174.999 -108.5s-82.333 -97.333 -108 -156s-38.5 -120 -38.5 -184
c0 -66 13.833 -128.833 41.5 -188.5s66.334 -112 116.001 -157s112.167 -80.667 187.5 -107s157.666 -39.5 246.999 -39.5c109.333 0 218.666 19.333 327.999 58l37 13l82 -200l-37 -16c-144.667 -62 -297.334 -93 -458.001 -93c-124.667 0 -237.834 19 -339.501 57
s-185.5 90.167 -251.5 156.5s-116.833 143.5 -152.5 231.5s-53.5 182.667 -53.5 284c0 102.667 18.333 198 55 286s89 164.333 157 229s153.333 115.334 256 152.001s216.667 55 342 55z" />
    <glyph glyph-name="D" unicode="D" horiz-adv-x="1770" 
d="M809 1189h-259.002v-957h183c46 0 84 0.666992 114 2s69.333 6 118 14s90.167 19.167 124.5 33.5s70 36 107 65s67.833 64.167 92.5 105.5c45.333 76 68 165 68 267c0 58.667 -8.16699 112.667 -24.5 162s-38 90.833 -65 124.5s-58.667 63.167 -95 88.5
s-73.166 45 -110.499 59s-75.666 23.667 -114.999 29c-33.333 4.66699 -79.333 7 -138 7zM801.998 1421c89.333 0 171.667 -6.99902 247 -20.999s140.333 -33 195 -57s103.334 -53 146.001 -87s77.667 -70.333 105 -109s49.833 -80.667 67.5 -126s30 -89.833 37 -133.5
s10.5 -88.834 10.5 -135.501c0 -61.333 -5 -120.5 -15 -177.5s-27.667 -115 -53 -174s-57.833 -112 -97.5 -159s-91.334 -89.333 -155.001 -127s-136.5 -65.5 -218.5 -83.5c-42 -9.33301 -88.667 -16.5 -140 -21.5s-93.5 -7.83301 -126.5 -8.5s-79.167 -1 -138.5 -1h-368
v1421h504z" />
    <glyph glyph-name="E" unicode="E" horiz-adv-x="1447" 
d="M290 0v1421h997v-232h-744v-341h689v-232h-689v-384h744v-232h-997z" />
    <glyph glyph-name="F" unicode="F" horiz-adv-x="1412" 
d="M543 1189v-341h674v-232h-674v-616h-253v1421h987v-232h-734z" />
    <glyph glyph-name="G" unicode="G" horiz-adv-x="1755" 
d="M1605 206c-138 -150.667 -335.336 -225.999 -592.003 -225.999c-109.333 0 -209.166 14.167 -299.499 42.5s-165.833 66 -226.5 113s-111.834 102.167 -153.501 165.5s-71.834 129.166 -90.501 197.499s-28 138.5 -28 210.5c0 75.333 10.333 148 31 218
s52.834 135.667 96.501 197s96.334 114.833 158.001 160.5s136.167 81.667 223.5 108s182.666 39.5 285.999 39.5c188.667 0 358.334 -42 509.001 -126l35 -20l-105 -198l-36 19c-47.333 24 -106.666 45.5 -177.999 64.5s-143 28.5 -215 28.5c-70.667 0 -139 -11 -205 -33
s-124.833 -53 -176.5 -93s-93 -90.833 -124 -152.5s-46.5 -129.167 -46.5 -202.5c0 -96.667 25.333 -183.667 76 -261s120.834 -137.5 210.501 -180.5s190.5 -64.5 302.5 -64.5c122.667 0 223 27.667 301 83v273h-445v222h692v-585z" />
    <glyph glyph-name="H" unicode="H" horiz-adv-x="1764" 
d="M1302 1421h252v-1421h-252v617h-760v-617h-252v1421h252v-572h760v572z" />
    <glyph glyph-name="I" unicode="I" horiz-adv-x="812" 
d="M320 1421h252v-1421h-252v1421z" />
    <glyph glyph-name="J" unicode="J" horiz-adv-x="1117" 
d="M662 1421l251.998 -0.00195312v-910c0 -36 -1.5 -69.333 -4.5 -100s-9.33301 -64.5 -19 -101.5s-22.5 -70.333 -38.5 -100s-38.333 -59.167 -67 -88.5s-62.167 -53.666 -100.5 -72.999s-85.666 -35 -141.999 -47s-119.166 -18 -188.499 -18
c-71.333 0 -140 8.33301 -206 25l-38 10l42 222l42 -10c42 -10 86 -15 132 -15c44 0 83.833 4.16699 119.5 12.5s65 18.666 88 30.999s43 27.833 60 46.5s29.667 36.334 38 53.001s15 35.834 20 57.501s8 39.167 9 52.5s1.5 28.333 1.5 45v908z" />
    <glyph glyph-name="K" unicode="K" horiz-adv-x="1581" 
d="M542 770l648 651h323l-683 -680l719 -741h-327l-680 688v-688h-252v1421h252v-651z" />
    <glyph glyph-name="L" unicode="L" horiz-adv-x="1297" 
d="M290 1421h252v-1190h720v-231h-972v1421z" />
    <glyph glyph-name="M" unicode="M" horiz-adv-x="2048" 
d="M290 1421h306l472 -816l479 816h291v-1421h-252v1063l-404 -656h-238l-402 656v-1063h-252v1421z" />
    <glyph glyph-name="N" unicode="N" horiz-adv-x="1823" 
d="M290 1421h278l793 -1092v1092h252v-1421h-281l-790 1094v-1094h-252v1421z" />
    <glyph glyph-name="O" unicode="O" horiz-adv-x="1850" 
d="M966 1436c144.667 0 273.333 -28.332 386 -84.999s201.334 -139.167 266.001 -247.5s97 -234.166 97 -377.499c0 -145.333 -31.667 -274.166 -95 -386.499s-152.333 -199.5 -267 -261.5s-246.334 -93 -395.001 -93c-98 0 -191 15.167 -279 45.5
s-166.833 74.666 -236.5 132.999s-125 134.166 -166 227.499s-61.5 198.666 -61.5 315.999c0 146 32 274.5 96 385.5s152.667 196 266 255s243 88.5 389 88.5zM955.999 1205c-48 0 -94.667 -5.8291 -140 -17.4961s-88.833 -30 -130.5 -55s-78.167 -55.833 -109.5 -92.5
s-56.333 -81.834 -75 -135.501s-28 -112.834 -28 -177.501c0 -154 47.667 -277.667 143 -371s214.333 -140 357 -140c59.333 0 116.833 9.66699 172.5 29s107.167 48 154.5 86s85.333 89.667 114 155s43 139.666 43 222.999c0 68 -10 130.167 -30 186.5
s-46.5 103.166 -79.5 140.499s-71.333 69 -115 95s-88.667 44.833 -135 56.5s-93.5 17.5 -141.5 17.5z" />
    <glyph glyph-name="P" unicode="P" horiz-adv-x="1503" 
d="M290 1421l510.001 0.00195312c29.333 0 54.333 -0.166992 75 -0.5s48.167 -1.83301 82.5 -4.5s64 -6.5 89 -11.5s53.667 -12.167 86 -21.5s60 -20.5 83 -33.5s46.667 -29.833 71 -50.5s43.833 -43.834 58.5 -69.501s26.834 -56.167 36.501 -91.5s14.5 -74.333 14.5 -117
c0 -60 -7.83301 -114 -23.5 -162s-36 -88.333 -61 -121s-57 -60.834 -96 -84.501s-78.333 -42.167 -118 -55.5s-85.834 -23.833 -138.501 -31.5s-100.834 -12.667 -144.501 -15s-93.5 -3.5 -149.5 -3.5c-27.333 0 -68.333 1.33301 -123 4v-552h-252v1421zM542.001 1189
v-405.002c52 -3.33301 99 -5 141 -5c45.333 0 84.5 0.833008 117.5 2.5s68.333 4.83398 106 9.50098s69.334 12 95.001 22s49.5 22.667 71.5 38s38.5 35 49.5 59s16.5 52 16.5 84c0 28.667 -4.66699 53.834 -14 75.501s-23.5 39.334 -42.5 53.001s-39.667 25.167 -62 34.5
s-49.333 16.166 -81 20.499s-61.834 7.33301 -90.501 9s-62 2.5 -100 2.5h-207z" />
    <glyph glyph-name="Q" unicode="Q" horiz-adv-x="1870" 
d="M966 1436c227.333 0 409.002 -66 545.002 -198s204 -308.333 204 -529c0 -182 -45.667 -335.667 -137 -461l184 -173l-147 -148l-200 182c-127.333 -82.667 -276.333 -124 -447 -124c-106.667 0 -205.834 16.333 -297.501 49s-171.334 79 -239.001 139
s-120.667 135.667 -159 227s-57.5 193 -57.5 305c0 147.333 31.833 276.5 95.5 387.5s152.167 196 265.5 255s243.333 88.5 390 88.5zM951.002 1205c-46 0 -91.1689 -5.66699 -135.502 -17s-87.333 -29.5 -129 -54.5s-78.167 -55.667 -109.5 -92s-56.5 -82 -75.5 -137
s-28.5 -115.5 -28.5 -181.5c0 -81.333 14 -154.5 42 -219.5s65.833 -118.167 113.5 -159.5s102.5 -73 164.5 -95s127.667 -33 197 -33c86.667 0 165.334 17.667 236.001 53l-334 269l177 155l322 -271c41.333 70.667 62 159 62 265c0 79.333 -11.167 150 -33.5 212
s-50.666 111.667 -84.999 149s-74.5 68.333 -120.5 93s-90.333 41.5 -133 50.5s-86 13.5 -130 13.5z" />
    <glyph glyph-name="R" unicode="R" horiz-adv-x="1601" 
d="M1391 1014c0 -45.333 -5.50391 -88.498 -16.5039 -129.498s-28.333 -80.5 -52 -118.5s-56 -72 -97 -102s-89.5 -53.333 -145.5 -70l429 -594h-328l-398 551h-241v-551h-252v1421h605c30 0 57.5 -0.833008 82.5 -2.5s55.333 -5.66699 91 -12s67.334 -14.833 95.001 -25.5
s56.334 -26.334 86.001 -47.001s54.334 -44.834 74.001 -72.501s35.834 -62.667 48.501 -105s19 -89.833 19 -142.5zM541.996 1190l-0.000976562 -407h232c40 0 75.333 1.33301 106 4s62.334 8.16699 95.001 16.5s59.5 19.833 80.5 34.5s38.333 35 52 61
s20.5 56.667 20.5 92c0 132.667 -102.333 199 -307 199h-279z" />
    <glyph glyph-name="S" unicode="S" horiz-adv-x="1525" 
d="M927 1434c132.667 0 263.667 -19.668 393 -59.001l41 -12l-82 -232l-38 11c-120.667 33.333 -230.667 50 -330 50c-98 0 -181.833 -16 -251.5 -48s-104.5 -73 -104.5 -123c0 -32.667 15.5 -61.334 46.5 -86.001s71.167 -45.5 120.5 -62.5s103.833 -33.833 163.5 -50.5
s119.5 -36 179.5 -58s114.667 -47.333 164 -76s89.5 -66.834 120.5 -114.501s46.5 -102.5 46.5 -164.5c0 -40 -6.83301 -79.5 -20.5 -118.5s-36.667 -77.5 -69 -115.5s-72.333 -71.167 -120 -99.5s-108.334 -51.333 -182.001 -69s-156.167 -26.5 -247.5 -26.5
s-173.666 8.5 -246.999 25.5s-151 41.5 -233 73.5l-37 14l85 242l39 -15c168.667 -60 307.667 -90 417 -90c102.667 0 185.834 15.667 249.501 47s95.5 72.666 95.5 123.999c0 28.667 -9.66699 54.334 -29 77.001s-45.333 41.834 -78 57.501s-70.167 30.167 -112.5 43.5
s-86.833 26.333 -133.5 39s-93.334 26.334 -140.001 41.001s-91.167 32.334 -133.5 53.001s-79.833 44 -112.5 70s-58.667 58.5 -78 97.5s-29 82.5 -29 130.5c0 120 58.833 220.667 176.5 302s274.5 122 470.5 122z" />
    <glyph glyph-name="T" unicode="T" horiz-adv-x="1374" 
d="M85 1421h1284v-232h-516v-1189h-252v1189h-516v232z" />
    <glyph glyph-name="U" unicode="U" horiz-adv-x="1737" 
d="M909 -20c-377.333 0 -582.001 132.003 -614.001 396.003c-3.33301 28.667 -5 65 -5 109v13v923h252v-901c0 -50 4.83301 -91.833 14.5 -125.5s29.167 -64.5 58.5 -92.5c64.667 -62 162.667 -93 294 -93c94 0 172 16.667 234 50s101.667 80.333 119 141
c8.66699 29.333 13 69.333 13 120v901h250c0 -208 0.166992 -378.167 0.5 -510.5s0.5 -217 0.5 -254s0.166992 -66.833 0.5 -89.5s0.5 -41.334 0.5 -56.001c0 -31.333 -0.833008 -59.5 -2.5 -84.5s-7 -56.833 -16 -95.5s-21.333 -72.834 -37 -102.501
s-39 -60.834 -70 -93.501s-67.667 -59.667 -110 -81s-96.166 -39 -161.499 -53s-139 -21 -221 -21z" />
    <glyph glyph-name="V" unicode="V" horiz-adv-x="1565" 
d="M140 1421h289l418 -1150l417 1150h274l-550 -1421h-299z" />
    <glyph glyph-name="W" unicode="W" horiz-adv-x="2411" 
d="M140 1421h266l327 -1092l411 1092h232l338 -1092l400 1092h266l-545 -1421h-241l-342 1087l-402 -1087h-241z" />
    <glyph glyph-name="X" unicode="X" horiz-adv-x="1532" 
d="M1225 1421h295l-500 -677l555 -744h-319l-418 566l-418 -566h-310l563 741l-501 680h304l381 -502z" />
    <glyph glyph-name="Y" unicode="Y" horiz-adv-x="1427" 
d="M100 1421h298l380 -551l388 551h288l-545 -757v-664h-283v664z" />
    <glyph glyph-name="Z" unicode="Z" horiz-adv-x="1522" 
d="M185 1421h1250v-153l-918 -1036h945v-232h-1307v155l897 1034h-867v232z" />
    <glyph glyph-name="bracketleft" unicode="[" horiz-adv-x="788" 
d="M209 1552h540v-231h-294v-1541h294v-231h-540v2003z" />
    <glyph glyph-name="backslash" unicode="\" horiz-adv-x="726" 
d="M-37 1462h257l523 -1593h-257z" />
    <glyph glyph-name="bracketright" unicode="]" horiz-adv-x="778" 
d="M39 1552h540v-2003h-540v231h294v1541h-294v231z" />
    <glyph glyph-name="asciicircum" unicode="^" horiz-adv-x="1479" 
d="M726 1601l312 -348l-152 -145l-174 194l-178 -193l-150 135z" />
    <glyph glyph-name="underscore" unicode="_" horiz-adv-x="1160" 
d="M109 191h942v-232h-942v232z" />
    <glyph glyph-name="grave" unicode="`" horiz-adv-x="1122" 
d="M331 1643l574 -353l-104 -178l-583 336z" />
    <glyph glyph-name="a" unicode="a" horiz-adv-x="1233" 
d="M597 1007c72 0 135.166 -6.50195 189.499 -19.502s98.166 -30.167 131.499 -51.5s60.333 -48 81 -80s34.834 -64.5 42.501 -97.5s11.5 -69.833 11.5 -110.5v-648h-184l-28 65c-88.667 -56.667 -189.667 -85 -303 -85c-123.333 0 -223.333 29 -300 87
s-115 126.667 -115 206c0 49.333 12.5 92.333 37.5 129s57.833 66 98.5 88s91.667 40 153 54s122.833 23.667 184.5 29s131.5 8.33301 209.5 9v34c0 25.333 -2.16699 46.333 -6.5 63s-13.833 34.334 -28.5 53.001s-39.167 32.834 -73.5 42.501s-78.166 14.5 -131.499 14.5
c-74.667 0 -173.667 -14.667 -297 -44l-40 -11l-51 197l35 12c123.333 42.667 251.333 64 384 64zM805.999 254.998l0.000976562 141h-24c-134.667 0 -234.834 -8 -300.501 -24s-98.5 -43 -98.5 -81c0 -24 20 -46.667 60 -68s89 -32 147 -32c82 0 154 21.333 216 64z" />
    <glyph glyph-name="b" unicode="b" horiz-adv-x="1347" 
d="M190 1511l246 0.000976562v-547c86 29.333 173.667 44 263 44c50.667 0 99.5 -4.83301 146.5 -14.5s93.5 -26.834 139.5 -51.501s85.833 -55.5 119.5 -92.5s61 -85 82 -144s31.5 -125.833 31.5 -200.5c0 -164 -49.667 -292.5 -149 -385.5s-234 -139.5 -404 -139.5
c-100.667 0 -193.667 17.333 -279 52l-14 -32h-182v1511zM633 790.001c-66 0 -131.669 -11.001 -197.002 -33.001v-537c67.333 -19.333 134.333 -29 201 -29c30.667 0 60.334 2.33301 89.001 7s58.5 13.5 89.5 26.5s58 29.833 81 50.5s42 48.5 57 83.5
s22.5 75.167 22.5 120.5c0 50 -7.66699 94.333 -23 133s-34.666 68.834 -57.999 90.501s-51 39.5 -83 53.5s-62.167 23.167 -90.5 27.5s-57.833 6.5 -88.5 6.5z" />
    <glyph glyph-name="c" unicode="c" horiz-adv-x="1165" 
d="M130 473c0 78 10.6699 147.833 32.0029 209.5s50.166 112.334 86.499 152.001s79.666 72.667 129.999 99s103 45 158 56s113.833 16.5 176.5 16.5c112.667 0 216.667 -20.667 312 -62l35 -15l-65 -195l-39 13c-68.667 24 -141.334 36 -218.001 36
c-50 0 -95.5 -4.33301 -136.5 -13s-79.5 -22.834 -115.5 -42.501s-64.167 -48.5 -84.5 -86.5s-30.5 -83.667 -30.5 -137c0 -204.667 129.667 -307 389 -307c64.667 0 126 10.333 184 31l39 13l67 -189l-37 -14c-100 -38.667 -207.667 -58 -323 -58
c-59.333 0 -114.833 4.66699 -166.5 14s-102.167 25.833 -151.5 49.5s-91.5 53.667 -126.5 90s-63 83.5 -84 141.5s-31.5 124 -31.5 198z" />
    <glyph glyph-name="d" unicode="d" horiz-adv-x="1352" 
d="M130 478c0 169.333 50.166 300 150.499 392s234.5 138 402.5 138c78 0 155.667 -11.333 233 -34v537h246v-1511h-182l-20 46c-96.667 -44 -200 -66 -310 -66c-52 0 -102 5.16699 -150 15.5s-94.833 27.833 -140.5 52.5s-85.167 55.5 -118.5 92.5
s-60.166 84.5 -80.499 142.5s-30.5 123 -30.5 195zM712.999 197c69.333 0 136.999 11.668 202.999 35.001v535c-70.667 20 -139 30 -205 30c-30 0 -59 -2.16699 -87 -6.5s-57.833 -13 -89.5 -26s-59 -29.833 -82 -50.5s-42.167 -49.334 -57.5 -86.001s-23 -78.667 -23 -126
c0 -48 7.5 -90.667 22.5 -128s34.167 -66.833 57.5 -88.5s50.833 -39.5 82.5 -53.5s61.834 -23.333 90.501 -28s58 -7 88 -7z" />
    <glyph glyph-name="e" unicode="e" horiz-adv-x="1266" 
d="M702 1007c57.333 0 108.833 -6.16406 154.5 -18.4971s83.334 -28 113.001 -47s55.334 -43.667 77.001 -74s38.167 -59.333 49.5 -87s20.166 -60.834 26.499 -99.501s10.166 -71.334 11.499 -98.001s2 -58.334 2 -95.001v-112h-743
c14 -49.333 53.667 -92.166 119 -128.499s151.333 -54.5 258 -54.5c75.333 0 152 11.333 230 34l41 12l49 -190l-36 -12c-111.333 -38 -230 -57 -356 -57c-88 0 -166 9.66699 -234 29s-122.5 44.333 -163.5 75s-74.667 67.667 -101 111s-44.5 86.666 -54.5 129.999
s-15 89.666 -15 138.999c0 73.333 10.5 140.5 31.5 201.5s49.667 112.333 86 154s79 76.834 128 105.501s100.833 49.5 155.5 62.5s111.667 19.5 171 19.5zM661 783.003c-76.667 0 -138 -19.168 -184 -57.501s-73.333 -86.166 -82 -143.499h499
c-5.33301 72 -28 123.5 -68 154.5s-95 46.5 -165 46.5z" />
    <glyph glyph-name="f" unicode="f" horiz-adv-x="984" 
d="M298 1047c0 22 0.168945 39.668 0.501953 53.001s1.83301 31.666 4.5 54.999s6.5 42.666 11.5 57.999s12.333 33.5 22 54.5s21.334 38.333 35.001 52s31.167 28 52.5 43s45.666 27 72.999 36s59.666 16.333 96.999 22s78.666 8.5 123.999 8.5
c83.333 0 170.666 -13.667 261.999 -41l36 -11l-41 -200l-42 10c-63.333 15.333 -112.666 23 -147.999 23c-82 0 -142.667 -13.667 -182 -41s-59 -65.666 -59 -114.999v-66h395v-211h-395v-777h-246v777h-163v211h163v59z" />
    <glyph glyph-name="g" unicode="g" horiz-adv-x="1340" 
d="M679 1008c86.667 0 180.336 -21.001 281.003 -63.001l15 43h185v-1009c0 -35.333 -2.33301 -69.5 -7 -102.5s-13 -67.167 -25 -102.5s-27.333 -68 -46 -98s-42.834 -58.667 -72.501 -86s-63.834 -50.5 -102.501 -69.5s-84.834 -34 -138.501 -45
s-112.834 -16.5 -177.501 -16.5c-126.667 0 -247.334 22.333 -362.001 67l-37 16l75 194l41 -15c87.333 -28.667 173.333 -43 258 -43c58.667 0 109.5 6.83301 152.5 20.5s76.833 31 101.5 52s44.334 47.167 59.001 78.5s24.167 61.5 28.5 90.5s6.5 61.167 6.5 96.5v9
c-84 -30 -168.333 -45 -253 -45c-53.333 0 -104.666 5.5 -153.999 16.5s-97.333 29.5 -144 55.5s-87.167 58.167 -121.5 96.5s-61.833 86.833 -82.5 145.5s-31 124.334 -31 197.001c0 75.333 12.167 143.333 36.5 204s55.666 110 93.999 148s82.5 69.833 132.5 95.5
s98.833 43.667 146.5 54s94.834 15.5 141.501 15.5zM691.002 792.999c-93.333 0 -168.168 -25.832 -224.501 -77.499s-84.5 -120.834 -84.5 -207.501c0 -90.667 28.667 -165.167 86 -223.5s139.333 -87.5 246 -87.5c66.667 0 133.334 12 200.001 36v522
c-86.667 25.333 -161 38 -223 38z" />
    <glyph glyph-name="h" unicode="h" 
d="M696 778c-76.667 0 -163.333 -18.333 -260 -55v-723h-246v1511h246v-574c120 46 231.667 69 335 69c52 0 98.667 -5.83301 140 -17.5s75.333 -26.167 102 -43.5s49.667 -39.5 69 -66.5s34 -52.667 44 -77s17.833 -52.833 23.5 -85.5s9 -59.5 10 -80.5
s1.5 -45.5 1.5 -73.5v-562h-244v577c0 134 -73.667 201 -221 201z" />
    <glyph glyph-name="i" unicode="i" horiz-adv-x="606" 
d="M165 1421h276v-271h-276v271zM180 988h246v-988h-246v988z" />
    <glyph glyph-name="j" unicode="j" horiz-adv-x="606" 
d="M179 1421h276v-271h-276v271zM194 988l245.998 0.000976562v-1084c0 -22.667 -0.333008 -42.334 -1 -59.001s-3.16699 -38.167 -7.5 -64.5s-10.166 -49.666 -17.499 -69.999s-18.166 -42.833 -32.499 -67.5s-31.5 -46.834 -51.5 -66.501s-45.5 -39.167 -76.5 -58.5
s-65.833 -36 -104.5 -50l-34 -12l-97 194l38 18c92 43.333 138 116.333 138 219v1101z" />
    <glyph glyph-name="k" unicode="k" horiz-adv-x="1237" 
d="M426 591l474 417h297l-510 -452l525 -556h-302l-484 492v-492h-246v1511h246v-920z" />
    <glyph glyph-name="l" unicode="l" horiz-adv-x="646" 
d="M200 1511h246v-1511h-246v1511z" />
    <glyph glyph-name="m" unicode="m" horiz-adv-x="1980" 
d="M660 774c-57.333 0 -135.335 -17.999 -234.002 -53.999v-720h-246v988h183l28 -65c118 56 234.333 84 349 84s204.334 -33 269.001 -99c124 65.333 256.333 98 397 98c61.333 0 115.333 -7.33301 162 -22s84.167 -34.334 112.5 -59.001s51.333 -55.5 69 -92.5
s29.834 -75 36.501 -114s10 -83.167 10 -132.5v-586h-246v583c0 62.667 -16.5 110.167 -49.5 142.5s-86.167 48.5 -159.5 48.5c-62 0 -142 -18 -240 -54c6 -34.667 9 -81.667 9 -141v-579h-246v587c0 124.667 -68 187 -204 187z" />
    <glyph glyph-name="n" unicode="n" horiz-adv-x="1326" 
d="M180 988l171.997 -0.000976562l34 -68c137.333 58.667 265 88 383 88c64 0 119.333 -8.66699 166 -26s83.334 -39 110.001 -65s47.834 -58.833 63.501 -98.5s25.834 -77.5 30.501 -113.5s7 -76.667 7 -122v-583h-246v580c0 18.667 -0.833008 34.834 -2.5 48.501
s-6.5 30.667 -14.5 51s-19 37 -33 50s-35.167 24.333 -63.5 34s-61.833 14.5 -100.5 14.5c-78 0 -164.667 -18.333 -260 -55v-723h-246v988z" />
    <glyph glyph-name="o" unicode="o" horiz-adv-x="1375" 
d="M694 1007c165.333 0 298.5 -43.501 399.5 -130.501s151.5 -208.5 151.5 -364.5c0 -164 -51.5 -293.667 -154.5 -389s-241.5 -143 -415.5 -143c-165.333 0 -297.5 44.833 -396.5 134.5s-148.5 212.834 -148.5 369.501c0 160.667 50.5 288 151.5 382s238.5 141 412.5 141z
M678 784.999c-51.333 0 -99.668 -9.66895 -145.001 -29.002s-83.5 -50.666 -114.5 -93.999s-46.5 -94.333 -46.5 -153c0 -86.667 30 -159.5 90 -218.5s138 -88.5 234 -88.5c87.333 0 160.333 25.667 219 77s88 119.333 88 204c0 48.667 -9.66699 92.834 -29 132.501
s-44.666 71.5 -75.999 95.5s-66 42.333 -104 55s-76.667 19 -116 19z" />
    <glyph glyph-name="p" unicode="p" 
d="M699 1007c50 0 98.334 -5 145.001 -15s92.667 -27.167 138 -51.5s84.666 -55 117.999 -92s60.333 -85 81 -144s31 -125.833 31 -200.5c0 -163.333 -49.333 -291.5 -148 -384.5s-231.667 -139.5 -399 -139.5c-78 0 -154.333 11.333 -229 34v-545h-256v1519h182l23 -47
c102 44 206.667 66 314 66zM634.001 789c-66 0 -132.002 -11.667 -198.002 -35v-533c69.333 -20 136.333 -30 201 -30c30 0 59 2.33301 87 7s57.333 13.5 88 26.5s57.334 29.833 80.001 50.5s41.334 48.5 56.001 83.5s22 75.167 22 120.5c0 50 -7.5 94.167 -22.5 132.5
s-33.833 68.333 -56.5 90s-49.667 39.5 -81 53.5s-61 23.167 -89 27.5s-57 6.5 -87 6.5z" />
    <glyph glyph-name="q" unicode="q" horiz-adv-x="1330" 
d="M668 1008c86.667 0 182.998 -21.0039 288.998 -63.0039l18 43h175v-1519h-246v557c-87.333 -30.667 -174.666 -46 -261.999 -46c-51.333 0 -100.666 5.16699 -147.999 15.5s-93.5 27.833 -138.5 52.5s-84 55.834 -117 93.501s-59.667 86.167 -80 145.5
s-30.5 126.333 -30.5 201c0 84.667 14.833 160.834 44.5 228.501s69.667 122.334 120 164.001s107.5 73.334 171.5 95.001s132 32.5 204 32.5zM679.998 792.996c-94 0 -169.167 -25.833 -225.5 -77.5s-84.5 -122.5 -84.5 -212.5c0 -48 7.5 -90.667 22.5 -128
s33.833 -66.833 56.5 -88.5s49.5 -39.5 80.5 -53.5s60.667 -23.333 89 -28s57.5 -7 87.5 -7c66 0 132 11.667 198 35v522c-88 25.333 -162.667 38 -224 38z" />
    <glyph glyph-name="r" unicode="r" horiz-adv-x="947" 
d="M373 935c104 48 215.001 72 333.001 72c75.333 0 144 -14.333 206 -43l35 -16l-78 -205l-39 15c-46.667 18 -97.334 27 -152.001 27c-87.333 0 -171.333 -15.667 -252 -47v-738h-246v988h164z" />
    <glyph glyph-name="s" unicode="s" horiz-adv-x="1180" 
d="M807 295c-1.33301 16.667 -14.1719 31.3359 -38.5049 44.0029s-55.5 24 -93.5 34s-79.667 20.333 -125 31s-90.5 23.834 -135.5 39.501s-86.167 34 -123.5 55s-67.666 48.667 -90.999 83s-35 73.5 -35 117.5c0 26 4.83301 52.167 14.5 78.5s27.167 53.666 52.5 81.999
s57.333 53.166 96 74.499s90.334 38.833 155.001 52.5s137.667 20.5 219 20.5c48 0 91.333 -2.5 130 -7.5s66 -9.5 82 -13.5s40.333 -11 73 -21l41 -12l-68 -202l-38 10c-86.667 24 -171 36 -253 36c-41.333 0 -77.666 -2.83301 -108.999 -8.5
s-55.166 -12.334 -71.499 -20.001s-29.5 -16.667 -39.5 -27s-16.333 -19 -19 -26s-4 -13.5 -4 -19.5c0 -15.333 11.833 -29.333 35.5 -42s54.5 -24.167 92.5 -34.5l125.5 -33c45.667 -11.667 91.5 -25.834 137.5 -42.501s88 -35.667 126 -57s68.833 -48.666 92.5 -81.999
s35.5 -70.666 35.5 -111.999c0 -28.667 -4.16699 -56.334 -12.5 -83.001s-24.333 -54.334 -48 -83.001s-54.167 -53.5 -91.5 -74.5s-87.666 -38.333 -150.999 -52s-136 -20.5 -218 -20.5c-128 0 -255.667 26 -383 78l-37 15l74 200l38 -15c119.333 -44.667 225 -67 317 -67
c85.333 0 148 8.5 188 25.5s60 43.167 60 78.5z" />
    <glyph glyph-name="t" unicode="t" horiz-adv-x="939" 
d="M838 18c-98 -25.333 -180.001 -38.001 -246.001 -38.001c-63.333 0 -117.833 6.33301 -163.5 19s-81.5 28.834 -107.5 48.501s-46.5 45 -61.5 76s-24.833 61.167 -29.5 90.5s-7 63.666 -7 102.999v460h-153v211h153v283h246v-283h363v-211h-363v-443
c0 -16.667 2.83301 -32.667 8.5 -48s14.834 -30.666 27.501 -45.999s31.667 -27.5 57 -36.5s55.333 -13.5 90 -13.5c18 0 66.667 6.66699 146 20l39 7l39 -189z" />
    <glyph glyph-name="u" unicode="u" 
d="M915 988l246 -0.00195312v-988h-183l-29 67c-134 -58 -263 -87 -387 -87c-64.667 0 -120.667 8.5 -168 25.5s-84.5 38.667 -111.5 65s-48.5 59.166 -64.5 98.499s-26.333 77 -31 113s-7 76.667 -7 122v584h246v-582c0 -17.333 0.833008 -32.666 2.5 -45.999
s6.5 -30.166 14.5 -50.499s19.333 -37.166 34 -50.499s36.667 -25 66 -35s64 -15 104 -15c80 0 169.333 18.333 268 55v724z" />
    <glyph glyph-name="v" unicode="v" horiz-adv-x="1157" 
d="M1126 988l-389 -988h-265l-407 988h284l262 -728l257 728h258z" />
    <glyph glyph-name="w" unicode="w" horiz-adv-x="1931" 
d="M60 988h263l237 -733l307 733h221l234 -735l320 735h264l-473 -988h-224l-233 710l-312 -710h-224z" />
    <glyph glyph-name="x" unicode="x" horiz-adv-x="1220" 
d="M65 988h291l299 -361l288 361h277l-408 -503l388 -485h-291l-285 340l-271 -340h-276l392 486z" />
    <glyph glyph-name="y" unicode="y" horiz-adv-x="1224" 
d="M50 988h282l325 -759l296 759h259l-642 -1519h-300l244 523z" />
    <glyph glyph-name="z" unicode="z" horiz-adv-x="1242" 
d="M150 988h917v-127l-565 -650h590v-211h-942v127l557 650h-557v211z" />
    <glyph glyph-name="braceleft" unicode="{" horiz-adv-x="828" 
d="M292 921c2.66699 20 5.49707 50.5029 8.49707 91.5029s4.83301 64.833 5.5 71.5c6.66699 74 22 139.667 46 197s50.5 102 79.5 134s62.167 58.667 99.5 80s69.666 35.666 96.999 42.999s54.333 12 81 14l35 3l48 -208l-45 -6c-32 -4.66699 -61.833 -16.167 -89.5 -34.5
s-50.167 -40.5 -67.5 -66.5c-20 -30.667 -34.5 -70 -43.5 -118s-15 -96.5 -18 -145.5s-7.83301 -98.833 -14.5 -149.5s-21.667 -100.667 -45 -150s-56 -92 -98 -128c42 -36 74.833 -78.833 98.5 -128.5s38.834 -99.834 45.501 -150.501s11.5 -100.334 14.5 -149.001
s8.83301 -96.834 17.5 -144.501s23 -86.834 43 -117.501c17.333 -26 39.833 -48.167 67.5 -66.5s57.5 -29.833 89.5 -34.5l45 -6l-48 -208l-35 3c-24 2 -49.167 6.33301 -75.5 13s-58.166 20.334 -95.499 41.001s-71 46.5 -101 77.5s-57.5 74.667 -82.5 131
s-41.167 120.5 -48.5 192.5c-1.33301 14.667 -3.33301 42.5 -6 83.5s-5.5 72 -8.5 93s-8.5 47.167 -16.5 78.5s-19.833 58.5 -35.5 81.5s-35.5 43.167 -59.5 60.5c-29.333 21.333 -61.666 35 -96.999 41l-34 5v208l34 5c53.333 8.66699 98.833 34.334 136.5 77.001
s61.834 104.667 72.501 186z" />
    <glyph glyph-name="bar" unicode="|" horiz-adv-x="884" 
d="M319 1642h246v-1991h-246v1991z" />
    <glyph glyph-name="braceright" unicode="}" horiz-adv-x="828" 
d="M522 1084c0.666992 -6.66699 2.49707 -30.5049 5.49707 -71.5049s5.83301 -71.5 8.5 -91.5c10 -81.333 34 -143.333 72 -186s83.667 -68.334 137 -77.001l34 -5v-208l-34 -5c-35.333 -6 -67.666 -19.667 -96.999 -41c-24 -17.333 -43.833 -37.5 -59.5 -60.5
s-27.5 -50.167 -35.5 -81.5s-13.5 -57.5 -16.5 -78.5s-5.83301 -52 -8.5 -93s-4.66699 -68.833 -6 -83.5c-7.33301 -72 -23.5 -136.167 -48.5 -192.5s-52.5 -100 -82.5 -131s-63.667 -56.833 -101 -77.5s-69.166 -34.334 -95.499 -41.001s-51.5 -11 -75.5 -13l-35 -3
l-48 208l45 6c32 4.66699 61.833 16.167 89.5 34.5s50.167 40.5 67.5 66.5c20 30.667 34.333 69.834 43 117.501s14.5 95.834 17.5 144.501s7.83301 98.334 14.5 149.001s21.834 100.834 45.501 150.501s56.5 92.5 98.5 128.5c-42 36 -74.667 78.667 -98 128
s-38.333 99.333 -45 150s-11.5 100.5 -14.5 149.5s-9 97.5 -18 145.5s-23.5 87.333 -43.5 118c-17.333 26 -39.833 48.167 -67.5 66.5s-57.5 29.833 -89.5 34.5l-45 6l48 208l35 -3c22 -2 44.167 -5.83301 66.5 -11.5s48.5 -14.667 78.5 -27s58.333 -30.166 85 -53.499
s52.167 -51.166 76.5 -83.499s45 -73.666 62 -123.999s28.5 -106.5 34.5 -168.5z" />
    <glyph glyph-name="asciitilde" unicode="~" horiz-adv-x="1400" 
d="M876 1401c14.667 0 26 11.6689 34 35.002s15.667 56 23 98c1.33301 8.66699 2.33301 15 3 19l7 39l190 -30l-9 -42c-1.33301 -5.33301 -4 -18.666 -8 -39.999s-7.16699 -37 -9.5 -47s-6.16602 -25.333 -11.499 -46s-10.833 -36.834 -16.5 -48.501l-21.5 -43
c-8.66699 -17 -18.5 -30.333 -29.5 -40s-23.5 -19.5 -37.5 -29.5s-30.167 -17.167 -48.5 -21.5s-38.166 -6.5 -59.499 -6.5c-42 2 -81.833 12.667 -119.5 32s-67.334 40.166 -89.001 62.499s-42.667 42.666 -63 60.999s-35.833 27.5 -46.5 27.5
c-8 0 -15.167 -3.83301 -21.5 -11.5s-11.666 -18.667 -15.999 -33s-8 -28.333 -11 -42s-6.16699 -29.834 -9.5 -48.501c-0.666992 -5.33301 -1.33398 -9.33301 -2.00098 -12l-7 -39l-190 26l9 43c1.33301 6 3.66602 18 6.99902 36s6 31.667 8 41s5.33301 23.166 10 41.499
s9 32.833 13 43.5s9.66699 24 17 40s14.833 28.833 22.5 38.5s17.167 20.167 28.5 31.5s23.5 20 36.5 26s28 11.167 45 15.5s35.167 6.5 54.5 6.5c42 -2 81.833 -12.667 119.5 -32s67.5 -40.166 89.5 -62.499s43 -42.666 63 -60.999s35.333 -27.5 46 -27.5z" />
    <glyph glyph-name="uni00A0" unicode="&#xa0;" horiz-adv-x="560" 
 />
    <glyph glyph-name="exclamdown" unicode="&#xa1;" horiz-adv-x="650" 
d="M199 904h252v-1355h-252v1355zM184 1362h282v-282h-282v282z" />
    <glyph glyph-name="cent" unicode="&#xa2;" horiz-adv-x="1021" 
d="M502 1270l-0.000976562 282.001h203v-272c66 -6 138.333 -25.667 217 -59l35 -15l-65 -195l-39 13c-68.667 24 -136.667 36 -204 36c-99.333 0 -174 -26.833 -224 -80.5s-75 -131.167 -75 -232.5c0 -46.667 4.5 -88.5 13.5 -125.5s21.667 -67.833 38 -92.5
s34.5 -45.667 54.5 -63s42.5 -30.5 67.5 -39.5s49.167 -15.5 72.5 -19.5s47.666 -6 72.999 -6c56.667 0 114 10.333 172 31l39 13l67 -189l-37 -14c-76 -29.333 -144.333 -46.666 -205 -51.999v-296h-203v300c-56 10 -107.167 27.667 -153.5 53
s-87.666 58.666 -123.999 99.999s-64.666 93.166 -84.999 155.499s-30.5 132.5 -30.5 210.5c0 148 34 271.167 102 369.5s165 160.833 291 187.5z" />
    <glyph glyph-name="sterling" unicode="&#xa3;" horiz-adv-x="1300" 
d="M355 176l-0.000976562 445.001h-176v217h176v100c0 80.667 10.5 152.5 31.5 215.5s48.5 114 82.5 153s74.5 71.333 121.5 97s94.167 43.5 141.5 53.5s97.333 15 150 15c80 0 162.333 -13.333 247 -40l42 -13l-77 -197l-36 9c-58 15.333 -109.333 23 -154 23
c-49.333 0 -92.166 -6 -128.499 -18s-65.5 -28 -87.5 -48s-39.667 -45.167 -53 -75.5s-22.333 -61.333 -27 -93s-7 -67.834 -7 -108.501v-73h530v-217h-530v-445h588v-217h-1078v217h244z" />
    <glyph glyph-name="currency" unicode="&#xa4;" horiz-adv-x="1300" 
d="M816 1090l173.001 172.998l183 -183l-174 -173c25.333 -52.667 38 -107.667 38 -165c0 -59.333 -12.333 -114.666 -37 -165.999l172 -172l-183 -183l-172 172c-52.667 -25.333 -108.334 -38 -167.001 -38c-60 0 -115 12.333 -165 37l-173 -173l-183 183l173 173
c-25.333 52.667 -38 108 -38 166c0 58.667 12.667 114.334 38 167.001l-174 174l183 183l175 -175c52.667 25.333 107.667 38 165 38c58 0 113.333 -12.667 166 -38zM650.001 904.998c-43.333 0 -80.666 -15.833 -111.999 -47.5s-47 -70.5 -47 -116.5
c0 -45.333 15.333 -83.833 46 -115.5s68 -47.5 112 -47.5c43.333 0 80.666 16 111.999 48s47 70.333 47 115c0 46 -15.5 84.833 -46.5 116.5s-68.167 47.5 -111.5 47.5z" />
    <glyph glyph-name="yen" unicode="&#xa5;" horiz-adv-x="1300" 
d="M72 1462h281l298 -558l307 558h271l-427 -722h251v-207h-289v-118h289v-207h-289v-249h-242v249h-275v207h275v118h-275v207h238z" />
    <glyph glyph-name="brokenbar" unicode="&#xa6;" horiz-adv-x="884" 
d="M319 501h246v-850h-246v850zM319 1642h246v-846h-246v846z" />
    <glyph glyph-name="section" unicode="&#xa7;" horiz-adv-x="1136" 
d="M933 1430l42.0049 -11l-72 -210l-38 12c-78.667 24.667 -158.334 37 -239.001 37c-62 0 -112.667 -10.167 -152 -30.5s-59 -46.833 -59 -79.5c0 -18 8.66699 -34.833 26 -50.5s40 -29 68 -40l96 -36c36 -13 72.833 -25.667 110.5 -38s74.5 -27.833 110.5 -46.5
s68 -39 96 -61s50.667 -49.667 68 -83s26 -70.333 26 -111c0 -77.333 -22.667 -145.666 -68 -204.999c44.667 -48 67 -105 67 -171c0 -26.667 -3.16699 -53 -9.5 -79s-16.333 -53.167 -30 -81.5s-33.334 -54.5 -59.001 -78.5s-55.834 -45.833 -90.501 -65.5
s-77.834 -35 -129.501 -46s-109.167 -16.5 -172.5 -16.5h-13c-128 0 -250 22.667 -366 68l-37 15l74 199l38 -13c109.333 -38.667 206 -58 290 -58c156.667 0 235 45.333 235 136c0 19.333 -8.5 36.5 -25.5 51.5s-39.333 27.5 -67 37.5s-59.167 20.833 -94.5 32.5
s-71.5 23 -108.5 34s-73.167 25.667 -108.5 44s-66.833 38.666 -94.5 60.999s-50 51.166 -67 86.499s-25.5 75 -25.5 119c0 68.667 23.667 132 71 190c-47.333 50 -71 111.667 -71 185c0 30 4.83301 60 14.5 90s26.667 60.833 51 92.5s54.666 59.5 90.999 83.5
s84 43.667 143 59s124.833 23 197.5 23c22.667 0 44.667 -0.833008 66 -2.5s38.666 -3.16699 51.999 -4.5s29.833 -4.16602 49.5 -8.49902l39 -8.5c6.33301 -1.33301 19.833 -5 40.5 -11s32.334 -9.33301 35.001 -10zM434.005 823
c-12.667 -15.333 -18.998 -32.6641 -18.998 -51.9971c0 -12.667 4.66699 -24.834 14 -36.501s20.666 -21.834 33.999 -30.501s31.5 -17.667 54.5 -27s44.167 -17.333 63.5 -24l74.5 -25l74.5 -25c10 16 15 35.667 15 59c0 16 -5.33301 30.5 -16 43.5
s-27.834 24.833 -51.501 35.5s-46 19.5 -67 26.5s-50.167 16.167 -87.5 27.5s-67 20.666 -89 27.999z" />
    <glyph glyph-name="dieresis" unicode="&#xa8;" horiz-adv-x="1200" 
d="M242 1462h267v-268h-267v268zM691 1462h267v-268h-267v268z" />
    <glyph glyph-name="copyright" unicode="&#xa9;" horiz-adv-x="1760" 
d="M1124 1049l34.002 -15.001l-56 -161l-39 13c-48 17.333 -96 26 -144 26c-135.333 0 -203 -72.667 -203 -218c0 -158 72 -237 216 -237c40.667 0 82 7.33301 124 22l38 13l57 -158l-37 -14c-71.333 -28 -144.333 -42 -219 -42c-36 0 -70.833 3.83301 -104.5 11.5
s-67.334 21 -101.001 40s-62.834 43 -87.501 72s-44.667 66.833 -60 113.5s-23 99.334 -23 158.001c0 76 11.5 142.333 34.5 199s53.667 100.667 92 132s79.333 54.5 123 69.5s89.5 22.5 137.5 22.5c74 0 146.667 -15.667 218 -47zM880.002 1207
c-98 0 -188.333 -24 -271 -72s-147.5 -112.167 -194.5 -192.5s-70.5 -166.833 -70.5 -259.5s23.5 -179.167 70.5 -259.5s111.833 -144.5 194.5 -192.5s173 -72 271 -72s188.333 24 271 72s147.5 112.167 194.5 192.5s70.5 166.833 70.5 259.5s-23.5 179.167 -70.5 259.5
s-111.833 144.5 -194.5 192.5s-173 72 -271 72zM1631 682.999c0 -78.667 -12.334 -155.165 -37.001 -229.498s-60 -141.833 -106 -202.5s-99.667 -114.167 -161 -160.5s-130.5 -82.166 -207.5 -107.499s-156.833 -38 -239.5 -38c-137.333 0 -263.833 33.667 -379.5 101
s-206.5 157.5 -272.5 270.5s-99 235.167 -99 366.5c0 96.667 19.167 190 57.5 280s90.5 168.667 156.5 236s145.833 121.166 239.5 161.499s192.834 60.5 297.501 60.5c103.333 0 201.5 -19.833 294.5 -59.5s172.833 -92.834 239.5 -159.501s119.5 -145.334 158.5 -236.001
s58.5 -185 58.5 -283z" />
    <glyph glyph-name="ordfeminine" unicode="&#xaa;" horiz-adv-x="766" 
d="M498 994h-3c-68 0 -118 -5.83301 -150 -17.5s-48 -31.5 -48 -59.5c0 -16.667 8.66699 -32.5 26 -47.5s41 -22.5 71 -22.5c40 0 74.667 21 104 63v84zM498 1127c0 71.333 -39.001 106.998 -117.001 106.998c-53.333 0 -107.666 -8.66699 -162.999 -26l-25 -8l-30 119l21 7
c69.333 25.333 138.666 38 207.999 38c33.333 0 63.333 -3 90 -9s48.667 -13.5 66 -22.5s32.333 -20.667 45 -35s22.334 -27.833 29.001 -40.5s11.834 -27.5 15.501 -44.5s6 -31.333 7 -43s1.5 -24.5 1.5 -38.5v-396h-112l-14 36c-44 -36 -91 -54 -141 -54
c-67.333 0 -122.333 17.5 -165 52.5s-64 83.5 -64 145.5c0 34 5.16699 63.333 15.5 88s24.5 44.834 42.5 60.501s41.833 28.167 71.5 37.5s61.667 15.833 96 19.5s75.166 5.83398 122.499 6.50098z" />
    <glyph glyph-name="guillemotleft" unicode="&#xab;" horiz-adv-x="1078" 
d="M780 1029h288l-305 -406l305 -406h-288l-284 406zM309 1029h288l-305 -406l305 -406h-288l-284 406z" />
    <glyph glyph-name="logicalnot" unicode="&#xac;" horiz-adv-x="1400" 
d="M84 773h1232v-532h-230v301h-1002v231z" />
    <glyph glyph-name="uni00AD" unicode="&#xad;" horiz-adv-x="1074" 
d="M179 769h716v-221h-716v221z" />
    <glyph glyph-name="registered" unicode="&#xae;" horiz-adv-x="1232" 
d="M616 1215h-70.998v-129c19.333 0 33.166 -0.166992 41.499 -0.5s16.5 -0.5 24.5 -0.5c37.333 0 63.666 4.83301 78.999 14.5s23 25.5 23 47.5c0 25.333 -7.66699 43 -23 53s-40 15 -74 15zM649.002 1345c38.667 0 71.833 -5.33203 99.5 -15.999s48.667 -25.5 63 -44.5
s24.5 -38.833 30.5 -59.5s9 -43 9 -67c0 -82.667 -32 -140.334 -96 -173.001l117 -230c42 36 74.833 79 98.5 129s35.5 103 35.5 159c0 103.333 -37.833 192.833 -113.5 268.5s-167.834 113.5 -276.501 113.5c-108 0 -200 -37.667 -276 -113s-114 -165 -114 -269
c0 -103.333 37.833 -192.833 113.5 -268.5s167.834 -113.5 276.501 -113.5c95.333 0 179 30 251 90h-150l-101 208h-71v-208h-143v594h247zM1167 1043c0 -98.667 -24.833 -189.67 -74.5 -273.003s-116.834 -149.166 -201.501 -197.499s-176.334 -72.5 -275.001 -72.5
c-75.333 0 -147.333 14.667 -216 44s-127.334 68.333 -176.001 117s-87.334 106.334 -116.001 173.001s-43 136.334 -43 209.001c0 98.667 24.833 189.667 74.5 273s116.834 149.166 201.501 197.499s176.334 72.5 275.001 72.5s190.334 -24.167 275.001 -72.5
s151.834 -114.166 201.501 -197.499s74.5 -174.333 74.5 -273z" />
    <glyph glyph-name="macron" unicode="&#xaf;" horiz-adv-x="1400" 
d="M244 1681h912v-231h-912v231z" />
    <glyph glyph-name="degree" unicode="&#xb0;" horiz-adv-x="589" 
d="M295 1327c-25.333 0 -46.5 -9.00195 -63.5 -27.002s-25.5 -39.667 -25.5 -65s8.33301 -47.166 25 -65.499s38 -27.5 64 -27.5c24 0 44.333 9.33301 61 28s25 40.334 25 65.001s-8.33301 46.167 -25 64.5s-37 27.5 -61 27.5zM555 1235c0 -73.333 -25.5 -136 -76.5 -188
s-112.167 -78 -183.5 -78s-132.666 26 -183.999 78s-77 114.667 -77 188c0 72.667 25.5 135 76.5 187s112.167 78 183.5 78s132.666 -25.833 183.999 -77.5s77 -114.167 77 -187.5z" />
    <glyph glyph-name="plusminus" unicode="&#xb1;" horiz-adv-x="1400" 
d="M179 328h1042v-219h-1042v219zM586 1462h228v-412h407v-219h-407v-411h-228v411h-407v219h407v412z" />
    <glyph glyph-name="uni00B2" unicode="&#xb2;" horiz-adv-x="800" 
d="M122 827c17.333 56 41.3301 108.501 71.9971 157.501s61.5 89.167 92.5 120.5s60.833 59.666 89.5 84.999s52 48 70 68s27 37.667 27 53c0 20.667 -11.167 40 -33.5 58s-50.833 27 -85.5 27c-37.333 0 -96.666 -16.333 -177.999 -49l-23 -9l-55 135l21 10
c86.667 44 170.334 66 251.001 66c76.667 0 141 -20.833 193 -62.5s78 -95.5 78 -161.5c0 -35.333 -7.66699 -68.333 -23 -99s-35.666 -58.5 -60.999 -83.5s-51.5 -49.333 -78.5 -73s-55 -51.5 -84 -83.5s-52.167 -64.667 -69.5 -98h329v-155h-532v94z" />
    <glyph glyph-name="uni00B3" unicode="&#xb3;" horiz-adv-x="800" 
d="M359 1546c71.333 0 131.499 -19.501 180.499 -58.501s73.5 -88.833 73.5 -149.5c0 -61.333 -21.333 -112.666 -64 -153.999c63.333 -39.333 95 -99 95 -179c0 -82.667 -30 -150 -90 -202s-135.667 -78 -227 -78c-65.333 0 -135.666 15.333 -210.999 46l-22 9l48 140
l23 -6c72 -20 127 -30 165 -30c40 0 74.667 9.83301 104 29.5s44 44.5 44 74.5c0 21.333 -5.66699 39 -17 53s-27.333 24.333 -48 31s-41.5 11.167 -62.5 13.5s-45.5 3.5 -73.5 3.5h-25v153h25c114 0 171 27.333 171 82c0 16.667 -8.5 31.667 -25.5 45s-41.833 20 -74.5 20
c-42.667 0 -96 -14.667 -160 -44l-23 -11l-58 140l21 11c86 40.667 163 61 231 61z" />
    <glyph glyph-name="acute" unicode="&#xb4;" horiz-adv-x="1122" 
d="M793 1642l111 -195l-583 -336l-102 178z" />
    <glyph glyph-name="uni00B5" unicode="&#xb5;" horiz-adv-x="1187" 
d="M149 1029h246v-599c0 -184.667 67.333 -277 202 -277c50 0 118.333 20.667 205 62v814h246v-1070h-183l-21 49c-92.667 -50.667 -184 -76 -274 -76c-62 0 -120.333 14.333 -175 43v-426h-246v1480z" />
    <glyph glyph-name="paragraph" unicode="&#xb6;" horiz-adv-x="1326" 
d="M601 1552l576.001 -0.00292969v-1593h-246v1361h-158v-1361h-247v687c-40.667 3.33301 -80 10.333 -118 21s-76.833 28.167 -116.5 52.5s-74 54 -103 89s-52.833 80.5 -71.5 136.5s-28 118.667 -28 188c0 44 4.33301 84.667 13 122s19.667 69.333 33 96
s30.666 50.834 51.999 72.501s42.5 39.334 63.5 53.001s45.333 25.5 73 35.5s52.5 17.5 74.5 22.5s47.167 8.83301 75.5 11.5s51 4.33398 68 5.00098s36.833 1 59.5 1z" />
    <glyph glyph-name="periodcentered" unicode="&#xb7;" horiz-adv-x="590" 
d="M149 879h292v-292h-292v292z" />
    <glyph glyph-name="cedilla" unicode="&#xb8;" horiz-adv-x="1101" 
d="M618 -361c21.333 0 36.5 3.83105 45.5 11.498s13.5 16.167 13.5 25.5c0 14 -9.66699 25.5 -29 34.5s-57.333 21.833 -114 38.5l-57 17l-38 11l77 286h211l-43 -170c116.667 -38 175 -107 175 -207c0 -58 -22.333 -109.833 -67 -155.5s-104 -68.5 -178 -68.5
c-12 0 -25 0.833008 -39 2.5s-25.833 3.33398 -35.5 5.00098s-23.667 4.83398 -42 9.50098s-31 8 -38 10s-21.833 6.5 -44.5 13.5s-36.334 11.167 -41.001 12.5l-39 11l49 170l40 -12c98.667 -30 163.334 -45 194.001 -45z" />
    <glyph glyph-name="uni00B9" unicode="&#xb9;" horiz-adv-x="543" 
d="M248 1536h120v-801h-163v635l-138 -39l-37 146z" />
    <glyph glyph-name="ordmasculine" unicode="&#xba;" horiz-adv-x="762" 
d="M380 1391c-20 0 -39 -3.16602 -57 -9.49902s-36.5 -17.5 -55.5 -33.5s-34 -41 -45 -75s-16.5 -75.333 -16.5 -124c0 -55.333 5.66699 -102 17 -140s26.5 -66 45.5 -84s37.5 -30.5 55.5 -37.5s37.333 -10.5 58 -10.5c16 0 31.167 1.83301 45.5 5.5
s29.666 11.167 45.999 22.5s30.333 26.333 42 45s21.334 44.5 29.001 77.5s11.5 71.167 11.5 114.5c0 51.333 -5.66699 94.666 -17 129.999s-26.5 61 -45.5 77s-37.5 27 -55.5 33s-37.333 9 -58 9zM720 1145c0 -128 -32.166 -229.666 -96.499 -304.999
s-145.5 -113 -243.5 -113c-35.333 0 -68.666 4.16699 -99.999 12.5s-61.833 22.666 -91.5 42.999s-55.167 46.166 -76.5 77.499s-38.333 71.333 -51 120s-19 104 -19 166c0 64.667 9.66699 122.834 29 174.501s45.166 93.5 77.499 125.5s68.5 56.333 108.5 73
s81.667 25 125 25c30 0 59.167 -3 87.5 -9s58.166 -18 89.499 -36s58.5 -41.167 81.5 -69.5s42 -67 57 -116s22.5 -105.167 22.5 -168.5z" />
    <glyph glyph-name="guillemotright" unicode="&#xbb;" horiz-adv-x="1078" 
d="M10 1029h288l284 -406l-284 -406h-288l305 406zM481 1029h288l284 -406l-284 -406h-288l305 406z" />
    <glyph glyph-name="onequarter" unicode="&#xbc;" horiz-adv-x="1800" 
d="M1166 1446h232l-849 -1471h-233zM338 1446h140v-853h-183v665l-133 -37l-42 166zM1378 861h195v-531h107v-160h-107v-195h-183v195h-390v122zM1390 601l-171 -271h171v271z" />
    <glyph glyph-name="onehalf" unicode="&#xbd;" horiz-adv-x="1897" 
d="M1166 1446h232l-849 -1471h-233zM338 1446h140v-863h-183v675l-133 -37l-42 166zM1181 76c16 52 37.333 101.166 64 147.499s54 85.333 82 117s56.667 61.834 86 90.501s55.333 52.5 78 71.5s41.167 37.667 55.5 56s21.5 34.833 21.5 49.5c0 23.333 -12.667 45 -38 65
s-57.333 30 -96 30c-41.333 0 -106.333 -17.667 -195 -53l-23 -9l-60 144l21 11c99.333 47.333 191 71 275 71c83.333 0 153.5 -22.5 210.5 -67.5s85.5 -103.5 85.5 -175.5c0 -38.667 -8.5 -74.834 -25.5 -108.501s-39.5 -64.334 -67.5 -92.001s-57 -54.667 -87 -81
s-61.167 -57.166 -93.5 -92.499s-57.833 -71.666 -76.5 -108.999h364v-166h-581v101z" />
    <glyph glyph-name="threequarters" unicode="&#xbe;" horiz-adv-x="1950" 
d="M1326 1446h232l-849 -1471h-233zM1528 861h195v-531h107v-160h-107v-195h-183v195h-390v122zM1540 601l-171 -271h171v271zM452 1475c78 0 143.502 -21.332 196.502 -63.999s79.5 -97 79.5 -163c0 -67.333 -24 -124 -72 -170c71.333 -43.333 107 -108.666 107 -195.999
c0 -90.667 -33 -164.334 -99 -221.001s-148.667 -85 -248 -85c-69.333 0 -146.333 17 -231 51l-22 9l52 150l23 -6c83.333 -22.667 144 -34 182 -34c45.333 0 84.166 10.833 116.499 32.5s48.5 49.5 48.5 83.5c0 38.667 -17.667 67.5 -53 86.5s-92.333 28.5 -171 28.5h-25
v163h25c33.333 0 63.333 2.5 90 7.5s50.167 14.667 70.5 29s30.5 33.166 30.5 56.499c0 18.667 -9.5 35.667 -28.5 51s-46.833 23 -83.5 23c-46.667 0 -105.334 -16.333 -176.001 -49l-24 -11l-63 150l21 10c92 45.333 176.667 68 254 68z" />
    <glyph glyph-name="questiondown" unicode="&#xbf;" horiz-adv-x="1047" 
d="M313 1029l252 -0.00195312v-41c0 -64 7 -120.667 21 -170s32.167 -89.166 54.5 -119.499s47 -57.666 74 -81.999s54 -47.5 81 -69.5s51.667 -45.667 74 -71s40.5 -57.833 54.5 -97.5s21 -85.5 21 -137.5c0 -59.333 -14.5 -116 -43.5 -170s-65.833 -99 -110.5 -135
s-93.5 -64.667 -146.5 -86s-104.167 -32 -153.5 -32c-71.333 0 -136.166 7.5 -194.499 22.5s-120.5 38.167 -186.5 69.5l-35 17l83 195l37 -15c108 -44 198 -66 270 -66c74.667 0 132.167 18.167 172.5 54.5s60.5 79.5 60.5 129.5c0 31.333 -7 59.333 -21 84
s-32.333 46.667 -55 66s-47.834 39.5 -75.501 60.5s-55.167 46.667 -82.5 77s-52.333 65.166 -75 104.499s-41 90.833 -55 154.5s-21 135.834 -21 216.501v41zM298 1462h282v-283h-282v283z" />
    <glyph glyph-name="Agrave" unicode="&#xc0;" horiz-adv-x="1547" 
d="M693 1421h276l562 -1421h-259l-159 372h-580l-159 -372h-244zM1025 603l-202 527l-203 -527h405zM589 1945l632 -353l-113 -178l-641 336z" />
    <glyph glyph-name="Aacute" unicode="&#xc1;" horiz-adv-x="1547" 
d="M693 1421h276l562 -1421h-259l-159 372h-580l-159 -372h-244zM1025 603l-202 527l-203 -527h405zM1070 1945l123 -195l-642 -336l-112 178z" />
    <glyph glyph-name="Acircumflex" unicode="&#xc2;" horiz-adv-x="1547" 
d="M693 1421h276l562 -1421h-259l-159 372h-580l-159 -372h-244zM1025 603l-202 527l-203 -527h405zM854 1943l343 -348l-167 -145l-192 194l-196 -191l-165 133z" />
    <glyph glyph-name="Atilde" unicode="&#xc3;" horiz-adv-x="1547" 
d="M1100 1884l205.003 -30.001l-9 -42c-1.33301 -5.33301 -3 -14 -5 -26l-11 -54.5c-2.66699 -13 -7.5 -31.333 -14.5 -55s-14.167 -42.667 -21.5 -57s-17.666 -30.5 -30.999 -48.5s-28 -32 -44 -42s-35.667 -18.667 -59 -26s-49 -11 -77 -11
c-46 2 -89.833 12.667 -131.5 32s-74.5 40 -98.5 62l-69 60.5c-22 18.333 -39 27.5 -51 27.5c-22 0 -39.667 -27.667 -53 -83l-14 -66l-8 -38l-208 26l9 43c1.33301 5.33301 3.83301 17.333 7.5 36s6.5 32.5 8.5 41.5s5.66699 22.667 11 41s10.333 32.833 15 43.5
s11 24 19 40s16.333 28.833 25 38.5s19.167 20.167 31.5 31.5s25.666 20 39.999 26s30.833 11.167 49.5 15.5s38.667 6.5 60 6.5c37.333 -1.33301 73.166 -8.5 107.499 -21.5s63.333 -28.333 87 -46s45.334 -35 65.001 -52s37.167 -31.5 52.5 -43.5s28 -18 38 -18
c4 0 7.83301 0.833008 11.5 2.5s7.16699 4.16699 10.5 7.5s6.16602 7 8.49902 11s4.66602 9.33301 6.99902 16s4.33301 12.667 6 18s3.5 12.5 5.5 21.5l5 22.5l5.5 25c2.33301 10.667 4.16602 19.334 5.49902 26.001zM1025 602.999l-202 527l-203 -527h405zM693.003 1421
h276l562 -1421h-259l-159 372h-580l-159 -372h-244z" />
    <glyph glyph-name="Adieresis" unicode="&#xc4;" horiz-adv-x="1547" 
d="M693 1421h276l562 -1421h-259l-159 372h-580l-159 -372h-244zM1025 603l-202 527l-203 -527h405zM439 1897h294v-267h-294v267zM932 1897h294v-267h-294v267z" />
    <glyph glyph-name="Aring" unicode="&#xc5;" horiz-adv-x="1547" 
d="M833 1873c91.333 0 170.332 -28.665 236.999 -85.998s100 -127.333 100 -210c0 -50.667 -14.667 -97.334 -44 -140.001s-68.666 -76.667 -117.999 -102l523 -1335h-259l-159 372h-580l-159 -372h-244l525 1337c-48 25.333 -86.167 59.166 -114.5 101.499
s-42.5 88.5 -42.5 138.5c0 82 33 151.833 99 209.5s144.667 86.5 236 86.5zM834.999 1687c-36.667 0 -67 -10.833 -91 -32.5s-36 -47.5 -36 -77.5s11.667 -56.167 35 -78.5s54 -33.5 92 -33.5c34.667 0 63.667 11.167 87 33.5s35 48.5 35 78.5c0 29.333 -11.5 55 -34.5 77
s-52.167 33 -87.5 33zM1025 603.002l-202 527l-203 -527h405z" />
    <glyph glyph-name="AE" unicode="&#xc6;" horiz-adv-x="2079" 
d="M905 1189l-258 -586h380v586h-122zM740 1421h1198v-232h-643v-341h588v-232h-588v-384h643v-232h-911v373h-476l-171 -373h-250z" />
    <glyph glyph-name="Ccedilla" unicode="&#xc7;" horiz-adv-x="1615" 
d="M983 -317c14.667 0 26.6689 2 36.002 6s15.333 8.16699 18 12.5s4 8.5 4 12.5c0 12.667 -14.167 24.334 -42.5 35.001s-77.5 25 -147.5 43c-16 4 -28.333 7 -37 9l-43 11l60 197c-177.333 42.667 -314.333 127.5 -411 254.5s-145 275.833 -145 446.5
c0 102 18.667 197.167 56 285.5s90.333 164.666 159 228.999s154.334 114.833 257.001 151.5s216 55 340 55c148 0 289 -26.333 423 -79l37 -15l-79 -216l-38 13c-128.667 43.333 -244.667 65 -348 65c-82 0 -157.833 -13.5 -227.5 -40.5s-127.5 -63.167 -173.5 -108.5
s-81.833 -97.333 -107.5 -156s-38.5 -120 -38.5 -184c0 -66 13.667 -128.833 41 -188.5s65.833 -112 115.5 -157s111.667 -80.667 186 -107s155.833 -39.5 244.5 -39.5c108 0 216.667 19.333 326 58l37 13l82 -200l-37 -16c-140.667 -60.667 -291 -91.667 -451 -93l-12 -46
c21.333 -6.66699 41.166 -14.5 59.499 -23.5s38.166 -21.5 59.499 -37.5s38.333 -36.667 51 -62s19 -54 19 -86c0 -62 -26.167 -116 -78.5 -162s-119.166 -69 -200.499 -69c-30 0 -59.833 2.83301 -89.5 8.5s-91.834 21.167 -186.501 46.5l-43 11l59 183l43 -12
c115.333 -32 189.666 -48 222.999 -48z" />
    <glyph glyph-name="Egrave" unicode="&#xc8;" horiz-adv-x="1447" 
d="M290 1421h997v-232h-744v-341h689v-232h-689v-384h744v-232h-997v1421zM506 1965l656 -353l-104 -178l-665 336z" />
    <glyph glyph-name="Eacute" unicode="&#xc9;" horiz-adv-x="1447" 
d="M290 1421h997v-232h-744v-341h689v-232h-689v-384h744v-232h-997v1421zM1090 1965l111 -195l-665 -336l-102 178z" />
    <glyph glyph-name="Ecircumflex" unicode="&#xca;" horiz-adv-x="1447" 
d="M290 1421h997v-232h-744v-341h689v-232h-689v-384h744v-232h-997v1421zM806 1951l350 -349l-161 -144l-207 194l-212 -191l-156 133z" />
    <glyph glyph-name="Edieresis" unicode="&#xcb;" horiz-adv-x="1447" 
d="M290 1421h997v-232h-744v-341h689v-232h-689v-384h744v-232h-997v1421zM390 1898h290v-267h-290v267zM897 1898h290v-267h-290v267z" />
    <glyph glyph-name="Igrave" unicode="&#xcc;" horiz-adv-x="812" 
d="M335 1421h252v-1421h-252v1421zM249 1943l574 -353l-104 -176l-583 334z" />
    <glyph glyph-name="Iacute" unicode="&#xcd;" horiz-adv-x="894" 
d="M416 1421h252v-1421h-252v1421zM783 1946l111 -195l-665 -337l-102 179z" />
    <glyph glyph-name="Icircumflex" unicode="&#xce;" horiz-adv-x="812" 
d="M338 1421h252v-1421h-252v1421zM482 1943l312 -349l-154 -144l-173 194l-177 -191l-150 133z" />
    <glyph glyph-name="Idieresis" unicode="&#xcf;" horiz-adv-x="752" 
d="M290 1421h252v-1421h-252v1421zM88 1824h267v-267h-267v267zM477 1824h267v-267h-267v267z" />
    <glyph glyph-name="Eth" unicode="&#xd0;" horiz-adv-x="1769" 
d="M335 1421h475.999c30 0 59 -0.666992 87 -2s63.833 -4.5 107.5 -9.5s84.5 -11.833 122.5 -20.5s79.667 -21.334 125 -38.001s86.333 -36.167 123 -58.5s72.834 -50.666 108.501 -84.999s65.667 -72.5 90 -114.5s43.833 -92.167 58.5 -150.5s22 -121.833 22 -190.5
c0 -501.333 -302.667 -752 -908 -752h-412v617h-218v232h218v572zM823.999 1189l-236.998 0.00390625v-340h261v-232h-261v-385h166c43.333 0 82.166 1 116.499 3s75 6.66699 122 14s88.333 17.5 124 30.5s72.167 31.833 109.5 56.5s68.166 53.667 92.499 87
s44.333 75.166 60 125.499s23.5 107.166 23.5 170.499c0 43.333 -4.66699 85.166 -14 125.499s-27.333 82 -54 125s-60.667 80.167 -102 111.5s-97 57.166 -167 77.499s-150 30.5 -240 30.5z" />
    <glyph glyph-name="Ntilde" unicode="&#xd1;" horiz-adv-x="1823" 
d="M1230 1884l205.003 -30.001l-9 -42c-1.33301 -5.33301 -3 -14 -5 -26l-11 -54.5c-2.66699 -13 -7.5 -31.333 -14.5 -55s-14.167 -42.667 -21.5 -57s-17.666 -30.5 -30.999 -48.5s-28 -32 -44 -42s-35.667 -18.667 -59 -26s-49 -11 -77 -11
c-46 2 -89.833 12.667 -131.5 32s-74.5 40 -98.5 62l-69 60.5c-22 18.333 -39 27.5 -51 27.5c-22 0 -39.667 -27.667 -53 -83l-14 -66l-8 -38l-208 26l9 43c1.33301 5.33301 3.83301 17.333 7.5 36s6.5 32.5 8.5 41.5s5.66699 22.667 11 41s10.333 32.833 15 43.5
s11 24 19 40s16.333 28.833 25 38.5s19.167 20.167 31.5 31.5s25.666 20 39.999 26s30.833 11.167 49.5 15.5s38.667 6.5 60 6.5c37.333 -1.33301 73.166 -8.5 107.499 -21.5s63.333 -28.333 87 -46s45.334 -35 65.001 -52s37.167 -31.5 52.5 -43.5s28 -18 38 -18
c4 0 7.83301 0.833008 11.5 2.5s7.16699 4.16699 10.5 7.5s6.16602 7 8.49902 11s4.66602 9.33301 6.99902 16s4.33301 12.667 6 18s3.5 12.5 5.5 21.5l5 22.5l5.5 25c2.33301 10.667 4.16602 19.334 5.49902 26.001zM290.003 1421h278l793 -1092v1092h252v-1421h-281
l-790 1094v-1094h-252v1421z" />
    <glyph glyph-name="Ograve" unicode="&#xd2;" horiz-adv-x="1850" 
d="M966 1436c144.667 0 273.333 -28.332 386 -84.999s201.334 -139.167 266.001 -247.5s97 -234.166 97 -377.499c0 -145.333 -31.667 -274.166 -95 -386.499s-152.333 -199.5 -267 -261.5s-246.334 -93 -395.001 -93c-98 0 -191 15.167 -279 45.5
s-166.833 74.666 -236.5 132.999s-125 134.166 -166 227.499s-61.5 198.666 -61.5 315.999c0 146 32 274.5 96 385.5s152.667 196 266 255s243 88.5 389 88.5zM1457 709.001c0 84 -14.998 158.833 -44.998 224.5s-69.667 117.667 -119 156s-102.833 67.166 -160.5 86.499
s-117.5 29 -179.5 29c-46.667 0 -92.334 -5.66699 -137.001 -17s-87.834 -29.666 -129.501 -54.999s-78.167 -56.166 -109.5 -92.499s-56.5 -81.5 -75.5 -135.5s-28.5 -113.333 -28.5 -178c0 -154 47.667 -277.667 143 -371s214.333 -140 357 -140
c59.333 0 116.833 9.66699 172.5 29s107.167 48 154.5 86s85.333 89.667 114 155s43 139.666 43 222.999zM790.001 1948l625 -353l-113 -178l-634 336z" />
    <glyph glyph-name="Oacute" unicode="&#xd3;" horiz-adv-x="1850" 
d="M966 1436c144.667 0 273.333 -28.332 386 -84.999s201.334 -139.167 266.001 -247.5s97 -234.166 97 -377.499c0 -145.333 -31.667 -274.166 -95 -386.499s-152.333 -199.5 -267 -261.5s-246.334 -93 -395.001 -93c-98 0 -191 15.167 -279 45.5
s-166.833 74.666 -236.5 132.999s-125 134.166 -166 227.499s-61.5 198.666 -61.5 315.999c0 146 32 274.5 96 385.5s152.667 196 266 255s243 88.5 389 88.5zM1457 709.001c0 84 -14.998 158.833 -44.998 224.5s-69.667 117.667 -119 156s-102.833 67.166 -160.5 86.499
s-117.5 29 -179.5 29c-46.667 0 -92.334 -5.66699 -137.001 -17s-87.834 -29.666 -129.501 -54.999s-78.167 -56.166 -109.5 -92.499s-56.5 -81.5 -75.5 -135.5s-28.5 -113.333 -28.5 -178c0 -154 47.667 -277.667 143 -371s214.333 -140 357 -140
c59.333 0 116.833 9.66699 172.5 29s107.167 48 154.5 86s85.333 89.667 114 155s43 139.666 43 222.999zM1225 1946l121 -195l-635 -337l-111 179z" />
    <glyph glyph-name="Ocircumflex" unicode="&#xd4;" horiz-adv-x="1850" 
d="M966 1436c144.667 0 273.333 -28.332 386 -84.999s201.334 -139.167 266.001 -247.5s97 -234.166 97 -377.499c0 -145.333 -31.667 -274.166 -95 -386.499s-152.333 -199.5 -267 -261.5s-246.334 -93 -395.001 -93c-98 0 -191 15.167 -279 45.5
s-166.833 74.666 -236.5 132.999s-125 134.166 -166 227.499s-61.5 198.666 -61.5 315.999c0 146 32 274.5 96 385.5s152.667 196 266 255s243 88.5 389 88.5zM1457 709.001c0 84 -14.998 158.833 -44.998 224.5s-69.667 117.667 -119 156s-102.833 67.166 -160.5 86.499
s-117.5 29 -179.5 29c-46.667 0 -92.334 -5.66699 -137.001 -17s-87.834 -29.666 -129.501 -54.999s-78.167 -56.166 -109.5 -92.499s-56.5 -81.5 -75.5 -135.5s-28.5 -113.333 -28.5 -178c0 -154 47.667 -277.667 143 -371s214.333 -140 357 -140
c59.333 0 116.833 9.66699 172.5 29s107.167 48 154.5 86s85.333 89.667 114 155s43 139.666 43 222.999zM998.001 1943l339 -348l-166 -145l-189 194l-194 -191l-163 133z" />
    <glyph glyph-name="Otilde" unicode="&#xd5;" horiz-adv-x="1850" 
d="M1242 1884l205.003 -30.001l-9 -42c-1.33301 -5.33301 -3 -14 -5 -26l-11 -54.5c-2.66699 -13 -7.5 -31.333 -14.5 -55s-14.167 -42.667 -21.5 -57s-17.666 -30.5 -30.999 -48.5s-28 -32 -44 -42s-35.667 -18.667 -59 -26s-49 -11 -77 -11
c-46 2 -89.833 12.667 -131.5 32s-74.5 40 -98.5 62l-69 60.5c-22 18.333 -39 27.5 -51 27.5c-22 0 -39.667 -27.667 -53 -83l-14 -66l-8 -38l-208 26l9 43c1.33301 5.33301 3.83301 17.333 7.5 36s6.5 32.5 8.5 41.5s5.66699 22.667 11 41s10.333 32.833 15 43.5
s11 24 19 40s16.333 28.833 25 38.5s19.167 20.167 31.5 31.5s25.666 20 39.999 26s30.833 11.167 49.5 15.5s38.667 6.5 60 6.5c37.333 -1.33301 73.166 -8.5 107.499 -21.5s63.333 -28.333 87 -46s45.334 -35 65.001 -52s37.167 -31.5 52.5 -43.5s28 -18 38 -18
c4 0 7.83301 0.833008 11.5 2.5s7.16699 4.16699 10.5 7.5s6.16602 7 8.49902 11s4.66602 9.33301 6.99902 16s4.33301 12.667 6 18s3.5 12.5 5.5 21.5l5 22.5l5.5 25c2.33301 10.667 4.16602 19.334 5.49902 26.001zM1457 708.999
c0 67.333 -9.83008 129.166 -29.4971 185.499s-45.834 103.333 -78.501 141s-71 69.5 -115 95.5s-89.5 44.833 -136.5 56.5s-95.167 17.5 -144.5 17.5c-46.667 0 -92.334 -5.66699 -137.001 -17s-87.834 -29.666 -129.501 -54.999s-78.167 -56.166 -109.5 -92.499
s-56.5 -81.5 -75.5 -135.5s-28.5 -113.333 -28.5 -178c0 -154 47.667 -277.667 143 -371s214.333 -140 357 -140c59.333 0 116.833 9.66699 172.5 29s107.167 48 154.5 86s85.333 89.667 114 155s43 139.666 43 222.999zM966.006 1436
c144.667 0 273.333 -28.332 386 -84.999s201.334 -139.167 266.001 -247.5s97 -234.166 97 -377.499c0 -145.333 -31.667 -274.166 -95 -386.499s-152.333 -199.5 -267 -261.5s-246.334 -93 -395.001 -93c-98 0 -191 15.167 -279 45.5s-166.833 74.666 -236.5 132.999
s-125 134.166 -166 227.499s-61.5 198.666 -61.5 315.999c0 146 32 274.5 96 385.5s152.667 196 266 255s243 88.5 389 88.5z" />
    <glyph glyph-name="Odieresis" unicode="&#xd6;" horiz-adv-x="1850" 
d="M966 1436c144.667 0 273.333 -28.332 386 -84.999s201.334 -139.167 266.001 -247.5s97 -234.166 97 -377.499c0 -145.333 -31.667 -274.166 -95 -386.499s-152.333 -199.5 -267 -261.5s-246.334 -93 -395.001 -93c-98 0 -191 15.167 -279 45.5
s-166.833 74.666 -236.5 132.999s-125 134.166 -166 227.499s-61.5 198.666 -61.5 315.999c0 146 32 274.5 96 385.5s152.667 196 266 255s243 88.5 389 88.5zM1457 709.001c0 84 -14.998 158.833 -44.998 224.5s-69.667 117.667 -119 156s-102.833 67.166 -160.5 86.499
s-117.5 29 -179.5 29c-46.667 0 -92.334 -5.66699 -137.001 -17s-87.834 -29.666 -129.501 -54.999s-78.167 -56.166 -109.5 -92.499s-56.5 -81.5 -75.5 -135.5s-28.5 -113.333 -28.5 -178c0 -154 47.667 -277.667 143 -371s214.333 -140 357 -140
c59.333 0 116.833 9.66699 172.5 29s107.167 48 154.5 86s85.333 89.667 114 155s43 139.666 43 222.999zM586.001 1898h291v-267h-291v267zM1075 1898h291v-267h-291v267z" />
    <glyph glyph-name="multiply" unicode="&#xd7;" horiz-adv-x="1463" 
d="M346 165l-164 163l371 326l-363 317l163 163l403 -332l394 326l163 -164l-369 -325l362 -318l-163 -163l-403 332z" />
    <glyph glyph-name="Oslash" unicode="&#xd8;" horiz-adv-x="1920" 
d="M976 1205c-48 0 -94.667 -5.83105 -140 -17.498s-88.833 -30 -130.5 -55s-78.167 -55.833 -109.5 -92.5s-56.333 -81.834 -75 -135.501s-28 -112.834 -28 -177.501c0 -100 21.333 -188.667 64 -266l752 632c-93.333 74.667 -204.333 112 -333 112zM1696 1417
l108.001 -128.001l-185 -155c77.333 -114.667 116 -250.667 116 -408c0 -145.333 -31.667 -274.166 -95 -386.499s-152.333 -199.5 -267 -261.5s-246.334 -93 -395.001 -93c-98 0 -191.5 15 -280.5 45s-167.167 74.333 -234.5 133l-196 -164l-108 129l193 161
c-78 116.667 -117 256 -117 418c0 146 32 274.5 96 385.5s152.667 196 266 255s243 88.5 389 88.5c211.333 0 385.333 -59 522 -177zM1417 964.001l-754 -632.999c91.333 -76.667 201.333 -115 330 -115c59.333 0 116.833 9.66699 172.5 29s107.167 48 154.5 86
s85.333 89.667 114 155s43 139.666 43 222.999c0 97.333 -20 182.333 -60 255z" />
    <glyph glyph-name="Ugrave" unicode="&#xd9;" horiz-adv-x="1744" 
d="M290 1421l252 -0.00195312v-901c0 -34 2.5 -64.667 7.5 -92s15.5 -55.166 31.5 -83.499s37 -52 63 -71s61.833 -34.5 107.5 -46.5s99.167 -18 160.5 -18c71.333 0 132 7.66699 182 23s88.167 37.833 114.5 67.5s45.166 62.167 56.499 97.5s17 76.333 17 123v901h252v-926
c0 -22.667 -0.333008 -41.667 -1 -57s-3 -37.5 -7 -66.5s-9.5 -54.167 -16.5 -75.5s-18 -46.5 -33 -75.5s-32.667 -53.833 -53 -74.5s-46.666 -42.167 -78.999 -64.5s-68.666 -40.333 -108.999 -54s-88.833 -25 -145.5 -34s-118.667 -13.5 -186 -13.5
c-65.333 0 -125.666 4.5 -180.999 13.5s-102.666 20.5 -141.999 34.5s-74.833 32 -106.5 54s-57.334 43.5 -77.001 64.5s-36.834 45.833 -51.501 74.5s-25.5 53.834 -32.5 75.501s-12.333 47 -16 76s-5.83398 51.167 -6.50098 66.5s-1 34 -1 56v926zM664 1973l643 -353
l-114 -176l-655 334z" />
    <glyph glyph-name="Uacute" unicode="&#xda;" horiz-adv-x="1744" 
d="M290 1421l252 -0.00195312v-901c0 -34 2.5 -64.667 7.5 -92s15.5 -55.166 31.5 -83.499s37 -52 63 -71s61.833 -34.5 107.5 -46.5s99.167 -18 160.5 -18c71.333 0 132 7.66699 182 23s88.167 37.833 114.5 67.5s45.166 62.167 56.499 97.5s17 76.333 17 123v901h252v-926
c0 -22.667 -0.333008 -41.667 -1 -57s-3 -37.5 -7 -66.5s-9.5 -54.167 -16.5 -75.5s-18 -46.5 -33 -75.5s-32.667 -53.833 -53 -74.5s-46.666 -42.167 -78.999 -64.5s-68.666 -40.333 -108.999 -54s-88.833 -25 -145.5 -34s-118.667 -13.5 -186 -13.5
c-65.333 0 -125.666 4.5 -180.999 13.5s-102.666 20.5 -141.999 34.5s-74.833 32 -106.5 54s-57.334 43.5 -77.001 64.5s-36.834 45.833 -51.501 74.5s-25.5 53.834 -32.5 75.501s-12.333 47 -16 76s-5.83398 51.167 -6.50098 66.5s-1 34 -1 56v926zM1192 1976l121 -195
l-652 -337l-115 179z" />
    <glyph glyph-name="Ucircumflex" unicode="&#xdb;" horiz-adv-x="1744" 
d="M290 1421l252 -0.00195312v-901c0 -34 2.5 -64.667 7.5 -92s15.5 -55.166 31.5 -83.499s37 -52 63 -71s61.833 -34.5 107.5 -46.5s99.167 -18 160.5 -18c71.333 0 132 7.66699 182 23s88.167 37.833 114.5 67.5s45.166 62.167 56.499 97.5s17 76.333 17 123v901h252v-926
c0 -22.667 -0.333008 -41.667 -1 -57s-3 -37.5 -7 -66.5s-9.5 -54.167 -16.5 -75.5s-18 -46.5 -33 -75.5s-32.667 -53.833 -53 -74.5s-46.666 -42.167 -78.999 -64.5s-68.666 -40.333 -108.999 -54s-88.833 -25 -145.5 -34s-118.667 -13.5 -186 -13.5
c-65.333 0 -125.666 4.5 -180.999 13.5s-102.666 20.5 -141.999 34.5s-74.833 32 -106.5 54s-57.334 43.5 -77.001 64.5s-36.834 45.833 -51.501 74.5s-25.5 53.834 -32.5 75.501s-12.333 47 -16 76s-5.83398 51.167 -6.50098 66.5s-1 34 -1 56v926zM929 1943l351 -349
l-173 -144l-195 194l-199 -191l-169 133z" />
    <glyph glyph-name="Udieresis" unicode="&#xdc;" horiz-adv-x="1744" 
d="M290 1421l252 -0.00195312v-901c0 -34 2.5 -64.667 7.5 -92s15.5 -55.166 31.5 -83.499s37 -52 63 -71s61.833 -34.5 107.5 -46.5s99.167 -18 160.5 -18c71.333 0 132 7.66699 182 23s88.167 37.833 114.5 67.5s45.166 62.167 56.499 97.5s17 76.333 17 123v901h252v-926
c0 -22.667 -0.333008 -41.667 -1 -57s-3 -37.5 -7 -66.5s-9.5 -54.167 -16.5 -75.5s-18 -46.5 -33 -75.5s-32.667 -53.833 -53 -74.5s-46.666 -42.167 -78.999 -64.5s-68.666 -40.333 -108.999 -54s-88.833 -25 -145.5 -34s-118.667 -13.5 -186 -13.5
c-65.333 0 -125.666 4.5 -180.999 13.5s-102.666 20.5 -141.999 34.5s-74.833 32 -106.5 54s-57.334 43.5 -77.001 64.5s-36.834 45.833 -51.501 74.5s-25.5 53.834 -32.5 75.501s-12.333 47 -16 76s-5.83398 51.167 -6.50098 66.5s-1 34 -1 56v926zM513 1898h297v-267h-297
v267zM1014 1898h297v-267h-297v267z" />
    <glyph glyph-name="Yacute" unicode="&#xdd;" horiz-adv-x="1427" 
d="M100 1421h298l380 -551l388 551h288l-545 -757v-664h-283v664zM1027 1976l124 -195l-652 -337l-113 179z" />
    <glyph glyph-name="Thorn" unicode="&#xde;" horiz-adv-x="1490" 
d="M751 967c-74.667 0 -144.33 -2.33203 -208.997 -6.99902v-439c69.333 -4 128.666 -6 177.999 -6h32c45.333 0 84.166 1.16699 116.499 3.5s67.166 8.16602 104.499 17.499s67.5 22.166 90.5 38.499s42.167 39.5 57.5 69.5s23 66 23 108
c0 36.667 -7.33301 68.334 -22 95.001s-33.5 47.5 -56.5 62.5s-52.5 27 -88.5 36s-71.167 14.833 -105.5 17.5s-74.5 4 -120.5 4zM290.004 1421l251.998 0.000976562v-261c86.667 6 174.334 9 263.001 9c71.333 0 135.333 -3.5 192 -10.5s110.834 -19.667 162.501 -38
s94.667 -42 129 -71s61.5 -66.833 81.5 -113.5s30 -101 30 -163c0 -44 -5 -87.333 -15 -130s-26.333 -86.167 -49 -130.5s-56.167 -83.833 -100.5 -118.5s-97.5 -60.334 -159.5 -77.001c-88 -21.333 -218.667 -32 -392 -32c-48 0 -95.333 1 -142 3v-288h-252v1421z" />
    <glyph glyph-name="germandbls" unicode="&#xdf;" horiz-adv-x="1422" 
d="M664 1430c70.667 0 135.003 -11.5 193.003 -34.5s104.333 -52.833 139 -89.5s61.334 -76.334 80.001 -119.001s28 -85 28 -127c0 -36.667 -7.16699 -70.5 -21.5 -101.5s-32.5 -56.667 -54.5 -77s-45.5 -39.666 -70.5 -57.999s-48.5 -33.666 -70.5 -45.999
s-40.167 -25.5 -54.5 -39.5s-21.5 -27.333 -21.5 -40c0 -16.667 9 -31.167 27 -43.5s41.5 -23.166 70.5 -32.499l95.5 -29.5c34.667 -10.333 69.5 -23.5 104.5 -39.5s67 -35 96 -57s52.5 -51.667 70.5 -89s27 -80 27 -128c0 -26 -3.5 -52.167 -10.5 -78.5
s-20 -53.333 -39 -81s-42.667 -52 -71 -73s-65.833 -38.333 -112.5 -52s-99.667 -20.5 -159 -20.5c-114.667 0 -236.334 16.333 -365.001 49l-45 11l60 192l43 -8c115.333 -20 204.666 -30 267.999 -30c66 0 111.667 8.33301 137 25s38 42 38 76
c0 24.667 -9.5 45.667 -28.5 63s-43.833 31.5 -74.5 42.5s-64.334 21.5 -101.001 31.5s-73.334 21.833 -110.001 35.5s-70.334 29.667 -101.001 48s-55.5 43.5 -74.5 75.5s-28.5 69.667 -28.5 113c0 40.667 10.5 77.167 31.5 109.5s46.333 58.5 76 78.5
s59.334 38.5 89.001 55.5s55 34.5 76 52.5s31.5 36.667 31.5 56c0 43.333 -19.833 79.333 -59.5 108s-82.5 43 -128.5 43c-12 0 -24.667 -1 -38 -3s-30 -7.5 -50 -16.5s-37.667 -20.833 -53 -35.5s-28.666 -36.334 -39.999 -65.001s-17 -62 -17 -100v-981h-246v982
c0 62 8.66699 118.333 26 169s40.666 93 69.999 127s64 62.667 104 86s82 40.166 126 50.499s90 15.5 138 15.5z" />
    <glyph glyph-name="agrave" unicode="&#xe0;" horiz-adv-x="1233" 
d="M589 1006c74 0 138.665 -6.50098 193.998 -19.501s100 -30.333 134 -52s61.333 -48.5 82 -80.5s34.834 -64.667 42.501 -98s11.5 -70.666 11.5 -111.999v-644h-184l-28 65c-89.333 -56.667 -193.666 -85 -312.999 -85c-118.667 0 -215.834 29.167 -291.501 87.5
s-113.5 126.833 -113.5 205.5c0 49.333 12.167 92.333 36.5 129s56.333 66 96 88s90 39.833 151 53.5s122.667 23.167 185 28.5s133.833 8.33301 214.5 9v35c0 19.333 -1.16699 36 -3.5 50s-8.16602 29.333 -17.499 46s-22.5 30.167 -39.5 40.5s-41.5 19 -73.5 26
s-70.333 10.5 -115 10.5c-81.333 0 -177.333 -14.667 -288 -44l-40 -11l-51 197l35 12c112.667 42 238 63 376 63zM805.998 254.999l-0.000976562 141h-25c-139.333 0 -242.833 -8 -310.5 -24s-101.5 -43 -101.5 -81c0 -24.667 20.5 -47.5 61.5 -68.5
s91.5 -31.5 151.5 -31.5c84.667 0 159.334 21.333 224.001 64zM507.997 1557l480 -378l-130 -163l-522 368z" />
    <glyph glyph-name="aacute" unicode="&#xe1;" horiz-adv-x="1233" 
d="M802 1567l147 -173l-508 -368l-144 163zM806 255l-0.000976562 141h-25c-139.333 0 -242.833 -8 -310.5 -24s-101.5 -43 -101.5 -81c0 -24.667 20.5 -47.5 61.5 -68.5s91.5 -31.5 151.5 -31.5c84.667 0 159.334 21.333 224.001 64zM588.999 1006
c74 0 138.665 -6.50098 193.998 -19.501s100 -30.333 134 -52s61.333 -48.5 82 -80.5s34.834 -64.667 42.501 -98s11.5 -70.666 11.5 -111.999v-644h-184l-28 65c-89.333 -56.667 -193.666 -85 -312.999 -85c-118.667 0 -215.834 29.167 -291.501 87.5
s-113.5 126.833 -113.5 205.5c0 49.333 12.167 92.333 36.5 129s56.333 66 96 88s90 39.833 151 53.5s122.667 23.167 185 28.5s133.833 8.33301 214.5 9v35c0 19.333 -1.16699 36 -3.5 50s-8.16602 29.333 -17.499 46s-22.5 30.167 -39.5 40.5s-41.5 19 -73.5 26
s-70.333 10.5 -115 10.5c-81.333 0 -177.333 -14.667 -288 -44l-40 -11l-51 197l35 12c112.667 42 238 63 376 63z" />
    <glyph glyph-name="acircumflex" unicode="&#xe2;" horiz-adv-x="1233" 
d="M636 1509l344 -348l-152 -145l-209 194l-220 -191l-155 133zM806 255l-0.000976562 141h-25c-139.333 0 -242.833 -8 -310.5 -24s-101.5 -43 -101.5 -81c0 -24.667 20.5 -47.5 61.5 -68.5s91.5 -31.5 151.5 -31.5c84.667 0 159.334 21.333 224.001 64zM588.999 1006
c74 0 138.665 -6.50098 193.998 -19.501s100 -30.333 134 -52s61.333 -48.5 82 -80.5s34.834 -64.667 42.501 -98s11.5 -70.666 11.5 -111.999v-644h-184l-28 65c-89.333 -56.667 -193.666 -85 -312.999 -85c-118.667 0 -215.834 29.167 -291.501 87.5
s-113.5 126.833 -113.5 205.5c0 49.333 12.167 92.333 36.5 129s56.333 66 96 88s90 39.833 151 53.5s122.667 23.167 185 28.5s133.833 8.33301 214.5 9v35c0 19.333 -1.16699 36 -3.5 50s-8.16602 29.333 -17.499 46s-22.5 30.167 -39.5 40.5s-41.5 19 -73.5 26
s-70.333 10.5 -115 10.5c-81.333 0 -177.333 -14.667 -288 -44l-40 -11l-51 197l35 12c112.667 42 238 63 376 63z" />
    <glyph glyph-name="atilde" unicode="&#xe3;" horiz-adv-x="1233" 
d="M892 1450l189.998 -29.999l-26 -127c-29.333 -156.667 -104.666 -235 -225.999 -235c-41.333 1.33301 -81 8.5 -119 21.5s-70 28.333 -96 46s-49.5 35 -70.5 52s-40 31.5 -57 43.5s-31.167 18 -42.5 18c-27.333 0 -47.333 -31 -60 -93c-0.666992 -2 -1 -3.66699 -1 -5
l-20 -88l-190 26l26 128c12.667 59.333 29.334 105 50.001 137c42 65.333 104.333 98 187 98c50 -2 98 -12.667 144 -32s82.333 -40 109 -62s52.334 -42.167 77.001 -60.5s43 -27.5 55 -27.5c6.66699 0 12.667 2.16699 18 6.5s9.66602 9.66602 12.999 15.999
s6.5 13.833 9.5 22.5s5.16699 16.167 6.5 22.5l4 20c1.33301 7 2 10.833 2 11.5zM799.998 255.001l0.000976562 141h-25c-137.333 0 -239.333 -8 -306 -24s-100 -43 -100 -81c0 -24.667 20.167 -47.5 60.5 -68.5s90.166 -31.5 149.499 -31.5c84 0 157.667 21.333 221 64z
M585.999 1006c74 0 139.002 -6.50098 195.002 -19.501s101 -30.333 135 -52s61.5 -48.5 82.5 -80.5s35.333 -64.667 43 -98s11.5 -70.666 11.5 -111.999v-644h-184l-28 65c-96.667 -56.667 -201.667 -85 -315 -85c-117.333 0 -213.833 29.167 -289.5 87.5
s-113.5 126.833 -113.5 205.5c0 41.333 8 78.166 24 110.499s39.667 59.333 71 81s66.666 40.167 105.999 55.5s85.5 27.166 138.5 35.499s106.167 14.5 159.5 18.5s112.666 6.33301 177.999 7v35c0 16 -0.833008 29.833 -2.5 41.5s-5 24.834 -10 39.501
s-13.167 27 -24.5 37s-25.5 19.333 -42.5 28s-39.667 15.334 -68 20.001s-60.833 7 -97.5 7c-80 0 -175.333 -14.667 -286 -44l-40 -11l-51 197l35 12c112.667 42 237 63 373 63z" />
    <glyph glyph-name="adieresis" unicode="&#xe4;" horiz-adv-x="1233" 
d="M785 1421h272v-268h-272v268zM259 1421h303v-268h-303v268zM805 255l-0.00195312 141h-25c-139.333 0 -242.666 -8 -309.999 -24s-101 -43 -101 -81c0 -24.667 20.5 -47.5 61.5 -68.5s91.167 -31.5 150.5 -31.5c84.667 0 159.334 21.333 224.001 64zM588.998 1006
c74 0 138.829 -6.5 194.496 -19.5s100.334 -30.333 134.001 -52s60.834 -48.5 81.501 -80.5s34.834 -64.667 42.501 -98s11.5 -70.666 11.5 -111.999v-644h-184l-28 65c-90.667 -56.667 -195.334 -85 -314.001 -85s-215.667 29.167 -291 87.5s-113 126.833 -113 205.5
c0 41.333 8 78.166 24 110.499s39.667 59.333 71 81s66.833 40.167 106.5 55.5s86.334 27.166 140.001 35.499s107.334 14.5 161.001 18.5s113.5 6.33301 179.5 7v35c0 20 -1.16699 36.833 -3.5 50.5s-8.16602 28.834 -17.499 45.501s-22.5 30.167 -39.5 40.5
s-41.333 19 -73 26s-69.834 10.5 -114.501 10.5c-81.333 0 -177.333 -14.667 -288 -44l-40 -11l-51 197l35 12c112.667 42 238 63 376 63z" />
    <glyph glyph-name="aring" unicode="&#xe5;" horiz-adv-x="1233" 
d="M643 1400c-31.333 0 -57.333 -9.00195 -78 -27.002s-31 -39.667 -31 -65s10.167 -47.166 30.5 -65.499s46.5 -27.5 78.5 -27.5c29.333 0 54.333 9.33301 75 28s31 40.334 31 65.001s-10.333 46.167 -31 64.5s-45.667 27.5 -75 27.5zM642 1573
c85.333 0 155.331 -25.333 209.998 -76s82 -113.667 82 -189c0 -74.667 -27.167 -137.667 -81.5 -189s-124.166 -77 -209.499 -77c-87.333 0 -161.166 25.833 -221.499 77.5s-90.5 114.5 -90.5 188.5c0 73.333 30 135.833 90 187.5s133.667 77.5 221 77.5zM805.998 254.998
l-0.000976562 141h-25c-139.333 0 -242.833 -8 -310.5 -24s-101.5 -43 -101.5 -81c0 -24.667 20.5 -47.5 61.5 -68.5s91.5 -31.5 151.5 -31.5c84.667 0 159.334 21.333 224.001 64zM588.997 1006c74 0 138.665 -6.50098 193.998 -19.501s100 -30.333 134 -52
s61.333 -48.5 82 -80.5s34.834 -64.667 42.501 -98s11.5 -70.666 11.5 -111.999v-644h-184l-28 65c-89.333 -56.667 -193.666 -85 -312.999 -85c-118.667 0 -215.834 29.167 -291.501 87.5s-113.5 126.833 -113.5 205.5c0 49.333 12.167 92.333 36.5 129s56.333 66 96 88
s90 39.833 151 53.5s122.667 23.167 185 28.5s133.833 8.33301 214.5 9v35c0 19.333 -1.16699 36 -3.5 50s-8.16602 29.333 -17.499 46s-22.5 30.167 -39.5 40.5s-41.5 19 -73.5 26s-70.333 10.5 -115 10.5c-81.333 0 -177.333 -14.667 -288 -44l-40 -11l-51 197l35 12
c112.667 42 238 63 376 63z" />
    <glyph glyph-name="ae" unicode="&#xe6;" horiz-adv-x="1838" 
d="M368 315c0 -31.333 19.334 -59.501 58.001 -84.501s83.667 -37.5 135 -37.5c73.333 0 137.333 24 192 72v171c-68 -0.666992 -126.333 -3.66699 -175 -9s-86.334 -11.666 -113.001 -18.999s-47.5 -16.5 -62.5 -27.5s-24.5 -21.333 -28.5 -31s-6 -21.167 -6 -34.5z
M1272 781.999c-66.667 0 -121.332 -17.167 -163.999 -51.5s-68.334 -77.5 -77.001 -129.5h436c-2 23.333 -6.66699 44.833 -14 64.5s-18 38.667 -32 57s-33.667 32.833 -59 43.5s-55.333 16 -90 16zM213.003 945.999c116.667 40 238.331 59.9971 364.998 59.9971
c158 0 274 -48.667 348 -146c50 45.333 107.5 81 172.5 107s132.833 39 203.5 39c57.333 0 108.333 -8 153 -24s81.334 -38.667 110.001 -68s52.667 -61.5 72 -96.5s34 -75.333 44 -121s16.833 -88.667 20.5 -129s5.5 -84.166 5.5 -131.499v-41h-684
c12 -58 49.833 -106 113.5 -144s141.167 -57 232.5 -57c59.333 0 126.333 11.333 201 34l42 13l45 -190l-34 -12c-107.333 -39.333 -214.666 -59 -321.999 -59c-164 0 -296.333 43.667 -397 131c-91.333 -87.333 -217.333 -131 -378 -131c-108.667 0 -203 28.833 -283 86.5
s-120 129.834 -120 216.501c0 80.667 35 148.334 105 203.001s171.333 88 304 100c50 4.66699 123.667 7.66699 221 9v9c0 26.667 -3.33301 51.167 -10 73.5s-18 43.333 -34 63s-39 35.167 -69 46.5s-66 17 -108 17c-64 0 -148.333 -13 -253 -39l-37 -10l-67 178z" />
    <glyph glyph-name="ccedilla" unicode="&#xe7;" horiz-adv-x="1165" 
d="M681 -321c22 0.666992 39.335 4.49609 52.002 11.4961s19 15.5 19 25.5c0 14 -11.333 25.333 -34 34s-65.667 21 -129 37l-75 19l-45 11l55 172c-56 10.667 -106.667 27 -152 49s-86.666 51.333 -123.999 88s-66.333 83.834 -87 141.501s-31 123.834 -31 198.501
c0 77.333 11.167 147 33.5 209s52.166 112.833 89.499 152.5s81.666 72.667 132.999 99s104.166 45 158.499 56s111.833 16.5 172.5 16.5c110 0 212.667 -20.667 308 -62l35 -15l-65 -195l-39 13c-68.667 24 -140.334 36 -215.001 36c-38 0 -73.167 -2.5 -105.5 -7.5
s-64.333 -14 -96 -27s-58.5 -29.667 -80.5 -50s-39.667 -47 -53 -80s-20 -71.167 -20 -114.5c0 -204.667 125.333 -307 376 -307c63.333 0 124 10.333 182 31l39 13l67 -189l-37 -14c-80 -30.667 -160.333 -49 -241 -55l-13 -43c122.667 -35.333 184 -104.333 184 -207
c0 -59.333 -23.5 -111.5 -70.5 -156.5s-112.167 -67.5 -195.5 -67.5c-14.667 0 -30.167 0.833008 -46.5 2.5s-30.333 3.33398 -42 5.00098s-28.167 4.83398 -49.5 9.50098s-36.166 8 -44.499 10s-25.833 6.5 -52.5 13.5s-43 11.167 -49 12.5l-47 11l58 170l47 -12
c118 -30 193.667 -45 227 -45h3z" />
    <glyph glyph-name="egrave" unicode="&#xe8;" horiz-adv-x="1266" 
d="M697 1007c58 0 110.168 -6.16406 156.501 -18.4971s84.5 -28 114.5 -47s56 -43.667 78 -74s38.667 -59.333 50 -87s20.166 -60.834 26.499 -99.501s10.166 -71.334 11.499 -98.001s2 -58.334 2 -95.001v-112h-756c14.667 -49.333 55.5 -92.166 122.5 -128.499
s155.167 -54.5 264.5 -54.5c77.333 0 155 11.333 233 34l41 12l49 -190l-36 -12c-111.333 -38 -231.333 -57 -360 -57c-86.667 0 -163.667 9.66699 -231 29s-121.5 44.333 -162.5 75s-74.667 67.667 -101 111s-44.5 86.666 -54.5 129.999s-15 89.666 -15 138.999
c0 91.333 15.333 172.5 46 243.5s72.667 127.833 126 170.5s113.333 74.834 180 96.501s138.334 32.5 215.001 32.5zM656.001 783.003c-78.667 0 -141.832 -19.333 -189.499 -58s-75.834 -86.334 -84.501 -143.001h512c-5.33301 72.667 -28.333 124.334 -69 155.001
s-97 46 -169 46zM520.003 1567l483 -378l-133 -163l-519 368z" />
    <glyph glyph-name="eacute" unicode="&#xe9;" horiz-adv-x="1266" 
d="M697 1007c58 0 110.168 -6.16406 156.501 -18.4971s84.5 -28 114.5 -47s56 -43.667 78 -74s38.667 -59.333 50 -87s20.166 -60.834 26.499 -99.501s10.166 -71.334 11.499 -98.001s2 -58.334 2 -95.001v-112h-756c14.667 -49.333 55.5 -92.166 122.5 -128.499
s155.167 -54.5 264.5 -54.5c77.333 0 155 11.333 233 34l41 12l49 -190l-36 -12c-111.333 -38 -231.333 -57 -360 -57c-86.667 0 -163.667 9.66699 -231 29s-121.5 44.333 -162.5 75s-74.667 67.667 -101 111s-44.5 86.666 -54.5 129.999s-15 89.666 -15 138.999
c0 91.333 15.333 172.5 46 243.5s72.667 127.833 126 170.5s113.333 74.834 180 96.501s138.334 32.5 215.001 32.5zM656.001 783.003c-78.667 0 -141.832 -19.333 -189.499 -58s-75.834 -86.334 -84.501 -143.001h512c-5.33301 72.667 -28.333 124.334 -69 155.001
s-97 46 -169 46zM903.003 1567l146 -173l-493 -368l-155 163z" />
    <glyph glyph-name="ecircumflex" unicode="&#xea;" horiz-adv-x="1266" 
d="M697 1007c58 0 110.168 -6.16406 156.501 -18.4971s84.5 -28 114.5 -47s56 -43.667 78 -74s38.667 -59.333 50 -87s20.166 -60.834 26.499 -99.501s10.166 -71.334 11.499 -98.001s2 -58.334 2 -95.001v-112h-756c14.667 -49.333 55.5 -92.166 122.5 -128.499
s155.167 -54.5 264.5 -54.5c77.333 0 155 11.333 233 34l41 12l49 -190l-36 -12c-111.333 -38 -231.333 -57 -360 -57c-86.667 0 -163.667 9.66699 -231 29s-121.5 44.333 -162.5 75s-74.667 67.667 -101 111s-44.5 86.666 -54.5 129.999s-15 89.666 -15 138.999
c0 91.333 15.333 172.5 46 243.5s72.667 127.833 126 170.5s113.333 74.834 180 96.501s138.334 32.5 215.001 32.5zM656.001 783.003c-78.667 0 -141.832 -19.333 -189.499 -58s-75.834 -86.334 -84.501 -143.001h512c-5.33301 72.667 -28.333 124.334 -69 155.001
s-97 46 -169 46zM729.003 1509l338 -348l-152 -145l-203 194l-211 -191l-170 133z" />
    <glyph glyph-name="edieresis" unicode="&#xeb;" horiz-adv-x="1266" 
d="M697 1007c58 0 110.168 -6.16406 156.501 -18.4971s84.5 -28 114.5 -47s56 -43.667 78 -74s38.667 -59.333 50 -87s20.166 -60.834 26.499 -99.501s10.166 -71.334 11.499 -98.001s2 -58.334 2 -95.001v-112h-754c14 -49.333 54.333 -92.166 121 -128.499
s154.667 -54.5 264 -54.5c77.333 0 155 11.333 233 34l41 12l49 -190l-36 -12c-111.333 -38 -231.333 -57 -360 -57c-86.667 0 -163.667 9.66699 -231 29s-121.5 44.333 -162.5 75s-74.667 67.667 -101 111s-44.5 86.666 -54.5 129.999s-15 89.666 -15 138.999
c0 91.333 15.333 172.5 46 243.5s72.667 127.833 126 170.5s113.333 74.834 180 96.501s138.334 32.5 215.001 32.5zM656.001 783.003c-79.333 0 -143 -19.333 -191 -58s-76.333 -86.334 -85 -143.001h514c-5.33301 72.667 -28.333 124.334 -69 155.001s-97 46 -169 46z
M295.001 1421h302v-268h-302v268zM814.001 1421h279v-268h-279v268z" />
    <glyph glyph-name="igrave" unicode="&#xec;" horiz-adv-x="606" 
d="M197 988h246v-988h-246v988zM146 1567l424 -378l-130 -163l-440 368z" />
    <glyph glyph-name="iacute" unicode="&#xed;" horiz-adv-x="606" 
d="M195 988h246v-988h-246v988zM536 1567l146 -173l-440 -368l-130 163z" />
    <glyph glyph-name="icircumflex" unicode="&#xee;" horiz-adv-x="612" 
d="M196 988h246v-988h-246v988zM326 1514l281 -355l-153 -145l-143 181l-145 -178l-149 133z" />
    <glyph glyph-name="idieresis" unicode="&#xef;" horiz-adv-x="606" 
d="M180 988h246v-988h-246v988zM-15 1421h267v-267h-267v267zM354 1421h267v-267h-267v267z" />
    <glyph glyph-name="eth" unicode="&#xf0;" horiz-adv-x="1416" 
d="M371 522c0 -93.333 31.167 -171 93.5 -233s136.833 -93 223.5 -93c28 0 55.667 3.83301 83 11.5s56.333 21 87 40s57.5 48.667 80.5 89s38.833 88.833 47.5 145.5c6.66699 48.667 10 111.334 10 188.001v39c-125.333 65.333 -234.333 98 -327 98
c-86 0 -157.167 -26.333 -213.5 -79s-84.5 -121.334 -84.5 -206.001zM594 1457c120.667 -28.667 231 -74.0039 331 -136.004l203 112l96 -166l-144 -83c58.667 -68 99.334 -142.667 122.001 -224s34 -174.666 34 -279.999c0 -54.667 -1.83301 -104.667 -5.5 -150
s-10.834 -92.666 -21.501 -141.999s-24.667 -93.333 -42 -132s-40.5 -75.667 -69.5 -111s-62.833 -64.666 -101.5 -87.999s-85.667 -42 -141 -56s-117 -21 -185 -21c-165.333 0 -296.666 40.667 -393.999 122s-146 192.333 -146 333c0 70 11.833 136.167 35.5 198.5
s57.167 117 100.5 164s97.666 84.333 162.999 112s137.333 41.5 216 41.5c98.667 0 206.334 -22.667 323.001 -68c-22.667 66 -64 125.333 -124 178l-216 -108l-109 166l137 69c-46.667 22.667 -100.334 43.334 -161.001 62.001l-51 15l112 201z" />
    <glyph glyph-name="ntilde" unicode="&#xf1;" 
d="M977 1455l189.998 -29.999l-26 -127c-30.667 -157.333 -105.667 -236 -225 -236c-41.333 1.33301 -80.666 8.5 -117.999 21.5s-68.833 28.333 -94.5 46s-49 35 -70 52s-39.833 31.5 -56.5 43.5s-30.667 18 -42 18c-26.667 0 -47 -32.333 -61 -97l-21 -89l-194 28l26 127
c13.333 64 32.666 113 57.999 147c43.333 58 104.666 87 183.999 87c40.667 -1.33301 79.834 -8.5 117.501 -21.5s69.334 -28.333 95.001 -46s49 -35 70 -52s39.833 -31.5 56.5 -43.5s30 -18 40 -18c7.33301 0 14 2.66699 20 8s11 12.666 15 21.999s7.16699 17.833 9.5 25.5
s4.33301 16.5 6 26.5s2.83398 15.667 3.50098 17zM179.998 988.001l182.999 -0.000976562l29 -68c136 58.667 265 88 387 88c64.667 0 120.667 -8.66699 168 -26s84.5 -39 111.5 -65s48.5 -58.833 64.5 -98.5s26.333 -77.5 31 -113.5s7 -76.667 7 -122v-583h-247v580
c0 12.667 -0.333008 23.834 -1 33.501s-2.66699 21.667 -6 36s-7.66602 27 -12.999 38s-13.5 22.5 -24.5 34.5s-24.167 21.833 -39.5 29.5s-34.5 14 -57.5 19s-49.167 7.5 -78.5 7.5c-80 0 -169.333 -18.333 -268 -55v-723h-246v988z" />
    <glyph glyph-name="ograve" unicode="&#xf2;" horiz-adv-x="1375" 
d="M595 1567l477 -378l-139 -163l-506 368zM678 785c-51.333 0 -99.668 -9.66895 -145.001 -29.002s-83.5 -50.666 -114.5 -93.999s-46.5 -94.333 -46.5 -153c0 -86.667 30 -159.5 90 -218.5s138 -88.5 234 -88.5c87.333 0 160.333 25.667 219 77s88 119.333 88 204
c0 48.667 -9.66699 92.834 -29 132.501s-44.666 71.5 -75.999 95.5s-66 42.333 -104 55s-76.667 19 -116 19zM693.998 1007c165.333 0 298.5 -43.501 399.5 -130.501s151.5 -208.5 151.5 -364.5c0 -164 -51.5 -293.667 -154.5 -389s-241.5 -143 -415.5 -143
c-165.333 0 -297.5 44.833 -396.5 134.5s-148.5 212.834 -148.5 369.501c0 160.667 50.5 288 151.5 382s238.5 141 412.5 141z" />
    <glyph glyph-name="oacute" unicode="&#xf3;" horiz-adv-x="1375" 
d="M694 1007c165.333 0 298.5 -43.501 399.5 -130.501s151.5 -208.5 151.5 -364.5c0 -164 -51.5 -293.667 -154.5 -389s-241.5 -143 -415.5 -143c-165.333 0 -297.5 44.833 -396.5 134.5s-148.5 212.834 -148.5 369.501c0 160.667 50.5 288 151.5 382s238.5 141 412.5 141z
M678 784.999c-51.333 0 -99.668 -9.66895 -145.001 -29.002s-83.5 -50.666 -114.5 -93.999s-46.5 -94.333 -46.5 -153c0 -86.667 30 -159.5 90 -218.5s138 -88.5 234 -88.5c87.333 0 160.333 25.667 219 77s88 119.333 88 204c0 48.667 -9.66699 92.834 -29 132.501
s-44.666 71.5 -75.999 95.5s-66 42.333 -104 55s-76.667 19 -116 19zM807.998 1567l168 -173l-506 -368l-143 163z" />
    <glyph glyph-name="ocircumflex" unicode="&#xf4;" horiz-adv-x="1375" 
d="M694 1007c165.333 0 298.5 -43.501 399.5 -130.501s151.5 -208.5 151.5 -364.5c0 -164 -51.5 -293.667 -154.5 -389s-241.5 -143 -415.5 -143c-165.333 0 -297.5 44.833 -396.5 134.5s-148.5 212.834 -148.5 369.501c0 160.667 50.5 288 151.5 382s238.5 141 412.5 141z
M678 784.999c-51.333 0 -99.668 -9.66895 -145.001 -29.002s-83.5 -50.666 -114.5 -93.999s-46.5 -94.333 -46.5 -153c0 -86.667 30 -159.5 90 -218.5s138 -88.5 234 -88.5c87.333 0 160.333 25.667 219 77s88 119.333 88 204c0 48.667 -9.66699 92.834 -29 132.501
s-44.666 71.5 -75.999 95.5s-66 42.333 -104 55s-76.667 19 -116 19zM709.998 1509l350 -348l-165 -145l-201 194l-205 -191l-165 133z" />
    <glyph glyph-name="otilde" unicode="&#xf5;" horiz-adv-x="1375" 
d="M957 1454l189.998 -29.999l-26 -127c-29.333 -156.667 -104.666 -235 -225.999 -235c-41.333 1.33301 -81 8.5 -119 21.5s-70 28.333 -96 46s-49.5 35 -70.5 52s-40 31.5 -57 43.5s-31.167 18 -42.5 18c-27.333 0 -47.333 -31 -60 -93c-0.666992 -2 -1 -3.66699 -1 -5
l-20 -88l-190 26l26 128c12.667 59.333 29.334 105 50.001 137c42 65.333 104.333 98 187 98c50 -2 98 -12.667 144 -32s82.333 -40 109 -62s52.334 -42.167 77.001 -60.5s43 -27.5 55 -27.5c6.66699 0 12.667 2.16699 18 6.5s9.66602 9.66602 12.999 15.999
s6.5 13.833 9.5 22.5s5.16699 16.167 6.5 22.5l4 20c1.33301 7 2 10.833 2 11.5zM677.998 785.001c-51.333 0 -99.668 -9.66895 -145.001 -29.002s-83.5 -50.666 -114.5 -93.999s-46.5 -94.333 -46.5 -153c0 -86.667 30 -159.5 90 -218.5s138 -88.5 234 -88.5
c87.333 0 160.333 25.667 219 77s88 119.333 88 204c0 48.667 -9.66699 92.834 -29 132.501s-44.666 71.5 -75.999 95.5s-66 42.333 -104 55s-76.667 19 -116 19zM693.996 1007c165.333 0 298.5 -43.501 399.5 -130.501s151.5 -208.5 151.5 -364.5
c0 -164 -51.5 -293.667 -154.5 -389s-241.5 -143 -415.5 -143c-165.333 0 -297.5 44.833 -396.5 134.5s-148.5 212.834 -148.5 369.501c0 160.667 50.5 288 151.5 382s238.5 141 412.5 141z" />
    <glyph glyph-name="odieresis" unicode="&#xf6;" horiz-adv-x="1375" 
d="M694 1007c165.333 0 298.5 -43.501 399.5 -130.501s151.5 -208.5 151.5 -364.5c0 -164 -51.5 -293.667 -154.5 -389s-241.5 -143 -415.5 -143c-165.333 0 -297.5 44.833 -396.5 134.5s-148.5 212.834 -148.5 369.501c0 160.667 50.5 288 151.5 382s238.5 141 412.5 141z
M678 784.999c-51.333 0 -99.668 -9.66895 -145.001 -29.002s-83.5 -50.666 -114.5 -93.999s-46.5 -94.333 -46.5 -153c0 -86.667 30 -159.5 90 -218.5s138 -88.5 234 -88.5c87.333 0 160.333 25.667 219 77s88 119.333 88 204c0 48.667 -9.66699 92.834 -29 132.501
s-44.666 71.5 -75.999 95.5s-66 42.333 -104 55s-76.667 19 -116 19zM318.998 1421h299v-268h-299v268zM826.998 1421h290v-268h-290v268z" />
    <glyph glyph-name="divide" unicode="&#xf7;" horiz-adv-x="1564" 
d="M628 1233h307v-277h-307v277zM628 360h307v-277h-307v277zM125 768h1314v-221h-1314v221z" />
    <glyph glyph-name="oslash" unicode="&#xf8;" horiz-adv-x="1375" 
d="M1184 1020l107.001 -118.999l-123 -111c51.333 -78.667 77 -171.334 77 -278.001c0 -164 -51.5 -293.667 -154.5 -389s-241.5 -143 -415.5 -143c-124.667 0 -231.334 26 -320.001 78l-125 -113l-108 119l111 99c-68.667 85.333 -103 192.333 -103 321
c0 160.667 50.5 288 151.5 382s238.5 141 412.5 141c146.667 0 267.667 -34 363 -102zM678.001 785.001c-51.333 0 -99.667 -9.66797 -145 -29.001s-83.5 -50.666 -114.5 -93.999s-46.5 -94.333 -46.5 -153c0 -65.333 17.333 -123 52 -173l442 397
c-55.333 34.667 -118 52 -188 52zM974 615l-425.999 -383c45.333 -20 94.666 -30 147.999 -30c87.333 0 160.333 25.667 219 77s88 119.333 88 204c0 47.333 -9.66699 91.333 -29 132z" />
    <glyph glyph-name="ugrave" unicode="&#xf9;" 
d="M915 988l246 -0.00195312v-988h-183l-29 67c-134 -58 -263 -87 -387 -87c-64.667 0 -120.667 8.5 -168 25.5s-84.5 38.667 -111.5 65s-48.5 59.166 -64.5 98.499s-26.333 77 -31 113s-7 76.667 -7 122v584h246v-582c0 -17.333 0.833008 -32.666 2.5 -45.999
s6.5 -30.166 14.5 -50.499s19.333 -37.166 34 -50.499s36.667 -25 66 -35s64 -15 104 -15c80 0 169.333 18.333 268 55v724zM532 1567l488 -378l-135 -163l-517 368z" />
    <glyph glyph-name="uacute" unicode="&#xfa;" 
d="M915 988l246 -0.00195312v-988h-183l-29 67c-134 -58 -263 -87 -387 -87c-64.667 0 -120.667 8.5 -168 25.5s-84.5 38.667 -111.5 65s-48.5 59.166 -64.5 98.499s-26.333 77 -31 113s-7 76.667 -7 122v584h246v-582c0 -17.333 0.833008 -32.666 2.5 -45.999
s6.5 -30.166 14.5 -50.499s19.333 -37.166 34 -50.499s36.667 -25 66 -35s64 -15 104 -15c80 0 169.333 18.333 268 55v724zM889 1567l150 -173l-503 -368l-149 163z" />
    <glyph glyph-name="ucircumflex" unicode="&#xfb;" 
d="M915 988l246 -0.00195312v-988h-183l-29 67c-134 -58 -263 -87 -387 -87c-64.667 0 -120.667 8.5 -168 25.5s-84.5 38.667 -111.5 65s-48.5 59.166 -64.5 98.499s-26.333 77 -31 113s-7 76.667 -7 122v584h246v-582c0 -17.333 0.833008 -32.666 2.5 -45.999
s6.5 -30.166 14.5 -50.499s19.333 -37.166 34 -50.499s36.667 -25 66 -35s64 -15 104 -15c80 0 169.333 18.333 268 55v724zM699 1509l348 -348l-156 -145l-210 194l-213 -191l-157 133z" />
    <glyph glyph-name="udieresis" unicode="&#xfc;" 
d="M915 988l246 -0.00195312v-988h-183l-29 67c-134 -58 -263 -87 -387 -87c-64.667 0 -120.667 8.5 -168 25.5s-84.5 38.667 -111.5 65s-48.5 59.166 -64.5 98.499s-26.333 77 -31 113s-7 76.667 -7 122v584h246v-582c0 -17.333 0.833008 -32.666 2.5 -45.999
s6.5 -30.166 14.5 -50.499s19.333 -37.166 34 -50.499s36.667 -25 66 -35s64 -15 104 -15c80 0 169.333 18.333 268 55v724zM276 1421h291v-268h-291v268zM784 1421h289v-268h-289v268z" />
    <glyph glyph-name="yacute" unicode="&#xfd;" horiz-adv-x="1214" 
d="M50 988h259l329 -759l305 759h259l-652 -1519h-296l245 534zM908 1567l150 -173l-488 -368l-149 163z" />
    <glyph glyph-name="thorn" unicode="&#xfe;" horiz-adv-x="1385" 
d="M694 780c-84 0 -147.834 -23.666 -191.501 -70.999s-65.5 -127 -65.5 -239c0 -26 1.5 -50 4.5 -72s9.83301 -45.833 20.5 -71.5s25.167 -47.334 43.5 -65.001s44 -32.5 77 -44.5s71.833 -18 116.5 -18c26.667 0 53.5 2.83301 80.5 8.5s54.833 15.5 83.5 29.5
s53.834 31.333 75.501 52s39.5 47.667 53.5 81s21 70.666 21 111.999c0 48 -9.5 91.5 -28.5 130.5s-44.167 70.333 -75.5 94s-65.5 41.834 -102.5 54.501s-74.5 19 -112.5 19zM725.999 1003c101.333 0 191.667 -19.3311 271 -57.998s142.166 -95.834 188.499 -171.501
s69.5 -163.834 69.5 -264.501c0 -101.333 -22.167 -192.333 -66.5 -273s-107.666 -144 -189.999 -190s-176.5 -69 -282.5 -69c-96 0 -185.333 22 -268 66v-574h-258v1952h258v-488c80 46.667 172.667 70 278 70z" />
    <glyph glyph-name="ydieresis" unicode="&#xff;" horiz-adv-x="1214" 
d="M50 988h259l329 -759l305 759h259l-652 -1519h-296l245 534zM240 1421h297v-268h-297v268zM746 1421h292v-268h-292v268z" />
    <glyph glyph-name="Amacron" unicode="&#x100;" horiz-adv-x="1547" 
d="M693 1421h276l562 -1421h-259l-159 372h-580l-159 -372h-244zM1025 603l-202 527l-203 -527h405zM382 1697h903v-211h-903v211z" />
    <glyph glyph-name="amacron" unicode="&#x101;" horiz-adv-x="1233" 
d="M265 1333h696v-211h-696v211zM806 255l-0.000976562 141h-25c-139.333 0 -243 -8 -311 -24s-102 -43 -102 -81c0 -24 20.667 -46.667 62 -68s92 -32 152 -32c84.667 0 159.334 21.333 224.001 64zM588.999 1007c88 0 162.831 -8.66602 224.498 -25.999
s109.5 -42.666 143.5 -75.999s58.5 -71 73.5 -113s22.5 -91 22.5 -147v-645h-184l-28 65c-89.333 -56.667 -193.666 -85 -312.999 -85c-118.667 0 -215.834 29.167 -291.501 87.5s-113.5 126.833 -113.5 205.5c0 41.333 8 78.166 24 110.499s39.667 59.5 71 81.5
s66.833 40.667 106.5 56s86.334 27.166 140.001 35.499s107.5 14.5 161.5 18.5s114 6.33301 180 7v34c0 19.333 -1.16699 36 -3.5 50s-8.16602 29.333 -17.499 46s-22.5 30.167 -39.5 40.5s-41.5 19 -73.5 26s-70.333 10.5 -115 10.5c-81.333 0 -177.333 -14.667 -288 -44
l-40 -11l-51 197l35 12c114.667 42.667 240 64 376 64z" />
    <glyph glyph-name="Abreve" unicode="&#x102;" horiz-adv-x="1547" 
d="M365 1794l212.002 103l20 -38c7.33301 -14 16.166 -28 26.499 -42s25.166 -31.333 44.499 -52s43.666 -37.5 72.999 -50.5s60.333 -19.5 93 -19.5c52 0 103.667 17 155 51s96 74 134 120l26 31l192 -123l-26 -35c-60.667 -76 -135.167 -139 -223.5 -189
s-180.166 -75 -275.499 -75c-106.667 0 -198.5 28.167 -275.5 84.5s-131.167 123.5 -162.5 201.5zM1025 603l-202 527l-203 -527h405zM693.002 1421h276l562 -1421h-259l-159 372h-580l-159 -372h-244z" />
    <glyph glyph-name="abreve" unicode="&#x103;" horiz-adv-x="1233" 
d="M162 1360l191.997 102.997l20 -38c6 -10.667 12.667 -21.167 20 -31.5s19 -24.166 35 -41.499s32.833 -32.166 50.5 -44.499s39.834 -23.166 66.501 -32.499s54.334 -14 83.001 -14c56.667 0 112.5 17.333 167.5 52s100.167 74.334 135.5 119.001l24 31l181 -123l-26 -35
c-58 -76.667 -130.5 -139.834 -217.5 -189.501s-181.5 -74.5 -283.5 -74.5c-59.333 0 -114.166 8.33301 -164.499 25s-93 39 -128 67s-64.333 58.167 -88 90.5s-42.167 66.833 -55.5 103.5zM793.997 254.997l-0.000976562 141h-24c-136 0 -236.833 -8 -302.5 -24
s-98.5 -43 -98.5 -81c0 -24.667 20 -47.5 60 -68.5s89 -31.5 147 -31.5c82.667 0 155.334 21.333 218.001 64zM580.996 1006c75.333 0 141.332 -6.50195 197.999 -19.502s102.167 -30.333 136.5 -52s62 -48.5 83 -80.5s35.333 -64.667 43 -98s11.5 -70.666 11.5 -111.999
v-644h-184l-33 65c-96 -56.667 -200.333 -85 -313 -85c-116.667 0 -212.5 29.167 -287.5 87.5s-112.5 126.833 -112.5 205.5c0 49.333 12 92.333 36 129s55.5 66 94.5 88s88.333 39.833 148 53.5s119.834 23.167 180.501 28.5s130 8.33301 208 9v35
c0 16 -0.833008 29.833 -2.5 41.5s-4.83398 24.834 -9.50098 39.501s-12.5 26.834 -23.5 36.501s-25 19.167 -42 28.5s-39.167 16.166 -66.5 20.499s-59 6.5 -95 6.5c-78.667 0 -172.667 -14.667 -282 -44l-40 -11l-51 197l35 12c112.667 42 235.334 63 368.001 63z" />
    <glyph glyph-name="Aogonek" unicode="&#x104;" horiz-adv-x="1629" 
d="M130 0l615.998 1421h251l616 -1421h-58c-68 -1.33301 -128.167 -11.5 -180.5 -30.5s-91.5 -39.833 -117.5 -62.5s-47.5 -48.5 -64.5 -77.5s-27.167 -49.833 -30.5 -62.5s-5.33301 -23 -6 -31c0 -16.667 5.66699 -31.5 17 -44.5s31 -19.5 59 -19.5
c50.667 0 106.334 17.333 167.001 52l37 22l85 -159l-29 -21c-37.333 -27.333 -83.666 -52.5 -138.999 -75.5s-114 -34.5 -176 -34.5c-84.667 0 -154.667 22.833 -210 68.5s-83 104.167 -83 175.5c0 80.667 41 161.334 123 242.001s177 139.334 285 176.001l-113 254h-632
l-173 -372h-244zM1082 602.998l-218 527l-222 -527h440z" />
    <glyph glyph-name="aogonek" unicode="&#x105;" horiz-adv-x="1233" 
d="M369 310c0 -28.667 18.167 -54.332 54.5 -76.999s84.5 -34 144.5 -34c82 0 160.667 21 236 63v175c-123.333 0 -213.833 -4 -271.5 -12s-101.167 -24.667 -130.5 -50c-22 -18.667 -33 -40.334 -33 -65.001zM557 777.002c-81.333 0 -177.336 -14.6738 -288.003 -44.0068
l-40 -11l-51 197l35 12c112.667 42 238 63 376 63c74 0 138.833 -6.5 194.5 -19.5s100.334 -30.333 134.001 -52s60.834 -48.5 81.501 -80.5s34.834 -64.667 42.501 -98s11.5 -70.666 11.5 -111.999v-661l-22 -11l-66 -32.5l-66.5 -33l-59 -31.5
c-23 -12.667 -41 -23.834 -54 -33.501s-26.167 -20.667 -39.5 -33s-23 -24.666 -29 -36.999s-9 -25.166 -9 -38.499c0 -18.667 7.33301 -33.5 22 -44.5s34 -16.5 58 -16.5c36 0 85.333 17 148 51l35 19l88 -151l-33 -21c-102.667 -67.333 -202.334 -101 -299.001 -101
c-86.667 0 -157.834 22 -213.501 66s-83.5 99.333 -83.5 166c0 121.333 97.667 230.333 293 327c-71.333 -22 -142 -33 -212 -33c-112 0 -204.667 28.833 -278 86.5s-110 125.5 -110 203.5c0 26.667 5 53.334 15 80.001s26 53.334 48 80.001s53.833 50.834 95.5 72.501
s90.834 38.167 147.501 49.5c92 16 217 24.667 375 26v23c0 25.333 -2.16699 46.333 -6.5 63s-14 34.334 -29 53.001s-40.167 32.834 -75.5 42.501s-80.666 14.5 -135.999 14.5z" />
    <glyph glyph-name="Cacute" unicode="&#x106;" horiz-adv-x="1615" 
d="M1198 1992l124 -195l-650 -336l-113 178zM275 709c0 102.667 18.335 197.999 55.002 285.999s89 164.333 157 229s153.333 115.334 256 152.001s216.667 55 342 55c149.333 0 291 -26.333 425 -79l37 -15l-79 -216l-38 13c-129.333 43.333 -246.333 65 -351 65
c-82.667 0 -159.167 -13.5 -229.5 -40.5s-128.666 -63.167 -174.999 -108.5s-82.333 -97.333 -108 -156s-38.5 -120 -38.5 -184c0 -66 13.833 -128.833 41.5 -188.5s66.334 -112 116.001 -157s112.167 -80.667 187.5 -107s157.666 -39.5 246.999 -39.5
c109.333 0 218.666 19.333 327.999 58l37 13l82 -200l-37 -16c-144.667 -62 -297.334 -93 -458.001 -93c-124.667 0 -237.834 19 -339.501 57s-185.5 90.167 -251.5 156.5s-116.833 143.5 -152.5 231.5s-53.5 182.667 -53.5 284z" />
    <glyph glyph-name="cacute" unicode="&#x107;" horiz-adv-x="1165" 
d="M130 473c0 78 10.6699 147.833 32.0029 209.5s50.166 112.334 86.499 152.001s79.666 72.667 129.999 99s103 45 158 56s113.833 16.5 176.5 16.5c112.667 0 216.667 -20.667 312 -62l35 -15l-65 -195l-39 13c-68.667 24 -141.334 36 -218.001 36
c-50 0 -95.5 -4.33301 -136.5 -13s-79.5 -22.834 -115.5 -42.501s-64.167 -48.5 -84.5 -86.5s-30.5 -83.667 -30.5 -137c0 -204.667 129.667 -307 389 -307c64.667 0 126 10.333 184 31l39 13l67 -189l-37 -14c-100 -38.667 -207.667 -58 -323 -58
c-59.333 0 -114.833 4.66699 -166.5 14s-102.167 25.833 -151.5 49.5s-91.5 53.667 -126.5 90s-63 83.5 -84 141.5s-31.5 124 -31.5 198zM813.003 1567l146 -173l-508 -368l-144 163z" />
    <glyph glyph-name="Ccircumflex" unicode="&#x108;" horiz-adv-x="1615" 
d="M275 709c0 102.667 18.335 197.999 55.002 285.999s89 164.333 157 229s153.333 115.334 256 152.001s216.667 55 342 55c149.333 0 291 -26.333 425 -79l37 -15l-79 -216l-38 13c-129.333 43.333 -246.333 65 -351 65c-82.667 0 -159.167 -13.5 -229.5 -40.5
s-128.666 -63.167 -174.999 -108.5s-82.333 -97.333 -108 -156s-38.5 -120 -38.5 -184c0 -66 13.833 -128.833 41.5 -188.5s66.334 -112 116.001 -157s112.167 -80.667 187.5 -107s157.666 -39.5 246.999 -39.5c109.333 0 218.666 19.333 327.999 58l37 13l82 -200l-37 -16
c-144.667 -62 -297.334 -93 -458.001 -93c-124.667 0 -237.834 19 -339.501 57s-185.5 90.167 -251.5 156.5s-116.833 143.5 -152.5 231.5s-53.5 182.667 -53.5 284zM980.002 1951l348 -348l-170 -145l-194 194l-198 -191l-167 133z" />
    <glyph glyph-name="ccircumflex" unicode="&#x109;" horiz-adv-x="1165" 
d="M130 473c0 78 10.6699 147.833 32.0029 209.5s50.166 112.334 86.499 152.001s79.666 72.667 129.999 99s103 45 158 56s113.833 16.5 176.5 16.5c112.667 0 216.667 -20.667 312 -62l35 -15l-65 -195l-39 13c-68.667 24 -141.334 36 -218.001 36
c-50 0 -95.5 -4.33301 -136.5 -13s-79.5 -22.834 -115.5 -42.501s-64.167 -48.5 -84.5 -86.5s-30.5 -83.667 -30.5 -137c0 -204.667 129.667 -307 389 -307c64.667 0 126 10.333 184 31l39 13l67 -189l-37 -14c-100 -38.667 -207.667 -58 -323 -58
c-59.333 0 -114.833 4.66699 -166.5 14s-102.167 25.833 -151.5 49.5s-91.5 53.667 -126.5 90s-63 83.5 -84 141.5s-31.5 124 -31.5 198zM663.003 1517l340 -348l-152 -145l-206 194l-219 -191l-159 133z" />
    <glyph glyph-name="Cdotaccent" unicode="&#x10a;" horiz-adv-x="1615" 
d="M781 1829h325v-292h-325v292zM275 709c0 102.667 18.335 197.999 55.002 285.999s89 164.333 157 229s153.333 115.334 256 152.001s216.667 55 342 55c149.333 0 291 -26.333 425 -79l37 -15l-79 -216l-38 13c-129.333 43.333 -246.333 65 -351 65
c-82.667 0 -159.167 -13.5 -229.5 -40.5s-128.666 -63.167 -174.999 -108.5s-82.333 -97.333 -108 -156s-38.5 -120 -38.5 -184c0 -66 13.833 -128.833 41.5 -188.5s66.334 -112 116.001 -157s112.167 -80.667 187.5 -107s157.666 -39.5 246.999 -39.5
c109.333 0 218.666 19.333 327.999 58l37 13l82 -200l-37 -16c-144.667 -62 -297.334 -93 -458.001 -93c-124.667 0 -237.834 19 -339.501 57s-185.5 90.167 -251.5 156.5s-116.833 143.5 -152.5 231.5s-53.5 182.667 -53.5 284z" />
    <glyph glyph-name="cdotaccent" unicode="&#x10b;" horiz-adv-x="1165" 
d="M130 473c0 78 10.6699 147.833 32.0029 209.5s50.166 112.334 86.499 152.001s79.666 72.667 129.999 99s103 45 158 56s113.833 16.5 176.5 16.5c112.667 0 216.667 -20.667 312 -62l35 -15l-65 -195l-39 13c-68.667 24 -141.334 36 -218.001 36
c-50 0 -95.5 -4.33301 -136.5 -13s-79.5 -22.834 -115.5 -42.501s-64.167 -48.5 -84.5 -86.5s-30.5 -83.667 -30.5 -137c0 -204.667 129.667 -307 389 -307c64.667 0 126 10.333 184 31l39 13l67 -189l-37 -14c-100 -38.667 -207.667 -58 -323 -58
c-59.333 0 -114.833 4.66699 -166.5 14s-102.167 25.833 -151.5 49.5s-91.5 53.667 -126.5 90s-63 83.5 -84 141.5s-31.5 124 -31.5 198zM505.003 1421h344v-291h-344v291z" />
    <glyph glyph-name="Ccaron" unicode="&#x10c;" horiz-adv-x="1615" 
d="M275 709c0 102.667 18.335 197.999 55.002 285.999s89 164.333 157 229s153.333 115.334 256 152.001s216.667 55 342 55c149.333 0 291 -26.333 425 -79l37 -15l-79 -216l-38 13c-129.333 43.333 -246.333 65 -351 65c-82.667 0 -159.167 -13.5 -229.5 -40.5
s-128.666 -63.167 -174.999 -108.5s-82.333 -97.333 -108 -156s-38.5 -120 -38.5 -184c0 -66 13.833 -128.833 41.5 -188.5s66.334 -112 116.001 -157s112.167 -80.667 187.5 -107s157.666 -39.5 246.999 -39.5c109.333 0 218.666 19.333 327.999 58l37 13l82 -200l-37 -16
c-144.667 -62 -297.334 -93 -458.001 -93c-124.667 0 -237.834 19 -339.501 57s-185.5 90.167 -251.5 156.5s-116.833 143.5 -152.5 231.5s-53.5 182.667 -53.5 284zM977.002 1457l-348 348l170 145l194 -194l198 191l163 -133z" />
    <glyph glyph-name="ccaron" unicode="&#x10d;" horiz-adv-x="1165" 
d="M130 473c0 78 10.6699 147.833 32.0029 209.5s50.166 112.334 86.499 152.001s79.666 72.667 129.999 99s103 45 158 56s113.833 16.5 176.5 16.5c112.667 0 216.667 -20.667 312 -62l35 -15l-65 -195l-39 13c-68.667 24 -141.334 36 -218.001 36
c-50 0 -95.5 -4.33301 -136.5 -13s-79.5 -22.834 -115.5 -42.501s-64.167 -48.5 -84.5 -86.5s-30.5 -83.667 -30.5 -137c0 -204.667 129.667 -307 389 -307c64.667 0 126 10.333 184 31l39 13l67 -189l-37 -14c-100 -38.667 -207.667 -58 -323 -58
c-59.333 0 -114.833 4.66699 -166.5 14s-102.167 25.833 -151.5 49.5s-91.5 53.667 -126.5 90s-63 83.5 -84 141.5s-31.5 124 -31.5 198zM628.003 1023l-359 348l163 145l213 -194l210 191l150 -130z" />
    <glyph glyph-name="Dcaron" unicode="&#x10e;" horiz-adv-x="1762" 
d="M891 1458l-312 348l152 145l175 -194l177 191l150 -130zM801 1189h-259.002v-957h183c46 0 84 0.666992 114 2s69.333 6 118 14s90.167 19.167 124.5 33.5s70 36 107 65s67.833 64.167 92.5 105.5c45.333 76 68 165 68 267c0 58.667 -8.16699 112.667 -24.5 162
s-38 90.833 -65 124.5s-58.667 63.167 -95 88.5s-73.166 45 -110.499 59s-75.666 23.667 -114.999 29c-33.333 4.66699 -79.333 7 -138 7zM793.998 1421c89.333 0 171.667 -6.99805 247 -20.998s140.333 -33 195 -57s103.334 -53 146.001 -87s77.667 -70.333 105 -109
s49.833 -80.667 67.5 -126s30 -89.833 37 -133.5s10.5 -88.834 10.5 -135.501c0 -61.333 -5 -120.333 -15 -177s-27.667 -114.5 -53 -173.5s-57.833 -112 -97.5 -159s-91.334 -89.333 -155.001 -127s-136.5 -65.834 -218.5 -84.501c-92.667 -20.667 -227.667 -31 -405 -31
h-368v1421h504z" />
    <glyph glyph-name="dcaron" unicode="&#x10f;" horiz-adv-x="1724" 
d="M1389 1511h300l-214 -472h-299zM130 478c0 169.333 50.166 300 150.499 392s234.5 138 402.5 138c78 0 155.667 -11.333 233 -34v537h246v-1511h-182l-20 46c-96.667 -44 -200 -66 -310 -66c-52 0 -102 5.16699 -150 15.5s-94.833 27.833 -140.5 52.5
s-85.167 55.5 -118.5 92.5s-60.166 84.5 -80.499 142.5s-30.5 123 -30.5 195zM712.999 197c69.333 0 136.999 11.668 202.999 35.001v535c-70.667 20 -139 30 -205 30c-30 0 -59 -2.16699 -87 -6.5s-57.833 -13 -89.5 -26s-59 -29.833 -82 -50.5
s-42.167 -49.334 -57.5 -86.001s-23 -78.667 -23 -126c0 -48 7.5 -90.667 22.5 -128s34.167 -66.833 57.5 -88.5s50.833 -39.5 82.5 -53.5s61.834 -23.333 90.501 -28s58 -7 88 -7z" />
    <glyph glyph-name="Dcroat" unicode="&#x110;" horiz-adv-x="1769" 
d="M824 1189l-236.998 0.00390625v-340h261v-232h-261v-385h166c43.333 0 82.166 1 116.499 3s75 6.66699 122 14s88.333 17.5 124 30.5s72.167 31.833 109.5 56.5s68.166 53.667 92.499 87s44.333 75.166 60 125.499s23.5 107.166 23.5 170.499
c0 43.333 -4.66699 85.166 -14 125.499s-27.333 82 -54 125s-60.667 80.167 -102 111.5s-97 57.166 -167 77.499s-150 30.5 -240 30.5zM335.002 1421h475.999c30 0 59 -0.666992 87 -2s63.833 -4.5 107.5 -9.5s84.5 -11.833 122.5 -20.5s79.667 -21.334 125 -38.001
s86.333 -36.167 123 -58.5s72.834 -50.666 108.501 -84.999s65.667 -72.5 90 -114.5s43.833 -92.167 58.5 -150.5s22 -121.833 22 -190.5c0 -501.333 -302.667 -752 -908 -752h-412v617h-218v232h218v572z" />
    <glyph glyph-name="dcroat" unicode="&#x111;" horiz-adv-x="1402" 
d="M716 797c-29.333 0 -57.667 -2.16602 -85 -6.49902s-56.5 -13 -87.5 -26s-57.833 -29.833 -80.5 -50.5s-41.5 -49.334 -56.5 -86.001s-22.5 -78.667 -22.5 -126c0 -48 7.5 -90.667 22.5 -128s33.833 -66.833 56.5 -88.5s49.5 -39.5 80.5 -53.5s60.5 -23.333 88.5 -28
s56.667 -7 86 -7c68 0 134 11.667 198 35v535c-69.333 20 -136 30 -200 30zM687.999 1008c77.333 0 153.333 -11.335 228 -34.002v121h-308v211h308v205h246v-205h135v-211h-135v-1095h-182l-20 46c-94.667 -44 -196 -66 -304 -66c-51.333 0 -101 5.16699 -149 15.5
s-95.167 27.833 -141.5 52.5s-86.666 55.5 -120.999 92.5s-62 84.5 -83 142.5s-31.5 123 -31.5 195c0 112.667 24.167 209.334 72.5 290.001s114.166 140.834 197.499 180.501s179.333 59.5 288 59.5z" />
    <glyph glyph-name="Emacron" unicode="&#x112;" horiz-adv-x="1447" 
d="M290 0v1421h997v-232h-744v-341h689v-232h-689v-384h744v-232h-997zM360 1697h897v-211h-897v211z" />
    <glyph glyph-name="emacron" unicode="&#x113;" horiz-adv-x="1266" 
d="M130 464c0 91.333 15.334 172.503 46.001 243.503s72.667 127.833 126 170.5s113.333 74.834 180 96.501s138.334 32.5 215.001 32.5c58 0 110.167 -6.16699 156.5 -18.5s84.5 -28 114.5 -47s56 -43.667 78 -74s38.667 -59.333 50 -87s20.166 -60.834 26.499 -99.501
s10.166 -71.334 11.499 -98.001s2 -58.334 2 -95.001v-112h-756c14.667 -49.333 55.5 -92.166 122.5 -128.499s155.167 -54.5 264.5 -54.5c77.333 0 155 11.333 233 34l41 12l49 -190l-36 -12c-111.333 -38 -231.333 -57 -360 -57c-86.667 0 -163.667 9.66699 -231 29
s-121.5 44.333 -162.5 75s-74.667 67.667 -101 111s-44.5 86.666 -54.5 129.999s-15 89.666 -15 138.999zM656.001 783.003c-78.667 0 -141.832 -19.333 -189.499 -58s-75.834 -86.334 -84.501 -143.001h512c-5.33301 72.667 -28.333 124.334 -69 155.001s-97 46 -169 46z
M266.003 1333h756v-231h-756v231z" />
    <glyph glyph-name="Ebreve" unicode="&#x114;" horiz-adv-x="1447" 
d="M1117 1897l180.999 -123l-26 -35c-66 -87.333 -142.667 -152.833 -230 -196.5s-178.666 -65.5 -273.999 -65.5c-104.667 0 -195.167 25.167 -271.5 75.5s-130.5 119.833 -162.5 208.5l-12 33l194 103l18 -38c28.667 -51.333 65.5 -91.5 110.5 -120.5
s93.5 -43.5 145.5 -43.5c106.667 0 207.667 57 303 171zM289.999 0v1421h997v-232h-744v-341h689v-232h-689v-384h744v-232h-997z" />
    <glyph glyph-name="ebreve" unicode="&#x115;" horiz-adv-x="1266" 
d="M130 464c0 74 10.165 141.333 30.498 202s47.833 111.834 82.5 153.501s76 76.834 124 105.501s99 49.5 153 62.5s111 19.5 171 19.5c46 0 88.5 -3.83301 127.5 -11.5s72.667 -17.5 101 -29.5s53.833 -27.833 76.5 -47.5s41.334 -39.334 56.001 -59.001
s27.5 -43 38.5 -70s19.333 -51.667 25 -74s10.167 -48.5 13.5 -78.5s5.33301 -55.333 6 -76s1 -45 1 -73v-112h-756c14 -49.333 54 -92.166 120 -128.499s152.667 -54.5 260 -54.5c82 0 162 11.333 240 34l41 12l49 -190l-36 -12c-111.333 -38 -233.666 -57 -366.999 -57
c-86 0 -162.167 9.66699 -228.5 29s-119.833 44.333 -160.5 75s-74 67.667 -100 111s-43.833 86.666 -53.5 129.999s-14.5 89.666 -14.5 138.999zM649.998 783c-77.333 0 -139.166 -19.1689 -185.499 -57.502s-73.833 -86.166 -82.5 -143.499h502
c-6 72.667 -28.833 124.334 -68.5 155.001s-94.834 46 -165.501 46zM221.998 1360l199 103l21 -38c7.33301 -14 16.5 -28 27.5 -42s26.833 -31.333 47.5 -52s46.5 -37.5 77.5 -50.5s63.833 -19.5 98.5 -19.5c56 0 111 17.333 165 52s98.667 74.334 134 119.001l24 31
l181 -123l-26 -35c-58 -76.667 -130.167 -139.834 -216.5 -189.501s-179.5 -74.5 -279.5 -74.5c-112.667 0 -207.167 28.167 -283.5 84.5s-128.833 123.5 -157.5 201.5z" />
    <glyph glyph-name="Edotaccent" unicode="&#x116;" horiz-adv-x="1447" 
d="M290 0v1421h997v-232h-744v-341h689v-232h-689v-384h744v-232h-997zM603 1829h348v-292h-348v292z" />
    <glyph glyph-name="edotaccent" unicode="&#x117;" horiz-adv-x="1266" 
d="M130 464c0 91.333 15.334 172.503 46.001 243.503s72.667 127.833 126 170.5s113.333 74.834 180 96.501s138.334 32.5 215.001 32.5c58 0 110.167 -6.16699 156.5 -18.5s84.5 -28 114.5 -47s56 -43.667 78 -74s38.667 -59.333 50 -87s20.166 -60.834 26.499 -99.501
s10.166 -71.334 11.499 -98.001s2 -58.334 2 -95.001v-112h-756c14.667 -49.333 55.5 -92.166 122.5 -128.499s155.167 -54.5 264.5 -54.5c77.333 0 155 11.333 233 34l41 12l49 -190l-36 -12c-111.333 -38 -231.333 -57 -360 -57c-86.667 0 -163.667 9.66699 -231 29
s-121.5 44.333 -162.5 75s-74.667 67.667 -101 111s-44.5 86.666 -54.5 129.999s-15 89.666 -15 138.999zM656.001 783.003c-78.667 0 -141.832 -19.333 -189.499 -58s-75.834 -86.334 -84.501 -143.001h512c-5.33301 72.667 -28.333 124.334 -69 155.001s-97 46 -169 46z
M521.003 1421h348v-291h-348v291z" />
    <glyph glyph-name="Eogonek" unicode="&#x118;" horiz-adv-x="1447" 
d="M290 1421l997.001 0.000976562v-232h-744v-341h689v-232h-689v-384h744v-184l-17 -12l-82.5 -56.5l-78 -53.5c-18.333 -12.667 -39.166 -28.167 -62.499 -46.5s-40.833 -34.333 -52.5 -48s-21.834 -28.834 -30.501 -45.501s-13 -33 -13 -49
c0 -20.667 7.33301 -36.667 22 -48s33.667 -17 57 -17c41.333 0 89.333 17.667 144 53l37 23l86 -160l-29 -21c-100.667 -73.333 -199.334 -110 -296.001 -110c-84.667 0 -154.167 22.667 -208.5 68s-81.5 104 -81.5 176c0 108 60.667 207.667 182 299h-574v1421z" />
    <glyph glyph-name="eogonek" unicode="&#x119;" horiz-adv-x="1266" 
d="M130 449c0 78.667 11.1699 149.667 33.5029 213s51.833 115.5 88.5 156.5s79.834 75.167 129.501 102.5s100.667 46.833 153 58.5s106.833 17.5 163.5 17.5c58 0 110 -6.16699 156 -18.5s84 -27.833 114 -46.5s56 -43.167 78 -73.5s38.667 -59.333 50 -87
s20.166 -60.667 26.499 -99s10.166 -71 11.499 -98s2 -58.833 2 -95.5v-113h-756c14.667 -50 57.5 -91.833 128.5 -125.5s157.833 -50.5 260.5 -50.5c80.667 0 157.667 11.333 231 34l41 13l49 -191l-36 -12c-90.667 -30 -167 -77.167 -229 -141.5s-93 -119.5 -93 -165.5
c0 -22.667 7.16699 -39.667 21.5 -51s33.166 -17 56.499 -17c41.333 0 93.666 17 156.999 51l36 19l87 -151l-32 -21c-100 -67.333 -202.333 -101 -307 -101c-86 0 -155.333 22.5 -208 67.5s-79 101.833 -79 170.5c0 95.333 50 191.333 150 288
c-158.667 13.333 -279 59 -361 137s-123 188 -123 330zM656.003 773c-78.667 0 -141.832 -19.333 -189.499 -58s-75.834 -86.334 -84.501 -143.001h512c-5.33301 72.667 -28.333 124.334 -69 155.001s-97 46 -169 46z" />
    <glyph glyph-name="Ecaron" unicode="&#x11a;" horiz-adv-x="1447" 
d="M290 0v1421h997v-232h-744v-341h689v-232h-689v-384h744v-232h-997zM772 1457l-350 348l158 145l209 -194l213 191l156 -133z" />
    <glyph glyph-name="ecaron" unicode="&#x11b;" horiz-adv-x="1266" 
d="M130 464c0 91.333 15.334 172.503 46.001 243.503s72.667 127.833 126 170.5s113.333 74.834 180 96.501s138.334 32.5 215.001 32.5c58 0 110.167 -6.16699 156.5 -18.5s84.5 -28 114.5 -47s56 -43.667 78 -74s38.667 -59.333 50 -87s20.166 -60.834 26.499 -99.501
s10.166 -71.334 11.499 -98.001s2 -58.334 2 -95.001v-112h-756c14.667 -49.333 55.5 -92.166 122.5 -128.499s155.167 -54.5 264.5 -54.5c77.333 0 155 11.333 233 34l41 12l49 -190l-36 -12c-111.333 -38 -231.333 -57 -360 -57c-86.667 0 -163.667 9.66699 -231 29
s-121.5 44.333 -162.5 75s-74.667 67.667 -101 111s-44.5 86.666 -54.5 129.999s-15 89.666 -15 138.999zM656.001 783.003c-78.667 0 -141.832 -19.333 -189.499 -58s-75.834 -86.334 -84.501 -143.001h512c-5.33301 72.667 -28.333 124.334 -69 155.001s-97 46 -169 46z
M694.003 1023l-363 348l173 145l206 -194l207 191l150 -130z" />
    <glyph glyph-name="Gcircumflex" unicode="&#x11c;" horiz-adv-x="1755" 
d="M1605 206c-138 -150.667 -335.335 -225.999 -592.002 -225.999c-109.333 0 -209.166 14.167 -299.499 42.5s-165.833 66 -226.5 113s-111.834 102.167 -153.501 165.5s-71.834 129.166 -90.501 197.499s-28 138.5 -28 210.5c0 94.667 16.833 184.667 50.5 270
s82.5 162 146.5 230s147.5 122.167 250.5 162.5s218.833 60.5 347.5 60.5c188.667 0 358.334 -42 509.001 -126l35 -20l-105 -198l-36 19c-47.333 24 -106.666 45.5 -177.999 64.5s-143 28.5 -215 28.5c-70.667 0 -139 -11 -205 -33s-124.833 -53 -176.5 -93
s-93 -90.833 -124 -152.5s-46.5 -129.167 -46.5 -202.5c0 -96.667 25.333 -183.667 76 -261s120.834 -137.5 210.501 -180.5s190.5 -64.5 302.5 -64.5c122.667 0 223 27.667 301 83v273h-445v222h692v-585zM961.998 1951l343 -348l-168 -145l-190 194l-197 -191l-165 133z
" />
    <glyph glyph-name="gcircumflex" unicode="&#x11d;" horiz-adv-x="1340" 
d="M310 1160l386 357l350 -348l-165 -145l-202 194l-206 -191zM668 1008c86.667 0 183.003 -20.999 289.003 -62.999l18 43h185v-1009c0 -50.667 -4.66699 -98.834 -14 -144.501s-27.333 -92 -54 -139s-60.834 -87.5 -102.501 -121.5s-97.667 -61.667 -168 -83
s-151.166 -32 -242.499 -32c-127.333 0 -244 22.333 -350 67l-37 16l75 193l38 -13c82 -29.333 165.333 -44 250 -44c48 0 91 5 129 15s68.833 22.167 92.5 36.5s44.167 32.666 61.5 54.999s30.166 42.833 38.499 61.5s14.666 40.667 18.999 66s6.83301 44.333 7.5 57
s1 28 1 46v10c-85.333 -30 -170 -45 -254 -45c-53.333 0 -104.333 5.5 -153 16.5s-95.834 29.5 -141.501 55.5s-85 58.167 -118 96.5s-59.5 86.833 -79.5 145.5s-30 124.334 -30 197.001c0 75.333 11.833 143.333 35.5 204s54 110 91 148s79.833 69.833 128.5 95.5
s96.667 43.667 144 54s94.333 15.5 141 15.5zM370.003 508.001c0 -90.667 28.5 -165.168 85.5 -223.501s139.5 -87.5 247.5 -87.5c67.333 0 134.333 12 201 36v522c-88 25.333 -162.667 38 -224 38c-93.333 0 -168.333 -25.667 -225 -77s-85 -120.666 -85 -207.999z" />
    <glyph glyph-name="Gbreve" unicode="&#x11e;" horiz-adv-x="1755" 
d="M501 1794l210.998 102.999l21 -38c7.33301 -14 16 -28 26 -42s24.833 -31.333 44.5 -52s44 -37.5 73 -50.5s60.167 -19.5 93.5 -19.5c52 0 103.667 17 155 51s96 74 134 120l26 31l187 -123l-26 -35c-56.667 -74 -128.667 -136.5 -216 -187.5
s-179.666 -76.5 -276.999 -76.5c-55.333 0 -107.666 8.33301 -156.999 25s-92.166 38.834 -128.499 66.501s-67.333 58 -93 91s-45.834 67.5 -60.501 103.5zM1605 205.999c-138 -150.667 -335.334 -225.999 -592.001 -225.999c-106.667 0 -204.334 13.333 -293.001 40
s-163.667 62.667 -225 108s-113.333 98.666 -156 159.999s-73.834 126.333 -93.501 195s-29.5 140 -29.5 214c0 74.667 10.167 147.167 30.5 217.5s52 137 95 200s95.167 118 156.5 165s136 84.167 224 111.5s184 41 288 41c188.667 0 358.334 -42 509.001 -126l35 -20
l-105 -198l-36 19c-47.333 24 -106.666 45.5 -177.999 64.5s-143 28.5 -215 28.5c-70.667 0 -139 -11 -205 -33s-124.833 -53 -176.5 -93s-93 -90.833 -124 -152.5s-46.5 -129.167 -46.5 -202.5c0 -96.667 25.333 -183.667 76 -261s120.834 -137.5 210.501 -180.5
s190.5 -64.5 302.5 -64.5c122.667 0 223 27.667 301 83v273h-445v222h692v-585z" />
    <glyph glyph-name="gbreve" unicode="&#x11f;" horiz-adv-x="1340" 
d="M579 -541c-127.333 0 -244 22.332 -350 66.999l-37 16l75 193l38 -13c82 -29.333 165.333 -44 250 -44c48 0 91 5 129 15s68.833 22.167 92.5 36.5s44.167 32.666 61.5 54.999s30.166 42.833 38.499 61.5s14.666 40.667 18.999 66s6.83301 44.333 7.5 57s1 28 1 46v10
c-85.333 -30 -170 -45 -254 -45c-53.333 0 -104.333 5.5 -153 16.5s-95.834 29.5 -141.501 55.5s-85 58.167 -118 96.5s-59.5 86.833 -79.5 145.5s-30 124.334 -30 197.001c0 75.333 11.833 143.333 35.5 204s54 110 91 148s79.833 69.833 128.5 95.5s96.667 43.667 144 54
s94.333 15.5 141 15.5c86.667 0 183 -21 289 -63l18 43h185v-995c0 -80.667 -11.167 -152.5 -33.5 -215.5s-51.666 -114.167 -87.999 -153.5s-80.166 -71.666 -131.499 -96.999s-103.666 -43 -156.999 -53s-110.333 -15 -171 -15zM370 507.999
c0 -90.667 28.5 -165.168 85.5 -223.501s139.5 -87.5 247.5 -87.5c67.333 0 134.333 12 201 36v522c-88 25.333 -162.667 38 -224 38c-93.333 0 -168.333 -25.667 -225 -77s-85 -120.666 -85 -207.999zM245 1327l-11.999 33.002l201 103l21 -38l19.5 -31
c7 -10.667 18.333 -24.5 34 -41.5s32.167 -31.833 49.5 -44.5s39 -23.667 65 -33s53 -14 81 -14c55.333 0 110 17.167 164 51.5s99.333 74.166 136 119.499l24 31l180 -123l-26 -35c-58 -76.667 -130.167 -139.834 -216.5 -189.501s-179.5 -74.5 -279.5 -74.5
c-112 0 -206.333 28.167 -283 84.5s-129.334 123.5 -158.001 201.5z" />
    <glyph glyph-name="Gdotaccent" unicode="&#x120;" horiz-adv-x="1755" 
d="M831 1829h321v-292h-321v292zM1605 206c-138 -150.667 -335.335 -225.999 -592.002 -225.999c-109.333 0 -209.166 14.167 -299.499 42.5s-165.833 66 -226.5 113s-111.834 102.167 -153.501 165.5s-71.834 129.166 -90.501 197.499s-28 138.5 -28 210.5
c0 94.667 16.833 184.667 50.5 270s82.5 162 146.5 230s147.5 122.167 250.5 162.5s218.833 60.5 347.5 60.5c188.667 0 358.334 -42 509.001 -126l35 -20l-105 -198l-36 19c-47.333 24 -106.666 45.5 -177.999 64.5s-143 28.5 -215 28.5c-70.667 0 -139 -11 -205 -33
s-124.833 -53 -176.5 -93s-93 -90.833 -124 -152.5s-46.5 -129.167 -46.5 -202.5c0 -96.667 25.333 -183.667 76 -261s120.834 -137.5 210.501 -180.5s190.5 -64.5 302.5 -64.5c122.667 0 223 27.667 301 83v273h-445v222h692v-585z" />
    <glyph glyph-name="gdotaccent" unicode="&#x121;" horiz-adv-x="1340" 
d="M499 1130v291h338v-291h-338zM370 508c0 -90.667 28.5 -165.168 85.5 -223.501s139.5 -87.5 247.5 -87.5c67.333 0 134.333 12 201 36v522c-88 25.333 -162.667 38 -224 38c-93.333 0 -168.333 -25.667 -225 -77s-85 -120.666 -85 -207.999zM668 1008
c86.667 0 183.003 -20.999 289.003 -62.999l18 43h185v-1009c0 -50.667 -4.66699 -98.834 -14 -144.501s-27.333 -92 -54 -139s-60.834 -87.5 -102.501 -121.5s-97.667 -61.667 -168 -83s-151.166 -32 -242.499 -32c-127.333 0 -244 22.333 -350 67l-37 16l75 194l38 -15
c76 -28.667 159.333 -43 250 -43c48 0 91 5 129 15s68.833 22.167 92.5 36.5s44.167 32.666 61.5 54.999s30.166 42.833 38.499 61.5s14.666 40.667 18.999 66s6.83301 44.333 7.5 57s1 28 1 46v10c-85.333 -30 -170 -45 -254 -45c-53.333 0 -104.333 5.5 -153 16.5
s-95.834 29.5 -141.501 55.5s-85 58.167 -118 96.5s-59.5 86.833 -79.5 145.5s-30 124.334 -30 197.001c0 75.333 11.833 143.333 35.5 204s54 110 91 148s79.833 69.833 128.5 95.5s96.667 43.667 144 54s94.333 15.5 141 15.5z" />
    <glyph glyph-name="Gcommaaccent" unicode="&#x122;" horiz-adv-x="1755" 
d="M1605 206c-138 -150.667 -335.336 -225.999 -592.003 -225.999c-109.333 0 -209.166 14.167 -299.499 42.5s-165.833 66 -226.5 113s-111.834 102.167 -153.501 165.5s-71.834 129.166 -90.501 197.499s-28 138.5 -28 210.5c0 75.333 10.333 148 31 218
s52.834 135.667 96.501 197s96.334 114.833 158.001 160.5s136.167 81.667 223.5 108s182.666 39.5 285.999 39.5c188.667 0 358.334 -42 509.001 -126l35 -20l-105 -198l-36 19c-47.333 24 -106.666 45.5 -177.999 64.5s-143 28.5 -215 28.5c-70.667 0 -139 -11 -205 -33
s-124.833 -53 -176.5 -93s-93 -90.833 -124 -152.5s-46.5 -129.167 -46.5 -202.5c0 -96.667 25.333 -183.667 76 -261s120.834 -137.5 210.501 -180.5s190.5 -64.5 302.5 -64.5c122.667 0 223 27.667 301 83v273h-445v222h692v-585zM942.997 -58.999h296l-211 -472h-295z
" />
    <glyph glyph-name="gcommaaccent" unicode="&#x123;" horiz-adv-x="1340" 
d="M436 1075l221 472h311l-222 -472h-310zM370 506c0 -90.667 28.5 -165.168 85.5 -223.501s139.5 -87.5 247.5 -87.5c67.333 0 134.333 12 201 36v522c-88 25.333 -162.667 38 -224 38c-93.333 0 -168.333 -25.667 -225 -77s-85 -120.666 -85 -207.999zM668 1006
c86.667 0 183.001 -20.999 289.001 -62.999l18 45h185v-1011c0 -50.667 -4.66699 -98.834 -14 -144.501s-27.333 -92 -54 -139s-60.834 -87.5 -102.501 -121.5s-97.667 -61.667 -168 -83s-151.166 -32 -242.499 -32c-127.333 0 -244 22.333 -350 67l-37 16l75 194l38 -15
c76 -28.667 159.333 -43 250 -43c47.333 0 90 4.83301 128 14.5s69 21.667 93 36s44.667 32.666 62 54.999s30 42.833 38 61.5s14.333 40.5 19 65.5s7.33398 44.167 8.00098 57.5s1 29 1 47v10c-84.667 -28.667 -169.334 -43 -254.001 -43c-53.333 0 -104.333 5.5 -153 16.5
s-95.834 29.333 -141.501 55s-85 57.5 -118 95.5s-59.5 86.333 -79.5 145s-30 124.334 -30 197.001c0 75.333 11.833 143.333 35.5 204s54 110 91 148s79.833 69.833 128.5 95.5s96.667 43.667 144 54s94.333 15.5 141 15.5z" />
    <glyph glyph-name="Hcircumflex" unicode="&#x124;" horiz-adv-x="1764" 
d="M1302 1421h252v-1421h-252v617h-760v-617h-252v1421h252v-572h760v572zM945 1956l350 -348l-171 -145l-195 194l-199 -191l-167 133z" />
    <glyph glyph-name="hcircumflex" unicode="&#x125;" horiz-adv-x="1355" 
d="M704 778c-80 0 -169.334 -18.333 -268.001 -55v-723h-246v1511h246v-574c122.667 46 237.667 69 345 69c52.667 0 99.834 -5.83301 141.501 -17.5s76 -26.167 103 -43.5s50.333 -39.5 70 -66.5s34.5 -52.667 44.5 -77s17.833 -52.833 23.5 -85.5s9 -59.5 10 -80.5
s1.5 -45.5 1.5 -73.5v-562h-250v577c0 16 -0.5 30 -1.5 42s-5.5 28.833 -13.5 50.5s-19.167 39.667 -33.5 54s-36.333 27 -66 38s-65.167 16.5 -106.5 16.5zM726.999 2006l354 -348l-162 -145l-208 194l-215 -191l-151 133z" />
    <glyph glyph-name="Hbar" unicode="&#x126;" horiz-adv-x="1764" 
d="M1302 1421h252v-142h150v-208h-150v-1071h-252v617h-760v-617h-252v1071h-150v208h150v142h252v-150h760v150zM1302 849v243h-760v-243h760z" />
    <glyph glyph-name="hbar" unicode="&#x127;" horiz-adv-x="1355" 
d="M190 1511l246 0.00390625v-205h380v-211h-380v-158c120 46 232.667 69 338 69c63.333 0 119 -7.66699 167 -23s86.5 -35.833 115.5 -61.5s52.667 -57 71 -94s30.833 -74.833 37.5 -113.5s10 -81.334 10 -128.001v-586h-260v581c0 17.333 -0.666992 32.666 -2 45.999
s-6 30.166 -14 50.499s-19.167 37.166 -33.5 50.499s-35.833 25 -64.5 35s-62.667 15 -102 15c-78 0 -165.667 -18.333 -263 -55v-723h-246v1095h-135v211h135v205z" />
    <glyph glyph-name="Itilde" unicode="&#x128;" horiz-adv-x="812" 
d="M568 1468c-28 0 -54.1621 6.66602 -78.4951 19.999s-44.5 29.333 -60.5 48s-30.333 37.334 -43 56.001s-24 34.667 -34 48s-19 20 -27 20c-6 0 -11.333 -6.16699 -16 -18.5s-14.334 -45.833 -29.001 -100.5l-13 -48l-183 49l12.5 49.5
c5.66699 22.333 10.167 39.5 13.5 51.5s8.16602 28 14.499 48s12.5 35.833 18.5 47.5s13.5 25.167 22.5 40.5s19 27.5 30 36.5s23.5 17.833 37.5 26.5s29.833 14.834 47.5 18.501s37.167 5.5 58.5 5.5c36 0 68.667 -9.66699 98 -29s51.5 -40.5 66.5 -63.5
s29.5 -44.167 43.5 -63.5s25.333 -29 34 -29c4.66699 0 8.66699 4.5 12 13.5s11.666 37.5 24.999 85.5l26 94l182 -51c-2.66699 -9.33301 -6.83398 -25.833 -12.501 -49.5s-10.334 -41.667 -14.001 -54l-15.5 -52c-6.66699 -22.333 -13.167 -39.833 -19.5 -52.5
s-14.333 -27.834 -24 -45.501s-20 -31.667 -31 -42s-23.5 -20.5 -37.5 -30.5s-29.667 -17.333 -47 -22s-36.333 -7 -57 -7zM329.005 -0.000976562v1421h252v-1421h-252z" />
    <glyph glyph-name="itilde" unicode="&#x129;" horiz-adv-x="606" 
d="M180 988h246v-988h-246v988zM426 1121c-28 0 -54.1621 6.66602 -78.4951 19.999s-44.5 29.333 -60.5 48s-30.333 37.334 -43 56.001s-24 34.667 -34 48s-19 20 -27 20c-6 0 -11.333 -6.16699 -16 -18.5s-14.334 -45.833 -29.001 -100.5l-13 -48l-183 49l12.5 49.5
c5.66699 22.333 10.167 39.5 13.5 51.5s8.16602 28 14.499 48s12.5 35.833 18.5 47.5s13.5 25.167 22.5 40.5s19 27.5 30 36.5s23.5 17.833 37.5 26.5s29.833 14.834 47.5 18.501s37.167 5.5 58.5 5.5c36 0 68.667 -9.66699 98 -29s51.5 -40.5 66.5 -63.5
s29.5 -44.167 43.5 -63.5s25.333 -29 34 -29c4.66699 0 8.66699 4.5 12 13.5s11.666 37.5 24.999 85.5l26 94l182 -51c-2.66699 -9.33301 -6.83398 -25.833 -12.501 -49.5s-10.334 -41.667 -14.001 -54l-15.5 -52c-6.66699 -22.333 -13.167 -39.833 -19.5 -52.5
s-14.333 -27.834 -24 -45.501s-20 -31.667 -31 -42s-23.5 -20.5 -37.5 -30.5s-29.667 -17.333 -47 -22s-36.333 -7 -57 -7z" />
    <glyph glyph-name="Imacron" unicode="&#x12a;" horiz-adv-x="812" 
d="M200 1697h492v-211h-492v211zM320 1421h252v-1421h-252v1421z" />
    <glyph glyph-name="imacron" unicode="&#x12b;" horiz-adv-x="606" 
d="M180 988h246v-988h-246v988zM80 1333h446v-211h-446v211z" />
    <glyph glyph-name="Ibreve" unicode="&#x12c;" horiz-adv-x="894" 
d="M86 1791l191.998 103l19 -38c1.33301 -3.33301 4.83301 -13.333 10.5 -30s11.834 -31.334 18.501 -44.001s15.5 -26.5 26.5 -41.5s26 -26.833 45 -35.5s40.5 -13 64.5 -13c11.333 0 22.333 1 33 3s21.167 5.5 31.5 10.5l27 13c7.66699 3.66699 16.5 10.334 26.5 20.001
s17.5 16.667 22.5 21s12.667 13 23 26l20 25c3 3.66699 9.83301 12.834 20.5 27.501s17 23 19 25l24 31l180 -123l-26 -35c-29.333 -38.667 -57.833 -72.334 -85.5 -101.001s-58.667 -56.167 -93 -82.5s-71.666 -46.333 -111.999 -60s-82.5 -20.5 -126.5 -20.5
c-50 0 -94.833 8 -134.5 24s-73 38.833 -100 68.5s-49 59.5 -66 89.5s-32.833 64.667 -47.5 104zM327.998 1421h252v-1421h-252v1421z" />
    <glyph glyph-name="ibreve" unicode="&#x12d;" horiz-adv-x="688" 
d="M-44 1431l191.998 103l19 -38c1.33301 -3.33301 4.83301 -13.333 10.5 -30s11.834 -31.334 18.501 -44.001s15.5 -26.5 26.5 -41.5s26 -26.833 45 -35.5s40.5 -13 64.5 -13c11.333 0 22.333 1 33 3s21.167 5.5 31.5 10.5l27 13c7.66699 3.66699 16.5 10.334 26.5 20.001
s17.5 16.667 22.5 21s12.667 13 23 26l20 25c3 3.66699 9.83301 12.834 20.5 27.501s17 23 19 25l24 31l180 -123l-26 -35c-29.333 -38.667 -57.833 -72.334 -85.5 -101.001s-58.667 -56.167 -93 -82.5s-71.666 -46.333 -111.999 -60s-82.5 -20.5 -126.5 -20.5
c-50 0 -94.833 8 -134.5 24s-73 38.833 -100 68.5s-49 59.5 -66 89.5s-32.833 64.667 -47.5 104zM187.998 988h246v-988h-246v988z" />
    <glyph glyph-name="Iogonek" unicode="&#x12e;" horiz-adv-x="812" 
d="M30 -298c0 75.333 27.1641 148.499 81.4971 219.499s123.833 129.167 208.5 174.5v1325h252v-1375l-21 -11c-49.333 -26.667 -92.666 -53.667 -129.999 -81s-66.166 -51.333 -86.499 -72s-36.666 -41 -48.999 -61s-20.166 -36.167 -23.499 -48.5s-5 -23.833 -5 -34.5
c0 -17.333 5.16699 -33 15.5 -47s27.5 -21 51.5 -21c32.667 0 79.667 18 141 54l37 22l85 -159l-29 -21c-100.667 -73.333 -195.334 -110 -284.001 -110c-70 0 -128.167 22.833 -174.5 68.5s-69.5 104.834 -69.5 177.501z" />
    <glyph glyph-name="iogonek" unicode="&#x12f;" horiz-adv-x="606" 
d="M-123 -304c0 80 28.998 158.669 86.998 236.002s130 139.666 216 186.999v869h246v-954l-27 -10c-85.333 -30.667 -156 -75.334 -212 -134.001s-84 -112 -84 -160c0 -20.667 5.83301 -37.5 17.5 -50.5s27.834 -19.5 48.501 -19.5c31.333 0 79 18 143 54l36 20l85 -156
l-29 -21c-100 -74.667 -194.667 -112 -284 -112c-71.333 0 -129.666 23.5 -174.999 70.5s-68 107.167 -68 180.5zM164.998 1421h276v-271h-276v271z" />
    <glyph glyph-name="Idotaccent" unicode="&#x130;" horiz-adv-x="812" 
d="M298 1829h292v-292h-292v292zM320 1421h252v-1421h-252v1421z" />
    <glyph glyph-name="dotlessi" unicode="&#x131;" horiz-adv-x="606" 
d="M180 988h246v-988h-246v988z" />
    <glyph glyph-name="IJ" unicode="&#x132;" horiz-adv-x="1929" 
d="M320 1421h252v-1421h-252v1421zM1474 1421l251.998 -0.00195312v-910c0 -36 -1.5 -69.333 -4.5 -100s-9.33301 -64.5 -19 -101.5s-22.5 -70.333 -38.5 -100s-38.333 -59.167 -67 -88.5s-62.167 -53.666 -100.5 -72.999s-85.666 -35 -141.999 -47
s-119.166 -18 -188.499 -18c-71.333 0 -140 8.33301 -206 25l-38 10l42 222l42 -10c42 -10 86 -15 132 -15c44 0 83.833 4.16699 119.5 12.5s65 18.666 88 30.999s43 27.833 60 46.5s29.667 36.334 38 53.001s15 35.834 20 57.501s8 39.167 9 52.5s1.5 28.333 1.5 45v908z
" />
    <glyph glyph-name="ij" unicode="&#x133;" horiz-adv-x="1212" 
d="M782 988l246.003 -0.000976562v-1084c0 -22.667 -0.333008 -41.167 -1 -55.5s-2.83398 -35 -6.50098 -62s-9.16699 -50.167 -16.5 -69.5s-18.5 -42.166 -33.5 -68.499s-32.833 -49.333 -53.5 -69s-47.334 -39.5 -80.001 -59.5s-69.667 -37.333 -111 -52l-44 -12l-127 194
l50 18c69.333 25.333 116.166 55.833 140.499 91.5s36.5 77.167 36.5 124.5v1104zM768.003 1421h279v-271h-279v271zM180.003 987.999h246v-988h-246v988zM165.003 1421h280v-271h-280v271z" />
    <glyph glyph-name="Jcircumflex" unicode="&#x134;" horiz-adv-x="1117" 
d="M662 1421l251.998 -0.00195312v-910c0 -36 -1.5 -69.333 -4.5 -100s-9.33301 -64.5 -19 -101.5s-22.5 -70.333 -38.5 -100s-38.333 -59.167 -67 -88.5s-62.167 -53.666 -100.5 -72.999s-85.666 -35 -141.999 -47s-119.166 -18 -188.499 -18
c-71.333 0 -140 8.33301 -206 25l-38 10l42 222l42 -10c42 -10 86 -15 132 -15c44 0 83.833 4.16699 119.5 12.5s65 18.666 88 30.999s43 27.833 60 46.5s29.667 36.334 38 53.001s15 35.834 20 57.501s8 39.167 9 52.5s1.5 28.333 1.5 45v908zM792.998 1951l312 -348
l-152 -145l-175 194l-177 -191l-150 133z" />
    <glyph glyph-name="jcircumflex" unicode="&#x135;" horiz-adv-x="606" 
d="M326 1514l281 -355l-153 -145l-143 181l-145 -178l-149 133zM196 988l245.998 0.000976562v-1084c0 -22.667 -0.333008 -42.334 -1 -59.001s-3.16699 -38.167 -7.5 -64.5s-10.166 -49.666 -17.499 -69.999s-18.166 -42.833 -32.499 -67.5s-31.5 -46.834 -51.5 -66.501
s-45.5 -39.167 -76.5 -58.5s-65.833 -36 -104.5 -50l-34 -12l-97 194l38 18c92 43.333 138 116.333 138 219v1101z" />
    <glyph glyph-name="Kcommaaccent" unicode="&#x136;" horiz-adv-x="1581" 
d="M290 0v1421h252v-651l648 651h323l-683 -680l719 -741h-327l-680 688v-688h-252zM470 -512l208 472h305l-217 -472h-296z" />
    <glyph glyph-name="kcommaaccent" unicode="&#x137;" horiz-adv-x="1237" 
d="M310 -512l208 472h305l-217 -472h-296zM180 0v1511h246v-920l474 417h297l-510 -452l525 -556h-302l-484 492v-492h-246z" />
    <glyph glyph-name="kgreenlandic" unicode="&#x138;" horiz-adv-x="1236" 
d="M426 556l457 432h279l-474 -464l527 -524h-310l-479 456v-456h-246v988h246v-432z" />
    <glyph glyph-name="Lacute" unicode="&#x139;" horiz-adv-x="1297" 
d="M304 1421h252l6 -1190h714v-231h-972v1421zM920 1992l130 -195l-665 -336l-102 178z" />
    <glyph glyph-name="lacute" unicode="&#x13a;" horiz-adv-x="728" 
d="M214 1511h269l-23 -1511h-246v1511zM816 2067l111 -195l-665 -336l-102 178z" />
    <glyph glyph-name="Lcommaaccent" unicode="&#x13b;" horiz-adv-x="1297" 
d="M310 1421h252l5 -1190h715v-231h-972v1421zM479 -40h310l-228 -472h-273z" />
    <glyph glyph-name="lcommaaccent" unicode="&#x13c;" horiz-adv-x="646" 
d="M220 1511h246v-1511h-246v1511zM261 -40h269l-192 -472h-268z" />
    <glyph glyph-name="Lcaron" unicode="&#x13d;" horiz-adv-x="1297" 
d="M929 1421h269l-192 -472h-268zM290 1421h252v-1190h720v-231h-972v1421z" />
    <glyph glyph-name="lcaron" unicode="&#x13e;" horiz-adv-x="887" 
d="M200 1511h246v-1511h-246v1511zM601 1511h250l-143 -472h-250z" />
    <glyph glyph-name="Ldot" unicode="&#x13f;" horiz-adv-x="1297" 
d="M290 1421h252v-1190h720v-231h-972v1421zM708 864h345v-292h-345v292z" />
    <glyph glyph-name="ldot" unicode="&#x140;" horiz-adv-x="906" 
d="M200 1511h246v-1511h-246v1511zM534 879h292v-292h-292v292z" />
    <glyph glyph-name="Lslash" unicode="&#x141;" horiz-adv-x="1297" 
d="M290 1421h252v-524l314 150v-267l-291 -139v-410h697v-231h-972v496l-144 -78v252l144 78v673z" />
    <glyph glyph-name="lslash" unicode="&#x142;" horiz-adv-x="769" 
d="M230 1511h246v-633l213 123v-245l-213 -111v-645h-246v533l-140 -81v244l140 77v738z" />
    <glyph glyph-name="Nacute" unicode="&#x143;" horiz-adv-x="1823" 
d="M290 1421h278l793 -1092v1092h252v-1421h-281l-790 1094v-1094h-252v1421zM1214 1992l124 -195l-650 -336l-114 178z" />
    <glyph glyph-name="nacute" unicode="&#x144;" 
d="M180 988l182.999 -0.000976562l29 -68c136 58.667 265 88 387 88c64.667 0 120.667 -8.66699 168 -26s84.5 -39 111.5 -65s48.5 -58.833 64.5 -98.5s26.333 -77.5 31 -113.5s7 -76.667 7 -122v-583h-247v580c0 12.667 -0.333008 23.834 -1 33.501s-2.66699 21.667 -6 36
s-7.66602 27 -12.999 38s-13.5 22.5 -24.5 34.5s-24.167 21.833 -39.5 29.5s-34.5 14 -57.5 19s-49.167 7.5 -78.5 7.5c-80 0 -169.333 -18.333 -268 -55v-723h-246v988zM990.999 1562l111 -197l-663 -334l-104 178z" />
    <glyph glyph-name="Ncommaaccent" unicode="&#x145;" horiz-adv-x="1823" 
d="M798 -40h300l-214 -472h-299zM290 1421h278l793 -1092v1092h252v-1421h-281l-790 1094v-1094h-252v1421z" />
    <glyph glyph-name="ncommaaccent" unicode="&#x146;" 
d="M180 988l182.999 -0.000976562l29 -68c136 58.667 265 88 387 88c64.667 0 120.667 -8.66699 168 -26s84.5 -39 111.5 -65s48.5 -58.833 64.5 -98.5s26.333 -77.5 31 -113.5s7 -76.667 7 -122v-583h-247v580c0 12.667 -0.333008 23.834 -1 33.501s-2.66699 21.667 -6 36
s-7.66602 27 -12.999 38s-13.5 22.5 -24.5 34.5s-24.167 21.833 -39.5 29.5s-34.5 14 -57.5 19s-49.167 7.5 -78.5 7.5c-80 0 -169.333 -18.333 -268 -55v-723h-246v988zM530.999 -40.001h323l-230 -472h-302z" />
    <glyph glyph-name="Ncaron" unicode="&#x147;" horiz-adv-x="1823" 
d="M290 1421h278l793 -1092v1092h252v-1421h-281l-790 1094v-1094h-252v1421zM990 1457l-349 349l172 144l193 -194l198 191l166 -133z" />
    <glyph glyph-name="ncaron" unicode="&#x148;" 
d="M180 988l182.999 -0.000976562l29 -68c136 58.667 265 88 387 88c64.667 0 120.667 -8.66699 168 -26s84.5 -39 111.5 -65s48.5 -58.833 64.5 -98.5s26.333 -77.5 31 -113.5s7 -76.667 7 -122v-583h-247v580c0 12.667 -0.333008 23.834 -1 33.501s-2.66699 21.667 -6 36
s-7.66602 27 -12.999 38s-13.5 22.5 -24.5 34.5s-24.167 21.833 -39.5 29.5s-34.5 14 -57.5 19s-49.167 7.5 -78.5 7.5c-80 0 -169.333 -18.333 -268 -55v-723h-246v988zM680.999 1027l-355 348l163 145l208 -193l215 190l150 -135z" />
    <glyph glyph-name="napostrophe" unicode="&#x149;" horiz-adv-x="1510" 
d="M349 988l182.999 -0.000976562l29 -68c136 58.667 265 88 387 88c64.667 0 120.667 -8.66699 168 -26s84.5 -39 111.5 -65s48.5 -58.833 64.5 -98.5s26.333 -77.5 31 -113.5s7 -76.667 7 -122v-583h-247v580c0 12.667 -0.333008 23.834 -1 33.501s-2.66699 21.667 -6 36
s-7.66602 27 -12.999 38s-13.5 22.5 -24.5 34.5s-24.167 21.833 -39.5 29.5s-34.5 14 -57.5 19s-49.167 7.5 -78.5 7.5c-80 0 -169.333 -18.333 -268 -55v-723h-246v988zM68.999 1421h232v-515h-232v515z" />
    <glyph glyph-name="Eng" unicode="&#x14a;" horiz-adv-x="1812" 
d="M1349 29l-0.00195312 815.997c0 24.667 -0.333008 44.834 -1 60.501s-3.16699 38.5 -7.5 68.5s-10.5 55.167 -18.5 75.5s-20.5 43 -37.5 68s-37.167 45 -60.5 60s-53.666 27.833 -90.999 38.5s-79.333 16 -126 16c-114 0 -266.333 -37.667 -457 -113v-1119h-260v1421h178
l43 -80c236 94.667 426.333 142 571 142c149.333 0 268 -37.667 356 -113s140.333 -174.666 157 -297.999c4.66699 -35.333 7 -87.333 7 -156v-910c0 -68.667 -10.5 -128 -31.5 -178s-49.667 -88.5 -86 -115.5s-75.666 -46.667 -117.999 -59s-88.166 -18.5 -137.499 -18.5
c-74.667 0 -161.667 12 -261 36l-42 10l45 200l44 -8c69.333 -12.667 123.666 -19 162.999 -19c32 0 59.5 4.5 82.5 13.5s40 19.167 51 30.5s19.667 26.5 26 45.5s9.83301 33.833 10.5 44.5s1 24.334 1 41.001z" />
    <glyph glyph-name="eng" unicode="&#x14b;" horiz-adv-x="1340" 
d="M699 778c-77.333 0 -164.667 -18.334 -262 -55.001v-723h-257v988h183l33 -67c135.333 57.333 262.333 86 381 86c255.333 0 383 -136.667 383 -410v-572c0 -42 -2.83301 -80.167 -8.5 -114.5s-16 -67.833 -31 -100.5s-34.5 -60.167 -58.5 -82.5s-55.5 -40.333 -94.5 -54
s-84.167 -20.5 -135.5 -20.5c-70.667 0 -163.334 12.667 -278.001 38l-44 10l48 199l46 -7c93.333 -13.333 150.333 -20 171 -20c54 0 90.667 13 110 39s29 63.667 29 113v556c0 18.667 -0.833008 34.834 -2.5 48.501s-6.5 30.5 -14.5 50.5s-19 36.5 -33 49.5
s-35.167 24.333 -63.5 34s-62.166 14.5 -101.499 14.5z" />
    <glyph glyph-name="Omacron" unicode="&#x14c;" horiz-adv-x="1850" 
d="M1457 709c0 67.333 -9.83008 129.166 -29.4971 185.499s-45.834 103.333 -78.501 141s-71 69.5 -115 95.5s-89.5 44.833 -136.5 56.5s-95.167 17.5 -144.5 17.5c-46.667 0 -92.334 -5.66699 -137.001 -17s-87.834 -29.666 -129.501 -54.999
s-78.167 -56.166 -109.5 -92.499s-56.5 -81.5 -75.5 -135.5s-28.5 -113.333 -28.5 -178c0 -154 47.667 -277.667 143 -371s214.333 -140 357 -140c59.333 0 116.833 9.66699 172.5 29s107.167 48 154.5 86s85.333 89.667 114 155s43 139.666 43 222.999zM966.003 1436
c144.667 0 273.333 -28.332 386 -84.999s201.334 -139.167 266.001 -247.5s97 -234.166 97 -377.499c0 -145.333 -31.667 -274.166 -95 -386.499s-152.333 -199.5 -267 -261.5s-246.334 -93 -395.001 -93c-98 0 -191 15.167 -279 45.5s-166.833 74.666 -236.5 132.999
s-125 134.166 -166 227.499s-61.5 198.666 -61.5 315.999c0 146 32 274.5 96 385.5s152.667 196 266 255s243 88.5 389 88.5zM538.002 1697h895v-211h-895v211z" />
    <glyph glyph-name="omacron" unicode="&#x14d;" horiz-adv-x="1375" 
d="M694 1007c165.333 0 298.5 -43.501 399.5 -130.501s151.5 -208.5 151.5 -364.5c0 -164 -51.5 -293.667 -154.5 -389s-241.5 -143 -415.5 -143c-165.333 0 -297.5 44.833 -396.5 134.5s-148.5 212.834 -148.5 369.501c0 160.667 50.5 288 151.5 382s238.5 141 412.5 141z
M678 784.999c-51.333 0 -99.668 -9.66895 -145.001 -29.002s-83.5 -50.666 -114.5 -93.999s-46.5 -94.333 -46.5 -153c0 -86.667 30 -159.5 90 -218.5s138 -88.5 234 -88.5c87.333 0 160.333 25.667 219 77s88 119.333 88 204c0 48.667 -9.66699 92.834 -29 132.501
s-44.666 71.5 -75.999 95.5s-66 42.333 -104 55s-76.667 19 -116 19zM250.998 1273h904v-211h-904v211z" />
    <glyph glyph-name="Obreve" unicode="&#x14e;" horiz-adv-x="1850" 
d="M518 1794l208.999 103l20 -38c7.33301 -14 16 -28 26 -42s24.667 -31.333 44 -52s43.333 -37.5 72 -50.5s59.334 -19.5 92.001 -19.5c52 0 103.333 17 154 51s94.667 74 132 120l25 31l196 -123l-27 -35c-62.667 -76 -137.667 -139 -225 -189s-178 -75 -272 -75
c-106 0 -197 28.333 -273 85s-129.333 123.667 -160 201zM1457 709c0 67.333 -9.83008 129.166 -29.4971 185.499s-45.834 103.333 -78.501 141s-71 69.5 -115 95.5s-89.5 44.833 -136.5 56.5s-95.167 17.5 -144.5 17.5c-46.667 0 -92.334 -5.66699 -137.001 -17
s-87.834 -29.666 -129.501 -54.999s-78.167 -56.166 -109.5 -92.499s-56.5 -81.5 -75.5 -135.5s-28.5 -113.333 -28.5 -178c0 -154 47.667 -277.667 143 -371s214.333 -140 357 -140c59.333 0 116.833 9.66699 172.5 29s107.167 48 154.5 86s85.333 89.667 114 155
s43 139.666 43 222.999zM966.002 1436c144.667 0 273.333 -28.332 386 -84.999s201.334 -139.167 266.001 -247.5s97 -234.166 97 -377.499c0 -145.333 -31.667 -274.166 -95 -386.499s-152.333 -199.5 -267 -261.5s-246.334 -93 -395.001 -93c-98 0 -191 15.167 -279 45.5
s-166.833 74.666 -236.5 132.999s-125 134.166 -166 227.499s-61.5 198.666 -61.5 315.999c0 146 32 274.5 96 385.5s152.667 196 266 255s243 88.5 389 88.5z" />
    <glyph glyph-name="obreve" unicode="&#x14f;" horiz-adv-x="1375" 
d="M257 1360l204.002 103l21 -38c6 -10.667 12.5 -21.167 19.5 -31.5s18.167 -24 33.5 -41s31.666 -31.833 48.999 -44.5s39 -23.667 65 -33s53 -14 81 -14c55.333 0 109.833 17.167 163.5 51.5s98.5 74.166 134.5 119.499l24 31l180 -123l-26 -35
c-58 -76 -130.333 -139 -217 -189s-179.334 -75 -278.001 -75c-58 0 -112.333 8.33301 -163 25s-94 38.834 -130 66.501s-66.5 58 -91.5 91s-44.167 67.5 -57.5 103.5zM678.002 785c-51.333 0 -99.668 -9.66895 -145.001 -29.002s-83.5 -50.666 -114.5 -93.999
s-46.5 -94.333 -46.5 -153c0 -86.667 30 -159.5 90 -218.5s138 -88.5 234 -88.5c87.333 0 160.333 25.667 219 77s88 119.333 88 204c0 48.667 -9.66699 92.834 -29 132.501s-44.666 71.5 -75.999 95.5s-66 42.333 -104 55s-76.667 19 -116 19zM694 1007
c165.333 0 298.5 -43.501 399.5 -130.501s151.5 -208.5 151.5 -364.5c0 -164 -51.5 -293.667 -154.5 -389s-241.5 -143 -415.5 -143c-165.333 0 -297.5 44.833 -396.5 134.5s-148.5 212.834 -148.5 369.501c0 160.667 50.5 288 151.5 382s238.5 141 412.5 141z" />
    <glyph glyph-name="Ohungarumlaut" unicode="&#x150;" horiz-adv-x="1850" 
d="M1576 2011l129 -184l-579 -386l-129 168zM1020 2011l140 -184l-600 -386l-127 168zM1457 709c0 67.333 -9.83008 129.166 -29.4971 185.499s-45.834 103.333 -78.501 141s-71 69.5 -115 95.5s-89.5 44.833 -136.5 56.5s-95.167 17.5 -144.5 17.5
c-46.667 0 -92.334 -5.66699 -137.001 -17s-87.834 -29.666 -129.501 -54.999s-78.167 -56.166 -109.5 -92.499s-56.5 -81.5 -75.5 -135.5s-28.5 -113.333 -28.5 -178c0 -154 47.667 -277.667 143 -371s214.333 -140 357 -140c59.333 0 116.833 9.66699 172.5 29
s107.167 48 154.5 86s85.333 89.667 114 155s43 139.666 43 222.999zM966.003 1436c144.667 0 273.333 -28.332 386 -84.999s201.334 -139.167 266.001 -247.5s97 -234.166 97 -377.499c0 -145.333 -31.667 -274.166 -95 -386.499s-152.333 -199.5 -267 -261.5
s-246.334 -93 -395.001 -93c-98 0 -191 15.167 -279 45.5s-166.833 74.666 -236.5 132.999s-125 134.166 -166 227.499s-61.5 198.666 -61.5 315.999c0 146 32 274.5 96 385.5s152.667 196 266 255s243 88.5 389 88.5z" />
    <glyph glyph-name="ohungarumlaut" unicode="&#x151;" horiz-adv-x="1375" 
d="M687 1007c107.333 0 202.668 -18.832 286.001 -56.499s149.5 -94.334 198.5 -170.001s73.5 -165.167 73.5 -268.5c0 -162.667 -52.833 -292 -158.5 -388s-244.834 -144 -417.501 -144c-162.667 0 -293.167 45 -391.5 135s-147.5 213 -147.5 369
c0 160.667 50.167 288 150.5 382s235.833 141 406.5 141zM672.002 785.001c-37.333 0 -73.5 -5.83203 -108.5 -17.499s-67 -28.5 -96 -50.5s-52.167 -51 -69.5 -87s-26 -76.333 -26 -121c0 -86.667 29.5 -159.5 88.5 -218.5s135.5 -88.5 229.5 -88.5
c85.333 0 156.833 25.667 214.5 77s86.5 119.333 86.5 204c0 64 -16.333 119.667 -49 167s-72.667 81.666 -120 102.999s-97.333 32 -150 32zM1196 1567l146 -173l-465 -368l-147 163zM714.002 1567l164 -173l-496 -368l-131 163z" />
    <glyph glyph-name="OE" unicode="&#x152;" horiz-adv-x="2162" 
d="M1090 232l0.00390625 957h-17c-82.667 0 -147.334 -3 -194.001 -9c-130.667 -18 -232 -68.833 -304 -152.5s-108 -192.167 -108 -325.5c0 -50.667 6 -97.667 18 -141s27.167 -80 45.5 -110s40.166 -57.333 65.499 -82s49.666 -44.167 72.999 -58.5
s47.666 -26.833 72.999 -37.5c40.667 -17.333 80.167 -28.5 118.5 -33.5s84.5 -7.5 138.5 -7.5h91zM402.004 1223c39.333 36.667 84.167 68.001 134.5 94.001s98.166 45.667 143.499 59s98.833 23.5 160.5 30.5s112.5 11.167 152.5 12.5s91 2 153 2h856v-232h-643v-341h588
v-232h-588v-384h643v-232h-951c-89.333 0 -168.666 3.66699 -237.999 11s-135.666 23 -198.999 47c-124.667 48 -222.334 126.167 -293.001 234.5s-106 245.166 -106 410.499c0 224 62.333 397.333 187 520z" />
    <glyph glyph-name="oe" unicode="&#x153;" horiz-adv-x="1967" 
d="M907 476c0 52.667 -8.16699 99.3311 -24.5 139.998s-37.833 72.5 -64.5 95.5s-55.5 40.167 -86.5 51.5s-62.833 17 -95.5 17c-78.667 0 -142.334 -26.167 -191.001 -78.5s-73 -119.166 -73 -200.499c0 -84.667 26.333 -156 79 -214s120.334 -87 203.001 -87
c71.333 0 131.333 23.833 180 71.5s73 115.834 73 204.501zM1397 813.997c-67.333 0 -121.333 -23.333 -162 -70s-64.667 -104 -72 -172h434c-4 87.333 -23.167 149.5 -57.5 186.5s-81.833 55.5 -142.5 55.5zM1433 996.997c52.667 0 100.001 -6 142.001 -18
s76.833 -27.5 104.5 -46.5s51.667 -43.333 72 -73s35.833 -58.667 46.5 -87s19 -61.5 25 -99.5s9.83301 -71.167 11.5 -99.5s2.5 -60.833 2.5 -97.5v-110h-676c12.667 -52 47.667 -97.167 105 -135.5s134.333 -57.5 231 -57.5c59.333 0 127 10 203 30l42 11l45 -168l-34 -11
c-104.667 -38.667 -213 -58 -325 -58c-179.333 0 -315.333 52 -408 156c-96.667 -102 -225.334 -153 -386.001 -153c-153.333 0 -275.666 45.667 -366.999 137s-137 214.333 -137 369c0 158 47.333 283.5 142 376.5s222 139.5 382 139.5c170.667 0 302 -55.667 394 -167
c30.667 34 64.667 62.5 102 85.5s74.166 39.667 110.499 50s67.833 17.333 94.5 21s52.667 5.5 78 5.5z" />
    <glyph glyph-name="Racute" unicode="&#x154;" horiz-adv-x="1602" 
d="M1392 1014c0 -45.333 -5.5 -88.5 -16.5 -129.5s-28.333 -80.5 -52 -118.5s-56 -72 -97 -102s-89.5 -53.333 -145.5 -70l429 -594h-328l-398 552c-5.33301 0 -13.333 -0.166992 -24 -0.5s-19 -0.5 -25 -0.5h-192v-551h-253v1421h606c38.667 0 71.667 -1 99 -3
s59.5 -6.33301 96.5 -13s71.5 -18 103.5 -34s61 -36.333 87 -61c73.333 -73.333 110 -172 110 -296zM543 1190v-407.001h232c88.667 0 159.5 7.33301 212.5 22s92.5 45.334 118.5 92.001c15.333 27.333 23 58.666 23 93.999c0 44.667 -15.167 84.834 -45.5 120.501
s-78.166 59.167 -143.499 70.5c-30.667 5.33301 -80.334 8 -149.001 8h-248zM1051 1992l126 -195l-659 -336l-102 178z" />
    <glyph glyph-name="racute" unicode="&#x155;" horiz-adv-x="965" 
d="M392 935c104 48 215 72 333 72c74 0 142.667 -14.667 206 -44l35 -16l-79 -204l-38 15c-46 18 -96 27 -150 27h-2c-87.333 0 -171.333 -15.667 -252 -47v-738h-265v988h183zM733 1567l146 -173l-522 -368l-130 163z" />
    <glyph glyph-name="Rcommaaccent" unicode="&#x156;" horiz-adv-x="1602" 
d="M481 -40h297l-218 -472h-270zM547 1190l-0.000976562 -407.002h232c88.667 0 159.334 7.33301 212.001 22s92 45.334 118 92.001c16 28.667 24 60 24 94c0 44.667 -15.167 84.834 -45.5 120.501s-78.166 59.167 -143.499 70.5c-30.667 5.33301 -80.334 8 -149.001 8h-248
zM1396 1014c0 -45.333 -5.50098 -88.5 -16.501 -129.5s-28.333 -80.5 -52 -118.5s-56 -72 -97 -102s-89.5 -53.333 -145.5 -70l429 -594h-328l-398 552c-5.33301 0 -13.333 -0.166992 -24 -0.5s-19 -0.5 -25 -0.5h-192v-551h-253v1421h605c38.667 0 71.834 -1 99.501 -3
s60 -6.33301 97 -13s71.5 -18 103.5 -34s61 -36.333 87 -61c73.333 -73.333 110 -172 110 -296z" />
    <glyph glyph-name="rcommaaccent" unicode="&#x157;" horiz-adv-x="965" 
d="M412 935c104 48 215.001 72 333.001 72c74 0 142.667 -14.667 206 -44l35 -16l-79 -204l-38 15c-46 18 -96 27 -150 27h-3c-86.667 0 -170.334 -15.667 -251.001 -47v-738h-265v988h183zM217.001 -40h299l-222 -472h-268z" />
    <glyph glyph-name="Rcaron" unicode="&#x158;" horiz-adv-x="1602" 
d="M1392 1014c0 -45.333 -5.5 -88.5 -16.5 -129.5s-28.333 -80.5 -52 -118.5s-56 -72 -97 -102s-89.5 -53.333 -145.5 -70l429 -594h-328l-398 552c-5.33301 0 -13.333 -0.166992 -24 -0.5s-19 -0.5 -25 -0.5h-192v-551h-253v1421h606c38.667 0 71.667 -1 99 -3
s59.5 -6.33301 96.5 -13s71.5 -18 103.5 -34s61 -36.333 87 -61c73.333 -73.333 110 -172 110 -296zM543 1190v-407.001h232c88.667 0 159.5 7.33301 212.5 22s92.5 45.334 118.5 92.001c15.333 27.333 23 58.666 23 93.999c0 44.667 -15.167 84.834 -45.5 120.501
s-78.166 59.167 -143.499 70.5c-30.667 5.33301 -80.334 8 -149.001 8h-248zM766 1457l-339 348l157 145l198 -194l203 191l170 -133z" />
    <glyph glyph-name="rcaron" unicode="&#x159;" horiz-adv-x="965" 
d="M392 935c104 48 215 72 333 72c74 0 142.667 -14.667 206 -44l35 -16l-79 -204l-38 15c-46 18 -96 27 -150 27h-2c-87.333 0 -171.333 -15.667 -252 -47v-738h-265v988h183zM582 1023l-362 349l157 144l224 -194l205 191l150 -130z" />
    <glyph glyph-name="Sacute" unicode="&#x15a;" horiz-adv-x="1525" 
d="M1073 1992l121 -195l-659 -336l-109 178zM927 1434c132.667 0 263.667 -19.668 393 -59.001l41 -12l-82 -232l-38 11c-120.667 33.333 -230.667 50 -330 50c-98 0 -181.833 -16 -251.5 -48s-104.5 -73 -104.5 -123c0 -32.667 15.5 -61.334 46.5 -86.001
s71.167 -45.5 120.5 -62.5s103.833 -33.833 163.5 -50.5s119.5 -36 179.5 -58s114.667 -47.333 164 -76s89.5 -66.834 120.5 -114.501s46.5 -102.5 46.5 -164.5c0 -40 -6.83301 -79.5 -20.5 -118.5s-36.667 -77.5 -69 -115.5s-72.333 -71.167 -120 -99.5
s-108.334 -51.333 -182.001 -69s-156.167 -26.5 -247.5 -26.5s-173.666 8.5 -246.999 25.5s-151 41.5 -233 73.5l-37 14l85 242l39 -15c168.667 -60 307.667 -90 417 -90c102.667 0 185.834 15.667 249.501 47s95.5 72.666 95.5 123.999
c0 28.667 -9.66699 54.334 -29 77.001s-45.333 41.834 -78 57.501s-70.167 30.167 -112.5 43.5s-86.833 26.333 -133.5 39s-93.334 26.334 -140.001 41.001s-91.167 32.334 -133.5 53.001s-79.833 44 -112.5 70s-58.667 58.5 -78 97.5s-29 82.5 -29 130.5
c0 120 58.833 220.667 176.5 302s274.5 122 470.5 122z" />
    <glyph glyph-name="sacute" unicode="&#x15b;" horiz-adv-x="1180" 
d="M308 1189l504 378l148 -173l-508 -368zM807 295c-1.33301 16.667 -14.1719 31.3359 -38.5049 44.0029s-55.5 24 -93.5 34s-79.667 20.333 -125 31s-90.5 23.834 -135.5 39.501s-86.167 34 -123.5 55s-67.666 48.667 -90.999 83s-35 73.5 -35 117.5
c0 26 4.83301 52.167 14.5 78.5s27.167 53.666 52.5 81.999s57.333 53.166 96 74.499s90.334 38.833 155.001 52.5s137.667 20.5 219 20.5c48 0 91.333 -2.5 130 -7.5s66 -9.5 82 -13.5s40.333 -11 73 -21l41 -12l-68 -202l-38 10c-86.667 24 -171 36 -253 36
c-41.333 0 -77.666 -2.83301 -108.999 -8.5s-55.166 -12.334 -71.499 -20.001s-29.5 -16.667 -39.5 -27s-16.333 -19 -19 -26s-4 -13.5 -4 -19.5c0 -15.333 11.833 -29.333 35.5 -42s54.5 -24.167 92.5 -34.5l125.5 -33c45.667 -11.667 91.5 -25.834 137.5 -42.501
s88 -35.667 126 -57s68.833 -48.666 92.5 -81.999s35.5 -70.666 35.5 -111.999c0 -28.667 -4.16699 -56.334 -12.5 -83.001s-24.333 -54.334 -48 -83.001s-54.167 -53.5 -91.5 -74.5s-87.666 -38.333 -150.999 -52s-136 -20.5 -218 -20.5c-128 0 -255.667 26 -383 78l-37 15
l74 200l38 -15c119.333 -44.667 225 -67 317 -67c85.333 0 148 8.5 188 25.5s60 43.167 60 78.5z" />
    <glyph glyph-name="Scircumflex" unicode="&#x15c;" horiz-adv-x="1525" 
d="M927 1434c132.667 0 263.667 -19.668 393 -59.001l41 -12l-82 -232l-38 11c-120.667 33.333 -230.667 50 -330 50c-98 0 -181.833 -16 -251.5 -48s-104.5 -73 -104.5 -123c0 -32.667 15.5 -61.334 46.5 -86.001s71.167 -45.5 120.5 -62.5s103.833 -33.833 163.5 -50.5
s119.5 -36 179.5 -58s114.667 -47.333 164 -76s89.5 -66.834 120.5 -114.501s46.5 -102.5 46.5 -164.5c0 -40 -6.83301 -79.5 -20.5 -118.5s-36.667 -77.5 -69 -115.5s-72.333 -71.167 -120 -99.5s-108.334 -51.333 -182.001 -69s-156.167 -26.5 -247.5 -26.5
s-173.666 8.5 -246.999 25.5s-151 41.5 -233 73.5l-37 14l85 242l39 -15c168.667 -60 307.667 -90 417 -90c102.667 0 185.834 15.667 249.501 47s95.5 72.666 95.5 123.999c0 28.667 -9.66699 54.334 -29 77.001s-45.333 41.834 -78 57.501s-70.167 30.167 -112.5 43.5
s-86.833 26.333 -133.5 39s-93.334 26.334 -140.001 41.001s-91.167 32.334 -133.5 53.001s-79.833 44 -112.5 70s-58.667 58.5 -78 97.5s-29 82.5 -29 130.5c0 120 58.833 220.667 176.5 302s274.5 122 470.5 122zM807 1951l355 -348l-172 -145l-199 194l-203 -191
l-162 133z" />
    <glyph glyph-name="scircumflex" unicode="&#x15d;" horiz-adv-x="1180" 
d="M267 1160l394 357l342 -348l-152 -145l-207 194l-218 -191zM807 295c-1.33301 16.667 -14.1719 31.3359 -38.5049 44.0029s-55.5 24 -93.5 34s-79.667 20.333 -125 31s-90.5 23.834 -135.5 39.501s-86.167 34 -123.5 55s-67.666 48.667 -90.999 83s-35 73.5 -35 117.5
c0 26 4.83301 52.167 14.5 78.5s27.167 53.666 52.5 81.999s57.333 53.166 96 74.499s90.334 38.833 155.001 52.5s137.667 20.5 219 20.5c48 0 91.333 -2.5 130 -7.5s66 -9.5 82 -13.5s40.333 -11 73 -21l41 -12l-68 -202l-38 10c-86.667 24 -171 36 -253 36
c-41.333 0 -77.666 -2.83301 -108.999 -8.5s-55.166 -12.334 -71.499 -20.001s-29.5 -16.667 -39.5 -27s-16.333 -19 -19 -26s-4 -13.5 -4 -19.5c0 -15.333 11.833 -29.333 35.5 -42s54.5 -24.167 92.5 -34.5l125.5 -33c45.667 -11.667 91.5 -25.834 137.5 -42.501
s88 -35.667 126 -57s68.833 -48.666 92.5 -81.999s35.5 -70.666 35.5 -111.999c0 -28.667 -4.16699 -56.334 -12.5 -83.001s-24.333 -54.334 -48 -83.001s-54.167 -53.5 -91.5 -74.5s-87.666 -38.333 -150.999 -52s-136 -20.5 -218 -20.5c-128 0 -255.667 26 -383 78l-37 15
l74 200l38 -15c119.333 -44.667 225 -67 317 -67c85.333 0 148 8.5 188 25.5s60 43.167 60 78.5z" />
    <glyph glyph-name="Scedilla" unicode="&#x15e;" horiz-adv-x="1525" 
d="M838 -317c15.333 0 28.0039 1.99805 38.0039 5.99805s16.333 8 19 12s4 8.33301 4 13c0 12.667 -14 24 -42 34s-77.667 24 -149 42l-45 11l-44 11l53 170c-72.667 4 -138.5 14 -197.5 30s-124.833 38.333 -197.5 67l-37 14l85 242l39 -15c169.333 -60 309 -90 419 -90
c103.333 0 186.833 15.667 250.5 47s95.5 72.666 95.5 123.999c0 28.667 -9.66699 54.334 -29 77.001s-45.333 41.834 -78 57.501s-70.334 30.167 -113.001 43.5s-87.5 26.333 -134.5 39s-93.833 26.334 -140.5 41.001s-91.334 32.334 -134.001 53.001
s-80.334 44 -113.001 70s-58.667 58.5 -78 97.5s-29 82.5 -29 130.5c0 120 59.333 220.667 178 302s275.667 122 471 122c131.333 0 261.666 -19.667 390.999 -59l41 -12l-83 -232l-37 11c-120 33.333 -229.333 50 -328 50c-97.333 0 -180.666 -16 -249.999 -48
s-104 -73 -104 -123c0 -32.667 15.333 -61.334 46 -86.001s70.667 -45.5 120 -62.5s103.833 -33.667 163.5 -50s119.167 -35.666 178.5 -57.999s113.666 -47.833 162.999 -76.5s89.333 -66.667 120 -114s46 -102 46 -164c0 -34 -5 -67.833 -15 -101.5
s-26.667 -67.5 -50 -101.5s-52 -64.833 -86 -92.5s-77 -52.334 -129 -74.001s-110 -37.5 -174 -47.5l-17 -59c131.333 -39.333 197 -109 197 -209c0 -62 -27.167 -116 -81.5 -162s-123.833 -69 -208.5 -69c-30 0 -60.167 2.83301 -90.5 8.5s-95.5 21.167 -195.5 46.5l-45 11
l61 183l45 -12c120 -32 197 -48 231 -48z" />
    <glyph glyph-name="scedilla" unicode="&#x15f;" horiz-adv-x="1180" 
d="M626 -321c25.333 0 44.168 3.83203 56.501 11.499s18.5 16.167 18.5 25.5c0 14 -12.167 25.5 -36.5 34.5s-69.833 21.5 -136.5 37.5l-75 18l-47 11l55 167c-97.333 8.66699 -195.333 33.334 -294 74.001l-37 15l74 200l38 -15c119.333 -44.667 225.666 -67 318.999 -67
c86 0 149 8.5 189 25.5s60 43.167 60 78.5c-1.33301 16.667 -14.166 31.5 -38.499 44.5s-55.333 24.333 -93 34s-79.5 19.834 -125.5 30.501s-91.667 23.834 -137 39.501s-86.833 34 -124.5 55s-68.167 48.667 -91.5 83s-35 73.5 -35 117.5c0 26.667 4.66699 53 14 79
s26.833 53.167 52.5 81.5s57.834 53.166 96.501 74.499s90.5 38.833 155.5 52.5s138.5 20.5 220.5 20.5c47.333 0 90.166 -2.5 128.499 -7.5s65.5 -9.5 81.5 -13.5s40.333 -11 73 -21l41 -12l-68 -202l-38 10c-86.667 24 -170 36 -250 36
c-76.667 0 -135.5 -10.333 -176.5 -31s-61.5 -43 -61.5 -67c0 -15.333 11.667 -29.666 35 -42.999s53.833 -25.333 91.5 -36l124 -33.5c45 -11.667 90.167 -25.834 135.5 -42.501s86.833 -35.667 124.5 -57s68.167 -48.666 91.5 -81.999s35 -70.666 35 -111.999
c0 -30.667 -5.16699 -60.334 -15.5 -89.001s-27.5 -57.834 -51.5 -87.501s-59.667 -55.834 -107 -78.501s-104 -38.667 -170 -48l-19 -57c128.667 -34 193 -103 193 -207c0 -59.333 -24.333 -111.5 -73 -156.5s-117.334 -67.5 -206.001 -67.5c-58.667 0 -148 16 -268 48
c-8.66699 2 -15 3.66699 -19 5l-39 11l48 170l42 -12c125.333 -30 205.333 -45 240 -45z" />
    <glyph glyph-name="Scaron" unicode="&#x160;" horiz-adv-x="1525" 
d="M833 1457l-355 348l173 145l198 -194l203 191l162 -133zM927 1434c132.667 0 263.667 -19.668 393 -59.001l41 -12l-82 -232l-38 11c-120.667 33.333 -230.667 50 -330 50c-98 0 -181.833 -16 -251.5 -48s-104.5 -73 -104.5 -123c0 -32.667 15.5 -61.334 46.5 -86.001
s71.167 -45.5 120.5 -62.5s103.833 -33.833 163.5 -50.5s119.5 -36 179.5 -58s114.667 -47.333 164 -76s89.5 -66.834 120.5 -114.501s46.5 -102.5 46.5 -164.5c0 -40 -6.83301 -79.5 -20.5 -118.5s-36.667 -77.5 -69 -115.5s-72.333 -71.167 -120 -99.5
s-108.334 -51.333 -182.001 -69s-156.167 -26.5 -247.5 -26.5s-173.666 8.5 -246.999 25.5s-151 41.5 -233 73.5l-37 14l85 242l39 -15c168.667 -60 307.667 -90 417 -90c102.667 0 185.834 15.667 249.501 47s95.5 72.666 95.5 123.999
c0 28.667 -9.66699 54.334 -29 77.001s-45.333 41.834 -78 57.501s-70.167 30.167 -112.5 43.5s-86.833 26.333 -133.5 39s-93.334 26.334 -140.001 41.001s-91.167 32.334 -133.5 53.001s-79.833 44 -112.5 70s-58.667 58.5 -78 97.5s-29 82.5 -29 130.5
c0 120 58.833 220.667 176.5 302s274.5 122 470.5 122z" />
    <glyph glyph-name="scaron" unicode="&#x161;" horiz-adv-x="1180" 
d="M807 295c-1.33301 16.667 -14.1719 31.3359 -38.5049 44.0029s-55.5 24 -93.5 34s-79.667 20.333 -125 31s-90.5 23.834 -135.5 39.501s-86.167 34 -123.5 55s-67.666 48.667 -90.999 83s-35 73.5 -35 117.5c0 26 4.83301 52.167 14.5 78.5s27.167 53.666 52.5 81.999
s57.333 53.166 96 74.499s90.334 38.833 155.001 52.5s137.667 20.5 219 20.5c48 0 91.333 -2.5 130 -7.5s66 -9.5 82 -13.5s40.333 -11 73 -21l41 -12l-68 -202l-38 10c-86.667 24 -171 36 -253 36c-41.333 0 -77.666 -2.83301 -108.999 -8.5
s-55.166 -12.334 -71.499 -20.001s-29.5 -16.667 -39.5 -27s-16.333 -19 -19 -26s-4 -13.5 -4 -19.5c0 -15.333 11.833 -29.333 35.5 -42s54.5 -24.167 92.5 -34.5l125.5 -33c45.667 -11.667 91.5 -25.834 137.5 -42.501s88 -35.667 126 -57s68.833 -48.666 92.5 -81.999
s35.5 -70.666 35.5 -111.999c0 -28.667 -4.16699 -56.334 -12.5 -83.001s-24.333 -54.334 -48 -83.001s-54.167 -53.5 -91.5 -74.5s-87.666 -38.333 -150.999 -52s-136 -20.5 -218 -20.5c-128 0 -255.667 26 -383 78l-37 15l74 200l38 -15c119.333 -44.667 225 -67 317 -67
c85.333 0 148 8.5 188 25.5s60 43.167 60 78.5zM1005.99 1383l-379 -360l-358 348l163 145l213 -194l210 191z" />
    <glyph glyph-name="Tcommaaccent" unicode="&#x162;" horiz-adv-x="1456" 
d="M730 -316c34.667 0.666992 51.998 9.66504 51.998 26.998c0 4 -1.16699 7.83301 -3.5 11.5s-6.16602 7.33398 -11.499 11.001s-11 7 -17 10s-13.833 6.33301 -23.5 10s-18.5 6.83398 -26.5 9.50098s-18.5 5.83398 -31.5 9.50098l-33 9l-36 9.5
c-15 4 -26.833 7.33301 -35.5 10l-52 12l15 38c6 16 14.333 36.833 25 62.5l20 48.5c2.66699 6.66699 6.83398 18.5 12.501 35.5s8.83398 28.667 9.50098 35s2 17.666 4 33.999s3 31.666 3 45.999v58.5v1018h-516v232h1284v-232h-516v-1005
c0 -56.667 -2.33301 -102.834 -7 -138.501s-14.667 -74.5 -30 -116.5c140.667 -46 211 -114 211 -204c0 -59.333 -28.833 -112.666 -86.5 -159.999s-131.5 -71 -221.5 -71c-18 0 -37 1.33301 -57 4s-37.833 5.66699 -53.5 9s-42.834 9.5 -81.501 18.5l-102 23.5l-54 11
l74 183l54 -12l58 -14.5l50.5 -12l38 -8.5c15 -3.33301 26.5 -5.66602 34.5 -6.99902s16.5 -2.5 25.5 -3.5s17.167 -1.5 24.5 -1.5z" />
    <glyph glyph-name="tcommaaccent" unicode="&#x163;" horiz-adv-x="919" 
d="M203 1271l277.002 -0.00292969v-283h352v-211h-352v-455c0 -17.333 2.16699 -33.666 6.5 -48.999s12.166 -31 23.499 -47s29.166 -28.667 53.499 -38s53.833 -14 88.5 -14c17.333 0 66 6 146 18l39 6l39 -170l-38 -10c-59.333 -16 -112 -27.333 -158 -34l-13 -52
c116 -38 174 -106.667 174 -206c0 -58.667 -23 -110.667 -69 -156s-108.667 -68 -188 -68c-49.333 0 -105.166 6.33301 -167.499 19s-109.5 23.667 -141.5 33l-39 11l49 170l43 -12c1.33301 0 18.166 -3.66699 50.499 -11s57 -12.666 74 -15.999s39.333 -7 67 -11
s50.834 -6 69.501 -6c47.333 0 71 11.333 71 34c0 16 -10.333 28 -31 36s-71.334 21 -152.001 39c-32.667 6.66699 -58.667 12.334 -78 17.001l-52 11l68 185c-141.333 41.333 -212 142.333 -212 303v473h-133v211h133v283z" />
    <glyph glyph-name="Tcaron" unicode="&#x164;" horiz-adv-x="1374" 
d="M85 1421h1284v-232h-516v-1189h-252v1189h-516v232zM740 1457l-348 348l170 145l195 -194l198 191l167 -133z" />
    <glyph glyph-name="tcaron" unicode="&#x165;" horiz-adv-x="919" 
d="M528 1055l208 472h305l-217 -472h-296zM203 1271l277 -0.000976562v-283h352v-211h-352v-443c0 -19.333 1.33301 -35.666 4 -48.999s8.33398 -28.166 17.001 -44.499s23.667 -28.833 45 -37.5s48.666 -13 81.999 -13c22.667 0 79.334 6.66699 170.001 20l39 7l39 -189
l-38 -10c-104 -25.333 -194.333 -38 -271 -38c-58 0 -108.833 6.16699 -152.5 18.5s-78.834 28.666 -105.501 48.999s-48 45.5 -64 75.5s-27 60.333 -33 91s-9 65 -9 103v460h-133v211h133v283z" />
    <glyph glyph-name="Tbar" unicode="&#x166;" horiz-adv-x="1374" 
d="M85 1421h1284v-232h-516v-395h373v-232h-373v-562h-252v562h-373v232h373v395h-516v232z" />
    <glyph glyph-name="tbar" unicode="&#x167;" horiz-adv-x="919" 
d="M838 18c-98 -25.333 -179.998 -37.999 -245.998 -37.999c-132 0 -229.833 26.5 -293.5 79.5s-95.5 140.167 -95.5 261.5v117h-133v191h133v148h-133v211h133v283h277v-283h352v-211h-352v-148h352v-191h-352v-107c0 -16.667 2.16699 -32.334 6.5 -47.001
s12.166 -29.5 23.499 -44.5s29.166 -27 53.499 -36s53.833 -13.5 88.5 -13.5c18 0 66.667 6.66699 146 20l39 7l39 -189z" />
    <glyph glyph-name="Utilde" unicode="&#x168;" horiz-adv-x="1744" 
d="M912 -20c-392.667 0 -599.998 145.667 -621.998 437c-1.33301 21.333 -2 48.333 -2 81c0 17.333 0.333008 40.166 1 68.499s1 47.5 1 57.5v797h252v-901c0 -50.667 4.66699 -92.667 14 -126s29 -64 59 -92c66.667 -62 165.667 -93 297 -93c96 0 175.167 16.667 237.5 50
s102.5 80.333 120.5 141c8 26.667 12 66.667 12 120v901h252v-797c0 -13.333 0.333008 -34.166 1 -62.499s1 -49.833 1 -64.5c0 -29.333 -0.833008 -55.333 -2.5 -78s-6.83398 -53 -15.501 -91s-20.5 -71.333 -35.5 -100s-38.167 -59.5 -69.5 -92.5s-68.333 -60 -111 -81
s-97.334 -38.667 -164.001 -53s-142 -21.5 -226 -21.5zM710.002 1862c39.333 -2 76.3291 -9.49805 110.996 -22.498s63.667 -28.167 87 -45.5s44.5 -34.5 63.5 -51.5s36.833 -31.5 53.5 -43.5s31.334 -18 44.001 -18c7.33301 0 14.833 2.33301 22.5 7s14.667 10.167 21 16.5
s13.5 15.666 21.5 27.999s14.5 23 19.5 32l21 39c9 17 16.167 29.833 21.5 38.5l20 34l186 -80l-18 -38c-33.333 -68.667 -57 -113.667 -71 -135c-63.333 -96.667 -144.666 -145 -243.999 -145c-39.333 2 -76.333 9.5 -111 22.5s-63.667 28.167 -87 45.5
s-44.5 34.5 -63.5 51.5s-36.833 31.5 -53.5 43.5s-31.334 18 -44.001 18c-6.66699 0 -13.167 -1.5 -19.5 -4.5s-12.666 -7.66699 -18.999 -14s-12 -12.833 -17 -19.5s-11 -15.667 -18 -27s-12.667 -21 -17 -29l-18 -33l-18.5 -33l-20 -35l-181 80l18 38l15 31.5
c8 17 13.833 29 17.5 36l19 36c9 17 16.667 29.833 23 38.5l26 34.5c11 14.333 21.333 25.5 31 33.5s21.5 17.167 35.5 27.5s27.833 18.166 41.5 23.499s29.334 9.83301 47.001 13.5s35.834 5.5 54.501 5.5z" />
    <glyph glyph-name="utilde" unicode="&#x169;" horiz-adv-x="1345" 
d="M498 1428c42 -2 81.4971 -9.50098 118.497 -22.501s67.833 -28.167 92.5 -45.5s47.334 -34.5 68.001 -51.5s39.667 -31.5 57 -43.5s33 -18 47 -18c7.33301 0 14 1.16699 20 3.5s12 6.5 18 12.5s11.167 11.667 15.5 17s9.83301 13.833 16.5 25.5
s11.834 21.167 15.501 28.5l18 35.5c8.33301 16.333 14.5 28.833 18.5 37.5l18 36l178 -81l-19 -38c-2 -4 -7.5 -15.667 -16.5 -35s-15.667 -33 -20 -41l-21.5 -40c-10 -18.667 -18.833 -32.667 -26.5 -42l-30 -37c-12.333 -15.333 -24.666 -27 -36.999 -35
s-26.166 -16.5 -41.499 -25.5s-31.833 -15.333 -49.5 -19s-36.5 -5.5 -56.5 -5.5c-42 2 -81.333 9.5 -118 22.5s-67.334 28.167 -92.001 45.5s-47.167 34.5 -67.5 51.5s-39.333 31.5 -57 43.5s-33.5 18 -47.5 18c-5.33301 0 -10.5 -0.666992 -15.5 -2s-10 -3.83301 -15 -7.5
s-9.5 -7.16699 -13.5 -10.5s-8.33301 -8.5 -13 -15.5l-12 -18c-3.33301 -5 -7.66602 -12.667 -12.999 -23l-12.5 -24.5l-14 -28.5l-14.5 -30.5l-17 -35l-181 80l19 38c1.33301 2.66699 6.66602 14.167 15.999 34.5s16 34 20 41l21.5 39.5c10.333 19.333 19.333 33.5 27 42.5
l30.5 37c12.667 15.667 25 27.334 37 35.001l41.5 25.5c15.667 9.33301 32.5 15.833 50.5 19.5s37 5.5 57 5.5zM928.997 987.999l246 -0.00195312v-988h-183l-28 67c-134 -58 -263.333 -87 -388 -87c-64.667 0 -120.667 8.5 -168 25.5s-84.5 38.667 -111.5 65
s-48.5 59.166 -64.5 98.499s-26.333 77 -31 113s-7 76.667 -7 122v584h246v-582c0 -17.333 0.833008 -32.666 2.5 -45.999s6.66699 -30.166 15 -50.499s19.833 -37.166 34.5 -50.499s36.667 -25 66 -35s64 -15 104 -15c79.333 0 168.333 18.333 267 55v724z" />
    <glyph glyph-name="Umacron" unicode="&#x16a;" horiz-adv-x="1744" 
d="M912 -20c-392.667 0 -599.998 145.667 -621.998 437c-1.33301 21.333 -2 48.333 -2 81c0 17.333 0.333008 40.166 1 68.499s1 47.5 1 57.5v797h252v-901c0 -50.667 4.66699 -92.667 14 -126s29 -64 59 -92c66.667 -62 165.667 -93 297 -93c96 0 175.167 16.667 237.5 50
s102.5 80.333 120.5 141c8 26.667 12 66.667 12 120v901h252v-797c0 -13.333 0.333008 -34.166 1 -62.499s1 -49.833 1 -64.5c0 -29.333 -0.833008 -55.333 -2.5 -78s-6.83398 -53 -15.501 -91s-20.5 -71.333 -35.5 -100s-38.167 -59.5 -69.5 -92.5s-68.333 -60 -111 -81
s-97.334 -38.667 -164.001 -53s-142 -21.5 -226 -21.5zM395.002 1697h994v-211h-994v211z" />
    <glyph glyph-name="umacron" unicode="&#x16b;" 
d="M915 988l246 -0.00195312v-988h-183l-29 67c-134 -58 -263 -87 -387 -87c-64.667 0 -120.667 8.5 -168 25.5s-84.5 38.667 -111.5 65s-48.5 59.166 -64.5 98.499s-26.333 77 -31 113s-7 76.667 -7 122v584h246v-582c0 -17.333 0.833008 -32.666 2.5 -45.999
s6.5 -30.166 14.5 -50.499s19.333 -37.166 34 -50.499s36.667 -25 66 -35s64 -15 104 -15c80 0 169.333 18.333 268 55v724zM293 1333h762v-211h-762v211z" />
    <glyph glyph-name="Ubreve" unicode="&#x16c;" horiz-adv-x="1744" 
d="M366 1794l194.003 102.997l21 -38c6 -10.667 12.333 -21.167 19 -31.5s17.667 -24.166 33 -41.499s31.333 -32.166 48 -44.499s37.667 -23.166 63 -32.499s51.666 -14 78.999 -14c53.333 0 106.166 17 158.499 51s97.833 74 136.5 120l27 31l196 -123l-26 -35
c-62 -76 -138.333 -139 -229 -189s-184.334 -75 -281.001 -75c-56 0 -108.5 8.33301 -157.5 25s-90.833 39 -125.5 67s-64 58.333 -88 91s-42.667 67 -56 103zM912.003 -20.0029c-66.667 0 -128.165 4.50195 -184.498 13.502s-104.666 20.5 -144.999 34.5
s-76.5 32.167 -108.5 54.5s-58 43.833 -78 64.5s-37.333 45.667 -52 75s-25.5 54.666 -32.5 75.999s-12.333 46.666 -16 75.999s-5.83398 51.5 -6.50098 66.5s-1 33.833 -1 56.5c0 14.667 0.333008 36.167 1 64.5s1 49.166 1 62.499v797h252v-901
c0 -50.667 4.66699 -92.667 14 -126s29 -64 59 -92c66.667 -62 165.667 -93 297 -93c96 0 175.167 16.667 237.5 50s102.5 80.333 120.5 141c8 26.667 12 66.667 12 120v901h252v-797c0 -13.333 0.333008 -34.166 1 -62.499s1 -49.833 1 -64.5
c0 -29.333 -0.833008 -55.333 -2.5 -78s-6.83398 -53 -15.501 -91s-20.5 -71.333 -35.5 -100s-38.167 -59.5 -69.5 -92.5s-68.333 -60 -111 -81s-97.334 -38.667 -164.001 -53s-142 -21.5 -226 -21.5z" />
    <glyph glyph-name="ubreve" unicode="&#x16d;" 
d="M915 988l246 -0.00195312v-988h-183l-29 67c-134 -58 -263 -87 -387 -87c-64.667 0 -120.667 8.5 -168 25.5s-84.5 38.667 -111.5 65s-48.5 59.166 -64.5 98.499s-26.333 77 -31 113s-7 76.667 -7 122v584h246v-582c0 -17.333 0.833008 -32.666 2.5 -45.999
s6.5 -30.166 14.5 -50.499s19.333 -37.166 34 -50.499s36.667 -25 66 -35s64 -15 104 -15c80 0 169.333 18.333 268 55v724zM198 1360l192.999 103.001l19 -38c6.66699 -12.667 15.667 -26.5 27 -41.5s27.333 -32.667 48 -53s46.834 -37 78.501 -50s65.5 -19.5 101.5 -19.5
c58 0 114.667 17.5 170 52.5s100 74.5 134 118.5l24 31l181 -123l-26 -35c-58 -76.667 -130.333 -139.834 -217 -189.501s-181.667 -74.5 -285 -74.5c-113.333 0 -207 27.833 -281 83.5s-125.667 123.167 -155 202.5z" />
    <glyph glyph-name="Uring" unicode="&#x16e;" horiz-adv-x="1744" 
d="M890 2007c80.667 0 149.667 -25.833 207 -77.5s86 -114.167 86 -187.5s-28.667 -136 -86 -188s-126.333 -78 -207 -78s-149.834 26 -207.501 78s-86.5 114.667 -86.5 188c0 72.667 28.833 135 86.5 187s126.834 78 207.501 78zM890 1834
c-28.667 0 -52.667 -9.00195 -72 -27.002s-29 -39.667 -29 -65s9.5 -47.166 28.5 -65.499s43.167 -27.5 72.5 -27.5s52.833 9.83301 70.5 29.5s26.5 40.834 26.5 63.501c0 24.667 -9.33301 46.167 -28 64.5s-41.667 27.5 -69 27.5zM912 -20.002
c-66.667 0 -128.165 4.50195 -184.498 13.502s-104.666 20.5 -144.999 34.5s-76.5 32.167 -108.5 54.5s-58 43.833 -78 64.5s-37.333 45.667 -52 75s-25.5 54.666 -32.5 75.999s-12.333 46.666 -16 75.999s-5.83398 51.5 -6.50098 66.5s-1 33.833 -1 56.5
c0 14.667 0.333008 36.167 1 64.5s1 49.166 1 62.499v797h252v-901c0 -50.667 4.66699 -92.667 14 -126s29 -64 59 -92c66.667 -62 165.667 -93 297 -93c96 0 175.167 16.667 237.5 50s102.5 80.333 120.5 141c8 26.667 12 66.667 12 120v901h252v-797
c0 -13.333 0.333008 -34.166 1 -62.499s1 -49.833 1 -64.5c0 -29.333 -0.833008 -55.333 -2.5 -78s-6.83398 -53 -15.501 -91s-20.5 -71.333 -35.5 -100s-38.167 -59.5 -69.5 -92.5s-68.333 -60 -111 -81s-97.334 -38.667 -164.001 -53s-142 -21.5 -226 -21.5z" />
    <glyph glyph-name="uring" unicode="&#x16f;" 
d="M915 988l246 -0.00195312v-988h-183l-29 67c-134 -58 -263 -87 -387 -87c-64.667 0 -120.667 8.5 -168 25.5s-84.5 38.667 -111.5 65s-48.5 59.166 -64.5 98.499s-26.333 77 -31 113s-7 76.667 -7 122v584h246v-582c0 -17.333 0.833008 -32.666 2.5 -45.999
s6.5 -30.166 14.5 -50.499s19.333 -37.166 34 -50.499s36.667 -25 66 -35s64 -15 104 -15c80 0 169.333 18.333 268 55v724zM675 1573c85.333 0 156.831 -25.667 214.498 -77s86.5 -114 86.5 -188s-28.667 -136.833 -86 -188.5s-128.666 -77.5 -213.999 -77.5
s-157.166 25.833 -215.499 77.5s-87.5 114.5 -87.5 188.5c0 73.333 29 135.833 87 187.5s129.667 77.5 215 77.5zM675.998 1400c-30 0 -55.333 -9.00195 -76 -27.002s-31 -39.667 -31 -65s10 -47.166 30 -65.499s45.667 -27.5 77 -27.5c28.667 0 53 9.33301 73 28
s30 40.334 30 65.001s-10 46.167 -30 64.5s-44.333 27.5 -73 27.5z" />
    <glyph glyph-name="Uhungarumlaut" unicode="&#x170;" horiz-adv-x="1744" 
d="M554 1451l-127 184l551 386l117 -168zM1498 2021l127 -184l-551 -386l-117 168zM912 -20c-66.667 0 -128.165 4.50195 -184.498 13.502s-104.666 20.5 -144.999 34.5s-76.5 32.167 -108.5 54.5s-58 43.833 -78 64.5s-37.333 45.667 -52 75s-25.5 54.666 -32.5 75.999
s-12.333 46.666 -16 75.999s-5.83398 51.5 -6.50098 66.5s-1 33.833 -1 56.5c0 14.667 0.333008 36.167 1 64.5s1 49.166 1 62.499v797h252v-901c0 -50.667 4.66699 -92.667 14 -126s29 -64 59 -92c66.667 -62 165.667 -93 297 -93c96 0 175.167 16.667 237.5 50
s102.5 80.333 120.5 141c8 26.667 12 66.667 12 120v901h252v-797c0 -13.333 0.333008 -34.166 1 -62.499s1 -49.833 1 -64.5c0 -29.333 -0.833008 -55.333 -2.5 -78s-6.83398 -53 -15.501 -91s-20.5 -71.333 -35.5 -100s-38.167 -59.5 -69.5 -92.5s-68.333 -60 -111 -81
s-97.334 -38.667 -164.001 -53s-142 -21.5 -226 -21.5z" />
    <glyph glyph-name="uhungarumlaut" unicode="&#x171;" horiz-adv-x="1345" 
d="M665 1567l146 -173l-440 -368l-157 163zM915 988l246 -0.00195312v-988h-183l-29 67c-134 -58 -263 -87 -387 -87c-64.667 0 -120.667 8.5 -168 25.5s-84.5 38.667 -111.5 65s-48.5 59.166 -64.5 98.499s-26.333 77 -31 113s-7 76.667 -7 122v584h246v-582
c0 -17.333 0.833008 -32.666 2.5 -45.999s6.5 -30.166 14.5 -50.499s19.333 -37.166 34 -50.499s36.667 -25 66 -35s64 -15 104 -15c80 0 169.333 18.333 268 55v724zM1206 1567l146 -173l-440 -368l-157 163z" />
    <glyph glyph-name="Uogonek" unicode="&#x172;" horiz-adv-x="1744" 
d="M288 497c0 14.667 0.333008 36.168 1 64.501s1 49.166 1 62.499v797h252v-901c0 -50.667 4.66699 -92.667 14 -126s29 -64 59 -92c66.667 -62 165.667 -93 297 -93c96 0 175.167 16.667 237.5 50s102.5 80.333 120.5 141c8 26.667 12 66.667 12 120v901h252v-796
c0 -12.667 0.166992 -32.334 0.5 -59.001s0.5 -46.667 0.5 -60c0 -62.667 -4.5 -117.167 -13.5 -163.5s-21 -85.666 -36 -117.999s-36.667 -61.333 -65 -87s-57.666 -47.167 -87.999 -64.5s-69.5 -36.333 -117.5 -57c-57.333 -24 -106.5 -50.667 -147.5 -80
s-70.833 -56.833 -89.5 -82.5s-31.834 -47.834 -39.501 -66.501s-11.5 -34.667 -11.5 -48c0 -20.667 6.5 -37.334 19.5 -50.001s31.5 -19 55.5 -19c44 0 95.667 18 155 54l43 25l96 -162l-30 -22c-42 -28 -91.333 -53.333 -148 -76s-115 -34 -175 -34
c-81.333 0 -146.833 23 -196.5 69s-74.5 105.333 -74.5 178c0 100 41 194 123 282c-66 5.33301 -125.667 16.166 -179 32.499s-97.333 35.333 -132 57s-64.667 47.834 -90 78.501s-44.666 59.834 -57.999 87.501s-23.833 58.834 -31.5 93.501s-12.334 63.667 -14.001 87
s-2.5 49 -2.5 77z" />
    <glyph glyph-name="uogonek" unicode="&#x173;" horiz-adv-x="1345" 
d="M430 988l0.00390625 -582c0 -16 0.666992 -30.167 2 -42.5s6 -29 14 -50s19.167 -38.333 33.5 -52s36.166 -25.834 65.499 -36.501s64.666 -16 105.999 -16c81.333 0 170.666 18.333 267.999 55v724h246v-1017l-22 -11l-71 -36l-75 -38
c-18 -9.33301 -39.333 -21.5 -64 -36.5s-43.667 -28.333 -57 -40s-25 -25.167 -35 -40.5s-15 -30.666 -15 -45.999c0 -40 25 -60 75 -60c43.333 0 93.333 15.667 150 47l35 19l88 -150l-32 -21c-102.667 -67.333 -201 -101 -295 -101
c-88.667 0 -159.334 22.167 -212.001 66.5s-79 98.833 -79 163.5c0 133.333 113 251 339 353c-112.667 -40 -219.667 -60 -321 -60c-63.333 0 -119.666 8.66699 -168.999 26c-40.667 14.667 -75.334 33.834 -104.001 57.501s-50.667 48.167 -66 73.5
s-27.333 55.666 -36 90.999s-14 66.666 -16 93.999s-3 60.333 -3 99c0 6.66699 0.666992 14.834 2 24.501s2 15.5 2 17.5v525h246z" />
    <glyph glyph-name="Wcircumflex" unicode="&#x174;" horiz-adv-x="2401" 
d="M140 1421h268l327 -1092l411 1092h232l339 -1092l399 1092h254l-533 -1421h-241l-342 1087l-402 -1087h-241zM1269 1955l337 -348l-170 -145l-181 194l-187 -191l-169 133z" />
    <glyph glyph-name="wcircumflex" unicode="&#x175;" horiz-adv-x="1931" 
d="M60 988h263l237 -733l307 733h221l234 -735l320 735h264l-473 -988h-224l-233 710l-312 -710h-224zM984 1522l348 -348l-177 -145l-185 194l-192 -191l-176 133z" />
    <glyph glyph-name="Ycircumflex" unicode="&#x176;" horiz-adv-x="1427" 
d="M100 1421h298l380 -551l388 551h288l-545 -757v-664h-283v664zM796 1951l349 -348l-170 -145l-195 194l-200 -191l-167 133z" />
    <glyph glyph-name="ycircumflex" unicode="&#x177;" horiz-adv-x="1214" 
d="M50 988h259l329 -759l305 759h259l-652 -1519h-296l245 534zM647 1517l351 -348l-168 -145l-200 194l-204 -191l-165 133z" />
    <glyph glyph-name="Ydieresis" unicode="&#x178;" horiz-adv-x="1427" 
d="M100 1421h298l380 -551l388 551h288l-545 -757v-664h-283v664zM877 1898h298v-267h-298v267zM376 1898h296v-267h-296v267z" />
    <glyph glyph-name="Zacute" unicode="&#x179;" horiz-adv-x="1522" 
d="M185 1421h1250v-153l-918 -1036h945v-232h-1307v155l897 1034h-867v232zM1086 1992l123 -195l-648 -336l-114 178z" />
    <glyph glyph-name="zacute" unicode="&#x17a;" horiz-adv-x="1242" 
d="M150 988h917v-127l-565 -650h590v-211h-942v127l557 650h-557v211zM806 1567l153 -173l-513 -368l-139 163z" />
    <glyph glyph-name="Zdotaccent" unicode="&#x17b;" horiz-adv-x="1522" 
d="M185 1421h1250v-153l-918 -1036h945v-232h-1307v155l897 1034h-867v232zM629 1829h325v-292h-325v292z" />
    <glyph glyph-name="zdotaccent" unicode="&#x17c;" horiz-adv-x="1242" 
d="M150 988h917v-127l-565 -650h590v-211h-942v127l557 650h-557v211zM441 1421h338v-271h-338v271z" />
    <glyph glyph-name="Zcaron" unicode="&#x17d;" horiz-adv-x="1522" 
d="M185 1421h1250v-153l-918 -1036h945v-232h-1307v155l897 1034h-867v232zM797 1457l-347 348l169 145l194 -194l198 191l166 -133z" />
    <glyph glyph-name="zcaron" unicode="&#x17e;" horiz-adv-x="1242" 
d="M150 988h917v-127l-565 -650h590v-211h-942v127l557 650h-557v211zM595 1023l-348 348l153 145l213 -194l217 191l153 -130z" />
    <glyph glyph-name="uni0191" unicode="&#x191;" horiz-adv-x="1412" 
d="M-107 -490l40.999 201l42 -11c55.333 -15.333 104.666 -23 147.999 -23c126 0 189 56.333 189 169v1575h971v-232h-694v-341h634v-232h-634v-776c0 -128 -37.667 -223.5 -113 -286.5s-175.666 -94.5 -300.999 -94.5c-77.333 0 -159.666 13.333 -246.999 40z" />
    <glyph glyph-name="florin" unicode="&#x192;" horiz-adv-x="985" 
d="M115 988l192.002 0.00195312v66c0 89.333 17 159.666 51 210.999c34.667 53.333 84.667 94 150 122s140 42 224 42c80.667 0 165.667 -13.667 255 -41l36 -11l-41 -200l-42 10c-58.667 15.333 -108 23 -148 23c-36.667 0 -68.334 -4.16699 -95.001 -12.5
s-46.667 -18 -60 -29s-23.666 -25.167 -30.999 -42.5s-11.666 -31.833 -12.999 -43.5s-2 -25.5 -2 -41.5v-53h355v-211h-355v-953c0 -20 -0.833008 -39 -2.5 -57s-5.83398 -39.833 -12.501 -65.5s-15.5 -49 -26.5 -70s-27.167 -42.667 -48.5 -65s-46.333 -41 -75 -56
s-64.834 -27.333 -108.501 -37s-92.5 -14.5 -146.5 -14.5c-78 0 -162.667 13.667 -254 41l-36 11l41 200l42 -10c63.333 -15.333 112.666 -23 147.999 -23c36 0 66.833 3.83301 92.5 11.5s45 16.5 58 26.5s23 23.5 30 40.5s11.167 31.167 12.5 42.5s2 25.666 2 42.999v935
h-192v211z" />
    <glyph glyph-name="uni022C" unicode="&#x22c;" horiz-adv-x="1850" 
d="M538 2157h895v-211h-895v211zM1241 1884l205.995 -29.998l-9 -42c-1.33301 -6 -3.83301 -18 -7.5 -36l-8.5 -41c-2 -9.33301 -5.66699 -23.166 -11 -41.499s-10.166 -32.833 -14.499 -43.5s-10.5 -24 -18.5 -40s-16.167 -28.833 -24.5 -38.5s-18.833 -20.167 -31.5 -31.5
s-26 -20 -40 -26s-30.167 -11.167 -48.5 -15.5s-38.166 -6.5 -59.499 -6.5c-37.333 1.33301 -73 8.5 -107 21.5s-62.667 28.333 -86 46s-44.666 35 -63.999 52s-36.666 31.5 -51.999 43.5s-28 18 -38 18c-4 0 -7.83301 -0.833008 -11.5 -2.5
s-7.16699 -4.33398 -10.5 -8.00098s-6.16602 -7.5 -8.49902 -11.5s-4.66602 -9.5 -6.99902 -16.5l-6 -18c-1.66699 -5 -3.66699 -12.333 -6 -22s-4 -17.167 -5 -22.5l-4.5 -24.5c-2 -11 -3.66699 -19.167 -5 -24.5l-8 -39l-206 30l9 42l7.5 36l8.5 41
c2 10 5.5 23.833 10.5 41.5s9.83301 32 14.5 43s10.834 24.5 18.501 40.5s15.834 28.833 24.501 38.5s19.167 20.167 31.5 31.5s25.5 20 39.5 26s30.167 11.167 48.5 15.5s38.166 6.5 59.499 6.5c37.333 -1.33301 73 -8.5 107 -21.5s62.667 -28.333 86 -46
s44.666 -35 63.999 -52s36.666 -31.5 51.999 -43.5s28 -18 38 -18c4 0 8 0.833008 12 2.5s7.5 4.66699 10.5 9l8.5 12.5c2.66699 4 5.16699 9.66699 7.5 17s4.5 13.666 6.5 18.999s4 12.666 6 21.999s3.5 16.833 4.5 22.5s2.5 13.5 4.5 23.5s3.66699 17.333 5 22z
M1457 709.002c0 68 -9.99805 130.167 -29.998 186.5s-46.5 103.166 -79.5 140.499s-71.333 69 -115 95s-88.667 44.833 -135 56.5s-93.5 17.5 -141.5 17.5h-3c-46.667 0 -92.334 -5.66699 -137.001 -17s-87.834 -29.666 -129.501 -54.999s-78.167 -56.166 -109.5 -92.499
s-56.5 -81.5 -75.5 -135.5s-28.5 -113.333 -28.5 -178c0 -154 47.667 -277.667 143 -371s214.333 -140 357 -140c59.333 0 116.833 9.66699 172.5 29s107.167 48 154.5 86s85.333 89.667 114 155s43 139.666 43 222.999zM965.997 1436
c144.667 0 273.333 -28.332 386 -84.999s201.334 -139.167 266.001 -247.5s97 -234.166 97 -377.499c0 -145.333 -31.667 -274.166 -95 -386.499s-152.333 -199.5 -267 -261.5s-246.334 -93 -395.001 -93c-98 0 -191 15.167 -279 45.5s-166.833 74.666 -236.5 132.999
s-125 134.166 -166 227.499s-61.5 198.666 -61.5 315.999c0 146 32 274.5 96 385.5s152.667 196 266 255s243 88.5 389 88.5z" />
    <glyph glyph-name="uni022D" unicode="&#x22d;" horiz-adv-x="1375" 
d="M951 1454l196.004 -29.9941l-9 -42c-1.33301 -5.33301 -3.66602 -17.333 -6.99902 -36s-6 -32.334 -8 -41.001s-5.33301 -22.334 -10 -41.001s-9.16699 -33.167 -13.5 -43.5s-10.5 -23.666 -18.5 -39.999s-16 -29.333 -24 -39s-18.167 -20.167 -30.5 -31.5
s-25.5 -20 -39.5 -26s-30.167 -11.167 -48.5 -15.5s-37.833 -6.5 -58.5 -6.5c-39.333 1.33301 -76.833 8.5 -112.5 21.5s-66 28.333 -91 46s-47.667 35.167 -68 52.5s-38.5 32 -54.5 44s-29.333 18 -40 18c-16.667 0 -29.334 -10.833 -38.001 -32.5
s-17.667 -53.834 -27 -96.501c-2 -8.66699 -3.33301 -15.334 -4 -20.001l-8 -38l-198 26l9 43c1.33301 6 3.66602 18 6.99902 36s6 31.667 8 41s5.33301 23.166 10 41.499s9.16699 32.833 13.5 43.5s10.333 24 18 40s15.667 28.833 24 38.5s18.666 20.167 30.999 31.5
s25.5 20 39.5 26s30.167 11.167 48.5 15.5s38.166 6.5 59.499 6.5c48 -2 93.833 -12.667 137.5 -32s78 -40 103 -62s49.167 -42.167 72.5 -60.5s41.333 -27.5 54 -27.5c6 0 11.5 1.66699 16.5 5s9.5 8.33301 13.5 15s7.5 13.5 10.5 20.5s6 16 9 27s5.33301 20.167 7 27.5
s3.66699 17.166 6 29.499s4.16602 21.166 5.49902 26.499zM251.004 1719.01h904v-211h-904v211zM694.004 1007.01c165.333 0 298.5 -43.501 399.5 -130.501s151.5 -208.5 151.5 -364.5c0 -164 -51.5 -293.667 -154.5 -389s-241.5 -143 -415.5 -143
c-165.333 0 -297.5 44.833 -396.5 134.5s-148.5 212.834 -148.5 369.501c0 160.667 50.5 288 151.5 382s238.5 141 412.5 141zM678.004 785.005c-51.333 0 -99.668 -9.66895 -145.001 -29.002s-83.5 -50.666 -114.5 -93.999s-46.5 -94.333 -46.5 -153
c0 -86.667 30 -159.5 90 -218.5s138 -88.5 234 -88.5c87.333 0 160.333 25.667 219 77s88 119.333 88 204c0 48.667 -9.66699 92.834 -29 132.501s-44.666 71.5 -75.999 95.5s-66 42.333 -104 55s-76.667 19 -116 19z" />
    <glyph glyph-name="uni0237" unicode="&#x237;" horiz-adv-x="606" 
d="M194 988l245.998 0.000976562v-1084c0 -22.667 -0.333008 -42.334 -1 -59.001s-3.16699 -38.167 -7.5 -64.5s-10.166 -49.666 -17.499 -69.999s-18.166 -42.833 -32.499 -67.5s-31.5 -46.834 -51.5 -66.501s-45.5 -39.167 -76.5 -58.5s-65.833 -36 -104.5 -50l-34 -12
l-97 194l38 18c92 43.333 138 116.333 138 219v1101z" />
    <glyph glyph-name="circumflex" unicode="&#x2c6;" horiz-adv-x="1479" 
d="M726 1601l312 -348l-152 -145l-175 194l-177 -191l-150 133z" />
    <glyph glyph-name="caron" unicode="&#x2c7;" horiz-adv-x="1078" 
d="M518 1064l-312 348l152 145l175 -194l177 191l150 -130z" />
    <glyph glyph-name="breve" unicode="&#x2d8;" horiz-adv-x="1078" 
d="M96 1401l191.999 102.999l19 -38c6.66699 -14 14.667 -28 24 -42s22.833 -31.333 40.5 -52s39.667 -37.5 66 -50.5s54.5 -19.5 84.5 -19.5c48 0 95.167 17 141.5 51s86.833 74 121.5 120l24 31l180 -123l-26 -35c-58 -76 -127.167 -139 -207.5 -189
s-163.5 -75 -249.5 -75c-50 0 -97.5 8.33301 -142.5 25s-83.833 38.834 -116.5 66.501s-60.667 58 -84 91s-41.666 67.5 -54.999 103.5z" />
    <glyph glyph-name="dotaccent" unicode="&#x2d9;" horiz-adv-x="1200" 
d="M444 1483h292v-292h-292v292z" />
    <glyph glyph-name="ring" unicode="&#x2da;" horiz-adv-x="1084" 
d="M581 1441c-25.333 0 -46.5 -9.00195 -63.5 -27.002s-25.5 -39.667 -25.5 -65s8.33301 -47.166 25 -65.499s38 -27.5 64 -27.5c24 0 44.333 9.33301 61 28s25 40.334 25 65.001s-8.33301 46.167 -25 64.5s-37 27.5 -61 27.5zM841 1349c0 -73.333 -25.5 -136 -76.5 -188
s-112.167 -78 -183.5 -78s-132.666 26 -183.999 78s-77 114.667 -77 188c0 72.667 25.5 135 76.5 187s112.167 78 183.5 78s132.666 -25.833 183.999 -77.5s77 -114.167 77 -187.5z" />
    <glyph glyph-name="ogonek" unicode="&#x2db;" horiz-adv-x="1084" 
d="M419 -335c0 106 44.832 210 134.499 312s200.834 171 333.501 207l40 10l49 -188l-35 -13c-46 -16.667 -88.5 -38.167 -127.5 -64.5s-70.333 -53.166 -94 -80.499s-42 -54 -55 -80s-19.5 -49.333 -19.5 -70s5.83301 -37.334 17.5 -50.001s27.834 -19 48.501 -19
c33.333 0 80.666 18 141.999 54l37 22l85 -159l-29 -21c-102 -73.333 -196.667 -110 -284 -110c-72 0 -130.5 23.667 -175.5 71s-67.5 107 -67.5 179z" />
    <glyph glyph-name="tilde" unicode="&#x2dc;" horiz-adv-x="1400" 
d="M880 1402c6 0 11.667 1.33594 17 4.00293s10.833 7.16699 16.5 13.5s10.667 12.666 15 18.999s9.33301 14.833 15 25.5l15 28.5c4.33301 8.33301 9.83301 19.5 16.5 33.5l17 35l18 35l179 -80l-18 -38c-2 -4.66699 -7.5 -16.334 -16.5 -35.001l-20 -41l-21 -40
c-9.66699 -18 -18.334 -32 -26.001 -42l-29.5 -37.5c-12 -15 -24 -26.5 -36 -34.5l-40 -25.5c-14.667 -9 -30.667 -15.333 -48 -19s-35.333 -5.5 -54 -5.5c-34.667 2 -67.334 9.5 -98.001 22.5s-56.5 28.167 -77.5 45.5s-40.167 34.666 -57.5 51.999s-33.333 32 -48 44
s-27.667 18 -39 18c-8 0 -15.667 -2.33301 -23 -7s-15 -13.334 -23 -26.001s-14.333 -23.5 -19 -32.5l-23 -46.5l-24 -49l-18 -35l-179 80l18 38c2.66699 5.33301 8.16699 17 16.5 35l19.5 41c4.66699 9.33301 11.834 22.833 21.501 40.5s18.5 31.667 26.5 42l29.5 38
c11.667 15 23.5 26.667 35.5 35s25.333 16.833 40 25.5s30.667 15 48 19s35.333 6 54 6c34.667 -2 67.334 -9.5 98.001 -22.5s56.5 -28.167 77.5 -45.5s40 -34.666 57 -51.999s33 -32 48 -44s28.167 -18 39.5 -18z" />
    <glyph glyph-name="hungarumlaut" unicode="&#x2dd;" horiz-adv-x="1652" 
d="M345 1091l-127 184l551 386l117 -168zM1289 1661l127 -184l-551 -386l-117 168z" />
    <glyph glyph-name="uni02EE" unicode="&#x2ee;" horiz-adv-x="835" 
d="M459 1552h267v-510h-267v510zM69 1552h267v-510h-267v510z" />
    <glyph glyph-name="uni0302" unicode="&#x302;" horiz-adv-x="1479" 
d="M726 1601l312 -348l-152 -145l-175 194l-177 -191l-150 133z" />
    <glyph glyph-name="uni1E02" unicode="&#x1e02;" horiz-adv-x="1588" 
d="M775 1209l-233 0.00390625v-394c144.667 3.33301 245.667 10 303 20c138.667 25.333 212.667 83 222 173c0.666992 7.33301 1 14.666 1 21.999c0 21.333 -3.66699 41.166 -11 59.499s-20.5 37.166 -39.5 56.499s-49.167 34.666 -90.5 45.999s-92 17 -152 17zM791 655.004
c-5.33301 0 -88.333 -3.66699 -249 -11v-412h224c26.667 0 49.5 0.166992 68.5 0.5s45.167 1.83301 78.5 4.5s62 6.5 86 11.5s50.333 12.5 79 22.5s51.834 22 69.501 36s32.667 31.833 45 53.5s18.5 46.167 18.5 73.5c0 68.667 -37.833 122.667 -113.5 162
s-177.834 59 -306.501 59zM290 1421h541.998c60.667 0 116.167 -4.66699 166.5 -14s92.833 -21.5 127.5 -36.5s65.5 -33 92.5 -54s48.333 -42.333 64 -64s28.5 -44.667 38.5 -69s16.667 -46.333 20 -66s5 -39.167 5 -58.5c0 -45.333 -12.333 -91.333 -37 -138
s-55.667 -86 -93 -118c74.667 -30.667 134.5 -78.5 179.5 -143.5s67.5 -136.167 67.5 -213.5c0 -22 -2.16699 -44.5 -6.5 -67.5s-12.833 -49.5 -25.5 -79.5s-29.167 -58.5 -49.5 -85.5s-47.833 -53.833 -82.5 -80.5s-74.667 -49.5 -120 -68.5s-101.166 -34.5 -167.499 -46.5
s-139.166 -18 -218.499 -18h-503v1421zM679.998 1898h330v-292h-330v292z" />
    <glyph glyph-name="uni1E03" unicode="&#x1e03;" horiz-adv-x="1347" 
d="M436 964c86 29.333 173.667 44 263 44c50.667 0 99.5 -4.83301 146.5 -14.5s93.5 -26.667 139.5 -51s85.833 -55 119.5 -92s61 -85.167 82 -144.5s31.5 -126.333 31.5 -201c0 -164 -49.667 -292.5 -149 -385.5s-234 -139.5 -404 -139.5
c-100.667 0 -193.667 17.333 -279 52l-14 -32h-182v1511h246v-547zM633 790c-67.333 0 -133.002 -11.001 -197.002 -33.001v-537c67.333 -19.333 134.333 -29 201 -29c30.667 0 60.334 2.33301 89.001 7s58.5 13.5 89.5 26.5s58 29.833 81 50.5s42 48.5 57 83.5
s22.5 75.167 22.5 120.5c0 50 -7.66699 94.333 -23 133s-34.666 68.834 -57.999 90.501s-51 39.5 -83 53.5s-62.167 23.167 -90.5 27.5s-57.833 6.5 -88.5 6.5zM542.998 1898h345v-292h-345v292z" />
    <glyph glyph-name="uni1E0A" unicode="&#x1e0a;" horiz-adv-x="1770" 
d="M742 1898h334v-292h-334v292zM778 1189h-236.001v-957h166c32 0 58.833 0.333008 80.5 1s50.167 2.5 85.5 5.5s66 7.16699 92 12.5s55.333 13.5 88 24.5s61.667 24 87 39s50.833 34.167 76.5 57.5s47.834 50 66.501 80c48 75.333 72 164.333 72 267
c0 58.667 -8.66699 112.667 -26 162s-40.166 90.833 -68.499 124.5s-61.5 63.167 -99.5 88.5s-76.667 45 -116 59s-80 23.667 -122 29c-34.667 4.66699 -83.334 7 -146.001 7zM770.999 1421c94 0 180.333 -7.00195 259 -21.002s146.334 -32.833 203.001 -56.5
s107.167 -52.834 151.5 -87.501s80.333 -71.167 108 -109.5s50.5 -80.166 68.5 -125.499s30.667 -89.666 38 -132.999s11 -88.666 11 -135.999c0 -50.667 -3.66699 -99.834 -11 -147.501s-19 -96.5 -35 -146.5s-38.333 -96.667 -67 -140s-62.834 -84 -102.501 -122
s-88.5 -71.167 -146.5 -99.5s-122.667 -50.166 -194 -65.499c-95.333 -20.667 -231 -31 -407 -31h-357v1421h481z" />
    <glyph glyph-name="uni1E0B" unicode="&#x1e0b;" horiz-adv-x="1352" 
d="M372 502c0 -48 7.49902 -90.666 22.499 -127.999s34.167 -66.833 57.5 -88.5s50.833 -39.5 82.5 -53.5s61.834 -23.333 90.501 -28s58 -7 88 -7c69.333 0 137 11.667 203 35v535c-70.667 20 -139 30 -205 30c-30 0 -59 -2.16699 -87 -6.5s-57.833 -13 -89.5 -26
s-59 -29.833 -82 -50.5s-42.167 -49.334 -57.5 -86.001s-23 -78.667 -23 -126zM485.999 1606v292h344v-292h-344zM682.999 1008c76.667 0 154.332 -11.333 232.999 -34v537h246v-1511h-182l-20 46c-96.667 -44 -200 -66 -310 -66c-52 0 -102 5.16699 -150 15.5
s-94.833 27.833 -140.5 52.5s-85.167 55.5 -118.5 92.5s-60.166 84.5 -80.499 142.5s-30.5 123 -30.5 195c0 169.333 50.167 300 150.5 392s234.5 138 402.5 138z" />
    <glyph glyph-name="uni1E1E" unicode="&#x1e1e;" horiz-adv-x="1412" 
d="M543 1189v-341h674v-232h-674v-616h-253v1421h987v-232h-734zM596 1898h350v-292h-350v292z" />
    <glyph glyph-name="uni1E1F" unicode="&#x1e1f;" horiz-adv-x="984" 
d="M298 1047c0 22 0.168945 39.668 0.501953 53.001s1.83301 31.666 4.5 54.999s6.5 42.666 11.5 57.999s12.333 33.5 22 54.5s21.334 38.333 35.001 52s31.167 28 52.5 43s45.666 27 72.999 36s59.666 16.333 96.999 22s78.666 8.5 123.999 8.5
c83.333 0 170.666 -13.667 261.999 -41l36 -11l-41 -200l-42 10c-63.333 15.333 -112.666 23 -147.999 23c-82 0 -142.667 -13.667 -182 -41s-59 -65.666 -59 -114.999v-66h395v-211h-395v-777h-246v777h-163v211h163v59zM433.002 1829h363v-292h-363v292z" />
    <glyph glyph-name="uni1E40" unicode="&#x1e40;" horiz-adv-x="2048" 
d="M290 1421h306l472 -816l479 816h291v-1421h-252v1063l-404 -656h-238l-402 656v-1063h-252v1421zM893 1898h319v-292h-319v292z" />
    <glyph glyph-name="uni1E41" unicode="&#x1e41;" horiz-adv-x="1976" 
d="M660 774c-57.333 0 -135.335 -17.999 -234.002 -53.999v-720h-246v988h183l28 -65c118 56 234.333 84 349 84s204.334 -33 269.001 -99c124 65.333 256.333 98 397 98c61.333 0 115.333 -7.33301 162 -22s84.167 -34.334 112.5 -59.001s51.333 -55.5 69 -92.5
s29.834 -75 36.501 -114s10 -83.167 10 -132.5v-586h-247v584c0 62.667 -16.333 110 -49 142s-85.667 48 -159 48c-62 0 -142 -18 -240 -54c6.66699 -37.333 10 -88.333 10 -153v-567h-247v587c0 124.667 -68 187 -204 187zM849.998 1421h303v-291h-303v291z" />
    <glyph glyph-name="uni1E56" unicode="&#x1e56;" horiz-adv-x="1503" 
d="M290 1421l510.001 0.00195312c29.333 0 54.333 -0.166992 75 -0.5s48.167 -1.83301 82.5 -4.5s64 -6.5 89 -11.5s53.667 -12.167 86 -21.5s60 -20.5 83 -33.5s46.667 -29.833 71 -50.5s43.833 -43.834 58.5 -69.501s26.834 -56.167 36.501 -91.5s14.5 -74.333 14.5 -117
c0 -60 -7.83301 -114 -23.5 -162s-36 -88.333 -61 -121s-57 -60.834 -96 -84.501s-78.333 -42.167 -118 -55.5s-85.834 -23.833 -138.501 -31.5s-100.834 -12.667 -144.501 -15s-93.5 -3.5 -149.5 -3.5c-27.333 0 -68.333 1.33301 -123 4v-552h-252v1421zM542.001 1189
v-405.002c52 -3.33301 99 -5 141 -5c45.333 0 84.5 0.833008 117.5 2.5s68.333 4.83398 106 9.50098s69.334 12 95.001 22s49.5 22.667 71.5 38s38.5 35 49.5 59s16.5 52 16.5 84c0 28.667 -4.66699 53.834 -14 75.501s-23.5 39.334 -42.5 53.001s-39.667 25.167 -62 34.5
s-49.333 16.166 -81 20.499s-61.834 7.33301 -90.501 9s-62 2.5 -100 2.5h-207zM607.001 1898h322v-292h-322v292z" />
    <glyph glyph-name="uni1E57" unicode="&#x1e57;" 
d="M564 1130v291h338v-291h-338zM970 479c0 50 -7.50195 94.167 -22.502 132.5s-33.833 68.333 -56.5 90s-49.667 39.5 -81 53.5s-61 23.167 -89 27.5s-57 6.5 -87 6.5c-66 0 -132 -11.667 -198 -35v-533c69.333 -20 136.333 -30 201 -30c30 0 59 2.33301 87 7
s57.333 13.5 88 26.5s57.334 29.833 80.001 50.5s41.334 48.5 56.001 83.5s22 75.167 22 120.5zM384.998 941c102 44 206.668 66 314.001 66c50 0 98.333 -5 145 -15s92.667 -27.167 138 -51.5s84.666 -55 117.999 -92s60.333 -85 81 -144s31 -125.833 31 -200.5
c0 -163.333 -49.333 -291.5 -148 -384.5s-231.667 -139.5 -399 -139.5c-76 0 -152.333 11.333 -229 34v-545h-256v1519h182z" />
    <glyph glyph-name="uni1E60" unicode="&#x1e60;" horiz-adv-x="1525" 
d="M682 1898h333v-292h-333v292zM927 1434c132.667 0 263.667 -19.668 393 -59.001l41 -12l-82 -232l-38 11c-120.667 33.333 -230.667 50 -330 50c-98 0 -181.833 -16 -251.5 -48s-104.5 -73 -104.5 -123c0 -32.667 15.5 -61.334 46.5 -86.001s71.167 -45.5 120.5 -62.5
s103.833 -33.833 163.5 -50.5s119.5 -36 179.5 -58s114.667 -47.333 164 -76s89.5 -66.834 120.5 -114.501s46.5 -102.5 46.5 -164.5c0 -40 -6.83301 -79.5 -20.5 -118.5s-36.667 -77.5 -69 -115.5s-72.333 -71.167 -120 -99.5s-108.334 -51.333 -182.001 -69
s-156.167 -26.5 -247.5 -26.5s-173.666 8.5 -246.999 25.5s-151 41.5 -233 73.5l-37 14l85 242l39 -15c168.667 -60 307.667 -90 417 -90c102.667 0 185.834 15.667 249.501 47s95.5 72.666 95.5 123.999c0 28.667 -9.66699 54.334 -29 77.001s-45.333 41.834 -78 57.501
s-70.167 30.167 -112.5 43.5s-86.833 26.333 -133.5 39s-93.334 26.334 -140.001 41.001s-91.167 32.334 -133.5 53.001s-79.833 44 -112.5 70s-58.667 58.5 -78 97.5s-29 82.5 -29 130.5c0 120 58.833 220.667 176.5 302s274.5 122 470.5 122z" />
    <glyph glyph-name="uni1E61" unicode="&#x1e61;" horiz-adv-x="1180" 
d="M453 1130v291h357v-291h-357zM807 295c-1.33301 16.667 -14.1719 31.3359 -38.5049 44.0029s-55.5 24 -93.5 34s-79.667 20.333 -125 31s-90.5 23.834 -135.5 39.501s-86.167 34 -123.5 55s-67.666 48.667 -90.999 83s-35 73.5 -35 117.5c0 26 4.83301 52.167 14.5 78.5
s27.167 53.666 52.5 81.999s57.333 53.166 96 74.499s90.334 38.833 155.001 52.5s137.667 20.5 219 20.5c48 0 91.333 -2.5 130 -7.5s66 -9.5 82 -13.5s40.333 -11 73 -21l41 -12l-68 -202l-38 10c-86.667 24 -171 36 -253 36c-41.333 0 -77.666 -2.83301 -108.999 -8.5
s-55.166 -12.334 -71.499 -20.001s-29.5 -16.667 -39.5 -27s-16.333 -19 -19 -26s-4 -13.5 -4 -19.5c0 -15.333 11.833 -29.333 35.5 -42s54.5 -24.167 92.5 -34.5l125.5 -33c45.667 -11.667 91.5 -25.834 137.5 -42.501s88 -35.667 126 -57s68.833 -48.666 92.5 -81.999
s35.5 -70.666 35.5 -111.999c0 -28.667 -4.16699 -56.334 -12.5 -83.001s-24.333 -54.334 -48 -83.001s-54.167 -53.5 -91.5 -74.5s-87.666 -38.333 -150.999 -52s-136 -20.5 -218 -20.5c-128 0 -255.667 26 -383 78l-37 15l74 200l38 -15c119.333 -44.667 225 -67 317 -67
c85.333 0 148 8.5 188 25.5s60 43.167 60 78.5z" />
    <glyph glyph-name="uni1E6A" unicode="&#x1e6a;" horiz-adv-x="1374" 
d="M85 1421h1284v-232h-516v-1189h-252v1189h-516v232zM563 1898h326v-292h-326v292z" />
    <glyph glyph-name="uni1E6B" unicode="&#x1e6b;" horiz-adv-x="919" 
d="M838 18c-98 -25.333 -180.001 -38.001 -246.001 -38.001c-63.333 0 -117.833 6.33301 -163.5 19s-81.5 28.834 -107.5 48.501s-46.5 45 -61.5 76s-24.833 61.167 -29.5 90.5s-7 63.666 -7 102.999v460h-153v211h153v283h246v-283h363v-211h-363v-443
c0 -16.667 2.83301 -32.667 8.5 -48s14.834 -30.666 27.501 -45.999s31.667 -27.5 57 -36.5s55.333 -13.5 90 -13.5c18 0 66.667 6.66699 146 20l39 7l39 -189zM175.999 1621h353v-292h-353v292z" />
    <glyph glyph-name="Wgrave" unicode="&#x1e80;" horiz-adv-x="2401" 
d="M140 1421h268l327 -1092l411 1092h232l339 -1092l399 1092h254l-533 -1421h-241l-342 1087l-402 -1087h-241zM1082 1944l617 -353l-115 -177l-627 335z" />
    <glyph glyph-name="wgrave" unicode="&#x1e81;" horiz-adv-x="1931" 
d="M60 988h263l237 -733l307 733h221l234 -735l320 735h264l-473 -988h-224l-233 710l-312 -710h-224zM836 1567l460 -378l-153 -163l-478 368z" />
    <glyph glyph-name="Wacute" unicode="&#x1e82;" horiz-adv-x="2401" 
d="M140 1421h268l327 -1092l411 1092h232l339 -1092l399 1092h254l-533 -1421h-241l-342 1087l-402 -1087h-241zM1484 1944l125 -195l-626 -335l-116 177z" />
    <glyph glyph-name="wacute" unicode="&#x1e83;" horiz-adv-x="1931" 
d="M60 988h263l237 -733l307 733h221l234 -735l320 735h264l-473 -988h-224l-233 710l-312 -710h-224zM1161 1567l171 -173l-478 -368l-153 163z" />
    <glyph glyph-name="Wdieresis" unicode="&#x1e84;" horiz-adv-x="2401" 
d="M140 1421h268l327 -1092l411 1092h232l339 -1092l399 1092h254l-533 -1421h-241l-342 1087l-402 -1087h-241zM866 1898h298v-267h-298v267zM1347 1898h296v-267h-296v267z" />
    <glyph glyph-name="wdieresis" unicode="&#x1e85;" horiz-adv-x="1931" 
d="M60 988h263l237 -733l307 733h221l234 -735l320 735h264l-473 -988h-224l-233 710l-312 -710h-224zM575 1421h311v-266h-311v266zM1069 1421h310v-266h-310v266z" />
    <glyph glyph-name="Ygrave" unicode="&#x1ef2;" horiz-adv-x="1427" 
d="M100 1421h298l380 -551l388 551h288l-545 -757v-664h-283v664zM534 1944l642 -353l-114 -177l-653 335z" />
    <glyph glyph-name="ygrave" unicode="&#x1ef3;" horiz-adv-x="1214" 
d="M50 988h259l329 -759l305 759h259l-652 -1519h-296l245 534zM449 1567l488 -378l-150 -163l-501 368z" />
    <glyph glyph-name="endash" unicode="&#x2013;" horiz-adv-x="1241" 
d="M0 769h1241v-221h-1241v221z" />
    <glyph glyph-name="emdash" unicode="&#x2014;" horiz-adv-x="1466" 
d="M0 769h1466v-221h-1466v221z" />
    <glyph glyph-name="afii00208" unicode="&#x2015;" horiz-adv-x="1682" 
d="M0 769h1682v-221h-1682v221z" />
    </font>
</defs>
</svg>
