<?xml version="1.0" standalone="no"?>
<!DOCTYPE svg PUBLIC "-//W3C//DTD SVG 1.1//EN" "http://www.w3.org/Graphics/SVG/1.1/DTD/svg11.dtd" >
<svg>
<metadata>
Created by FontForge 20090914 at Sun Jun  9 21:45:37 2013
 By www-data
Copyright (c) 1998-2007 by Peter S. Baker
</metadata>
<defs>
<font id="Junicode-Regular" horiz-adv-x="0" >
  <font-face 
    font-family="Junicode"
    font-weight="400"
    font-stretch="normal"
    units-per-em="2048"
    panose-1="2 0 6 2 0 0 0 0 0 0"
    ascent="1638"
    descent="-410"
    x-height="856"
    cap-height="1363"
    bbox="-1333 -846 3152 2266"
    underline-thickness="24"
    underline-position="-122"
    unicode-range="U+000C-U+FE6A"
  />
<missing-glyph horiz-adv-x="1024" 
d="M129 0v1489h768v-1489h-768zM256 129h512v1233h-512v-1233z" />
    <glyph glyph-name="IJ" unicode="IJ" horiz-adv-x="1501" 
d="M265 186l-0.00195312 986c0 76.667 -63 115 -189 115c-9.33301 0 -14 12.667 -14 38s4.66699 38 14 38c30 -3.33301 118.167 -5 264.5 -5s234.5 1.66699 264.5 5c8.66699 0 13 -12.667 13 -38s-4.33301 -38 -13 -38c-70 0 -117.5 -8.33301 -142.5 -25
s-37.5 -46.667 -37.5 -90v-986c0 -78 60 -117 180 -117c8.66699 0 13 -12.667 13 -38s-4.33301 -38 -13 -38c-57.333 4.66699 -143.666 7 -258.999 7s-201.666 -2.33301 -258.999 -7c-8.66699 0 -13 12.667 -13 38s4.33301 38 13 38c118.667 0 178 39 178 117zM1026 260
l0.000976562 912.001c0 76.667 -63.333 115 -190 115c-9.33301 0 -14 12.667 -14 38s4.66699 38 14 38c31.333 -3.33301 119.666 -5 264.999 -5s237.666 1.66699 276.999 5c9.33301 0 14 -12.667 14 -38s-4.66699 -38 -14 -38c-128 0 -192 -38.333 -192 -115v-538
c0 -477.333 -23.667 -749.833 -71 -817.5s-99 -123.834 -155 -168.501s-120.333 -67 -193 -67c-36 0 -66.667 10.167 -92 30.5s-38 50.5 -38 90.5c0 21.333 9.83301 40.333 29.5 57s45.167 25 76.5 25c40 0 73.667 -11.333 101 -34s44 -45 50 -67
c46.667 16 80.334 54 101.001 114s31 214.333 31 463z" />
    <glyph glyph-name="ij" unicode="ij" horiz-adv-x="1061" 
d="M467 -8c-50.667 5.33301 -113 7.99902 -187 7.99902s-138 -2.66699 -192 -8c-9.33301 0 -14 9.5 -14 28.5s4.66699 28.5 14 28.5c75.333 0 113 26 113 78v444c0 92 -30.667 138 -92 138c-11.333 0 -17 9.33301 -17 28s5.66699 28 17 28c22 0 54.5 11.333 97.5 34
s75.5 42.334 97.5 59.001s36.667 25 44 25c8 0 12 -5.33301 12 -16c-4 -72 -6 -127.333 -6 -166v-574c0 -52 37.667 -78 113 -78c9.33301 0 14 -9.5 14 -28.5s-4.66699 -28.5 -14 -28.5zM333 1232.5c21.333 -20.333 32 -45.5 32 -75.5s-10.667 -55.667 -32 -77
s-47 -32 -77 -32s-55.167 10.667 -75.5 32s-30.5 47 -30.5 77s10.167 55.167 30.5 75.5s45.5 30.5 75.5 30.5s55.667 -10.167 77 -30.5zM907 1157c0 -30 -10.667 -55.667 -32 -77s-47 -32 -77 -32s-55.167 10.667 -75.5 32s-30.5 47 -30.5 77s10.167 55.167 30.5 75.5
s45.5 30.5 75.5 30.5s55.667 -10.167 77 -30.5s32 -45.5 32 -75.5zM900 58.999c0 -219.333 -36.666 -380.335 -109.999 -483.002c-62 -87.333 -144.667 -131 -248 -131c-33.333 0 -62.5 9.33301 -87.5 28s-37.5 41.334 -37.5 68.001c0 22 8.16699 39.167 24.5 51.5
s34.166 18.5 53.499 18.5c32.667 0 62.167 -13 88.5 -39s47.833 -39 64.5 -39c66 0 99 71 99 213v825c0 92 -30.667 138 -92 138c-11.333 0 -17 9.33301 -17 28s5.66699 28 17 28c22 0 54.5 11.333 97.5 34s75.5 42.334 97.5 59.001s36.667 25 44 25c8 0 12 -5.33301 12 -16
c-4 -72 -6 -127.333 -6 -166v-642z" />
    <glyph glyph-name="uhorn" unicode="u&#x31b;" horiz-adv-x="989" 
d="M1086 948c0 -65.333 -9 -108.333 -27 -129l-16 -13l-25 -12c-26.667 -8 -76.334 -12.333 -149.001 -13c-2 -32.667 -3 -62.667 -3 -90v-464c0 -96.667 27.333 -145 82 -145l47 6v0c14 0 21 -13.667 21 -41c0 -9.33301 -2 -14.666 -6 -15.999
c-23.333 -4 -71.333 -13.667 -144 -29l-130 -34c-2.66699 -0.666992 -5 -1 -7 -1c-10.667 0 -16 15 -16 45v45c0 15.333 -4.33301 23 -13 23c-8 0 -16.667 -4.66699 -26 -14c-63.333 -59.333 -141.333 -89 -234 -89c-73.333 0 -138 40.333 -194 121
c-48 69.333 -72 137 -72 203v335c0 98 -37 147 -111 147c-10.667 0 -16 9.66699 -16 29c0 18 5.33301 27 16 27c70.667 0 127 3 169 9c44 6 74 9 90 9c9.33301 0 14 -5.33301 14 -16l-8 -152v-10v-345c0 -69.333 10.667 -126 32 -170c26.667 -60 68.334 -90 125.001 -90
c61.333 0 114.666 17.333 159.999 52s68 76.667 68 126v384c0 98 -37 147 -111 147c-9.33301 0 -14 9.66699 -14 29c0 18 4.66699 27 14 27h269c79.333 0 125.333 7 138 21c6 6 9 16 9 30c-5.33301 22 -18.666 34 -39.999 36c-38 0 -60.667 11.333 -68 34
c-2 7.33301 -3 16.666 -3 27.999c0 27.333 10.667 44.333 32 51c12 3.33301 28.333 5 49 5c44.667 0 73 -8.66699 85 -26l8 -20c3.33301 -12 5 -28.667 5 -50z" />
    <glyph glyph-name="uni01C4" unicode="D&#x17d;" horiz-adv-x="2766" 
d="M2495 1795l-260 -249.001c-14.667 -14.667 -29.334 -22 -44 -22c-14.667 0 -29.334 7.33301 -44.001 22l-260 249c-2.66699 3.33301 -4 6.83301 -4 10.5s2.66699 8.33398 8 14.001s11 8.5 17 8.5c2.66699 0 5.33398 -0.666992 8.00098 -2l241 -139
c11.333 -6 22.666 -9 34 -9c11.333 0 22.666 3 34 9l246 139c1.33301 0.666992 3 1 5 1c5.33301 0 10.5 -3 15.5 -9s7.5 -10.667 7.5 -14s-1.33301 -6.33301 -4 -9zM2786 335.999c-32 -157.333 -48 -274.997 -48 -352.997c0 -8.66699 -5 -14 -15 -16
c-23.333 6.66699 -41.666 10.667 -54.999 12c-124.667 14 -344.667 21 -660 21h-365c-23.333 0 -35 8 -35 24c0 8.66699 3.33301 17.667 10 27l875 1198c6 8 9 15 9 21c0 14 -10.333 21 -31 21h-554c-36.667 0 -62.334 -10 -77.001 -30
c-48 -61.333 -80.167 -112.833 -96.5 -154.5s-30.833 -84.834 -43.5 -129.501c-1.33301 -4.66699 -9.33301 -7 -24 -7s-23 4.66699 -25 14c22 142 33 263 33 363c0 12 12.333 18 37 18c64.667 -6 113.667 -9 147 -9h481c101.333 0 224 2.66699 368 8
c16.667 0 25 -4.66699 25 -14c0 -8.66699 -4.66699 -19.334 -14 -32.001l-863 -1200c-6 -8 -9 -16 -9 -24c0 -16.667 10 -25 30 -25c290 0 503.333 4.33301 640 13c53.333 3.33301 107.666 57.666 163 162.999c26 49.333 41.667 85 47 107c2 8 10.833 9.16699 26.5 3.5
s23.5 -12.167 23.5 -19.5zM271 186.002v985.998c0 73.333 -63 110 -189 110c-9.33301 0 -14 12.667 -14 38s4.66699 38 14 38c93.333 -4 173.5 -6 240.5 -6s136.667 1 209 3s129.5 3 171.5 3c207.333 0 380.666 -55.667 519.999 -167s209 -265.666 209 -462.999
c0 -215.333 -61.167 -391.666 -183.5 -528.999s-288.166 -206 -497.499 -206c-32 0 -96.833 1.16699 -194.5 3.5s-179.167 3.5 -244.5 3.5s-139 -2.33301 -221 -7c-8.66699 0 -13 12.5 -13 37.5s4.33301 37.833 13 38.5c120 0 180 39 180 117zM431 298
c0 -99.333 19.998 -165.002 59.998 -197.002s103.667 -48 191 -48c170.667 0 306.5 60.333 407.5 181s151.5 281.334 151.5 482.001c0 168 -59 306.833 -177 416.5s-265.667 164.5 -443 164.5c-63.333 0 -105.166 -2.83301 -125.499 -8.5s-36.166 -17.667 -47.499 -36
s-17 -42.166 -17 -71.499v-883z" />
    <glyph glyph-name="uni01C5" unicode="D&#x17e;" horiz-adv-x="2260" 
d="M2238 276c-20.667 -152.667 -31.002 -241.333 -31.002 -266s-9 -37 -27 -37c-6.66699 0 -29.5 4.5 -68.5 13.5s-70.5 13.5 -94.5 13.5h-420c-11.333 0 -17 4.66699 -17 14c0 4 0.666992 7 2 9l398 729c5.33301 10 8 17.667 8 23c0 12 -9.66699 18 -29 18h-158
c-52 0 -95.667 -35.667 -131 -107l-61 -123c-2 -4 -6.5 -4.83301 -13.5 -2.5s-10.167 5.16602 -9.5 8.49902l37 267c3.33301 24.667 11 36 23 34l103 -16c17.333 -2.66699 43 -4 77 -4h346c10 0 15 -2.33301 15 -7s-1.66699 -10 -5 -16l-397 -723
c-4 -7.33301 -6 -13.333 -6 -18c0 -12 9 -19.333 27 -22s40.833 -4 68.5 -4s51.834 0.333008 72.501 1c70.667 0 127.334 24 170.001 72c16 18 42.667 68.667 80 152c2.66699 6 10.334 7.33301 23 4c12.667 -3.33301 18.667 -7.66602 18 -12.999zM2149 1421l-208.998 -371
c-10.667 -18.667 -23.334 -28 -38.001 -28s-27.334 9.33301 -38.001 28l-209 371c-1.33301 2 -2 3.33301 -2 4c0 15.333 9 23 27 23c3.33301 0 6 -1.33301 8 -4l185 -217c14 -16.667 23.667 -25 29 -25c6 0 16 8.33301 30 25l184 217c2 2.66699 4 4 6 4
c19.333 0 29 -7.66699 29 -23zM271 186.001v985.998c0 73.333 -63 110 -189 110c-9.33301 0 -14 12.667 -14 38s4.66699 38 14 38c93.333 -4 173.5 -6 240.5 -6s136.667 1 209 3s129.5 3 171.5 3c207.333 0 380.666 -55.667 519.999 -167s209 -265.666 209 -462.999
c0 -215.333 -61.167 -391.666 -183.5 -528.999s-288.166 -206 -497.499 -206c-32 0 -96.833 1.16699 -194.5 3.5s-179.167 3.5 -244.5 3.5s-139 -2.33301 -221 -7c-8.66699 0 -13 12.5 -13 37.5s4.33301 37.833 13 38.5c120 0 180 39 180 117zM431 297.999
c0 -99.333 19.998 -165.002 59.998 -197.002s103.667 -48 191 -48c170.667 0 306.5 60.333 407.5 181s151.5 281.334 151.5 482.001c0 168 -59 306.833 -177 416.5s-265.667 164.5 -443 164.5c-63.333 0 -105.166 -2.83301 -125.499 -8.5s-36.166 -17.667 -47.499 -36
s-17 -42.166 -17 -71.499v-883z" />
    <glyph glyph-name="uni01C6" unicode="d&#x17e;" horiz-adv-x="1747" 
d="M1725 276c-20.667 -152.667 -31.0029 -241.333 -31.0029 -266s-9 -37 -27 -37c-6.66699 0 -29.5 4.5 -68.5 13.5s-70.5 13.5 -94.5 13.5h-420c-11.333 0 -17 4.66699 -17 14c0 4 0.666992 7 2 9l398 729c5.33301 10 8 17.667 8 23c0 12 -9.66699 18 -29 18h-158
c-52 0 -95.667 -35.667 -131 -107l-61 -123c-2 -4 -6.5 -4.83301 -13.5 -2.5s-10.167 5.16602 -9.5 8.49902l37 267c3.33301 24.667 11 36 23 34l103 -16c17.333 -2.66699 43 -4 77 -4h346c10 0 15 -2.33301 15 -7s-1.66699 -10 -5 -16l-397 -723
c-4 -7.33301 -6 -13.333 -6 -18c0 -12 9 -19.333 27 -22s40.833 -4 68.5 -4s51.834 0.333008 72.501 1c70.667 0 127.334 24 170.001 72c16 18 42.667 68.667 80 152c2.66699 6 10.334 7.33301 23.001 4s18.667 -7.66602 18 -12.999zM1636 1421l-208.998 -371
c-10.667 -18.667 -23.334 -28 -38.001 -28s-27.334 9.33301 -38.001 28l-209 371c-1.33301 2 -2 3.33301 -2 4c0 15.333 9 23 27 23c3.33301 0 6 -1.33301 8 -4l185 -217c14 -16.667 23.667 -25 29 -25c6 0 16 8.33301 30 25l184 217c2 2.66699 4 4 6 4
c19.333 0 29 -7.66699 29 -23zM841.999 231.001c0 -99.333 27.333 -148.998 82 -148.998c14.667 0 30.334 2 47.001 6c8 1.33301 14 -11 18 -37c1.33301 -12.667 -0.666992 -19.334 -6 -20.001c-24.667 -3.33301 -75.834 -13.833 -153.501 -31.5
s-119.167 -28.5 -124.5 -32.5c-11.333 0 -17 16.333 -17 49v41c0 15.333 -3.83301 23 -11.5 23s-16.834 -4.66699 -27.501 -14c-62.667 -59.333 -128 -89 -196 -89c-131.333 0 -228.666 40.833 -291.999 122.5s-95 185.5 -95 311.5s44 234 132 324s202.333 135 343 135
c46.667 0 84.667 -4.66699 114 -14c8 -2.66699 14.333 -4 19 -4c9.33301 0 14 8.33301 14 25v294c0 93.333 -30.667 140 -92 140c-11.333 0 -17 9.16699 -17 27.5s5.66699 27.5 17 27.5c16.667 0 49.334 12.167 98.001 36.5s83.167 44.166 103.5 59.499s33.833 23 40.5 23
c7.33301 0 10.666 -5 9.99902 -15l-6 -108v-1131zM687.999 199.003l-0.000976562 468.999c0 50 -7.33301 81.333 -22 94c-39.333 32.667 -88.666 49 -147.999 49c-89.333 0 -159.833 -37.167 -211.5 -111.5s-77.5 -160.833 -77.5 -259.5
c0 -99.333 27.667 -185.166 83 -257.499s119.333 -108.5 192 -108.5c52 0 95.667 13.667 131 41s53 55.333 53 84z" />
    <glyph glyph-name="uni01C7" unicode="LJ" horiz-adv-x="2060" 
d="M1636 260l0.000976562 912.001c0 76.667 -63.333 115 -190 115c-9.33301 0 -14 12.667 -14 38s4.66699 38 14 38c31.333 -3.33301 119.666 -5 264.999 -5s237.666 1.66699 276.999 5c9.33301 0 14 -12.667 14 -38s-4.66699 -38 -14 -38c-128 0 -192 -38.333 -192 -115
v-538c0 -477.333 -23.667 -749.833 -71 -817.5s-99 -123.834 -155 -168.501s-120.333 -67 -193 -67c-36 0 -66.667 10.167 -92 30.5s-38 50.5 -38 90.5c0 21.333 9.83301 40.333 29.5 57s45.167 25 76.5 25c40 0 73.667 -11.333 101 -34s44 -45 50 -67
c46.667 16 80.334 54 101.001 114s31 214.333 31 463zM271.001 177.001l0.00195312 995.002c0 76.667 -63 115 -189 115c-9.33301 0 -14 12.667 -14 38s4.66699 38 14 38c30 -3.33301 117.167 -5 261.5 -5s231.5 1.66699 261.5 5c8.66699 0 13 -12.667 13 -38
s-4.33301 -38 -13 -38c-116 0 -174 -38.333 -174 -115v-895c0 -34 4.83301 -66.833 14.5 -98.5s28 -59 55 -82s63.167 -34.5 108.5 -34.5l313 13c83.333 3.33301 148.166 33.666 194.499 90.999s69.5 128.333 69.5 213c0 8.66699 13 13 39 13s39 -4.33301 39 -13v-352
c0 -18.667 -12 -29.334 -36 -32.001c-9.33301 -1.33301 -24.333 -2 -45 -2c-95.333 0.666992 -239.333 2 -432 4s-326.334 3 -401.001 3s-159.667 -2.33301 -255 -7c-8.66699 0 -13 12.667 -13 38s4.33301 38 13 38c117.333 0 176 36 176 108z" />
    <glyph glyph-name="uni01C8" unicode="Lj" horiz-adv-x="1862" 
d="M1709 1157c0 -30 -10.667 -55.667 -32 -77s-47 -32 -77 -32s-55.167 10.667 -75.5 32s-30.5 47 -30.5 77s10.167 55.167 30.5 75.5s45.5 30.5 75.5 30.5s55.667 -10.167 77 -30.5s32 -45.5 32 -75.5zM1702 59c0 -219.333 -36.666 -380.335 -109.999 -483.002
c-62 -87.333 -144.667 -131 -248 -131c-33.333 0 -62.5 9.33301 -87.5 28s-37.5 41.334 -37.5 68.001c0 22 8.16699 39.167 24.5 51.5s34.166 18.5 53.499 18.5c32.667 0 62.167 -13 88.5 -39s47.833 -39 64.5 -39c66 0 99 71 99 213v825c0 92 -30.667 138 -92 138
c-11.333 0 -17 9.33301 -17 28s5.66699 28 17 28c22 0 54.5 11.333 97.5 34s75.5 42.334 97.5 59.001s36.667 25 44 25c8 0 12 -5.33301 12 -16c-4 -72 -6 -127.333 -6 -166v-642zM271.001 176.998l0.00195312 995.002c0 76.667 -63 115 -189 115
c-9.33301 0 -14 12.667 -14 38s4.66699 38 14 38c30 -3.33301 117.167 -5 261.5 -5s231.5 1.66699 261.5 5c8.66699 0 13 -12.667 13 -38s-4.33301 -38 -13 -38c-116 0 -174 -38.333 -174 -115v-895c0 -34 4.83301 -66.833 14.5 -98.5s28 -59 55 -82
s63.167 -34.5 108.5 -34.5l313 13c83.333 3.33301 148.166 33.666 194.499 90.999s69.5 128.333 69.5 213c0 8.66699 13 13 39 13s39 -4.33301 39 -13v-352c0 -18.667 -12 -29.334 -36 -32.001c-9.33301 -1.33301 -24.333 -2 -45 -2c-95.333 0.666992 -239.333 2 -432 4
s-326.334 3 -401.001 3s-159.667 -2.33301 -255 -7c-8.66699 0 -13 12.667 -13 38s4.33301 38 13 38c117.333 0 176 36 176 108z" />
    <glyph glyph-name="uni01C9" unicode="lj" horiz-adv-x="999" 
d="M865 1157c0 -30 -10.667 -55.667 -32 -77s-47 -32 -77 -32s-55.167 10.667 -75.5 32s-30.5 47 -30.5 77s10.167 55.167 30.5 75.5s45.5 30.5 75.5 30.5s55.667 -10.167 77 -30.5s32 -45.5 32 -75.5zM858 59c0 -219.333 -36.666 -380.335 -109.999 -483.002
c-62 -87.333 -144.667 -131 -248 -131c-33.333 0 -62.5 9.33301 -87.5 28s-37.5 41.334 -37.5 68.001c0 22 8.16699 39.167 24.5 51.5s34.166 18.5 53.499 18.5c32.667 0 62.167 -13 88.5 -39s47.833 -39 64.5 -39c66 0 99 71 99 213v825c0 92 -30.667 138 -92 138
c-11.333 0 -17 9.33301 -17 28s5.66699 28 17 28c22 0 54.5 11.333 97.5 34s75.5 42.334 97.5 59.001s36.667 25 44 25c8 0 12 -5.33301 12 -16c-4 -72 -6 -127.333 -6 -166v-642zM354.001 126.998c0 -52 39.665 -78 118.998 -78c9.33301 0 14 -9.5 14 -28.5
s-4.66699 -28.5 -14 -28.5c-51.333 5.33301 -115.5 8 -192.5 8s-142.5 -2.66699 -196.5 -8c-9.33301 0 -14 9.5 -14 28.5s4.66699 28.5 14 28.5c78 0 117 26 117 78v1044c0 93.333 -30.667 140 -92 140c-11.333 0 -17 9.16699 -17 27.5s5.66699 27.5 17 27.5
c30.667 0 85.667 24.667 165 74c22.667 14 39.334 25 50.001 33s19.334 12 26.001 12s10 -5 10 -15c-4 -38 -6 -70.333 -6 -97v-1246z" />
    <glyph glyph-name="uni01CA" unicode="NJ" horiz-adv-x="2198" 
d="M1774 260l0.000976562 912.001c0 76.667 -63.333 115 -190 115c-9.33301 0 -14 12.667 -14 38s4.66699 38 14 38c31.333 -3.33301 119.666 -5 264.999 -5s237.666 1.66699 276.999 5c9.33301 0 14 -12.667 14 -38s-4.66699 -38 -14 -38c-128 0 -192 -38.333 -192 -115
v-538c0 -477.333 -23.667 -749.833 -71 -817.5s-99 -123.834 -155 -168.501s-120.333 -67 -193 -67c-36 0 -66.667 10.167 -92 30.5s-38 50.5 -38 90.5c0 21.333 9.83301 40.333 29.5 57s45.167 25 76.5 25c40 0 73.667 -11.333 101 -34s44 -45 50 -67
c46.667 16 80.334 54 101.001 114s31 214.333 31 463zM257.001 186.001l-0.000976562 924.001c0 67.333 -15.167 113.666 -45.5 138.999s-77.833 38 -142.5 38c-8.66699 0 -13 12.667 -13 38s4.33301 38 13 38c29.333 -3.33301 79 -5 149 -5s115.667 -2.5 137 -7.5
s41 -18.833 59 -41.5l758 -977c6.66699 -8.66699 14.667 -13 24 -13c15.333 0 23 11 23 33v819c0 77.333 -57 116 -171 116c-9.33301 0 -14 12.667 -14 38s4.66699 38 14 38c30.667 -3.33301 93.167 -5 187.5 -5s156.833 1.66699 187.5 5c8.66699 0 13 -12.667 13 -38
s-4.33301 -38 -13 -38c-90.667 0 -136 -38.667 -136 -116v-1142c0 -33.333 -5.66699 -50 -17 -50c-12 0 -26 10 -42 30l-867 1095c-7.33301 8.66699 -14.666 13 -21.999 13s-11 -6 -11 -18v-913c0 -78 53 -117 159 -117c8.66699 0 13 -12.667 13 -38s-4.33301 -38 -13 -38
c-54 4.66699 -119.833 7 -197.5 7s-144.167 -2.33301 -199.5 -7c-9.33301 0 -14 12.667 -14 38s4.66699 38 14 38c111.333 0 167 39 167 117z" />
    <glyph glyph-name="uni01CB" unicode="Nj" horiz-adv-x="2000" 
d="M1847 1157c0 -30 -10.667 -55.667 -32 -77s-47 -32 -77 -32s-55.167 10.667 -75.5 32s-30.5 47 -30.5 77s10.167 55.167 30.5 75.5s45.5 30.5 75.5 30.5s55.667 -10.167 77 -30.5s32 -45.5 32 -75.5zM1840 59c0 -219.333 -36.666 -380.335 -109.999 -483.002
c-62 -87.333 -144.667 -131 -248 -131c-33.333 0 -62.5 9.33301 -87.5 28s-37.5 41.334 -37.5 68.001c0 22 8.16699 39.167 24.5 51.5s34.166 18.5 53.499 18.5c32.667 0 62.167 -13 88.5 -39s47.833 -39 64.5 -39c66 0 99 71 99 213v825c0 92 -30.667 138 -92 138
c-11.333 0 -17 9.33301 -17 28s5.66699 28 17 28c22 0 54.5 11.333 97.5 34s75.5 42.334 97.5 59.001s36.667 25 44 25c8 0 12 -5.33301 12 -16c-4 -72 -6 -127.333 -6 -166v-642zM257.001 185.998l-0.000976562 924.001c0 67.333 -15.167 113.666 -45.5 138.999
s-77.833 38 -142.5 38c-8.66699 0 -13 12.667 -13 38s4.33301 38 13 38c29.333 -3.33301 79 -5 149 -5s115.667 -2.5 137 -7.5s41 -18.833 59 -41.5l758 -977c6.66699 -8.66699 14.667 -13 24 -13c15.333 0 23 11 23 33v819c0 77.333 -57 116 -171 116
c-9.33301 0 -14 12.667 -14 38s4.66699 38 14 38c30.667 -3.33301 93.167 -5 187.5 -5s156.833 1.66699 187.5 5c8.66699 0 13 -12.667 13 -38s-4.33301 -38 -13 -38c-90.667 0 -136 -38.667 -136 -116v-1142c0 -33.333 -5.66699 -50 -17 -50c-12 0 -26 10 -42 30l-867 1095
c-7.33301 8.66699 -14.666 13 -21.999 13s-11 -6 -11 -18v-913c0 -78 53 -117 159 -117c8.66699 0 13 -12.667 13 -38s-4.33301 -38 -13 -38c-54 4.66699 -119.833 7 -197.5 7s-144.167 -2.33301 -199.5 -7c-9.33301 0 -14 12.667 -14 38s4.66699 38 14 38
c111.333 0 167 39 167 117z" />
    <glyph glyph-name="uni01CC" unicode="nj" horiz-adv-x="1559" 
d="M1420 1157c0 -30 -10.667 -55.667 -32 -77s-47 -32 -77 -32s-55.167 10.667 -75.5 32s-30.5 47 -30.5 77s10.167 55.167 30.5 75.5s45.5 30.5 75.5 30.5s55.667 -10.167 77 -30.5s32 -45.5 32 -75.5zM1413 59c0 -219.333 -36.666 -380.335 -109.999 -483.002
c-62 -87.333 -144.667 -131 -248 -131c-33.333 0 -62.5 9.33301 -87.5 28s-37.5 41.334 -37.5 68.001c0 22 8.16699 39.167 24.5 51.5s34.166 18.5 53.499 18.5c32.667 0 62.167 -13 88.5 -39s47.833 -39 64.5 -39c66 0 99 71 99 213v825c0 92 -30.667 138 -92 138
c-11.333 0 -17 9.33301 -17 28s5.66699 28 17 28c22 0 54.5 11.333 97.5 34s75.5 42.334 97.5 59.001s36.667 25 44 25c8 0 12 -5.33301 12 -16c-4 -72 -6 -127.333 -6 -166v-642zM897.001 126.998c0 -52 38.335 -78 115.002 -78c9.33301 0 14 -9.5 14 -28.5
s-4.66699 -28.5 -14 -28.5c-51.333 5.33301 -114 8 -188 8s-137.667 -2.66699 -191 -8c-9.33301 0 -14 9.5 -14 28.5s4.66699 28.5 14 28.5c73.333 0 110 26 110 78v403c0 56 -4.83301 103.5 -14.5 142.5s-24.834 66.667 -45.501 83s-57 24.5 -109 24.5
c-28 0 -53.333 -5.66699 -76 -17s-44.834 -24.833 -66.501 -40.5s-40 -35 -55 -58s-22.5 -47.833 -22.5 -74.5v-463c0 -52 35.667 -78 107 -78c9.33301 0 14 -9.5 14 -28.5s-4.66699 -28.5 -14 -28.5c-51.333 5.33301 -113.5 8 -186.5 8s-135.833 -2.66699 -188.5 -8
c-9.33301 0 -14 9.5 -14 28.5s4.66699 28.5 14 28.5c76.667 0 115 26 115 78v447c0 85.333 -28 128 -84 128c-11.333 0 -17 9.33301 -17 28s5.66699 28 17 28c26 0 55.333 10 88 30s61.334 40.833 86.001 62.5s42 32.5 52 32.5c9.33301 0 13.666 -10.333 12.999 -31l-2 -73
c0 -14 4.66699 -21 14 -21c5.33301 0 10.333 2 15 6c70.667 70.667 157 106 259 106c101.333 0 175.333 -49 222 -147c22 -44 33 -126.667 33 -248v-348z" />
    <glyph glyph-name="uni01F1" unicode="DZ" horiz-adv-x="2766" 
d="M2786 336c-32 -157.333 -48 -274.997 -48 -352.997c0 -8.66699 -5 -14 -15 -16c-23.333 6.66699 -41.666 10.667 -54.999 12c-124.667 14 -344.667 21 -660 21h-365c-23.333 0 -35 8 -35 24c0 8.66699 3.33301 17.667 10 27l875 1198c6 8 9 15 9 21
c0 14 -10.333 21 -31 21h-554c-36.667 0 -62.334 -10 -77.001 -30c-48 -61.333 -80.167 -112.833 -96.5 -154.5s-30.833 -84.834 -43.5 -129.501c-1.33301 -4.66699 -9.33301 -7 -24 -7s-23 4.66699 -25 14c22 142 33 263 33 363c0 12 12.333 18 37 18
c64.667 -6 113.667 -9 147 -9h481c101.333 0 224 2.66699 368 8c16.667 0 25 -4.66699 25 -14c0 -8.66699 -4.66699 -19.334 -14 -32.001l-863 -1200c-6 -8 -9 -16 -9 -24c0 -16.667 10 -25 30 -25c290 0 503.333 4.33301 640 13c53.333 3.33301 107.666 57.666 163 162.999
c26 49.333 41.667 85 47 107c2 8 10.833 9.16699 26.5 3.5s23.5 -12.167 23.5 -19.5zM271 186.003v985.998c0 73.333 -63 110 -189 110c-9.33301 0 -14 12.667 -14 38s4.66699 38 14 38c93.333 -4 173.5 -6 240.5 -6s136.667 1 209 3s129.5 3 171.5 3
c207.333 0 380.666 -55.667 519.999 -167s209 -265.666 209 -462.999c0 -215.333 -61.167 -391.666 -183.5 -528.999s-288.166 -206 -497.499 -206c-32 0 -96.833 1.16699 -194.5 3.5s-179.167 3.5 -244.5 3.5s-139 -2.33301 -221 -7c-8.66699 0 -13 12.5 -13 37.5
s4.33301 37.833 13 38.5c120 0 180 39 180 117zM431 298.001c0 -99.333 19.998 -165.002 59.998 -197.002s103.667 -48 191 -48c170.667 0 306.5 60.333 407.5 181s151.5 281.334 151.5 482.001c0 168 -59 306.833 -177 416.5s-265.667 164.5 -443 164.5
c-63.333 0 -105.166 -2.83301 -125.499 -8.5s-36.166 -17.667 -47.499 -36s-17 -42.166 -17 -71.499v-883z" />
    <glyph glyph-name="uni01F2" unicode="D&#x7a;" horiz-adv-x="2260" 
d="M2238 276c-20.667 -152.667 -31.002 -241.333 -31.002 -266s-9 -37 -27 -37c-6.66699 0 -29.5 4.5 -68.5 13.5s-70.5 13.5 -94.5 13.5h-420c-11.333 0 -17 4.66699 -17 14c0 4 0.666992 7 2 9l398 729c5.33301 10 8 17.667 8 23c0 12 -9.66699 18 -29 18h-158
c-52 0 -95.667 -35.667 -131 -107l-61 -123c-2 -4 -6.5 -4.83301 -13.5 -2.5s-10.167 5.16602 -9.5 8.49902l37 267c3.33301 24.667 11 36 23 34l103 -16c17.333 -2.66699 43 -4 77 -4h346c10 0 15 -2.33301 15 -7s-1.66699 -10 -5 -16l-397 -723
c-4 -7.33301 -6 -13.333 -6 -18c0 -12 9 -19.333 27 -22s40.833 -4 68.5 -4s51.834 0.333008 72.501 1c70.667 0 127.334 24 170.001 72c16 18 42.667 68.667 80 152c2.66699 6 10.334 7.33301 23 4c12.667 -3.33301 18.667 -7.66602 18 -12.999zM270.998 186.001v985.998
c0 73.333 -63 110 -189 110c-9.33301 0 -14 12.667 -14 38s4.66699 38 14 38c93.333 -4 173.5 -6 240.5 -6s136.667 1 209 3s129.5 3 171.5 3c207.333 0 380.666 -55.667 519.999 -167s209 -265.666 209 -462.999c0 -215.333 -61.167 -391.666 -183.5 -528.999
s-288.166 -206 -497.499 -206c-32 0 -96.833 1.16699 -194.5 3.5s-179.167 3.5 -244.5 3.5s-139 -2.33301 -221 -7c-8.66699 0 -13 12.5 -13 37.5s4.33301 37.833 13 38.5c120 0 180 39 180 117zM430.998 297.999c0 -99.333 19.998 -165.002 59.998 -197.002
s103.667 -48 191 -48c170.667 0 306.5 60.333 407.5 181s151.5 281.334 151.5 482.001c0 168 -59 306.833 -177 416.5s-265.667 164.5 -443 164.5c-63.333 0 -105.166 -2.83301 -125.499 -8.5s-36.166 -17.667 -47.499 -36s-17 -42.166 -17 -71.499v-883z" />
    <glyph glyph-name="uni01F3" unicode="d&#x7a;" horiz-adv-x="1742" 
d="M1708 276c-20.667 -152.667 -31.0029 -241.333 -31.0029 -266s-9 -37 -27 -37c-6.66699 0 -29.5 4.5 -68.5 13.5s-70.5 13.5 -94.5 13.5h-420c-11.333 0 -17 4.66699 -17 14c0 4 0.666992 7 2 9l398 729c5.33301 10 8 17.667 8 23c0 12 -9.66699 18 -29 18h-158
c-52 0 -95.667 -35.667 -131 -107l-61 -123c-2 -4 -6.5 -4.83301 -13.5 -2.5s-10.167 5.16602 -9.5 8.49902l37 267c3.33301 24.667 11 36 23 34l103 -16c17.333 -2.66699 43 -4 77 -4h346c10 0 15 -2.33301 15 -7s-1.66699 -10 -5 -16l-397 -723
c-4 -7.33301 -6 -13.333 -6 -18c0 -12 9 -19.333 27 -22s40.833 -4 68.5 -4s51.834 0.333008 72.501 1c70.667 0 127.334 24 170.001 72c16 18 42.667 68.667 80 152c2.66699 6 10.334 7.33301 23.001 4s18.667 -7.66602 18 -12.999zM841.997 231.001
c0 -99.333 27.333 -148.998 82 -148.998c14.667 0 30.334 2 47.001 6c8 1.33301 14 -11 18 -37c1.33301 -12.667 -0.666992 -19.334 -6 -20.001c-24.667 -3.33301 -75.834 -13.833 -153.501 -31.5s-119.167 -28.5 -124.5 -32.5c-11.333 0 -17 16.333 -17 49v41
c0 15.333 -3.83301 23 -11.5 23s-16.834 -4.66699 -27.501 -14c-62.667 -59.333 -128 -89 -196 -89c-131.333 0 -228.666 40.833 -291.999 122.5s-95 185.5 -95 311.5s44 234 132 324s202.333 135 343 135c46.667 0 84.667 -4.66699 114 -14c8 -2.66699 14.333 -4 19 -4
c9.33301 0 14 8.33301 14 25v294c0 93.333 -30.667 140 -92 140c-11.333 0 -17 9.16699 -17 27.5s5.66699 27.5 17 27.5c16.667 0 49.334 12.167 98.001 36.5s83.167 44.166 103.5 59.499s33.833 23 40.5 23c7.33301 0 10.666 -5 9.99902 -15l-6 -108v-1131z
M687.997 199.003l-0.000976562 468.999c0 50 -7.33301 81.333 -22 94c-39.333 32.667 -88.666 49 -147.999 49c-89.333 0 -159.833 -37.167 -211.5 -111.5s-77.5 -160.833 -77.5 -259.5c0 -99.333 27.667 -185.166 83 -257.499s119.333 -108.5 192 -108.5
c52 0 95.667 13.667 131 41s53 55.333 53 84z" />
    <glyph glyph-name="twodotenleader" unicode="&#x2e;&#x2e;" horiz-adv-x="1063" 
d="M797 211c43.333 0 75.666 -18.334 96.999 -55.001c12 -20 18 -42.667 18 -68c0 -43.333 -18 -75.666 -54 -96.999c-18 -10.667 -38.333 -16 -61 -16c-49.333 0 -85.666 18.667 -108.999 56c-12 19.333 -18 41 -18 65c0 45.333 19.333 78.333 58 99c20 10.667 43 16 69 16
zM266 210.999c43.333 0 75.666 -18.334 96.999 -55.001c12 -20 18 -42.667 18 -68c0 -43.333 -18 -75.666 -54 -96.999c-18 -10.667 -38.333 -16 -61 -16c-49.333 0 -85.666 18.667 -108.999 56c-12 19.333 -18 41 -18 65c0 45.333 19.333 78.333 58 99
c20 10.667 43 16 69 16z" />
    <glyph glyph-name="ellipsis" unicode="&#x2e;&#x2e;&#x2e;" horiz-adv-x="1591" 
d="M139 98c0 34 11.999 61.334 35.999 82.001s54.333 31 91 31s65 -12.333 85 -37s30 -53.834 30 -87.501s-11.5 -60.667 -34.5 -81s-52.167 -30.5 -87.5 -30.5s-64.166 12 -86.499 36s-33.5 53 -33.5 87zM1183 98.001c0 34 11.999 61.334 35.999 82.001s54.333 31 91 31
s65 -12.333 85 -37s30 -53.834 30 -87.501s-11.5 -60.667 -34.5 -81s-52.167 -30.5 -87.5 -30.5s-64.166 12 -86.499 36s-33.5 53 -33.5 87zM669.998 98.002c0 34 11.999 61.334 35.999 82.001s54.333 31 91 31s65 -12.333 85 -37s30 -53.834 30 -87.501
s-11.5 -60.667 -34.5 -81s-52.167 -30.5 -87.5 -30.5s-64.166 12 -86.499 36s-33.5 53 -33.5 87z" />
    <glyph glyph-name="uni2036" unicode="&#x2035;&#x2035;" horiz-adv-x="894" 
d="M119 1419c0 21.333 15.666 39.667 46.999 55c18 8.66699 35.333 13 52 13c20.667 0 34.334 -7.66699 41.001 -23l206 -467c3.33301 -6.66699 5 -14 5 -22c0 -24.667 -11 -37 -33 -37c-15.333 0 -29 9.66699 -41 29l-271 434c-4 6 -6 12 -6 18zM438.999 1419
c0 21.333 15.666 39.667 46.999 55c18 8.66699 35.333 13 52 13c20.667 0 34.334 -7.66699 41.001 -23l206 -467c3.33301 -6.66699 5 -14 5 -22c0 -24.667 -11 -37 -33 -37c-15.333 0 -29 9.66699 -41 29l-271 434c-4 6 -6 12 -6 18z" />
    <glyph glyph-name="uni2037" unicode="&#x2035;&#x2035;&#x2035;" horiz-adv-x="1274" 
d="M119 1419c0 21.333 15.666 39.667 46.999 55c18 8.66699 35.333 13 52 13c20.667 0 34.334 -7.66699 41.001 -23l206 -467c3.33301 -6.66699 5 -14 5 -22c0 -24.667 -11 -37 -33 -37c-15.333 0 -29 9.66699 -41 29l-271 434c-4 6 -6 12 -6 18zM443.999 1419
c0 21.333 15.666 39.667 46.999 55c18 8.66699 35.333 13 52 13c20.667 0 34.334 -7.66699 41.001 -23l206 -467c3.33301 -6.66699 5 -14 5 -22c0 -24.667 -11 -37 -33 -37c-15.333 0 -29 9.66699 -41 29l-271 434c-4 6 -6 12 -6 18zM793.998 1419
c0 21.333 15.666 39.667 46.999 55c18 8.66699 35.333 13 52 13c20.667 0 34.334 -7.66699 41.001 -23l206 -467c3.33301 -6.66699 5 -14 5 -22c0 -24.667 -11 -37 -33 -37c-15.333 0 -29 9.66699 -41 29l-271 434c-4 6 -6 12 -6 18z" />
    <glyph glyph-name="exclamdbl" unicode="&#x21;&#x21;" horiz-adv-x="880" 
d="M260 211c40.667 0 70.999 -12.332 90.999 -36.999s30 -53.834 30 -87.501s-11.5 -60.667 -34.5 -81s-52.167 -30.5 -87.5 -30.5s-64.166 12 -86.499 36s-33.5 53 -33.5 87s10 61.333 30 82s50.333 31 91 31zM165.999 1275c0 37.333 10.167 67.3311 30.5 89.998
s42.833 34 67.5 34c68.667 0 103 -37 103 -111c0 -42 -10.333 -160.167 -31 -354.5s-35 -360.166 -43 -497.499c-0.666992 -10.667 -11.667 -16 -33 -16c-22 0 -33 5.33301 -33 16c-5.33301 132.667 -16.833 296.334 -34.5 491.001s-26.5 310.667 -26.5 348z
M615.999 210.999c40.667 0 70.999 -12.332 90.999 -36.999s30 -53.834 30 -87.501s-11.5 -60.667 -34.5 -81s-52.167 -30.5 -87.5 -30.5s-64.166 12 -86.499 36s-33.5 53 -33.5 87s10 61.333 30 82s50.333 31 91 31zM521.998 1275c0 37.333 10.167 67.3311 30.5 89.998
s42.833 34 67.5 34c68.667 0 103 -37 103 -111c0 -42 -10.333 -160.167 -31 -354.5s-35 -360.166 -43 -497.499c-0.666992 -10.667 -11.667 -16 -33 -16c-22 0 -33 5.33301 -33 16c-5.33301 132.667 -16.833 296.334 -34.5 491.001s-26.5 310.667 -26.5 348z" />
    <glyph glyph-name="uni2047" unicode="&#x3f;&#x3f;" horiz-adv-x="1288" 
d="M279 1194c-45.333 0 -68 28.6699 -68 86.0029c0 54.667 28 82 84 82c86.667 0 168 -43.667 244 -131c76.667 -94 116 -194.333 118 -301c0 -97.333 -27.333 -160.333 -82 -189l-165 -88c-49.333 -27.333 -74 -57.333 -74 -90c0 -37.333 6.66699 -79 20 -125
c0 -10 -7.33301 -16.333 -22 -19c-10 -0.666992 -17.667 1.66602 -23 6.99902c-50 90.667 -75 161 -75 211c0 59.333 38 109.666 114 150.999l105 56c77.333 41.333 116 91.666 116 150.999c0 132.667 -97.333 199 -292 199zM459 86.0029
c0 -44.667 -18 -78.001 -54 -100.001c-20 -11.333 -41.667 -17 -65 -17c-40.667 0 -73 16.333 -97 49c-14.667 20.667 -22 43.334 -22 68.001c0 46 17 81.333 51 106c20 14 42.667 21 68 21c42.667 0 75.667 -18.667 99 -56c13.333 -21.333 20 -45 20 -71zM803 1194
c-45.333 0 -68 28.6699 -68 86.0029c0 54.667 28 82 84 82c86.667 0 168 -43.667 244 -131c76.667 -94 116 -194.333 118 -301c0 -97.333 -27.333 -160.333 -82 -189l-165 -88c-49.333 -27.333 -74 -57.333 -74 -90c0 -37.333 6.66699 -79 20 -125
c0 -10 -7.33301 -16.333 -22 -19c-10 -0.666992 -17.667 1.66602 -23 6.99902c-50 90.667 -75 161 -75 211c0 59.333 38 109.666 114 150.999l105 56c77.333 41.333 116 91.666 116 150.999c0 132.667 -97.333 199 -292 199zM983 86.0049
c0 -44.667 -18 -78.001 -54 -100.001c-20 -11.333 -41.667 -17 -65 -17c-40.667 0 -73 16.333 -97 49c-14.667 20.667 -22 43.334 -22 68.001c0 46 17 81.333 51 106c20 14 42.667 21 68 21c42.667 0 75.667 -18.667 99 -56c13.333 -21.333 20 -45 20 -71z" />
    <glyph glyph-name="uni2048" unicode="&#x3f;&#x21;" horiz-adv-x="1148" 
d="M908 211c40.667 0 70.999 -12.332 90.999 -36.999s30 -53.834 30 -87.501s-11.5 -60.667 -34.5 -81s-52.167 -30.5 -87.5 -30.5s-64.166 12 -86.499 36s-33.5 53 -33.5 87s10 61.333 30 82s50.333 31 91 31zM813.999 1275c0 37.333 10.167 67.3311 30.5 89.998
s42.833 34 67.5 34c68.667 0 103 -37 103 -111c0 -42 -10.333 -160.167 -31 -354.5s-35 -360.166 -43 -497.499c-0.666992 -10.667 -11.667 -16 -33 -16c-22 0 -33 5.33301 -33 16c-5.33301 132.667 -16.833 296.334 -34.5 491.001s-26.5 310.667 -26.5 348zM278.999 1194
c-45.333 0 -68 28.6699 -68 86.0029c0 54.667 28 82 84 82c86.667 0 168 -43.667 244 -131c76.667 -94 116 -194.333 118 -301c0 -97.333 -27.333 -160.333 -82 -189l-165 -88c-49.333 -27.333 -74 -57.333 -74 -90c0 -37.333 6.66699 -79 20 -125
c0 -10 -7.33301 -16.333 -22 -19c-10 -0.666992 -17.667 1.66602 -23 6.99902c-50 90.667 -75 161 -75 211c0 59.333 38 109.666 114 150.999l105 56c77.333 41.333 116 91.666 116 150.999c0 132.667 -97.333 199 -292 199zM458.999 86.002
c0 -44.667 -18 -78.001 -54 -100.001c-20 -11.333 -41.667 -17 -65 -17c-40.667 0 -73 16.333 -97 49c-14.667 20.667 -22 43.334 -22 68.001c0 46 17 81.333 51 106c20 14 42.667 21 68 21c42.667 0 75.667 -18.667 99 -56c13.333 -21.333 20 -45 20 -71z" />
    <glyph glyph-name="uni2049" unicode="&#x21;&#x3f;" horiz-adv-x="1084" 
d="M591 1194c-45.333 0 -68 28.6699 -68 86.0029c0 54.667 28 82 84 82c86.667 0 168 -43.667 244 -131c76.667 -94 116 -194.333 118 -301c0 -97.333 -27.333 -160.333 -82 -189l-165 -88c-49.333 -27.333 -74 -57.333 -74 -90c0 -37.333 6.66699 -79 20 -125
c0 -10 -7.33301 -16.333 -22 -19c-10 -0.666992 -17.667 1.66602 -23 6.99902c-50 90.667 -75 161 -75 211c0 59.333 38 109.666 114 150.999l105 56c77.333 41.333 116 91.666 116 150.999c0 132.667 -97.333 199 -292 199zM771 86.0029
c0 -44.667 -18 -78.001 -54 -100.001c-20 -11.333 -41.667 -17 -65 -17c-40.667 0 -73 16.333 -97 49c-14.667 20.667 -22 43.334 -22 68.001c0 46 17 81.333 51 106c20 14 42.667 21 68 21c42.667 0 75.667 -18.667 99 -56c13.333 -21.333 20 -45 20 -71zM260 211.002
c40.667 0 70.999 -12.332 90.999 -36.999s30 -53.834 30 -87.501s-11.5 -60.667 -34.5 -81s-52.167 -30.5 -87.5 -30.5s-64.166 12 -86.499 36s-33.5 53 -33.5 87s10 61.333 30 82s50.333 31 91 31zM165.999 1275c0 37.333 10.167 67.3311 30.5 89.998s42.833 34 67.5 34
c68.667 0 103 -37 103 -111c0 -42 -10.333 -160.167 -31 -354.5s-35 -360.166 -43 -497.499c-0.666992 -10.667 -11.667 -16 -33 -16c-22 0 -33 5.33301 -33 16c-5.33301 132.667 -16.833 296.334 -34.5 491.001s-26.5 310.667 -26.5 348z" />
    <glyph glyph-name="uni2460" unicode="&#x31;&#x20dd;" horiz-adv-x="2053" 
d="M100 434c0 197.333 57.001 376.333 171.001 537c103.333 144.667 237 251 401 319c113.333 47.333 231.666 71 354.999 71c198 0 377 -57.333 537 -172c145.333 -103.333 252 -237.333 320 -402c46 -112.667 69 -230.334 69 -353.001c0 -198 -57.333 -377.333 -172 -538
c-60 -84 -131.667 -156 -215 -216c-160.667 -114.667 -340.334 -172 -539.001 -172c-198 0 -377.333 57 -538 171c-145.333 104 -251.666 238 -318.999 402c-46.667 112.667 -70 230.334 -70 353.001zM184.001 434c0 -183.333 53.666 -348.667 160.999 -496
c98.667 -134.667 226 -231.667 382 -291c96 -36.667 196 -55 300 -55c184 0 350 54.333 498 163c134.667 98.667 231.334 226 290.001 382c36 95.333 54 194.333 54 297c0 184 -54 350 -162 498c-98.667 134.667 -225.667 231.667 -381 291c-96 36 -195.667 54 -299 54
c-184 0 -350 -54 -498 -162c-70 -51.333 -130.667 -112.333 -182 -183c-108.667 -148 -163 -314 -163 -498zM1229 -5.00098c-42 3.33301 -104.333 5 -187 5c-85.333 0 -148.333 -1.66699 -189 -5c-7.33301 0 -11 6.33301 -11 19c0 14.667 3.66699 22 11 22
c57.333 0 93 6 107 18c21.333 18 32 62 32 132v620c0 21.333 -5 32 -15 32c-6 0 -11.667 -1.33301 -17 -4l-92 -42c-12 0 -18 8 -18 24c0 3.33301 1.33301 6.33301 4 9c93.333 45.333 170.333 95.333 231 150c3.33301 3.33301 7.33301 5 12 5c5.33301 0 8 -3.33301 8 -10
l-3 -121v-2v-660c0 -56.667 5.33301 -95 16 -115c17.333 -24 54.333 -36 111 -36c6 0 9 -7.33301 9 -22c0 -12.667 -3 -19 -9 -19z" />
    <glyph glyph-name="uni2461" unicode="&#x32;&#x20dd;" horiz-adv-x="2053" 
d="M100 434c0 197.333 57.001 376.333 171.001 537c103.333 144.667 237 251 401 319c113.333 47.333 231.666 71 354.999 71c198 0 377 -57.333 537 -172c145.333 -103.333 252 -237.333 320 -402c46 -112.667 69 -230.334 69 -353.001c0 -198 -57.333 -377.333 -172 -538
c-60 -84 -131.667 -156 -215 -216c-160.667 -114.667 -340.334 -172 -539.001 -172c-198 0 -377.333 57 -538 171c-145.333 104 -251.666 238 -318.999 402c-46.667 112.667 -70 230.334 -70 353.001zM184.001 434c0 -183.333 53.666 -348.667 160.999 -496
c98.667 -134.667 226 -231.667 382 -291c96 -36.667 196 -55 300 -55c184 0 350 54.333 498 163c134.667 98.667 231.334 226 290.001 382c36 95.333 54 194.333 54 297c0 184 -54 350 -162 498c-98.667 134.667 -225.667 231.667 -381 291c-96 36 -195.667 54 -299 54
c-184 0 -350 -54 -498 -162c-70 -51.333 -130.667 -112.333 -182 -183c-108.667 -148 -163 -314 -163 -498zM1317 173.999l-70.999 -157c-6.66699 -14.667 -19 -22 -37 -22l-237 5h-3h-75l-168 -5v0c-20.667 0 -31 9 -31 27c0 4.66699 2.33301 9 7 13
c210 220 345.667 401.667 407 545c17.333 37.333 26 81 26 131c0 42 -13.667 77 -41 105c-27.333 29.333 -63 44 -107 44c-68.667 0 -127.334 -43.333 -176.001 -130c-3.33301 -2 -5.66602 -3 -6.99902 -3c-10.667 0 -20.334 4.33301 -29.001 13
c-3.33301 2.66699 -4.66602 6.66699 -3.99902 12c27.333 56.667 63 102 107 136c50 42 105 63 165 63c66 0 120 -22.667 162 -68c40 -44.667 60 -99.667 60 -165c0 -68 -26.667 -139.333 -80 -214c-26.667 -36.667 -66.334 -86.334 -119.001 -149.001l-202 -226
c-8 -8 -12 -14.333 -12 -19c0 -8.66699 7 -13 21 -13h212c49.333 0 87.333 5 114 15c38.667 14.667 64.667 39.334 78 74.001c1.33301 2.66699 5 4 11 4c14 0 23.333 -3 28 -9l2 -6z" />
    <glyph glyph-name="uni2462" unicode="&#x33;&#x20dd;" horiz-adv-x="2053" 
d="M100 434c0 197.333 57.001 376.333 171.001 537c103.333 144.667 237 251 401 319c113.333 47.333 231.666 71 354.999 71c198 0 377 -57.333 537 -172c145.333 -103.333 252 -237.333 320 -402c46 -112.667 69 -230.334 69 -353.001c0 -198 -57.333 -377.333 -172 -538
c-60 -84 -131.667 -156 -215 -216c-160.667 -114.667 -340.334 -172 -539.001 -172c-198 0 -377.333 57 -538 171c-145.333 104 -251.666 238 -318.999 402c-46.667 112.667 -70 230.334 -70 353.001zM184.001 434c0 -183.333 53.666 -348.667 160.999 -496
c98.667 -134.667 226 -231.667 382 -291c96 -36.667 196 -55 300 -55c184 0 350 54.333 498 163c134.667 98.667 231.334 226 290.001 382c36 95.333 54 194.333 54 297c0 184 -54 350 -162 498c-98.667 134.667 -225.667 231.667 -381 291c-96 36 -195.667 54 -299 54
c-184 0 -350 -54 -498 -162c-70 -51.333 -130.667 -112.333 -182 -183c-108.667 -148 -163 -314 -163 -498zM1273 294.999c0 -88.667 -31.3311 -162.997 -93.998 -222.997c-64 -58.667 -139 -88 -225 -88c-74 0 -129 15 -165 45c-20.667 17.333 -31 38 -31 62
c0 20 10.333 35.333 31 46c8 4.66699 16.667 7 26 7c16 0 40 -17.667 72 -53c33.333 -35.333 68.333 -53 105 -53c51.333 0 92.666 27.667 123.999 83c24 44.667 36 96 36 154c0 63.333 -17.333 114.666 -52 153.999c-36.667 41.333 -86.334 62 -149.001 62
c-31.333 0 -58 -3.33301 -80 -10c-7.33301 0 -11 9.66699 -11 29c0 17.333 3.66699 26 11 26c92.667 0 161 25.667 205 77c27.333 32 41 71.333 41 118c0 52 -18.667 92 -56 120c-22.667 16 -48.667 24 -78 24c-55.333 0 -104.333 -32.667 -147 -98c0 -2 -1.66699 -3 -5 -3
c-10.667 0 -20 5.33301 -28 16c-3.33301 4 -5 8 -5 12c0 1.33301 0.666992 2.66602 2 3.99902c65.333 96.667 142.333 145 231 145c53.333 0 99.333 -20.333 138 -61c37.333 -40.667 56 -87 56 -139c0 -79.333 -43 -144 -129 -194c-16 -8.66699 -24 -14.667 -24 -18
c0 -4.66699 7 -8.33398 21 -11.001c120 -24 180 -101.667 180 -233z" />
    <glyph glyph-name="uni2463" unicode="&#x34;&#x20dd;" horiz-adv-x="2053" 
d="M100 434c0 197.333 57.001 376.333 171.001 537c103.333 144.667 237 251 401 319c113.333 47.333 231.666 71 354.999 71c198 0 377 -57.333 537 -172c145.333 -103.333 252 -237.333 320 -402c46 -112.667 69 -230.334 69 -353.001c0 -198 -57.333 -377.333 -172 -538
c-60 -84 -131.667 -156 -215 -216c-160.667 -114.667 -340.334 -172 -539.001 -172c-198 0 -377.333 57 -538 171c-145.333 104 -251.666 238 -318.999 402c-46.667 112.667 -70 230.334 -70 353.001zM184.001 434c0 -183.333 53.666 -348.667 160.999 -496
c98.667 -134.667 226 -231.667 382 -291c96 -36.667 196 -55 300 -55c184 0 350 54.333 498 163c134.667 98.667 231.334 226 290.001 382c36 95.333 54 194.333 54 297c0 184 -54 350 -162 498c-98.667 134.667 -225.667 231.667 -381 291c-96 36 -195.667 54 -299 54
c-184 0 -350 -54 -498 -162c-70 -51.333 -130.667 -112.333 -182 -183c-108.667 -148 -163 -314 -163 -498zM1310 278.999l-82 0.000976562c-12 0 -18 -4.66699 -18 -14v-174c0 -36.667 29 -55 87 -55c6.66699 0 10 -7.33301 10 -22c0 -12.667 -3.33301 -19 -10 -19
c-34 3.33301 -79 5 -135 5c-76 -0 -133.667 -1.66699 -173 -5c-6.66699 0 -10 6.33301 -10 19c0 14.667 3.33301 22 10 22c74.667 0 112 18.333 112 55v174c0 9.33301 -4.66699 14 -14 14h-340c-32.667 0 -49 9.33301 -49 28c0 12.667 11.333 33.667 34 63l157 215
c117.333 159.333 217.333 302.666 300 429.999c4 6.66699 13.333 10 28 10c27.333 0 41 -7 41 -21v-1l-461 -639c-4.66699 -6 -7 -10.333 -7 -13c0 -6.66699 6.66699 -10 20 -10h277c9.33301 0 14 4.66699 14 14v317c0 6 18.333 9 55 9c36 0 54 -3 54 -9v-317
c0 -9.33301 6 -14 18 -14h82c7.33301 0 11 -10.667 11 -32c0 -20 -3.66699 -30 -11 -30z" />
    <glyph glyph-name="uni2464" unicode="&#x35;&#x20dd;" horiz-adv-x="2053" 
d="M100 434c0 197.333 57.001 376.333 171.001 537c103.333 144.667 237 251 401 319c113.333 47.333 231.666 71 354.999 71c198 0 377 -57.333 537 -172c145.333 -103.333 252 -237.333 320 -402c46 -112.667 69 -230.334 69 -353.001c0 -198 -57.333 -377.333 -172 -538
c-60 -84 -131.667 -156 -215 -216c-160.667 -114.667 -340.334 -172 -539.001 -172c-198 0 -377.333 57 -538 171c-145.333 104 -251.666 238 -318.999 402c-46.667 112.667 -70 230.334 -70 353.001zM184.001 434c0 -183.333 53.666 -348.667 160.999 -496
c98.667 -134.667 226 -231.667 382 -291c96 -36.667 196 -55 300 -55c184 0 350 54.333 498 163c134.667 98.667 231.334 226 290.001 382c36 95.333 54 194.333 54 297c0 184 -54 350 -162 498c-98.667 134.667 -225.667 231.667 -381 291c-96 36 -195.667 54 -299 54
c-184 0 -350 -54 -498 -162c-70 -51.333 -130.667 -112.333 -182 -183c-108.667 -148 -163 -314 -163 -498zM1268 352.999c0 -102.667 -30.6631 -188.334 -91.9961 -257.001c-64.667 -72 -147.667 -108 -249 -108c-72.667 0 -123.334 15 -152.001 45
c-12.667 13.333 -19 28.666 -19 45.999c0 25.333 11.333 43 34 53c7.33301 3.33301 15.333 5 24 5c19.333 0 45.333 -15 78 -45c33.333 -30 65.333 -45 96 -45c51.333 0 96.333 28 135 84c32 48 48 100.667 48 158c0 110 -40.333 182.667 -121 218
c-32.667 14.667 -71 22 -115 22c-24.667 0 -55.334 -4.33301 -92.001 -13l-11 1c-6 2.66699 -9 7.66699 -9 15c0 2.66699 0.333008 5.33398 1 8.00098l65 378c3.33301 14 11.333 21 24 21h335c3.33301 0 5 -4 5 -12c0 -17.333 -3.33301 -35.666 -10 -54.999
c-8 -23.333 -14.333 -35 -19 -35h-273c-14 0 -22 -6.33301 -24 -19l-30 -167v-12c1.33301 -3.33301 4.66602 -5 9.99902 -5c1.33301 0 3.66602 0.333008 6.99902 1c22.667 1.33301 39 2 49 2c122 0 208.667 -39.333 260 -118c30 -44.667 45 -100 45 -166z" />
    <glyph glyph-name="uni2465" unicode="&#x36;&#x20dd;" horiz-adv-x="2053" 
d="M100 434c0 197.333 57.001 376.333 171.001 537c103.333 144.667 237 251 401 319c113.333 47.333 231.666 71 354.999 71c198 0 377 -57.333 537 -172c145.333 -103.333 252 -237.333 320 -402c46 -112.667 69 -230.334 69 -353.001c0 -198 -57.333 -377.333 -172 -538
c-60 -84 -131.667 -156 -215 -216c-160.667 -114.667 -340.334 -172 -539.001 -172c-198 0 -377.333 57 -538 171c-145.333 104 -251.666 238 -318.999 402c-46.667 112.667 -70 230.334 -70 353.001zM184.001 434c0 -183.333 53.666 -348.667 160.999 -496
c98.667 -134.667 226 -231.667 382 -291c96 -36.667 196 -55 300 -55c184 0 350 54.333 498 163c134.667 98.667 231.334 226 290.001 382c36 95.333 54 194.333 54 297c0 184 -54 350 -162 498c-98.667 134.667 -225.667 231.667 -381 291c-96 36 -195.667 54 -299 54
c-184 0 -350 -54 -498 -162c-70 -51.333 -130.667 -112.333 -182 -183c-108.667 -148 -163 -314 -163 -498zM1305 278.999c0 -80.667 -25.6641 -148.669 -76.9971 -204.002c-56 -58 -123 -87 -201 -87c-88.667 0 -156.667 36.333 -204 109c-41.333 62 -62 140.333 -62 235
c0 134.667 47 264 141 388c82 104.667 173.333 184 274 238c15.333 8 31.666 16 48.999 24l8 -1c3.33301 -1.33301 6.66602 -4.33301 9.99902 -9c3.33301 -5.33301 5 -10.666 5 -15.999s-1.33301 -8.33301 -4 -9c-154 -87.333 -258.667 -202.666 -314 -345.999
c-18.667 -47.333 -32.334 -98.333 -41.001 -153c73.333 65.333 137.333 98 192 98c66.667 0 121.667 -28.333 165 -85c39.333 -53.333 59 -114 59 -182zM1195 234.997c0 59.333 -13.667 110.667 -41 154c-32 50.667 -75.333 76 -130 76s-102 -26 -142 -78
c-2.66699 -28 -4 -47.667 -4 -59c0 -68.667 9.66699 -129.334 29 -182.001c17.333 -49.333 49 -81.333 95 -96c14 -4 28.333 -6 43 -6c46.667 0 83.667 21 111 63c26 36.667 39 79.334 39 128.001z" />
    <glyph glyph-name="uni2466" unicode="&#x37;&#x20dd;" horiz-adv-x="2053" 
d="M100 434c0 197.333 57.001 376.333 171.001 537c103.333 144.667 237 251 401 319c113.333 47.333 231.666 71 354.999 71c198 0 377 -57.333 537 -172c145.333 -103.333 252 -237.333 320 -402c46 -112.667 69 -230.334 69 -353.001c0 -198 -57.333 -377.333 -172 -538
c-60 -84 -131.667 -156 -215 -216c-160.667 -114.667 -340.334 -172 -539.001 -172c-198 0 -377.333 57 -538 171c-145.333 104 -251.666 238 -318.999 402c-46.667 112.667 -70 230.334 -70 353.001zM184.001 434c0 -183.333 53.666 -348.667 160.999 -496
c98.667 -134.667 226 -231.667 382 -291c96 -36.667 196 -55 300 -55c184 0 350 54.333 498 163c134.667 98.667 231.334 226 290.001 382c36 95.333 54 194.333 54 297c0 184 -54 350 -162 498c-98.667 134.667 -225.667 231.667 -381 291c-96 36 -195.667 54 -299 54
c-184 0 -350 -54 -498 -162c-70 -51.333 -130.667 -112.333 -182 -183c-108.667 -148 -163 -314 -163 -498zM1324 900.999l-364.001 -901c-2 -6.66699 -17.667 -10 -47 -10h-12c-32 0 -48 3.33301 -48 10l36 71l45 99l283 642c4 12 6 18.667 6 20c0 6.66699 -8 10 -24 10
h-153c-74.667 0 -124.667 -2.66699 -150 -8c-50 -14 -85 -45.333 -105 -94c-2 -6.66699 -10 -10 -24 -10c-11.333 0 -17.333 3.33301 -18 10l37 177c2.66699 14 12.334 21 29.001 21h486c18.667 0 28 -5.33301 28 -16c0 -5.33301 -1.66699 -12.333 -5 -21z" />
    <glyph glyph-name="uni2467" unicode="&#x38;&#x20dd;" horiz-adv-x="2053" 
d="M100 434c0 197.333 57.001 376.333 171.001 537c103.333 144.667 237 251 401 319c113.333 47.333 231.666 71 354.999 71c198 0 377 -57.333 537 -172c145.333 -103.333 252 -237.333 320 -402c46 -112.667 69 -230.334 69 -353.001c0 -198 -57.333 -377.333 -172 -538
c-60 -84 -131.667 -156 -215 -216c-160.667 -114.667 -340.334 -172 -539.001 -172c-198 0 -377.333 57 -538 171c-145.333 104 -251.666 238 -318.999 402c-46.667 112.667 -70 230.334 -70 353.001zM184.001 434c0 -183.333 53.666 -348.667 160.999 -496
c98.667 -134.667 226 -231.667 382 -291c96 -36.667 196 -55 300 -55c184 0 350 54.333 498 163c134.667 98.667 231.334 226 290.001 382c36 95.333 54 194.333 54 297c0 184 -54 350 -162 498c-98.667 134.667 -225.667 231.667 -381 291c-96 36 -195.667 54 -299 54
c-184 0 -350 -54 -498 -162c-70 -51.333 -130.667 -112.333 -182 -183c-108.667 -148 -163 -314 -163 -498zM1297 236.999c0 -72.667 -26.667 -132.668 -80 -180.001c-53.333 -46 -115.666 -69 -186.999 -69c-72 0 -134.333 20.667 -187 62c-52.667 42.667 -79 101 -79 175
c0 99.333 65 183 195 251c-56 36.667 -95.667 70.334 -119 101.001c-30.667 40 -47.334 81.333 -50.001 124v17c0 64.667 23.333 120.334 70 167.001c45.333 43.333 102 65 170 65c95.333 0 163 -30.333 203 -91c22 -32.667 33 -72.334 33 -119.001
c0 -99.333 -54 -177 -162 -233c128.667 -82.667 193 -172.667 193 -270zM1167 710.998c0 67.333 -20.666 118.332 -61.999 152.999c-26 21.333 -56.667 32 -92 32c-52.667 0 -92 -19 -118 -57l-14 -26l-7 -29c-0.666992 -5.33301 -1 -11 -1 -17c0 -48 22 -93.333 66 -136
c25.333 -25.333 67.666 -56.333 126.999 -93c67.333 46.667 101 104.334 101 173.001zM1195 185.997c0 61.333 -21 111.666 -63 150.999c-44 42 -87 77 -129 105l-4 3c-82.667 -48 -124 -116.333 -124 -205c0 -54.667 16 -101.667 48 -141c35.333 -42 78 -63 128 -63
c52.667 0 92.667 21.333 120 64c16 24.667 24 53.334 24 86.001z" />
    <glyph glyph-name="uni2468" unicode="&#x39;&#x20dd;" horiz-adv-x="2053" 
d="M100 434c0 197.333 57.001 376.333 171.001 537c103.333 144.667 237 251 401 319c113.333 47.333 231.666 71 354.999 71c198 0 377 -57.333 537 -172c145.333 -103.333 252 -237.333 320 -402c46 -112.667 69 -230.334 69 -353.001c0 -198 -57.333 -377.333 -172 -538
c-60 -84 -131.667 -156 -215 -216c-160.667 -114.667 -340.334 -172 -539.001 -172c-198 0 -377.333 57 -538 171c-145.333 104 -251.666 238 -318.999 402c-46.667 112.667 -70 230.334 -70 353.001zM184.001 434c0 -183.333 53.666 -348.667 160.999 -496
c98.667 -134.667 226 -231.667 382 -291c96 -36.667 196 -55 300 -55c184 0 350 54.333 498 163c134.667 98.667 231.334 226 290.001 382c36 95.333 54 194.333 54 297c0 184 -54 350 -162 498c-98.667 134.667 -225.667 231.667 -381 291c-96 36 -195.667 54 -299 54
c-184 0 -350 -54 -498 -162c-70 -51.333 -130.667 -112.333 -182 -183c-108.667 -148 -163 -314 -163 -498zM1300 615.999c0 -132.667 -46.999 -259.664 -140.999 -380.997c-81.333 -106.667 -187 -193.334 -317 -260.001h-7c-3.33301 2 -7 5.66699 -11 11
c-6.66699 8.66699 -10 17.334 -10 26.001c0 2.66699 1.33301 5 4 7c92.667 54.667 170.334 119 233.001 193c46.667 53.333 83 130.333 109 231c4 15.333 7.33301 30.666 10 45.999c-59.333 -64 -120.333 -96 -183 -96c-66 0 -122 26.333 -168 79
c-42 50.667 -63 109 -63 175c0 87.333 24.333 158.666 73 213.999c51.333 59.333 119.666 89 204.999 89s152.666 -35.667 201.999 -107c42.667 -62.667 64 -138.334 64 -227.001zM1181 615.002c0 73.333 -10.333 132.999 -31 178.999c-29.333 65.333 -75 98 -137 98
c-48 0 -85.333 -22 -112 -66c-22.667 -36.667 -34 -80 -34 -130c0 -57.333 13.333 -106.666 40 -147.999c32 -50.667 73.667 -76 125 -76c54 0 102.333 26.667 145 80c2.66699 18 4 39 4 63z" />
    <glyph glyph-name="uni2469" unicode="&#x31;&#x30;&#x20dd;" horiz-adv-x="2053" 
d="M100 434c0 197.333 57.001 376.333 171.001 537c103.333 144.667 237 251 401 319c113.333 47.333 231.666 71 354.999 71c198 0 377 -57.333 537 -172c145.333 -103.333 252 -237.333 320 -402c46 -112.667 69 -230.334 69 -353.001c0 -198 -57.333 -377.333 -172 -538
c-60 -84 -131.667 -156 -215 -216c-160.667 -114.667 -340.334 -172 -539.001 -172c-198 0 -377.333 57 -538 171c-145.333 104 -251.666 238 -318.999 402c-46.667 112.667 -70 230.334 -70 353.001zM184.001 434c0 -183.333 53.666 -348.667 160.999 -496
c98.667 -134.667 226 -231.667 382 -291c96 -36.667 196 -55 300 -55c184 0 350 54.333 498 163c134.667 98.667 231.334 226 290.001 382c36 95.333 54 194.333 54 297c0 184 -54 350 -162 498c-98.667 134.667 -225.667 231.667 -381 291c-96 36 -195.667 54 -299 54
c-184 0 -350 -54 -498 -162c-70 -51.333 -130.667 -112.333 -182 -183c-108.667 -148 -163 -314 -163 -498zM871 -5.00098c-42 3.33301 -104.334 5 -187.001 5c-84 0 -147 -1.66699 -189 -5c-7.33301 0 -11 6.33301 -11 19c0 14.667 3.66699 22 11 22c57.333 0 93 6 107 18
c22 18 33 62 33 132v620c0 21.333 -5.33301 32 -16 32c-5.33301 0 -11 -1.33301 -17 -4l-92 -42c-11.333 0 -17 8 -17 24c0 4 1 7 3 9c94.667 45.333 171.667 95.333 231 150c4.66699 3.33301 8.66699 5 12 5c6 0 9 -3.33301 9 -10l-3 -121v-2v-660
c0 -58 5.33301 -96.333 16 -115c16.667 -24 53.334 -36 110.001 -36c6.66699 0 10 -7.33301 10 -22c0 -12.667 -3.33301 -19 -10 -19zM1644 457.999c0 -115.333 -19.667 -215.669 -59 -301.002c-54 -112.667 -131.333 -169 -232 -169c-107.333 0 -186 58 -236 174
c-36.667 88.667 -55 193.334 -55 314.001c0 118.667 19.333 220.334 58 305.001c50.667 112.667 128.667 169 234 169c106.667 0 185 -59 235 -177c36.667 -87.333 55 -192.333 55 -315zM1518 448.996c0 110.667 -9.66699 214.333 -29 311c-20 96 -64.667 144 -134 144
c-65.333 0 -112 -56.667 -140 -170c-19.333 -71.333 -29 -154 -29 -248c0 -96 4 -171 12 -225c14.667 -91.333 44 -157.333 88 -198c17.333 -17.333 39.333 -26 66 -26c110.667 0 166 137.333 166 412z" />
    <glyph glyph-name="uni246A" unicode="&#x31;&#x31;&#x20dd;" horiz-adv-x="2053" 
d="M100 434c0 197.333 57.001 376.333 171.001 537c103.333 144.667 237 251 401 319c113.333 47.333 231.666 71 354.999 71c198 0 377 -57.333 537 -172c145.333 -103.333 252 -237.333 320 -402c46 -112.667 69 -230.334 69 -353.001c0 -198 -57.333 -377.333 -172 -538
c-60 -84 -131.667 -156 -215 -216c-160.667 -114.667 -340.334 -172 -539.001 -172c-198 0 -377.333 57 -538 171c-145.333 104 -251.666 238 -318.999 402c-46.667 112.667 -70 230.334 -70 353.001zM184.001 434c0 -183.333 53.666 -348.667 160.999 -496
c98.667 -134.667 226 -231.667 382 -291c96 -36.667 196 -55 300 -55c184 0 350 54.333 498 163c134.667 98.667 231.334 226 290.001 382c36 95.333 54 194.333 54 297c0 184 -54 350 -162 498c-98.667 134.667 -225.667 231.667 -381 291c-96 36 -195.667 54 -299 54
c-184 0 -350 -54 -498 -162c-70 -51.333 -130.667 -112.333 -182 -183c-108.667 -148 -163 -314 -163 -498zM918 -5.00098c-41.333 3.33301 -103.667 5 -187 5c-85.333 0 -148.333 -1.66699 -189 -5c-7.33301 0 -11 6.33301 -11 19c0 14.667 3.66699 22 11 22
c57.333 0 93 6 107 18c21.333 18 32 62 32 132v620c0 21.333 -5 32 -15 32c-6 0 -11.667 -1.33301 -17 -4l-92 -42c-12.667 0 -19 8 -19 24c0 2.66699 1.66699 5.66699 5 9c93.333 45.333 170.333 95.333 231 150c3.33301 3.33301 7.33301 5 12 5
c5.33301 0 8 -3.33301 8 -10l-3 -121v-2v-660c0 -56.667 5.33301 -95 16 -115c16.667 -24 53.667 -36 111 -36c6 0 9 -7.33301 9 -22c0 -12.667 -3 -19 -9 -19zM1598 -5.00098c-41.333 3.33301 -103.667 4.99902 -187 4.99902c-84.667 0 -147.667 -1.66699 -189 -5
c-7.33301 0 -11 6.33301 -11 19c0 14.667 3.66699 22 11 22c57.333 0 93 6 107 18c21.333 17.333 32 61.333 32 132v620c0 21.333 -5 32 -15 32c-5.33301 0 -11 -1.33301 -17 -4l-92 -42c-12 0 -18 8 -18 24c0 3.33301 1.33301 6.33301 4 9
c94.667 45.333 171.667 95.333 231 150c4.66699 3.33301 8.66699 5 12 5c6 0 9 -3.33301 9 -10l-4 -121v-2v-660c0 -57.333 5.66699 -95.666 17 -114.999c16 -24 52.667 -36 110 -36c6.66699 0 10 -7.33301 10 -22c0 -12.667 -3.33301 -19 -10 -19z" />
    <glyph glyph-name="uni246B" unicode="&#x31;&#x32;&#x20dd;" horiz-adv-x="2053" 
d="M100 434c0 197.333 57.001 376.333 171.001 537c103.333 144.667 237 251 401 319c113.333 47.333 231.666 71 354.999 71c198 0 377 -57.333 537 -172c145.333 -103.333 252 -237.333 320 -402c46 -112.667 69 -230.334 69 -353.001c0 -198 -57.333 -377.333 -172 -538
c-60 -84 -131.667 -156 -215 -216c-160.667 -114.667 -340.334 -172 -539.001 -172c-198 0 -377.333 57 -538 171c-145.333 104 -251.666 238 -318.999 402c-46.667 112.667 -70 230.334 -70 353.001zM184.001 434c0 -183.333 53.666 -348.667 160.999 -496
c98.667 -134.667 226 -231.667 382 -291c96 -36.667 196 -55 300 -55c184 0 350 54.333 498 163c134.667 98.667 231.334 226 290.001 382c36 95.333 54 194.333 54 297c0 184 -54 350 -162 498c-98.667 134.667 -225.667 231.667 -381 291c-96 36 -195.667 54 -299 54
c-184 0 -350 -54 -498 -162c-70 -51.333 -130.667 -112.333 -182 -183c-108.667 -148 -163 -314 -163 -498zM865 -0.000976562c-33.333 3.33301 -95.667 5 -187 5c-93.333 0 -156.333 -1.66699 -189 -5c-8 0 -12 6.33301 -12 19c0 14.667 4 22 12 22c54 0 89.667 6 107 18
c21.333 20 32 64 32 132v620c0 21.333 -5 32 -15 32c-6 0 -11.667 -1.33301 -17 -4l-92 -42c-12 0 -18 8.33301 -18 25c0 2 1.33301 5 4 9c92.667 44 169.667 94 231 150c2.66699 2.66699 6.66699 4 12 4c6 0 9 -3.33301 9 -10l-4 -121v-2v-660
c0 -56 5.33301 -93.667 16 -113c17.333 -25.333 54.333 -38 111 -38c6 0 9 -7.33301 9 -22c0 -12.667 -3 -19 -9 -19zM1634 178.999l-72 -154.998c-6 -16 -18 -24 -36 -24l-237 5h-3h-76l-167 -5v0c-20.667 0 -31 9.33301 -31 28c0 5.33301 1.66699 9.66602 5 12.999
c212 222 348 403.333 408 544c17.333 40 26 83.667 26 131c0 43.333 -14 79 -42 107c-27.333 28 -63 42 -107 42c-68 0 -126.333 -43.333 -175 -130c-2 -2 -4.33301 -3 -7 -3c-10.667 0 -20.667 4.66699 -30 14c-2.66699 2.66699 -4 6.66699 -4 12
c28 56.667 64 101.667 108 135c50.667 42 105.667 63 165 63c66 0 120 -22.333 162 -67c40 -46 60 -100.667 60 -164c0 -70.667 -26.333 -142.334 -79 -215.001c-33.333 -45.333 -73.333 -95 -120 -149l-202 -227c-8 -8 -12 -14 -12 -18c0 -9.33301 7.33301 -14 22 -14h211
c50.667 0 89 5.66699 115 17c38 13.333 64 37.333 78 72c0.666992 2.66699 4 4 10 4c15.333 0 25.333 -3.33301 30 -10v-6z" />
    <glyph glyph-name="uni246C" unicode="&#x31;&#x33;&#x20dd;" horiz-adv-x="2053" 
d="M100 434c0 197.333 57.001 376.333 171.001 537c103.333 144.667 237 251 401 319c113.333 47.333 231.666 71 354.999 71c198 0 377 -57.333 537 -172c145.333 -103.333 252 -237.333 320 -402c46 -112.667 69 -230.334 69 -353.001c0 -198 -57.333 -377.333 -172 -538
c-60 -84 -131.667 -156 -215 -216c-160.667 -114.667 -340.334 -172 -539.001 -172c-198 0 -377.333 57 -538 171c-145.333 104 -251.666 238 -318.999 402c-46.667 112.667 -70 230.334 -70 353.001zM184.001 434c0 -183.333 53.666 -348.667 160.999 -496
c98.667 -134.667 226 -231.667 382 -291c96 -36.667 196 -55 300 -55c184 0 350 54.333 498 163c134.667 98.667 231.334 226 290.001 382c36 95.333 54 194.333 54 297c0 184 -54 350 -162 498c-98.667 134.667 -225.667 231.667 -381 291c-96 36 -195.667 54 -299 54
c-184 0 -350 -54 -498 -162c-70 -51.333 -130.667 -112.333 -182 -183c-108.667 -148 -163 -314 -163 -498zM886 -5.00098c-40 3.33301 -102.001 5 -186.001 5c-85.333 0 -148.333 -1.66699 -189 -5c-7.33301 0 -11 6.33301 -11 19c0 14.667 3.66699 22 11 22
c56.667 0 92.334 6 107.001 18c21.333 18 32 62 32 132v620c0 21.333 -5 32 -15 32c-5.33301 0 -11 -1.33301 -17 -4l-92 -42c-12 0 -18 8 -18 24c0 4 1.66699 7 5 9c92.667 45.333 169.667 95.333 231 150c2 3.33301 5.33301 5 10 5c6.66699 0 10 -3.33301 10 -10l-4 -121
v-2v-660c0 -58.667 5.66699 -97 17 -115c16 -24 52.333 -36 109 -36c7.33301 0 11 -7.33301 11 -22c0 -12.667 -3.66699 -19 -11 -19zM1612 294.999c0 -88 -31.666 -162.334 -94.999 -223.001c-62.667 -58.667 -137.667 -88 -225 -88c-73.333 0 -128 15 -164 45
c-20.667 17.333 -31 38 -31 62c0 20 10.333 35.333 31 46c8 4.66699 16.667 7 26 7c16 0 40 -17.667 72 -53c32.667 -35.333 67.334 -53 104.001 -53c51.333 0 92.666 27.667 123.999 83c24.667 44.667 37 96 37 154c0 62 -17.667 113.333 -53 154
c-35.333 41.333 -84.666 62 -147.999 62c-31.333 0 -58.333 -3.33301 -81 -10c-6.66699 0 -10 9.66699 -10 29c0 17.333 3.33301 26 10 26c92.667 0 161 25.667 205 77c27.333 32 41 71.333 41 118c0 52 -18.667 92 -56 120c-22.667 16 -48.667 24 -78 24
c-54.667 0 -103.334 -32.667 -146.001 -98c-0.666992 -2 -2.33398 -3 -5.00098 -3c-11.333 0 -21 5.66699 -29 17c-2.66699 4 -4 7.66699 -4 11c0 2 0.333008 3.33301 1 4c65.333 96.667 142.666 145 231.999 145c54.667 0 100.334 -20.333 137.001 -61
c37.333 -39.333 56 -85.666 56 -138.999c0 -80 -43 -144.667 -129 -194c-15.333 -8 -23 -14 -23 -18s6.66699 -7.66699 20 -11c120.667 -24 181 -101.667 181 -233z" />
    <glyph glyph-name="uni246D" unicode="&#x31;&#x34;&#x20dd;" horiz-adv-x="2053" 
d="M100 434c0 197.333 57.001 376.333 171.001 537c103.333 144.667 237 251 401 319c113.333 47.333 231.666 71 354.999 71c198 0 377 -57.333 537 -172c145.333 -103.333 252 -237.333 320 -402c46 -112.667 69 -230.334 69 -353.001c0 -198 -57.333 -377.333 -172 -538
c-60 -84 -131.667 -156 -215 -216c-160.667 -114.667 -340.334 -172 -539.001 -172c-198 0 -377.333 57 -538 171c-145.333 104 -251.666 238 -318.999 402c-46.667 112.667 -70 230.334 -70 353.001zM184.001 434c0 -183.333 53.666 -348.667 160.999 -496
c98.667 -134.667 226 -231.667 382 -291c96 -36.667 196 -55 300 -55c184 0 350 54.333 498 163c134.667 98.667 231.334 226 290.001 382c36 95.333 54 194.333 54 297c0 184 -54 350 -162 498c-98.667 134.667 -225.667 231.667 -381 291c-96 36 -195.667 54 -299 54
c-184 0 -350 -54 -498 -162c-70 -51.333 -130.667 -112.333 -182 -183c-108.667 -148 -163 -314 -163 -498zM826 -5.00098c-41.333 3.33301 -103.667 4.99902 -187 4.99902c-84.667 0 -147.667 -1.66699 -189 -5c-7.33301 0 -11 6.33301 -11 19c0 14.667 3.66699 22 11 22
c57.333 0 93 6 107 18c21.333 18 32 62 32 132v620c0 21.333 -5 32 -15 32c-6 0 -11.667 -1.33301 -17 -4l-92 -42c-11.333 0 -17 8 -17 24c0 4 1.33301 7 4 9c92 44.667 168.667 94.667 230 150c3.33301 3.33301 7.33301 5 12 5c6.66699 0 10 -3.33301 10 -10l-5 -116v-7
v-660c0 -57.333 5.66699 -95.666 17 -114.999c17.333 -24 54 -36 110 -36c6 0 9 -7.33301 9 -22c0 -12.667 -3 -19 -9 -19zM1587 278.998h-81.999c-10.667 0 -16 -4.66699 -16 -14v-174c0 -36.667 28.333 -55 85 -55c7.33301 0 11 -7.33301 11 -22
c0 -12.667 -3.66699 -19 -11 -19c-34 3.33301 -79 5 -135 5c-75.333 0 -133 -1.66699 -173 -5c-6 0 -9 6.33301 -9 19c0 14.667 3 22 9 22c76 0 114 18.333 114 55v174c0 9.33301 -5 14 -15 14h-341c-32 0 -48 9.33301 -48 28c0 10.667 11 31.667 33 63l159 215
c129.333 178 228.666 321.333 297.999 430c4.66699 6.66699 14 10 28 10c27.333 0 41 -7 41 -21v-1l-461 -639c-4 -6.66699 -6 -11 -6 -13c0 -6.66699 6.33301 -10 19 -10h278c10 0 15 4.66699 15 14v317c0 6 18 9 54 9c36.667 0 55 -3 55 -9v-317
c0 -9.33301 5.33301 -14 16 -14h82c8 0 12 -10.667 12 -32c0 -20 -4 -30 -12 -30z" />
    <glyph glyph-name="uni246E" unicode="&#x31;&#x35;&#x20dd;" horiz-adv-x="2053" 
d="M100 434c0 197.333 57.001 376.333 171.001 537c103.333 144.667 237 251 401 319c113.333 47.333 231.666 71 354.999 71c198 0 377 -57.333 537 -172c145.333 -103.333 252 -237.333 320 -402c46 -112.667 69 -230.334 69 -353.001c0 -198 -57.333 -377.333 -172 -538
c-60 -84 -131.667 -156 -215 -216c-160.667 -114.667 -340.334 -172 -539.001 -172c-198 0 -377.333 57 -538 171c-145.333 104 -251.666 238 -318.999 402c-46.667 112.667 -70 230.334 -70 353.001zM184.001 434c0 -183.333 53.666 -348.667 160.999 -496
c98.667 -134.667 226 -231.667 382 -291c96 -36.667 196 -55 300 -55c184 0 350 54.333 498 163c134.667 98.667 231.334 226 290.001 382c36 95.333 54 194.333 54 297c0 184 -54 350 -162 498c-98.667 134.667 -225.667 231.667 -381 291c-96 36 -195.667 54 -299 54
c-184 0 -350 -54 -498 -162c-70 -51.333 -130.667 -112.333 -182 -183c-108.667 -148 -163 -314 -163 -498zM853 -5.00098c-40.667 3.33301 -103 5 -187 5c-84.667 0 -147.334 -1.66699 -188.001 -5c-8 0 -12 6.33301 -12 19c0 14.667 4 22 12 22
c56.667 0 92.334 6 107.001 18c20.667 18.667 31 62.667 31 132v620c0 21.333 -5 32 -15 32c-6 0 -11.333 -1.33301 -16 -4l-93 -42c-11.333 0 -17 8 -17 24c0 4 1.33301 7 4 9c91.333 44 168.333 94 231 150c2 3.33301 5.66699 5 11 5c6.66699 0 10 -3.33301 10 -10
l-5 -116v-7v-660c0 -58 6 -96.333 18 -115c16 -24 52.333 -36 109 -36c7.33301 0 11 -7.33301 11 -22c0 -12.667 -3.66699 -19 -11 -19zM1574 352.999c0 -102 -30.999 -187.67 -92.999 -257.003c-64.667 -72 -147.334 -108 -248.001 -108c-73.333 0 -124.666 15 -153.999 45
c-12.667 12.667 -19 28 -19 46c0 24.667 11 42 33 52c8 4 16.333 6 25 6c20 0 46 -15 78 -45c33.333 -28.667 65.333 -43 96 -43c53.333 0 98.666 27.333 135.999 82c32.667 48.667 49 101.334 49 158.001c0 108.667 -40.333 181.334 -121 218.001
c-33.333 14.667 -72.333 22 -117 22c-25.333 0 -55.666 -4.33301 -90.999 -13l-11 1c-6 2.66699 -9 8.66699 -9 18v5l67 378c2 14 9.66699 21 23 21h336c2.66699 0 4 -4 4 -12c0 -17.333 -3.33301 -35.666 -10 -54.999c-8 -23.333 -14.333 -35 -19 -35h-272
c-14 0 -22 -6.33301 -24 -19l-31 -167v-12c1.33301 -3.33301 4.66602 -5 9.99902 -5c1.33301 0 3.66602 0.333008 6.99902 1c22.667 1.33301 38.667 2 48 2c120.667 0 207.334 -38.333 260.001 -115c31.333 -46 47 -102.333 47 -169z" />
    <glyph glyph-name="uni246F" unicode="&#x31;&#x36;&#x20dd;" horiz-adv-x="2053" 
d="M100 434c0 197.333 57.001 376.333 171.001 537c103.333 144.667 237 251 401 319c113.333 47.333 231.666 71 354.999 71c198 0 377 -57.333 537 -172c145.333 -103.333 252 -237.333 320 -402c46 -112.667 69 -230.334 69 -353.001c0 -198 -57.333 -377.333 -172 -538
c-60 -84 -131.667 -156 -215 -216c-160.667 -114.667 -340.334 -172 -539.001 -172c-198 0 -377.333 57 -538 171c-145.333 104 -251.666 238 -318.999 402c-46.667 112.667 -70 230.334 -70 353.001zM184.001 434c0 -183.333 53.666 -348.667 160.999 -496
c98.667 -134.667 226 -231.667 382 -291c96 -36.667 196 -55 300 -55c184 0 350 54.333 498 163c134.667 98.667 231.334 226 290.001 382c36 95.333 54 194.333 54 297c0 184 -54 350 -162 498c-98.667 134.667 -225.667 231.667 -381 291c-96 36 -195.667 54 -299 54
c-184 0 -350 -54 -498 -162c-70 -51.333 -130.667 -112.333 -182 -183c-108.667 -148 -163 -314 -163 -498zM844 -5.00098c-41.333 3.33301 -103.668 5 -187.001 5c-85.333 0 -148.333 -1.66699 -189 -5c-8 0 -12 6.33301 -12 19c0 14.667 4 22 12 22
c56.667 0 92.334 6 107.001 18c22 18 33 62 33 132v620c0 21.333 -5.33301 32 -16 32c-5.33301 0 -11 -1.33301 -17 -4l-92 -42c-12 0 -18 8 -18 24c0 3.33301 1.33301 6.33301 4 9c94.667 45.333 171.667 95.333 231 150c4.66699 3.33301 8.66699 5 12 5
c6 0 9 -3.33301 9 -10l-3 -121v-2v-660c0 -58 5.33301 -96.333 16 -115c16 -24 52.667 -36 110 -36c6.66699 0 10 -7.33301 10 -22c0 -12.667 -3.33301 -19 -10 -19zM1601 278.999c0 -81.333 -26.3301 -149.335 -78.9971 -204.002c-54 -58 -120.333 -87 -199 -87
c-88 0 -156.333 36.333 -205 109c-40.667 62.667 -61 141 -61 235c0 134.667 47 264 141 388c82 104.667 173.333 184 274 238c15.333 8 31.666 16 48.999 24l8 -1c3.33301 -1.33301 6.66602 -4.33301 9.99902 -9c3.33301 -5.33301 5 -10.666 5 -15.999
s-1.33301 -8.33301 -4 -9c-154 -87.333 -258.667 -202.666 -314 -345.999c-18.667 -47.333 -32.334 -98.333 -41.001 -153c73.333 65.333 137.333 98 192 98c66.667 0 121.667 -28.333 165 -85c39.333 -53.333 59 -114 59 -182zM1491 234.997
c0 59.333 -14 110.668 -42 154.001c-30.667 50.667 -74 76 -130 76c-54 0 -101 -26 -141 -78c-2.66699 -18.667 -4 -38.334 -4 -59.001c0 -68.667 9.66699 -129.334 29 -182.001c17.333 -49.333 49 -81 95 -95c13.333 -4 27.333 -6 42 -6c46.667 0 84 20.667 112 62
c26 36.667 39 79.334 39 128.001z" />
    <glyph glyph-name="uni2470" unicode="&#x31;&#x37;&#x20dd;" horiz-adv-x="2053" 
d="M100 434c0 197.333 57.001 376.333 171.001 537c103.333 144.667 237 251 401 319c113.333 47.333 231.666 71 354.999 71c198 0 377 -57.333 537 -172c145.333 -103.333 252 -237.333 320 -402c46 -112.667 69 -230.334 69 -353.001c0 -198 -57.333 -377.333 -172 -538
c-60 -84 -131.667 -156 -215 -216c-160.667 -114.667 -340.334 -172 -539.001 -172c-198 0 -377.333 57 -538 171c-145.333 104 -251.666 238 -318.999 402c-46.667 112.667 -70 230.334 -70 353.001zM184.001 434c0 -183.333 53.666 -348.667 160.999 -496
c98.667 -134.667 226 -231.667 382 -291c96 -36.667 196 -55 300 -55c184 0 350 54.333 498 163c134.667 98.667 231.334 226 290.001 382c36 95.333 54 194.333 54 297c0 184 -54 350 -162 498c-98.667 134.667 -225.667 231.667 -381 291c-96 36 -195.667 54 -299 54
c-184 0 -350 -54 -498 -162c-70 -51.333 -130.667 -112.333 -182 -183c-108.667 -148 -163 -314 -163 -498zM833 -5.00098c-40 3.33301 -102.333 5 -187 5c-84 0 -147 -1.66699 -189 -5c-6.66699 0 -10 6.33301 -10 19c0 14.667 3.33301 22 10 22c57.333 0 93 6 107 18
c22 18 33 62 33 132v620c0 21.333 -5 32 -15 32c-6 0 -12 -1.33301 -18 -4l-91 -42c-12 0 -18 8 -18 24c0 4 1.66699 7 5 9c93.333 45.333 170 95.333 230 150c3.33301 3.33301 7.33301 5 12 5c6 0 9 -3.33301 9 -10l-4 -121v-2v-660c0 -58.667 5.66699 -97 17 -115
c16 -24 52.333 -36 109 -36c6.66699 0 10 -7.33301 10 -22c0 -12.667 -3.33301 -19 -10 -19zM1609 900.999l-364 -901c-2 -6.66699 -17.667 -10 -47 -10h-12c-32 0 -48 3.33301 -48 10c4.66699 7.33301 17 31 37 71l44 99l283 642c4 12 6 18.667 6 20
c0 6.66699 -7.66699 10 -23 10h-154c-74.667 0 -124.667 -2.66699 -150 -8c-50.667 -14 -85.334 -45.333 -104.001 -94c-2.66699 -6.66699 -10.667 -10 -24 -10c-12 0 -18 3.33301 -18 10l36 177c2.66699 14 12.334 21 29.001 21h486c18.667 0 28 -5.33301 28 -16
c0 -5.33301 -1.66699 -12.333 -5 -21z" />
    <glyph glyph-name="uni2471" unicode="&#x31;&#x38;&#x20dd;" horiz-adv-x="2053" 
d="M100 434c0 197.333 57.001 376.333 171.001 537c103.333 144.667 237 251 401 319c113.333 47.333 231.666 71 354.999 71c198 0 377 -57.333 537 -172c145.333 -103.333 252 -237.333 320 -402c46 -112.667 69 -230.334 69 -353.001c0 -198 -57.333 -377.333 -172 -538
c-60 -84 -131.667 -156 -215 -216c-160.667 -114.667 -340.334 -172 -539.001 -172c-198 0 -377.333 57 -538 171c-145.333 104 -251.666 238 -318.999 402c-46.667 112.667 -70 230.334 -70 353.001zM184.001 434c0 -183.333 53.666 -348.667 160.999 -496
c98.667 -134.667 226 -231.667 382 -291c96 -36.667 196 -55 300 -55c184 0 350 54.333 498 163c134.667 98.667 231.334 226 290.001 382c36 95.333 54 194.333 54 297c0 184 -54 350 -162 498c-98.667 134.667 -225.667 231.667 -381 291c-96 36 -195.667 54 -299 54
c-184 0 -350 -54 -498 -162c-70 -51.333 -130.667 -112.333 -182 -183c-108.667 -148 -163 -314 -163 -498zM874 -5.00098c-40.667 3.33301 -102.667 5 -186 5c-86 0 -149 -1.66699 -189 -5c-8 0 -12 6.33301 -12 19c0 14.667 4 22 12 22c56 0 91.333 6 106 18
c22 18 33 62 33 132v620c0 21.333 -5 32 -15 32c-6 0 -12 -1.33301 -18 -4l-91 -42c-12.667 0 -19 8 -19 24c0 4 1.66699 7 5 9c93.333 45.333 170.333 95.333 231 150c3.33301 3.33301 7.33301 5 12 5c5.33301 0 8 -3.33301 8 -10l-3 -121v-2v-660
c0 -60 5.33301 -98.333 16 -115c16 -24 52.667 -36 110 -36c6.66699 0 10 -7.33301 10 -22c0 -12.667 -3.33301 -19 -10 -19zM1623 236.999c0 -72.667 -26.998 -132.667 -80.998 -180c-52 -46 -114.333 -69 -187 -69s-134.667 20.667 -186 62
c-53.333 43.333 -80 101.666 -80 174.999c0 99.333 65 183 195 251c-56 37.333 -95.333 71 -118 101c-30.667 40 -47.334 81.333 -50.001 124v17c0 64.667 23.333 120.334 70 167.001c45.333 43.333 101.666 65 168.999 65c94 0 161.667 -29.667 203 -89
c22.667 -33.333 34 -73.666 34 -120.999c0 -98.667 -53.667 -176.334 -161 -233.001c128 -83.333 192 -173.333 192 -270zM1493 710.999c0 67.333 -20.667 118.332 -62 152.999c-26 21.333 -56.667 32 -92 32c-52.667 0 -92 -19 -118 -57l-14 -26l-7 -29
c-0.666992 -5.33301 -1 -11 -1 -17c0 -48.667 22 -94 66 -136c22.667 -22.667 65 -53.667 127 -93c67.333 46.667 101 104.334 101 173.001zM1521 185.998c0 60.667 -20.668 110.999 -62.001 150.999c-46 42.667 -89.333 77.667 -130 105
c-1.33301 1.33301 -2.66602 2.33301 -3.99902 3c-83.333 -48.667 -125 -117 -125 -205c0 -53.333 16.333 -100.333 49 -141c33.333 -41.333 76.333 -62 129 -62c52 0 91.667 21 119 63c16 24.667 24 53.334 24 86.001z" />
    <glyph glyph-name="uni2472" unicode="&#x31;&#x39;&#x20dd;" horiz-adv-x="2053" 
d="M100 434c0 197.333 57.001 376.333 171.001 537c103.333 144.667 237 251 401 319c113.333 47.333 231.666 71 354.999 71c198 0 377 -57.333 537 -172c145.333 -103.333 252 -237.333 320 -402c46 -112.667 69 -230.334 69 -353.001c0 -198 -57.333 -377.333 -172 -538
c-60 -84 -131.667 -156 -215 -216c-160.667 -114.667 -340.334 -172 -539.001 -172c-198 0 -377.333 57 -538 171c-145.333 104 -251.666 238 -318.999 402c-46.667 112.667 -70 230.334 -70 353.001zM184.001 434c0 -183.333 53.666 -348.667 160.999 -496
c98.667 -134.667 226 -231.667 382 -291c96 -36.667 196 -55 300 -55c184 0 350 54.333 498 163c134.667 98.667 231.334 226 290.001 382c36 95.333 54 194.333 54 297c0 184 -54 350 -162 498c-98.667 134.667 -225.667 231.667 -381 291c-96 36 -195.667 54 -299 54
c-184 0 -350 -54 -498 -162c-70 -51.333 -130.667 -112.333 -182 -183c-108.667 -148 -163 -314 -163 -498zM866 -5.00098c-41.333 3.33301 -103.667 4.99902 -187 4.99902c-84.667 0 -147.667 -1.66699 -189 -5c-7.33301 0 -11 6.33301 -11 19c0 14.667 3.66699 22 11 22
c57.333 0 93 6 107 18c21.333 18 32 62 32 132v620c0 21.333 -5 32 -15 32c-6 0 -11.667 -1.33301 -17 -4l-92 -42c-11.333 0 -17 8 -17 24c0 4 1 7 3 9c92.667 44 169.667 94 231 150c3.33301 3.33301 7.33301 5 12 5c6 0 9 -3.33301 9 -10l-4 -121v-2v-660
c0 -57.333 5.66699 -95.666 17 -114.999c17.333 -24 54 -36 110 -36c6 0 9 -7.33301 9 -22c0 -12.667 -3 -19 -9 -19zM1618 615.998c0 -132.667 -46.998 -259.666 -140.998 -380.999c-81.333 -107.333 -187.333 -194 -318 -260h-7l-11 11c-6.66699 10 -10 18.667 -10 26
c0 2.66699 1.66699 5 5 7c93.333 55.333 171 119.666 233 192.999c47.333 54 84 133.667 110 239c3.33301 12.667 6.33301 25.334 9 38.001c-60 -64 -121.333 -96 -184 -96c-66.667 0 -122.334 26.333 -167.001 79c-42.667 52 -64 110.333 -64 175
c0 86.667 24.667 158 74 214c50 59.333 118.333 89 205 89c85.333 0 152.666 -35.667 201.999 -107c42.667 -62.667 64 -138.334 64 -227.001zM1499 614.999c0 74 -10.668 133.666 -32.001 178.999c-29.333 65.333 -75 98 -137 98c-47.333 0 -84.333 -22 -111 -66
c-23.333 -36 -35 -79.333 -35 -130c0 -57.333 13.333 -106.666 40 -147.999c32.667 -50.667 75 -76 127 -76c52.667 0 100.334 26.667 143.001 80c3.33301 16.667 5 37.667 5 63z" />
    <glyph glyph-name="uni2473" unicode="&#x32;&#x30;&#x20dd;" horiz-adv-x="2053" 
d="M100 434c0 197.333 57.001 376.333 171.001 537c103.333 144.667 237 251 401 319c113.333 47.333 231.666 71 354.999 71c198 0 377 -57.333 537 -172c145.333 -103.333 252 -237.333 320 -402c46 -112.667 69 -230.334 69 -353.001c0 -198 -57.333 -377.333 -172 -538
c-60 -84 -131.667 -156 -215 -216c-160.667 -114.667 -340.334 -172 -539.001 -172c-198 0 -377.333 57 -538 171c-145.333 104 -251.666 238 -318.999 402c-46.667 112.667 -70 230.334 -70 353.001zM184.001 434c0 -183.333 53.666 -348.667 160.999 -496
c98.667 -134.667 226 -231.667 382 -291c96 -36.667 196 -55 300 -55c184 0 350 54.333 498 163c134.667 98.667 231.334 226 290.001 382c36 95.333 54 194.333 54 297c0 184 -54 350 -162 498c-98.667 134.667 -225.667 231.667 -381 291c-96 36 -195.667 54 -299 54
c-184 0 -350 -54 -498 -162c-70 -51.333 -130.667 -112.333 -182 -183c-108.667 -148 -163 -314 -163 -498zM1006 173.999l-70.998 -157c-6.66699 -14.667 -19 -22 -37 -22l-237 5h-3h-75l-168 -5v0c-20.667 0 -31 9 -31 27c0 4.66699 2.33301 9 7 13
c210 220 345.667 401.667 407 545c17.333 37.333 26 81 26 131c0 42 -13.667 77 -41 105c-28.667 29.333 -64.334 44 -107.001 44c-68.667 0 -127.334 -43.333 -176.001 -130c-2.66699 -2 -5 -3 -7 -3c-10 0 -19.333 4 -28 12c-4 3.33301 -5.66699 7.66602 -5 12.999
c27.333 56.667 63 102 107 136c50 42 105 63 165 63c66 0 120 -22.667 162 -68c40 -44.667 60 -99.667 60 -165c0 -68 -26.667 -139.333 -80 -214c-28.667 -39.333 -68.667 -89 -120 -149l-201 -226c-8 -8 -12 -14.333 -12 -19c0 -8.66699 7 -13 21 -13h212
c49.333 0 87.333 5 114 15c38.667 14.667 64.667 39.334 78 74.001c1.33301 2.66699 5 4 11 4c14 0 23.333 -3 28 -9l2 -6zM1690 457.999c0 -115.333 -19.668 -215.667 -59.001 -301c-54 -112.667 -131.333 -169 -232 -169c-107.333 0 -185.666 58 -234.999 174
c-36.667 86 -55 190.667 -55 314c0 120 19 221.667 57 305c52 113.333 130 170 234 170c106 0 184.667 -59.333 236 -178c36 -88 54 -193 54 -315zM1564 448.998c0 115.333 -9.66699 219.001 -29 311.001c-19.333 96 -64 144 -134 144c-65.333 0 -112 -56.667 -140 -170
c-18.667 -72.667 -28 -155.334 -28 -248.001c0 -101.333 4 -176.333 12 -225c14.667 -92 43.667 -158 87 -198c18 -17.333 40 -26 66 -26c110.667 0 166 137.333 166 412z" />
    <glyph glyph-name="uni2474" unicode="&#x28;&#x31;&#x29;" horiz-adv-x="2283" 
d="M2142 588c0 -174.667 -45.667 -360.999 -137 -558.999c-64 -136.667 -154 -259 -270 -367c-10.667 -10.667 -23.667 -16 -39 -16c-12.667 0 -24.334 6 -35.001 18c-4 4 -6 8 -6 12c0 11.333 6 23 18 35c220 228 330 520.333 330 877c0 354 -110.667 645.333 -332 874
c-10.667 10.667 -16 23.667 -16 39c0 8 8 16 24 24c6.66699 3.33301 12.334 5 17.001 5c15.333 0 28.333 -4.66699 39 -14c129.333 -121.333 225.333 -245 288 -371c79.333 -160.667 119 -346.334 119 -557.001zM1432 -7.99902
c-52.667 5.33301 -139.998 8.00098 -261.998 8.00098c-124 0 -212.333 -2.66699 -265 -8c-9.33301 0 -14 9.33301 -14 28c0 19.333 4.66699 29 14 29c78 0 128 9 150 27c30 26 45 87.333 45 184v870c0 31.333 -7 47 -21 47c-5.33301 0 -13.333 -2.66699 -24 -8l-129 -59
c-13.333 0 -22 7.33301 -26 22c-1.33301 6 -1.33301 11 0 15s3.66602 7.33301 6.99902 10c130.667 63.333 238.667 133.666 324 210.999c4 4 9.33301 6 16 6c8 0 12.333 -4.66699 13 -14c-4 -60 -6 -117.333 -6 -172v-926c0 -80.667 8 -134 24 -160
c23.333 -35.333 74.666 -53 153.999 -53c9.33301 0 14 -9.33301 14 -28c0 -19.333 -4.66699 -29 -14 -29zM647.002 -323.998c0 -8.66699 -8.33301 -17.001 -25 -25.001l-16 -5c-12.667 0 -25.667 5.33301 -39 16c-128.667 116 -224.667 239 -288 369
c-79.333 160 -119 345.667 -119 557c0 174.667 45.667 361 137 559c60.667 132.667 150.667 255.667 270 369c10.667 9.33301 23.667 14 39 14c12 0 23.667 -5.66699 35 -17c4 -4.66699 6 -8.66699 6 -12c0 -11.333 -6 -23.666 -18 -36.999
c-220 -230.667 -330 -522.667 -330 -876c0 -350 111.333 -642.333 334 -877c9.33301 -9.33301 14 -21 14 -35z" />
    <glyph glyph-name="uni2475" unicode="&#x28;&#x32;&#x29;" horiz-adv-x="2283" 
d="M2142 588c0 -174.667 -45.667 -360.999 -137 -558.999c-64 -136.667 -154 -259 -270 -367c-10.667 -10.667 -23.667 -16 -39 -16c-12.667 0 -24.334 6 -35.001 18c-4 4 -6 8 -6 12c0 11.333 6 23 18 35c220 228 330 520.333 330 877c0 354 -110.667 645.333 -332 874
c-10.667 10.667 -16 23.667 -16 39c0 8 8 16 24 24c6.66699 3.33301 12.334 5 17.001 5c15.333 0 28.333 -4.66699 39 -14c129.333 -121.333 225.333 -245 288 -371c79.333 -160.667 119 -346.334 119 -557.001zM1557 244.001l-101.002 -219c-10 -22 -27 -33 -51 -33
c-90 5.33301 -197.667 8 -323 8c-119.333 0 -239 -2.66699 -359 -8c-27.333 0 -41 13 -41 39c0 6 3.33301 12 10 18c294.667 307.333 485.334 562 572.001 764c24.667 54 37 115.333 37 184c0 70.667 -25.333 126 -76 166c-36.667 28.667 -81 43 -133 43
c-96 0 -178 -60.667 -246 -182c-2.66699 -2.66699 -6 -4 -10 -4c-14 0 -27 5.66699 -39 17c-6 5.33301 -9 10 -9 14c0 1.33301 0.333008 2.66602 1 3.99902c39.333 79.333 89.666 142.666 150.999 189.999c70.667 58.667 148 88 232 88c100 0 179.333 -35.333 238 -106
c48.667 -54.667 73 -127.667 73 -219c0 -97.333 -37 -197.666 -111 -300.999c-40 -54.667 -96 -124.334 -168 -209.001l-284 -318c-10.667 -11.333 -16 -20.666 -16 -27.999c0 -10 10 -15 30 -15h297c108.667 0 184.334 20 227.001 60c18 16.667 32.333 37.667 43 63
c0.666992 4 6.33398 6 17.001 6c20.667 -0.666992 33.667 -5.33398 39 -14.001c0.666992 -1.33301 1 -2.66602 1 -3.99902s-0.333008 -2.66602 -1 -3.99902zM646.998 -323.999c0 -8.66699 -8.33301 -17.001 -25 -25.001l-16 -5c-12.667 0 -25.667 5.33301 -39 16
c-128.667 116 -224.667 239 -288 369c-79.333 160 -119 345.667 -119 557c0 174.667 45.667 361 137 559c60.667 132.667 150.667 255.667 270 369c10.667 9.33301 23.667 14 39 14c12 0 23.667 -5.66699 35 -17c4 -4.66699 6 -8.66699 6 -12
c0 -11.333 -6 -23.666 -18 -36.999c-220 -230.667 -330 -522.667 -330 -876c0 -350 111.333 -642.333 334 -877c9.33301 -9.33301 14 -21 14 -35z" />
    <glyph glyph-name="uni2476" unicode="&#x28;&#x33;&#x29;" horiz-adv-x="2283" 
d="M2142 588c0 -174.667 -45.667 -360.999 -137 -558.999c-64 -136.667 -154 -259 -270 -367c-10.667 -10.667 -23.667 -16 -39 -16c-12.667 0 -24.334 6 -35.001 18c-4 4 -6 8 -6 12c0 11.333 6 23 18 35c220 228 330 520.333 330 877c0 354 -110.667 645.333 -332 874
c-10.667 10.667 -16 23.667 -16 39c0 8 8 16 24 24c6.66699 3.33301 12.334 5 17.001 5c15.333 0 28.333 -4.66699 39 -14c129.333 -121.333 225.333 -245 288 -371c79.333 -160.667 119 -346.334 119 -557.001zM1495 414.001
c0 -123.333 -44.332 -227.336 -132.999 -312.003c-87.333 -83.333 -192.333 -125 -315 -125c-94 0 -167 18 -219 54c-37.333 25.333 -56 57.333 -56 96c0 25.333 12.667 46 38 62c13.333 8 27.333 12 42 12c24 0 58 -24.667 102 -74c46 -49.333 94.667 -74 146 -74
c72 0 130 39 174 117c34 62.667 51 135 51 217c0 86.667 -24.667 158.334 -74 215.001c-50 58.667 -119.333 88 -208 88c-43.333 0 -81 -5.33301 -113 -16c-9.33301 0 -14 13.667 -14 41c0 26 4.66699 39 14 39c120 0 211.667 31 275 93
c47.333 46.667 71 106.334 71 179.001c0 67.333 -23 120.333 -69 159c-33.333 28 -73 42 -119 42c-78.667 0 -147.667 -45.667 -207 -137c-0.666992 -2 -2.66699 -3 -6 -3c-14.667 0 -27.667 7.33301 -39 22c-5.33301 6 -8 11.667 -8 17
c0 1.33301 0.666992 2.66602 2 3.99902c91.333 135.333 199.666 203 324.999 203c76.667 0 141 -28 193 -84c53.333 -56.667 80 -122 80 -196c0 -111.333 -61 -201.666 -183 -270.999c-21.333 -12 -32 -20.333 -32 -25c0 -7.33301 9.33301 -12.666 28 -15.999
c169.333 -34 254 -143 254 -327zM647.001 -324.002c0 -8.66699 -8.33301 -17.001 -25 -25.001l-16 -5c-12.667 0 -25.667 5.33301 -39 16c-128.667 116 -224.667 239 -288 369c-79.333 160 -119 345.667 -119 557c0 174.667 45.667 361 137 559
c60.667 132.667 150.667 255.667 270 369c10.667 9.33301 23.667 14 39 14c12 0 23.667 -5.66699 35 -17c4 -4.66699 6 -8.66699 6 -12c0 -11.333 -6 -23.666 -18 -36.999c-220 -230.667 -330 -522.667 -330 -876c0 -350 111.333 -642.333 334 -877
c9.33301 -9.33301 14 -21 14 -35z" />
    <glyph glyph-name="uni2477" unicode="&#x28;&#x34;&#x29;" horiz-adv-x="2283" 
d="M2142 588c0 -174.667 -45.667 -360.999 -137 -558.999c-64 -136.667 -154 -259 -270 -367c-10.667 -10.667 -23.667 -16 -39 -16c-12.667 0 -24.334 6 -35.001 18c-4 4 -6 8 -6 12c0 11.333 6 23 18 35c220 228 330 520.333 330 877c0 354 -110.667 645.333 -332 874
c-10.667 10.667 -16 23.667 -16 39c0 8 8 16 24 24c6.66699 3.33301 12.334 5 17.001 5c15.333 0 28.333 -4.66699 39 -14c129.333 -121.333 225.333 -245 288 -371c79.333 -160.667 119 -346.334 119 -557.001zM1546 391.001l-116.001 0.000976562
c-15.333 0 -23 -6.66699 -23 -20v-244c0 -52 40.333 -78 121 -78c9.33301 0 14 -9.33301 14 -28c0 -19.333 -4.66699 -29 -14 -29c-51.333 5.33301 -114.666 8 -189.999 8c-110 0 -190.667 -2.66699 -242 -8c-9.33301 0 -14 9.33301 -14 28c0 19.333 4.66699 29 14 29
c105.333 0 158 26 158 78v244c0 13.333 -7 20 -21 20h-477c-44.667 0 -67 12.333 -67 37c0 7.33301 2.33301 16.666 7 27.999c7.33301 17.333 20.333 38.666 39 63.999l222 301c9.33301 12.667 149 214 419 604c6 8.66699 19 13 39 13c38.667 0 58 -10.333 58 -31l-647 -897
c-5.33301 -7.33301 -8 -13.666 -8 -18.999c0 -9.33301 8.66699 -14 26 -14h389c14 0 21 7 21 21v444c0 10 25.333 15 76 15c51.333 0 77 -5 77 -15v-444c0 -14 7.66699 -21 23 -21h116c12 0 18 -14.333 18 -43s-6 -43 -18 -43zM646.999 -323.998
c0 -8.66699 -8.33301 -17.001 -25 -25.001l-16 -5c-12.667 0 -25.667 5.33301 -39 16c-128.667 116 -224.667 239 -288 369c-79.333 160 -119 345.667 -119 557c0 174.667 45.667 361 137 559c60.667 132.667 150.667 255.667 270 369c10.667 9.33301 23.667 14 39 14
c12 0 23.667 -5.66699 35 -17c4 -4.66699 6 -8.66699 6 -12c0 -11.333 -6 -23.666 -18 -36.999c-220 -230.667 -330 -522.667 -330 -876c0 -350 111.333 -642.333 334 -877c9.33301 -9.33301 14 -21 14 -35z" />
    <glyph glyph-name="uni2478" unicode="&#x28;&#x35;&#x29;" horiz-adv-x="2283" 
d="M2142 588c0 -174.667 -45.667 -360.999 -137 -558.999c-64 -136.667 -154 -259 -270 -367c-10.667 -10.667 -23.667 -16 -39 -16c-12.667 0 -24.334 6 -35.001 18c-4 4 -6 8 -6 12c0 11.333 6 23 18 35c220 228 330 520.333 330 877c0 354 -110.667 645.333 -332 874
c-10.667 10.667 -16 23.667 -16 39c0 8 8 16 24 24c6.66699 3.33301 12.334 5 17.001 5c15.333 0 28.333 -4.66699 39 -14c129.333 -121.333 225.333 -245 288 -371c79.333 -160.667 119 -346.334 119 -557.001zM1489 496.001c0 -143.333 -43.667 -263.667 -131 -361
c-90.667 -100.667 -206.667 -151 -348 -151c-94 0 -162.667 17.667 -206 53c-24 20.667 -36 45.334 -36 74.001c0 54.667 27.333 82 82 82c26 0 62.333 -21.333 109 -64c45.333 -40.667 90.333 -61 135 -61c74.667 0 138 38.667 190 116c45.333 67.333 68 141.333 68 222
c0 138.667 -47 235.667 -141 291c-52 30.667 -115.667 46 -191 46c-33.333 0 -76.333 -6 -129 -18h-13c-10 0 -15 7.66699 -15 23c0 3.33301 0.333008 6.66602 1 9.99902l93 530c3.33301 19.333 14 29 32 29h471c4.66699 0 7 -5.66699 7 -17
c0 -35.333 -8.66699 -71 -26 -107c-6 -12.667 -11 -19 -15 -19h-383c-19.333 0 -30.333 -9 -33 -27l-43 -234c-2 -15.333 2 -23 12 -23l80 5c155.333 0 271 -46.333 347 -139c55.333 -67.333 83 -154 83 -260zM647 -324c0 -8.66699 -8.33301 -17.001 -25 -25.001l-16 -5
c-12.667 0 -25.667 5.33301 -39 16c-128.667 116 -224.667 239 -288 369c-79.333 160 -119 345.667 -119 557c0 174.667 45.667 361 137 559c60.667 132.667 150.667 255.667 270 369c10.667 9.33301 23.667 14 39 14c12 0 23.667 -5.66699 35 -17
c4 -4.66699 6 -8.66699 6 -12c0 -11.333 -6 -23.666 -18 -36.999c-220 -230.667 -330 -522.667 -330 -876c0 -350 111.333 -642.333 334 -877c9.33301 -9.33301 14 -21 14 -35z" />
    <glyph glyph-name="uni2479" unicode="&#x28;&#x36;&#x29;" horiz-adv-x="2283" 
d="M2142 588c0 -174.667 -45.667 -360.999 -137 -558.999c-64 -136.667 -154 -259 -270 -367c-10.667 -10.667 -23.667 -16 -39 -16c-12.667 0 -24.334 6 -35.001 18c-4 4 -6 8 -6 12c0 11.333 6 23 18 35c220 228 330 520.333 330 877c0 354 -110.667 645.333 -332 874
c-10.667 10.667 -16 23.667 -16 39c0 8 8 16 24 24c6.66699 3.33301 12.334 5 17.001 5c15.333 0 28.333 -4.66699 39 -14c129.333 -121.333 225.333 -245 288 -371c79.333 -160.667 119 -346.334 119 -557.001zM1149 -15.999c-127.333 0 -224.667 53.332 -292 159.999
c-54 85.333 -81 192.333 -81 321c0 190.667 66.333 372.334 199 545.001c130.667 169.333 281.667 292 453 368h9c15.333 -4.66699 23 -17 23 -37c0 -6 -2 -10 -6 -12c-195.333 -110.667 -333.666 -253 -414.999 -427c-38.667 -82 -66 -173 -82 -273
c101.333 91.333 190.666 137 267.999 137c94.667 0 171.667 -39.667 231 -119c56 -72.667 84 -158 84 -256c0 -112 -35.333 -206.667 -106 -284c-74 -82 -169 -123 -285 -123zM1174 63c68.667 0 123.333 32 164 96c31.333 48.667 47 105.667 47 171
c0 97.333 -24.333 177 -73 239c-44 56 -99.667 84 -167 84c-75.333 0 -141.666 -36.667 -198.999 -110c-4 -28.667 -6 -56 -6 -82c0 -178 37.667 -297.333 113 -358c33.333 -26.667 73.666 -40 120.999 -40zM646.998 -324c0 -8.66699 -8.33301 -17.001 -25 -25.001l-16 -5
c-12.667 0 -25.667 5.33301 -39 16c-128.667 116 -224.667 239 -288 369c-79.333 160 -119 345.667 -119 557c0 174.667 45.667 361 137 559c60.667 132.667 150.667 255.667 270 369c10.667 9.33301 23.667 14 39 14c12 0 23.667 -5.66699 35 -17
c4 -4.66699 6 -8.66699 6 -12c0 -11.333 -6 -23.666 -18 -36.999c-220 -230.667 -330 -522.667 -330 -876c0 -350 111.333 -642.333 334 -877c9.33301 -9.33301 14 -21 14 -35z" />
    <glyph glyph-name="uni247A" unicode="&#x28;&#x37;&#x29;" horiz-adv-x="2283" 
d="M2142 588c0 -174.667 -45.667 -360.999 -137 -558.999c-64 -136.667 -154 -259 -270 -367c-10.667 -10.667 -23.667 -16 -39 -16c-12.667 0 -24.334 6 -35.001 18c-4 4 -6 8 -6 12c0 11.333 6 23 18 35c220 228 330 520.333 330 877c0 354 -110.667 645.333 -332 874
c-10.667 10.667 -16 23.667 -16 39c0 8 8 16 24 24c6.66699 3.33301 12.334 5 17.001 5c15.333 0 28.333 -4.66699 39 -14c129.333 -121.333 225.333 -245 288 -371c79.333 -160.667 119 -346.334 119 -557.001zM1565 1264l-509.999 -1264
c-4.66699 -9.33301 -32 -14 -82 -14c-45.333 0 -68 4.66699 -68 14c8.66699 14.667 25.667 48 51 100l62 138l397 901c6 14.667 9 24 9 28c0 10 -11 15 -33 15h-215c-108.667 0 -179 -4.33301 -211 -13c-70.667 -19.333 -119.334 -63 -146.001 -131
c-4 -9.33301 -15.333 -14 -34 -14c-16 0 -24.333 4.66699 -25 14l51 248c4 20.667 17.667 31 41 31h682c26 0 39 -7.66699 39 -23c0 -7.33301 -2.66699 -17.333 -8 -30zM647.001 -323.999c0 -8.66699 -8.33301 -17.001 -25 -25.001l-16 -5c-12.667 0 -25.667 5.33301 -39 16
c-128.667 116 -224.667 239 -288 369c-79.333 160 -119 345.667 -119 557c0 174.667 45.667 361 137 559c60.667 132.667 150.667 255.667 270 369c10.667 9.33301 23.667 14 39 14c12 0 23.667 -5.66699 35 -17c4 -4.66699 6 -8.66699 6 -12
c0 -11.333 -6 -23.666 -18 -36.999c-220 -230.667 -330 -522.667 -330 -876c0 -350 111.333 -642.333 334 -877c9.33301 -9.33301 14 -21 14 -35z" />
    <glyph glyph-name="uni247B" unicode="&#x28;&#x38;&#x29;" horiz-adv-x="2283" 
d="M2142 588c0 -174.667 -45.667 -360.999 -137 -558.999c-64 -136.667 -154 -259 -270 -367c-10.667 -10.667 -23.667 -16 -39 -16c-12.667 0 -24.334 6 -35.001 18c-4 4 -6 8 -6 12c0 11.333 6 23 18 35c220 228 330 520.333 330 877c0 354 -110.667 645.333 -332 874
c-10.667 10.667 -16 23.667 -16 39c0 8 8 16 24 24c6.66699 3.33301 12.334 5 17.001 5c15.333 0 28.333 -4.66699 39 -14c129.333 -121.333 225.333 -245 288 -371c79.333 -160.667 119 -346.334 119 -557.001zM1153 -15.999c-114 0 -206 32.665 -276 97.998
c-64.667 60 -97 137.667 -97 233c0 139.333 91 257 273 353c-84.667 54.667 -140 101.667 -166 141c-46.667 62 -70 128.333 -70 199c0 89.333 33 167 99 233c62 61.333 141 92 237 92c122 0 212.333 -36 271 -108c40.667 -49.333 61 -111.666 61 -186.999
c0 -138.667 -75.667 -247.667 -227 -327c180 -115.333 270 -241.666 270 -378.999c0 -102.667 -37.667 -186.667 -113 -252c-72 -64 -159.333 -96 -262 -96zM934 1075c0 -85.333 52.999 -167.333 158.999 -246c22 -16.667 59 -41.667 111 -75
c94.667 66.667 142 147.667 142 243c0 86.667 -25 154.667 -75 204c-35.333 37.333 -82.666 56 -141.999 56c-68 0 -120.667 -23.667 -158 -71c-24.667 -32 -37 -69 -37 -111zM1385 259.999c0 85.333 -29.332 156.333 -87.999 213c-56.667 54 -109.334 98 -158.001 132
l-29 20c-116 -67.333 -174 -163.666 -174 -288.999c0 -74.667 22.667 -140.334 68 -197.001c47.333 -58.667 107.333 -88 180 -88c67.333 0 120.333 25.667 159 77c28 37.333 42 81.333 42 132zM647 -324.001c0 -8.66699 -8.33301 -17.001 -25 -25.001l-16 -5
c-12.667 0 -25.667 5.33301 -39 16c-128.667 116 -224.667 239 -288 369c-79.333 160 -119 345.667 -119 557c0 174.667 45.667 361 137 559c60.667 132.667 150.667 255.667 270 369c10.667 9.33301 23.667 14 39 14c12 0 23.667 -5.66699 35 -17
c4 -4.66699 6 -8.66699 6 -12c0 -11.333 -6 -23.666 -18 -36.999c-220 -230.667 -330 -522.667 -330 -876c0 -350 111.333 -642.333 334 -877c9.33301 -9.33301 14 -21 14 -35z" />
    <glyph glyph-name="uni247C" unicode="&#x28;&#x39;&#x29;" horiz-adv-x="2283" 
d="M2142 588c0 -174.667 -45.667 -360.999 -137 -558.999c-64 -136.667 -154 -259 -270 -367c-10.667 -10.667 -23.667 -16 -39 -16c-12.667 0 -24.334 6 -35.001 18c-4 4 -6 8 -6 12c0 11.333 6 23 18 35c220 228 330 520.333 330 877c0 354 -110.667 645.333 -332 874
c-10.667 10.667 -16 23.667 -16 39c0 8 8 16 24 24c6.66699 3.33301 12.334 5 17.001 5c15.333 0 28.333 -4.66699 39 -14c129.333 -121.333 225.333 -245 288 -371c79.333 -160.667 119 -346.334 119 -557.001zM1159 1333c118.667 0 212.333 -48.333 281 -145
c61.333 -86 92 -194 92 -324c0 -208 -79.333 -403.333 -238 -586c-112.667 -128.667 -247.667 -233 -405 -313l-8 -1c-10.667 3.33301 -19.667 15 -27 35c-2.66699 6.66699 -4 12.334 -4 17.001c0 4 2 7.66699 6 11c126.667 74 236 164 328 270
c78 89.333 133.333 219 166 389c-85.333 -90 -171.333 -135 -258 -135c-89.333 0 -165.333 34.333 -228 103c-62 73.333 -94 157.666 -96 252.999c0 128 36.667 231.667 110 311c71.333 76.667 165 115 281 115zM923.999 975.001c0 -90 23.332 -165.665 69.999 -226.998
c43.333 -57.333 97.666 -86 162.999 -86c74.667 0 142.334 37.333 203.001 112c4 29.333 6 58.666 6 87.999c0 156 -32.667 267 -98 333c-23.333 22 -69.666 40.667 -138.999 56c-72.667 0 -128 -35.333 -166 -106c-26 -48.667 -39 -105.334 -39 -170.001zM646.998 -323.997
c0 -8.66699 -8.33301 -17.001 -25 -25.001l-16 -5c-12.667 0 -25.667 5.33301 -39 16c-128.667 116 -224.667 239 -288 369c-79.333 160 -119 345.667 -119 557c0 174.667 45.667 361 137 559c60.667 132.667 150.667 255.667 270 369c10.667 9.33301 23.667 14 39 14
c12 0 23.667 -5.66699 35 -17c4 -4.66699 6 -8.66699 6 -12c0 -11.333 -6 -23.666 -18 -36.999c-220 -230.667 -330 -522.667 -330 -876c0 -350 111.333 -642.333 334 -877c9.33301 -9.33301 14 -21 14 -35z" />
    <glyph glyph-name="uni247D" unicode="&#x28;&#x31;&#x30;&#x29;" horiz-adv-x="3239" 
d="M3098 588c0 -174.667 -45.667 -360.999 -137 -558.999c-64 -136.667 -154 -259 -270 -367c-10.667 -10.667 -23.667 -16 -39 -16c-12.667 0 -24.334 6 -35 18c-4 4 -6 8 -6 12c0 11.333 6 23 18 35c220 228 330 520.333 330 877c0 354 -110.667 645.333 -332 874
c-10.667 10.667 -16 23.667 -16 39c0 8 8 16 24 24c6.66699 3.33301 12.334 5 17 5c15.333 0 28.333 -4.66699 39 -14c129.333 -121.333 225.333 -245 288 -371c79.333 -160.667 119 -346.334 119 -557.001zM2111 1333c146 0 254.667 -79.3311 326 -237.998
c54.667 -120.667 82 -271.334 82 -452.001c0 -179.333 -32 -329.333 -96 -450c-74.667 -139.333 -179.334 -209 -314 -209c-151.333 0 -262.333 82.667 -333 248c-49.333 117.333 -74 262.666 -74 435.999c0 201.333 36 362.333 108 483c72 121.333 172.333 182 301 182z
M2341 631.003c0 155.333 -13.667 300.667 -41 436c-26.667 134 -89 201 -187 201c-93.333 0 -159.333 -79.333 -198 -238c-26 -98 -39 -214 -39 -348c0 -141.333 5.33301 -246.333 16 -315c30 -175.333 85.667 -278 167 -308c15.333 -5.33301 31.333 -8 48 -8
c156 0 234 193.333 234 580zM1432 -7.99609c-52.667 5.33301 -139.998 8.00098 -261.998 8.00098c-124 0 -212.333 -2.66699 -265 -8c-9.33301 0 -14 9.33301 -14 28c0 19.333 4.66699 29 14 29c78 0 128 9 150 27c30 26 45 87.333 45 184v870c0 31.333 -7 47 -21 47
c-5.33301 0 -13.333 -2.66699 -24 -8l-129 -59c-13.333 0 -22 7.33301 -26 22c-1.33301 6 -1.33301 11 0 15s3.66602 7.33301 6.99902 10c130.667 63.333 238.667 133.666 324 210.999c4 4 9.33301 6 16 6c8 0 12.333 -4.66699 13 -14c-4 -60 -6 -117.333 -6 -172v-926
c0 -80.667 8 -134 24 -160c23.333 -35.333 74.666 -53 153.999 -53c9.33301 0 14 -9.33301 14 -28c0 -19.333 -4.66699 -29 -14 -29zM647.002 -323.995c0 -8.66699 -8.33301 -17.001 -25 -25.001l-16 -5c-12.667 0 -25.667 5.33301 -39 16
c-128.667 116 -224.667 239 -288 369c-79.333 160 -119 345.667 -119 557c0 174.667 45.667 361 137 559c60.667 132.667 150.667 255.667 270 369c10.667 9.33301 23.667 14 39 14c12 0 23.667 -5.66699 35 -17c4 -4.66699 6 -8.66699 6 -12
c0 -11.333 -6 -23.666 -18 -36.999c-220 -230.667 -330 -522.667 -330 -876c0 -350 111.333 -642.333 334 -877c9.33301 -9.33301 14 -21 14 -35z" />
    <glyph glyph-name="uni247E" unicode="&#x28;&#x31;&#x31;&#x29;" horiz-adv-x="3239" 
d="M3098 588c0 -174.667 -45.667 -360.999 -137 -558.999c-64 -136.667 -154 -259 -270 -367c-10.667 -10.667 -23.667 -16 -39 -16c-12.667 0 -24.334 6 -35 18c-4 4 -6 8 -6 12c0 11.333 6 23 18 35c220 228 330 520.333 330 877c0 354 -110.667 645.333 -332 874
c-10.667 10.667 -16 23.667 -16 39c0 8 8 16 24 24c6.66699 3.33301 12.334 5 17 5c15.333 0 28.333 -4.66699 39 -14c129.333 -121.333 225.333 -245 288 -371c79.333 -160.667 119 -346.334 119 -557.001zM2388 -7.99902c-52.667 5.33301 -140 8.00098 -262 8.00098
c-124 0 -212.333 -2.66699 -265 -8c-9.33301 0 -14 9.33301 -14 28c0 19.333 4.66699 29 14 29c78 0 128 9 150 27c30 26 45 87.333 45 184v870c0 31.333 -7 47 -21 47c-5.33301 0 -13.333 -2.66699 -24 -8l-129 -59c-13.333 0 -22 7.33301 -26 22
c-1.33301 6 -1.33301 11 0 15s3.66602 7.33301 6.99902 10c130.667 63.333 238.667 133.666 324.001 210.999c4 4 9.33301 6 16 6c8 0 12.333 -4.66699 13 -14c-4 -60 -6 -117.333 -6 -172v-926c0 -80.667 8 -134 24 -160c23.333 -35.333 74.666 -53 154 -53
c9.33301 0 14 -9.33301 14 -28c0 -19.333 -4.66699 -29 -14 -29zM1432 -7.99805c-52.667 5.33301 -139.998 8.00098 -261.998 8.00098c-124 0 -212.333 -2.66699 -265 -8c-9.33301 0 -14 9.33301 -14 28c0 19.333 4.66699 29 14 29c78 0 128 9 150 27
c30 26 45 87.333 45 184v870c0 31.333 -7 47 -21 47c-5.33301 0 -13.333 -2.66699 -24 -8l-129 -59c-13.333 0 -22 7.33301 -26 22c-1.33301 6 -1.33301 11 0 15s3.66602 7.33301 6.99902 10c130.667 63.333 238.667 133.666 324 210.999c4 4 9.33301 6 16 6
c8 0 12.333 -4.66699 13 -14c-4 -60 -6 -117.333 -6 -172v-926c0 -80.667 8 -134 24 -160c23.333 -35.333 74.666 -53 153.999 -53c9.33301 0 14 -9.33301 14 -28c0 -19.333 -4.66699 -29 -14 -29zM647.002 -323.997c0 -8.66699 -8.33301 -17.001 -25 -25.001l-16 -5
c-12.667 0 -25.667 5.33301 -39 16c-128.667 116 -224.667 239 -288 369c-79.333 160 -119 345.667 -119 557c0 174.667 45.667 361 137 559c60.667 132.667 150.667 255.667 270 369c10.667 9.33301 23.667 14 39 14c12 0 23.667 -5.66699 35 -17
c4 -4.66699 6 -8.66699 6 -12c0 -11.333 -6 -23.666 -18 -36.999c-220 -230.667 -330 -522.667 -330 -876c0 -350 111.333 -642.333 334 -877c9.33301 -9.33301 14 -21 14 -35z" />
    <glyph glyph-name="uni247F" unicode="&#x28;&#x31;&#x32;&#x29;" horiz-adv-x="3239" 
d="M3098 588c0 -174.667 -45.667 -360.999 -137 -558.999c-64 -136.667 -154 -259 -270 -367c-10.667 -10.667 -23.667 -16 -39 -16c-12.667 0 -24.334 6 -35 18c-4 4 -6 8 -6 12c0 11.333 6 23 18 35c220 228 330 520.333 330 877c0 354 -110.667 645.333 -332 874
c-10.667 10.667 -16 23.667 -16 39c0 8 8 16 24 24c6.66699 3.33301 12.334 5 17 5c15.333 0 28.333 -4.66699 39 -14c129.333 -121.333 225.333 -245 288 -371c79.333 -160.667 119 -346.334 119 -557.001zM2513 244.001l-101 -219c-10 -22 -27 -33 -51 -33
c-90 5.33301 -197.667 8 -323 8c-119.333 0 -239 -2.66699 -359 -8c-27.333 0 -41 13 -41 39c0 6 3.33301 12 10 18c294.667 307.333 485.334 562 572.001 764c24.667 54 37 115.333 37 184c0 70.667 -25.333 126 -76 166c-36.667 28.667 -81 43 -133 43
c-96 0 -178 -60.667 -246 -182c-2.66699 -2.66699 -6 -4 -10 -4c-14 0 -27 5.66699 -39 17c-6 5.33301 -9 10 -9 14c0 1.33301 0.333008 2.66602 1 3.99902c39.333 79.333 89.666 142.666 150.999 189.999c70.667 58.667 148 88 232 88c100 0 179.333 -35.333 238 -106
c48.667 -54.667 73 -127.667 73 -219c0 -97.333 -37 -197.666 -111 -300.999c-40 -54.667 -96 -124.334 -168 -209.001l-284 -318c-10.667 -11.333 -16 -20.666 -16 -27.999c0 -10 10 -15 30 -15h297c108.667 0 184.334 20 227 60c18 16.667 32.333 37.667 43 63
c0.666992 4 6.33398 6 17 6c20.667 -0.666992 33.667 -5.33398 39 -14.001c0.666992 -1.33301 1 -2.66602 1 -3.99902s-0.333008 -2.66602 -1 -3.99902zM1432 -7.99902c-52.667 5.33301 -139.998 8.00098 -261.998 8.00098c-124 0 -212.333 -2.66699 -265 -8
c-9.33301 0 -14 9.33301 -14 28c0 19.333 4.66699 29 14 29c78 0 128 9 150 27c30 26 45 87.333 45 184v870c0 31.333 -7 47 -21 47c-5.33301 0 -13.333 -2.66699 -24 -8l-129 -59c-13.333 0 -22 7.33301 -26 22c-1.33301 6 -1.33301 11 0 15s3.66602 7.33301 6.99902 10
c130.667 63.333 238.667 133.666 324 210.999c4 4 9.33301 6 16 6c8 0 12.333 -4.66699 13 -14c-4 -60 -6 -117.333 -6 -172v-926c0 -80.667 8 -134 24 -160c23.333 -35.333 74.666 -53 153.999 -53c9.33301 0 14 -9.33301 14 -28c0 -19.333 -4.66699 -29 -14 -29z
M647.002 -323.998c0 -8.66699 -8.33301 -17.001 -25 -25.001l-16 -5c-12.667 0 -25.667 5.33301 -39 16c-128.667 116 -224.667 239 -288 369c-79.333 160 -119 345.667 -119 557c0 174.667 45.667 361 137 559c60.667 132.667 150.667 255.667 270 369
c10.667 9.33301 23.667 14 39 14c12 0 23.667 -5.66699 35 -17c4 -4.66699 6 -8.66699 6 -12c0 -11.333 -6 -23.666 -18 -36.999c-220 -230.667 -330 -522.667 -330 -876c0 -350 111.333 -642.333 334 -877c9.33301 -9.33301 14 -21 14 -35z" />
    <glyph glyph-name="uni2480" unicode="&#x28;&#x31;&#x33;&#x29;" horiz-adv-x="3239" 
d="M3098 588c0 -174.667 -45.667 -360.999 -137 -558.999c-64 -136.667 -154 -259 -270 -367c-10.667 -10.667 -23.667 -16 -39 -16c-12.667 0 -24.334 6 -35 18c-4 4 -6 8 -6 12c0 11.333 6 23 18 35c220 228 330 520.333 330 877c0 354 -110.667 645.333 -332 874
c-10.667 10.667 -16 23.667 -16 39c0 8 8 16 24 24c6.66699 3.33301 12.334 5 17 5c15.333 0 28.333 -4.66699 39 -14c129.333 -121.333 225.333 -245 288 -371c79.333 -160.667 119 -346.334 119 -557.001zM2451 414.001c0 -123.333 -44.332 -227.336 -132.999 -312.003
c-87.333 -83.333 -192.333 -125 -315 -125c-94 0 -167 18 -219 54c-37.333 25.333 -56 57.333 -56 96c0 25.333 12.667 46 38 62c13.333 8 27.333 12 42 12c24 0 58 -24.667 102 -74c46 -49.333 94.667 -74 146 -74c72 0 130 39 174 117c34 62.667 51 135 51 217
c0 86.667 -24.667 158.334 -74 215.001c-50 58.667 -119.333 88 -208 88c-43.333 0 -81 -5.33301 -113 -16c-9.33301 0 -14 13.667 -14 41c0 26 4.66699 39 14 39c120 0 211.667 31 275 93c47.333 46.667 71 106.334 71 179.001c0 67.333 -23 120.333 -69 159
c-33.333 28 -73 42 -119 42c-78.667 0 -147.667 -45.667 -207 -137c-0.666992 -2 -2.66699 -3 -6 -3c-14.667 0 -27.667 7.33301 -39 22c-5.33301 6 -8 11.667 -8 17c0 1.33301 0.666992 2.66602 2 3.99902c91.333 135.333 199.666 203 324.999 203
c76.667 0 141 -28 193 -84c53.333 -56.667 80 -122 80 -196c0 -111.333 -61 -201.666 -183 -270.999c-21.333 -12 -32 -20.333 -32 -25c0 -7.33301 9.33301 -12.666 28 -15.999c169.333 -34 254 -143 254 -327zM1432 -8.00195
c-52.667 5.33301 -139.998 8.00098 -261.998 8.00098c-124 0 -212.333 -2.66699 -265 -8c-9.33301 0 -14 9.33301 -14 28c0 19.333 4.66699 29 14 29c78 0 128 9 150 27c30 26 45 87.333 45 184v870c0 31.333 -7 47 -21 47c-5.33301 0 -13.333 -2.66699 -24 -8l-129 -59
c-13.333 0 -22 7.33301 -26 22c-1.33301 6 -1.33301 11 0 15s3.66602 7.33301 6.99902 10c130.667 63.333 238.667 133.666 324 210.999c4 4 9.33301 6 16 6c8 0 12.333 -4.66699 13 -14c-4 -60 -6 -117.333 -6 -172v-926c0 -80.667 8 -134 24 -160
c23.333 -35.333 74.666 -53 153.999 -53c9.33301 0 14 -9.33301 14 -28c0 -19.333 -4.66699 -29 -14 -29zM647.003 -324.001c0 -8.66699 -8.33301 -17.001 -25 -25.001l-16 -5c-12.667 0 -25.667 5.33301 -39 16c-128.667 116 -224.667 239 -288 369
c-79.333 160 -119 345.667 -119 557c0 174.667 45.667 361 137 559c60.667 132.667 150.667 255.667 270 369c10.667 9.33301 23.667 14 39 14c12 0 23.667 -5.66699 35 -17c4 -4.66699 6 -8.66699 6 -12c0 -11.333 -6 -23.666 -18 -36.999
c-220 -230.667 -330 -522.667 -330 -876c0 -350 111.333 -642.333 334 -877c9.33301 -9.33301 14 -21 14 -35z" />
    <glyph glyph-name="uni2481" unicode="&#x28;&#x31;&#x34;&#x29;" horiz-adv-x="3239" 
d="M3098 588c0 -174.667 -45.667 -360.999 -137 -558.999c-64 -136.667 -154 -259 -270 -367c-10.667 -10.667 -23.667 -16 -39 -16c-12.667 0 -24.334 6 -35 18c-4 4 -6 8 -6 12c0 11.333 6 23 18 35c220 228 330 520.333 330 877c0 354 -110.667 645.333 -332 874
c-10.667 10.667 -16 23.667 -16 39c0 8 8 16 24 24c6.66699 3.33301 12.334 5 17 5c15.333 0 28.333 -4.66699 39 -14c129.333 -121.333 225.333 -245 288 -371c79.333 -160.667 119 -346.334 119 -557.001zM2502 391.001l-116 0.000976562c-15.333 0 -23 -6.66699 -23 -20
v-244c0 -52 40.333 -78 121 -78c9.33301 0 14 -9.33301 14 -28c0 -19.333 -4.66699 -29 -14 -29c-51.333 5.33301 -114.666 8 -190 8c-110 0 -190.667 -2.66699 -242 -8c-9.33301 0 -14 9.33301 -14 28c0 19.333 4.66699 29 14 29c105.333 0 158 26 158 78v244
c0 13.333 -7 20 -21 20h-477c-44.667 0 -67 12.333 -67 37c0 7.33301 2.33301 16.666 7 27.999c7.33301 17.333 20.333 38.666 39 63.999l222 301c9.33301 12.667 149 214 419 604c6 8.66699 19 13 39 13c38.667 0 58 -10.333 58 -31l-647 -897
c-5.33301 -7.33301 -8 -13.666 -8 -18.999c0 -9.33301 8.66699 -14 26 -14h389c14 0 21 7 21 21v444c0 10 25.333 15 76 15c51.333 0 77 -5 77 -15v-444c0 -14 7.66699 -21 23 -21h116c12 0 18 -14.333 18 -43s-6 -43 -18 -43zM1432 -7.99805
c-52.667 5.33301 -139.998 8.00098 -261.998 8.00098c-124 0 -212.333 -2.66699 -265 -8c-9.33301 0 -14 9.33301 -14 28c0 19.333 4.66699 29 14 29c78 0 128 9 150 27c30 26 45 87.333 45 184v870c0 31.333 -7 47 -21 47c-5.33301 0 -13.333 -2.66699 -24 -8l-129 -59
c-13.333 0 -22 7.33301 -26 22c-1.33301 6 -1.33301 11 0 15s3.66602 7.33301 6.99902 10c130.667 63.333 238.667 133.666 324 210.999c4 4 9.33301 6 16 6c8 0 12.333 -4.66699 13 -14c-4 -60 -6 -117.333 -6 -172v-926c0 -80.667 8 -134 24 -160
c23.333 -35.333 74.666 -53 153.999 -53c9.33301 0 14 -9.33301 14 -28c0 -19.333 -4.66699 -29 -14 -29zM647.002 -323.997c0 -8.66699 -8.33301 -17.001 -25 -25.001l-16 -5c-12.667 0 -25.667 5.33301 -39 16c-128.667 116 -224.667 239 -288 369
c-79.333 160 -119 345.667 -119 557c0 174.667 45.667 361 137 559c60.667 132.667 150.667 255.667 270 369c10.667 9.33301 23.667 14 39 14c12 0 23.667 -5.66699 35 -17c4 -4.66699 6 -8.66699 6 -12c0 -11.333 -6 -23.666 -18 -36.999
c-220 -230.667 -330 -522.667 -330 -876c0 -350 111.333 -642.333 334 -877c9.33301 -9.33301 14 -21 14 -35z" />
    <glyph glyph-name="uni2482" unicode="&#x28;&#x31;&#x35;&#x29;" horiz-adv-x="3239" 
d="M3098 588c0 -174.667 -45.667 -360.999 -137 -558.999c-64 -136.667 -154 -259 -270 -367c-10.667 -10.667 -23.667 -16 -39 -16c-12.667 0 -24.334 6 -35 18c-4 4 -6 8 -6 12c0 11.333 6 23 18 35c220 228 330 520.333 330 877c0 354 -110.667 645.333 -332 874
c-10.667 10.667 -16 23.667 -16 39c0 8 8 16 24 24c6.66699 3.33301 12.334 5 17 5c15.333 0 28.333 -4.66699 39 -14c129.333 -121.333 225.333 -245 288 -371c79.333 -160.667 119 -346.334 119 -557.001zM2445 496.001c0 -143.333 -43.667 -263.667 -131 -361
c-90.667 -100.667 -206.667 -151 -348 -151c-94 0 -162.667 17.667 -206 53c-24 20.667 -36 45.334 -36 74.001c0 54.667 27.333 82 82 82c26 0 62.333 -21.333 109 -64c45.333 -40.667 90.333 -61 135 -61c74.667 0 138 38.667 190 116c45.333 67.333 68 141.333 68 222
c0 138.667 -47 235.667 -141 291c-52 30.667 -115.667 46 -191 46c-33.333 0 -76.333 -6 -129 -18h-13c-10 0 -15 7.66699 -15 23c0 3.33301 0.333008 6.66602 1 9.99902l93 530c3.33301 19.333 14 29 32 29h471c4.66699 0 7 -5.66699 7 -17
c0 -35.333 -8.66699 -71 -26 -107c-6 -12.667 -11 -19 -15 -19h-383c-19.333 0 -30.333 -9 -33 -27l-43 -234c-2 -15.333 2 -23 12 -23l80 5c155.333 0 271 -46.333 347 -139c55.333 -67.333 83 -154 83 -260zM1432 -8c-52.667 5.33301 -139.998 8.00098 -261.998 8.00098
c-124 0 -212.333 -2.66699 -265 -8c-9.33301 0 -14 9.33301 -14 28c0 19.333 4.66699 29 14 29c78 0 128 9 150 27c30 26 45 87.333 45 184v870c0 31.333 -7 47 -21 47c-5.33301 0 -13.333 -2.66699 -24 -8l-129 -59c-13.333 0 -22 7.33301 -26 22
c-1.33301 6 -1.33301 11 0 15s3.66602 7.33301 6.99902 10c130.667 63.333 238.667 133.666 324 210.999c4 4 9.33301 6 16 6c8 0 12.333 -4.66699 13 -14c-4 -60 -6 -117.333 -6 -172v-926c0 -80.667 8 -134 24 -160c23.333 -35.333 74.666 -53 153.999 -53
c9.33301 0 14 -9.33301 14 -28c0 -19.333 -4.66699 -29 -14 -29zM647.002 -323.999c0 -8.66699 -8.33301 -17.001 -25 -25.001l-16 -5c-12.667 0 -25.667 5.33301 -39 16c-128.667 116 -224.667 239 -288 369c-79.333 160 -119 345.667 -119 557
c0 174.667 45.667 361 137 559c60.667 132.667 150.667 255.667 270 369c10.667 9.33301 23.667 14 39 14c12 0 23.667 -5.66699 35 -17c4 -4.66699 6 -8.66699 6 -12c0 -11.333 -6 -23.666 -18 -36.999c-220 -230.667 -330 -522.667 -330 -876
c0 -350 111.333 -642.333 334 -877c9.33301 -9.33301 14 -21 14 -35z" />
    <glyph glyph-name="uni2483" unicode="&#x28;&#x31;&#x36;&#x29;" horiz-adv-x="3239" 
d="M3098 588c0 -174.667 -45.667 -360.999 -137 -558.999c-64 -136.667 -154 -259 -270 -367c-10.667 -10.667 -23.667 -16 -39 -16c-12.667 0 -24.334 6 -35 18c-4 4 -6 8 -6 12c0 11.333 6 23 18 35c220 228 330 520.333 330 877c0 354 -110.667 645.333 -332 874
c-10.667 10.667 -16 23.667 -16 39c0 8 8 16 24 24c6.66699 3.33301 12.334 5 17 5c15.333 0 28.333 -4.66699 39 -14c129.333 -121.333 225.333 -245 288 -371c79.333 -160.667 119 -346.334 119 -557.001zM2105 -15.999c-127.333 0 -224.667 53.332 -292 159.999
c-54 85.333 -81 192.333 -81 321c0 190.667 66.333 372.334 199 545.001c130.667 169.333 281.667 292 453 368h9c15.333 -4.66699 23 -17 23 -37c0 -6 -2 -10 -6 -12c-195.333 -110.667 -333.666 -253 -414.999 -427c-38.667 -82 -66 -173 -82 -273
c101.333 91.333 190.666 137 267.999 137c94.667 0 171.667 -39.667 231 -119c56 -72.667 84 -158 84 -256c0 -112 -35.333 -206.667 -106 -284c-74 -82 -169 -123 -285 -123zM2130 63c68.667 0 123.333 32 164 96c31.333 48.667 47 105.667 47 171
c0 97.333 -24.333 177 -73 239c-44 56 -99.667 84 -167 84c-75.333 0 -141.666 -36.667 -198.999 -110c-4 -28.667 -6 -56 -6 -82c0 -178 37.667 -297.333 113 -358c33.333 -26.667 73.666 -40 120.999 -40zM1432 -8c-52.667 5.33301 -139.998 8.00098 -261.998 8.00098
c-124 0 -212.333 -2.66699 -265 -8c-9.33301 0 -14 9.33301 -14 28c0 19.333 4.66699 29 14 29c78 0 128 9 150 27c30 26 45 87.333 45 184v870c0 31.333 -7 47 -21 47c-5.33301 0 -13.333 -2.66699 -24 -8l-129 -59c-13.333 0 -22 7.33301 -26 22
c-1.33301 6 -1.33301 11 0 15s3.66602 7.33301 6.99902 10c130.667 63.333 238.667 133.666 324 210.999c4 4 9.33301 6 16 6c8 0 12.333 -4.66699 13 -14c-4 -60 -6 -117.333 -6 -172v-926c0 -80.667 8 -134 24 -160c23.333 -35.333 74.666 -53 153.999 -53
c9.33301 0 14 -9.33301 14 -28c0 -19.333 -4.66699 -29 -14 -29zM647 -323.999c0 -8.66699 -8.33301 -17.001 -25 -25.001l-16 -5c-12.667 0 -25.667 5.33301 -39 16c-128.667 116 -224.667 239 -288 369c-79.333 160 -119 345.667 -119 557c0 174.667 45.667 361 137 559
c60.667 132.667 150.667 255.667 270 369c10.667 9.33301 23.667 14 39 14c12 0 23.667 -5.66699 35 -17c4 -4.66699 6 -8.66699 6 -12c0 -11.333 -6 -23.666 -18 -36.999c-220 -230.667 -330 -522.667 -330 -876c0 -350 111.333 -642.333 334 -877
c9.33301 -9.33301 14 -21 14 -35z" />
    <glyph glyph-name="uni2484" unicode="&#x28;&#x31;&#x37;&#x29;" horiz-adv-x="3239" 
d="M3098 588c0 -174.667 -45.667 -360.999 -137 -558.999c-64 -136.667 -154 -259 -270 -367c-10.667 -10.667 -23.667 -16 -39 -16c-12.667 0 -24.334 6 -35 18c-4 4 -6 8 -6 12c0 11.333 6 23 18 35c220 228 330 520.333 330 877c0 354 -110.667 645.333 -332 874
c-10.667 10.667 -16 23.667 -16 39c0 8 8 16 24 24c6.66699 3.33301 12.334 5 17 5c15.333 0 28.333 -4.66699 39 -14c129.333 -121.333 225.333 -245 288 -371c79.333 -160.667 119 -346.334 119 -557.001zM2521 1264l-509.999 -1264c-4.66699 -9.33301 -32 -14 -82 -14
c-45.333 0 -68 4.66699 -68 14c8.66699 14.667 25.667 48 51 100l62 138l397 901c6 14.667 9 24 9 28c0 10 -11 15 -33 15h-215c-108.667 0 -179 -4.33301 -211 -13c-70.667 -19.333 -119.334 -63 -146.001 -131c-4 -9.33301 -15.333 -14 -34 -14
c-16 0 -24.333 4.66699 -25 14l51 248c4 20.667 17.667 31 41 31h682c26 0 39 -7.66699 39 -23c0 -7.33301 -2.66699 -17.333 -8 -30zM1432 -7.99902c-52.667 5.33301 -139.998 8.00098 -261.998 8.00098c-124 0 -212.333 -2.66699 -265 -8c-9.33301 0 -14 9.33301 -14 28
c0 19.333 4.66699 29 14 29c78 0 128 9 150 27c30 26 45 87.333 45 184v870c0 31.333 -7 47 -21 47c-5.33301 0 -13.333 -2.66699 -24 -8l-129 -59c-13.333 0 -22 7.33301 -26 22c-1.33301 6 -1.33301 11 0 15s3.66602 7.33301 6.99902 10
c130.667 63.333 238.667 133.666 324 210.999c4 4 9.33301 6 16 6c8 0 12.333 -4.66699 13 -14c-4 -60 -6 -117.333 -6 -172v-926c0 -80.667 8 -134 24 -160c23.333 -35.333 74.666 -53 153.999 -53c9.33301 0 14 -9.33301 14 -28c0 -19.333 -4.66699 -29 -14 -29z
M647.003 -323.998c0 -8.66699 -8.33301 -17.001 -25 -25.001l-16 -5c-12.667 0 -25.667 5.33301 -39 16c-128.667 116 -224.667 239 -288 369c-79.333 160 -119 345.667 -119 557c0 174.667 45.667 361 137 559c60.667 132.667 150.667 255.667 270 369
c10.667 9.33301 23.667 14 39 14c12 0 23.667 -5.66699 35 -17c4 -4.66699 6 -8.66699 6 -12c0 -11.333 -6 -23.666 -18 -36.999c-220 -230.667 -330 -522.667 -330 -876c0 -350 111.333 -642.333 334 -877c9.33301 -9.33301 14 -21 14 -35z" />
    <glyph glyph-name="uni2485" unicode="&#x28;&#x31;&#x38;&#x29;" horiz-adv-x="3239" 
d="M3098 588c0 -174.667 -45.667 -360.999 -137 -558.999c-64 -136.667 -154 -259 -270 -367c-10.667 -10.667 -23.667 -16 -39 -16c-12.667 0 -24.334 6 -35 18c-4 4 -6 8 -6 12c0 11.333 6 23 18 35c220 228 330 520.333 330 877c0 354 -110.667 645.333 -332 874
c-10.667 10.667 -16 23.667 -16 39c0 8 8 16 24 24c6.66699 3.33301 12.334 5 17 5c15.333 0 28.333 -4.66699 39 -14c129.333 -121.333 225.333 -245 288 -371c79.333 -160.667 119 -346.334 119 -557.001zM2109 -15.999c-114 0 -206 32.665 -276 97.998
c-64.667 60 -97 137.667 -97 233c0 139.333 91 257 273 353c-84.667 54.667 -140 101.667 -166 141c-46.667 62 -70 128.333 -70 199c0 89.333 33 167 99 233c62 61.333 141 92 237 92c122 0 212.333 -36 271 -108c40.667 -49.333 61 -111.666 61 -186.999
c0 -138.667 -75.667 -247.667 -227 -327c180 -115.333 270 -241.666 270 -378.999c0 -102.667 -37.667 -186.667 -113 -252c-72 -64 -159.333 -96 -262 -96zM1890 1075c0 -85.333 53 -167.333 159 -246c22 -16.667 59 -41.667 111 -75c94.667 66.667 142 147.667 142 243
c0 86.667 -25 154.667 -75 204c-35.333 37.333 -82.666 56 -142 56c-68 0 -120.667 -23.667 -158 -71c-24.667 -32 -37 -69 -37 -111zM2341 259.999c0 85.333 -29.3311 156.333 -87.998 213c-56.667 54 -109.334 98 -158.001 132l-29 20
c-116 -67.333 -174 -163.666 -174 -288.999c0 -74.667 22.667 -140.334 68 -197.001c47.333 -58.667 107.333 -88 179.999 -88c67.333 0 120.333 25.667 159 77c28 37.333 42 81.333 42 132zM1432 -8.00098c-52.667 5.33301 -139.998 8.00098 -261.998 8.00098
c-124 -0 -212.333 -2.66699 -265 -8c-9.33301 0 -14 9.33301 -14 28c0 19.333 4.66699 29 14 29c78 0 128 9 150 27c30 26 45 87.333 45 184v870c0 31.333 -7 47 -21 47c-5.33301 0 -13.333 -2.66699 -24 -8l-129 -59c-13.333 0 -22 7.33301 -26 22
c-1.33301 6 -1.33301 11 0 15s3.66602 7.33301 6.99902 10c130.667 63.333 238.667 133.666 324 210.999c4 4 9.33301 6 16 6c8 0 12.333 -4.66699 13 -14c-4 -60 -6 -117.333 -6 -172v-926c0 -80.667 8 -134 24 -160c23.333 -35.333 74.666 -53 153.999 -53
c9.33301 0 14 -9.33301 14 -28c0 -19.333 -4.66699 -29 -14 -29zM647.004 -324c0 -8.66699 -8.33301 -17.001 -25 -25.001l-16 -5c-12.667 0 -25.667 5.33301 -39 16c-128.667 116 -224.667 239 -288 369c-79.333 160 -119 345.667 -119 557c0 174.667 45.667 361 137 559
c60.667 132.667 150.667 255.667 270 369c10.667 9.33301 23.667 14 39 14c12 0 23.667 -5.66699 35 -17c4 -4.66699 6 -8.66699 6 -12c0 -11.333 -6 -23.666 -18 -36.999c-220 -230.667 -330 -522.667 -330 -876c0 -350 111.333 -642.333 334 -877
c9.33301 -9.33301 14 -21 14 -35z" />
    <glyph glyph-name="uni2486" unicode="&#x28;&#x31;&#x39;&#x29;" horiz-adv-x="3239" 
d="M3098 588c0 -174.667 -45.667 -360.999 -137 -558.999c-64 -136.667 -154 -259 -270 -367c-10.667 -10.667 -23.667 -16 -39 -16c-12.667 0 -24.334 6 -35 18c-4 4 -6 8 -6 12c0 11.333 6 23 18 35c220 228 330 520.333 330 877c0 354 -110.667 645.333 -332 874
c-10.667 10.667 -16 23.667 -16 39c0 8 8 16 24 24c6.66699 3.33301 12.334 5 17 5c15.333 0 28.333 -4.66699 39 -14c129.333 -121.333 225.333 -245 288 -371c79.333 -160.667 119 -346.334 119 -557.001zM2115 1333c118.667 0 212.334 -48.333 281 -145
c61.333 -86 92 -194 92 -324c0 -208 -79.333 -403.333 -238 -586c-112.667 -128.667 -247.667 -233 -405 -313l-8 -1c-10.667 3.33301 -19.667 15 -27 35c-2.66699 6.66699 -4 12.334 -4 17.001c0 4 2 7.66699 6 11c126.667 74 236 164 328 270
c78 89.333 133.333 219 166 389c-85.333 -90 -171.333 -135 -258 -135c-89.333 0 -165.333 34.333 -228 103c-62 73.333 -94 157.666 -96 252.999c0 128 36.667 231.667 110 311c71.333 76.667 165 115 281 115zM1880 975.001c0 -90 23.334 -165.665 70.001 -226.998
c43.333 -57.333 97.666 -86 162.999 -86c74.667 0 142.334 37.333 203 112c4 29.333 6 58.666 6 87.999c0 156 -32.667 267 -98 333c-23.333 22 -69.666 40.667 -139 56c-72.667 0 -128 -35.333 -166 -106c-26 -48.667 -39 -105.334 -39 -170.001zM1432 -7.99707
c-52.667 5.33301 -139.998 8.00098 -261.998 8.00098c-124 0 -212.333 -2.66699 -265 -8c-9.33301 0 -14 9.33301 -14 28c0 19.333 4.66699 29 14 29c78 0 128 9 150 27c30 26 45 87.333 45 184v870c0 31.333 -7 47 -21 47c-5.33301 0 -13.333 -2.66699 -24 -8l-129 -59
c-13.333 0 -22 7.33301 -26 22c-1.33301 6 -1.33301 11 0 15s3.66602 7.33301 6.99902 10c130.667 63.333 238.667 133.666 324 210.999c4 4 9.33301 6 16 6c8 0 12.333 -4.66699 13 -14c-4 -60 -6 -117.333 -6 -172v-926c0 -80.667 8 -134 24 -160
c23.333 -35.333 74.666 -53 153.999 -53c9.33301 0 14 -9.33301 14 -28c0 -19.333 -4.66699 -29 -14 -29zM647.003 -323.996c0 -8.66699 -8.33301 -17.001 -25 -25.001l-16 -5c-12.667 0 -25.667 5.33301 -39 16c-128.667 116 -224.667 239 -288 369
c-79.333 160 -119 345.667 -119 557c0 174.667 45.667 361 137 559c60.667 132.667 150.667 255.667 270 369c10.667 9.33301 23.667 14 39 14c12 0 23.667 -5.66699 35 -17c4 -4.66699 6 -8.66699 6 -12c0 -11.333 -6 -23.666 -18 -36.999
c-220 -230.667 -330 -522.667 -330 -876c0 -350 111.333 -642.333 334 -877c9.33301 -9.33301 14 -21 14 -35z" />
    <glyph glyph-name="uni2487" unicode="&#x28;&#x32;&#x30;&#x29;" horiz-adv-x="3239" 
d="M3098 588c0 -174.667 -45.667 -360.999 -137 -558.999c-64 -136.667 -154 -259 -270 -367c-10.667 -10.667 -23.667 -16 -39 -16c-12.667 0 -24.334 6 -35 18c-4 4 -6 8 -6 12c0 11.333 6 23 18 35c220 228 330 520.333 330 877c0 354 -110.667 645.333 -332 874
c-10.667 10.667 -16 23.667 -16 39c0 8 8 16 24 24c6.66699 3.33301 12.334 5 17 5c15.333 0 28.333 -4.66699 39 -14c129.333 -121.333 225.333 -245 288 -371c79.333 -160.667 119 -346.334 119 -557.001zM2111 1333c146 0 254.667 -79.3311 326 -237.998
c54.667 -120.667 82 -271.334 82 -452.001c0 -179.333 -32 -329.333 -96 -450c-74.667 -139.333 -179.334 -209 -314 -209c-151.333 0 -262.333 82.667 -333 248c-49.333 117.333 -74 262.666 -74 435.999c0 201.333 36 362.333 108 483c72 121.333 172.333 182 301 182z
M2341 631.003c0 155.333 -13.667 300.667 -41 436c-26.667 134 -89 201 -187 201c-93.333 0 -159.333 -79.333 -198 -238c-26 -98 -39 -214 -39 -348c0 -141.333 5.33301 -246.333 16 -315c30 -175.333 85.667 -278 167 -308c15.333 -5.33301 31.333 -8 48 -8
c156 0 234 193.333 234 580zM1557 244.004l-101.002 -219c-10 -22 -27 -33 -51 -33c-90 5.33301 -197.667 8 -323 8c-119.333 0 -239 -2.66699 -359 -8c-27.333 0 -41 13 -41 39c0 6 3.33301 12 10 18c294.667 307.333 485.334 562 572.001 764c24.667 54 37 115.333 37 184
c0 70.667 -25.333 126 -76 166c-36.667 28.667 -81 43 -133 43c-96 0 -178 -60.667 -246 -182c-2.66699 -2.66699 -6 -4 -10 -4c-14 0 -27 5.66699 -39 17c-6 5.33301 -9 10 -9 14c0 1.33301 0.333008 2.66602 1 3.99902c39.333 79.333 89.666 142.666 150.999 189.999
c70.667 58.667 148 88 232 88c100 0 179.333 -35.333 238 -106c48.667 -54.667 73 -127.667 73 -219c0 -97.333 -37 -197.666 -111 -300.999c-40 -54.667 -96 -124.334 -168 -209.001l-284 -318c-10.667 -11.333 -16 -20.666 -16 -27.999c0 -10 10 -15 30 -15h297
c108.667 0 184.334 20 227.001 60c18 16.667 32.333 37.667 43 63c0.666992 4 6.33398 6 17.001 6c20.667 -0.666992 33.667 -5.33398 39 -14.001c0.666992 -1.33301 1 -2.66602 1 -3.99902s-0.333008 -2.66602 -1 -3.99902zM646.998 -323.996
c0 -8.66699 -8.33301 -17.001 -25 -25.001l-16 -5c-12.667 0 -25.667 5.33301 -39 16c-128.667 116 -224.667 239 -288 369c-79.333 160 -119 345.667 -119 557c0 174.667 45.667 361 137 559c60.667 132.667 150.667 255.667 270 369c10.667 9.33301 23.667 14 39 14
c12 0 23.667 -5.66699 35 -17c4 -4.66699 6 -8.66699 6 -12c0 -11.333 -6 -23.666 -18 -36.999c-220 -230.667 -330 -522.667 -330 -876c0 -350 111.333 -642.333 334 -877c9.33301 -9.33301 14 -21 14 -35z" />
    <glyph glyph-name="uni2488" unicode="&#x31;&#x2e;" horiz-adv-x="1476" 
d="M1095 98c0 34 11.999 61.334 35.999 82.001s54.333 31 91 31s65 -12.333 85 -37s30 -53.834 30 -87.501s-11.5 -60.667 -34.5 -81s-52.167 -30.5 -87.5 -30.5s-64.166 12 -86.499 36s-33.5 53 -33.5 87zM755.999 -7.99902
c-52.667 5.33301 -139.998 8.00098 -261.998 8.00098c-124 0 -212.333 -2.66699 -265 -8c-9.33301 0 -14 9.33301 -14 28c0 19.333 4.66699 29 14 29c78 0 128 9 150 27c30 26 45 87.333 45 184v870c0 31.333 -7 47 -21 47c-5.33301 0 -13.333 -2.66699 -24 -8l-129 -59
c-13.333 0 -22 7.33301 -26 22c-1.33301 6 -1.33301 11 0 15s3.66602 7.33301 6.99902 10c130.667 63.333 238.667 133.666 324 210.999c4 4 9.33301 6 16 6c8 0 12.333 -4.66699 13 -14c-4 -60 -6 -117.333 -6 -172v-926c0 -80.667 8 -134 24 -160
c23.333 -35.333 74.666 -53 153.999 -53c9.33301 0 14 -9.33301 14 -28c0 -19.333 -4.66699 -29 -14 -29z" />
    <glyph glyph-name="uni2489" unicode="&#x32;&#x2e;" horiz-adv-x="1476" 
d="M1095 98c0 34 11.999 61.334 35.999 82.001s54.333 31 91 31s65 -12.333 85 -37s30 -53.834 30 -87.501s-11.5 -60.667 -34.5 -81s-52.167 -30.5 -87.5 -30.5s-64.166 12 -86.499 36s-33.5 53 -33.5 87zM880.999 244.001l-101.002 -219c-10 -22 -27 -33 -51 -33
c-90 5.33301 -197.667 8 -323 8c-119.333 0 -239 -2.66699 -359 -8c-27.333 0 -41 13 -41 39c0 6 3.33301 12 10 18c294.667 307.333 485.334 562 572.001 764c24.667 54 37 115.333 37 184c0 70.667 -25.333 126 -76 166c-36.667 28.667 -81 43 -133 43
c-96 0 -178 -60.667 -246 -182c-2.66699 -2.66699 -6 -4 -10 -4c-14 0 -27 5.66699 -39 17c-6 5.33301 -9 10 -9 14c0 1.33301 0.333008 2.66602 1 3.99902c39.333 79.333 89.666 142.666 150.999 189.999c70.667 58.667 148 88 232 88c100 0 179.333 -35.333 238 -106
c48.667 -54.667 73 -127.667 73 -219c0 -97.333 -37 -197.666 -111 -300.999c-40 -54.667 -96 -124.334 -168 -209.001l-284 -318c-10.667 -11.333 -16 -20.666 -16 -27.999c0 -10 10 -15 30 -15h297c108.667 0 184.334 20 227.001 60c18 16.667 32.333 37.667 43 63
c0.666992 4 6.33398 6 17.001 6c20.667 -0.666992 33.667 -5.33398 39 -14.001c0.666992 -1.33301 1 -2.66602 1 -3.99902s-0.333008 -2.66602 -1 -3.99902z" />
    <glyph glyph-name="uni248A" unicode="&#x33;&#x2e;" horiz-adv-x="1476" 
d="M1095 98c0 34 11.999 61.334 35.999 82.001s54.333 31 91 31s65 -12.333 85 -37s30 -53.834 30 -87.501s-11.5 -60.667 -34.5 -81s-52.167 -30.5 -87.5 -30.5s-64.166 12 -86.499 36s-33.5 53 -33.5 87zM818.999 414.001c0 -123.333 -44.332 -227.336 -132.999 -312.003
c-87.333 -83.333 -192.333 -125 -315 -125c-94 0 -167 18 -219 54c-37.333 25.333 -56 57.333 -56 96c0 25.333 12.667 46 38 62c13.333 8 27.333 12 42 12c24 0 58 -24.667 102 -74c46 -49.333 94.667 -74 146 -74c72 0 130 39 174 117c34 62.667 51 135 51 217
c0 86.667 -24.667 158.334 -74 215.001c-50 58.667 -119.333 88 -208 88c-43.333 0 -81 -5.33301 -113 -16c-9.33301 0 -14 13.667 -14 41c0 26 4.66699 39 14 39c120 0 211.667 31 275 93c47.333 46.667 71 106.334 71 179.001c0 67.333 -23 120.333 -69 159
c-33.333 28 -73 42 -119 42c-78.667 0 -147.667 -45.667 -207 -137c-0.666992 -2 -2.66699 -3 -6 -3c-14.667 0 -27.667 7.33301 -39 22c-5.33301 6 -8 11.667 -8 17c0 1.33301 0.666992 2.66602 2 3.99902c91.333 135.333 199.666 203 324.999 203
c76.667 0 141 -28 193 -84c53.333 -56.667 80 -122 80 -196c0 -111.333 -61 -201.666 -183 -270.999c-21.333 -12 -32 -20.333 -32 -25c0 -7.33301 9.33301 -12.666 28 -15.999c169.333 -34 254 -143 254 -327z" />
    <glyph glyph-name="uni248B" unicode="&#x34;&#x2e;" horiz-adv-x="1476" 
d="M1095 98c0 34 11.999 61.334 35.999 82.001s54.333 31 91 31s65 -12.333 85 -37s30 -53.834 30 -87.501s-11.5 -60.667 -34.5 -81s-52.167 -30.5 -87.5 -30.5s-64.166 12 -86.499 36s-33.5 53 -33.5 87zM869.999 391.001l-116.001 0.000976562
c-15.333 0 -23 -6.66699 -23 -20v-244c0 -52 40.333 -78 121 -78c9.33301 0 14 -9.33301 14 -28c0 -19.333 -4.66699 -29 -14 -29c-51.333 5.33301 -114.666 8 -189.999 8c-110 0 -190.667 -2.66699 -242 -8c-9.33301 0 -14 9.33301 -14 28c0 19.333 4.66699 29 14 29
c105.333 0 158 26 158 78v244c0 13.333 -7 20 -21 20h-477c-44.667 0 -67 12.333 -67 37c0 7.33301 2.33301 16.666 7 27.999c7.33301 17.333 20.333 38.666 39 63.999l222 301c9.33301 12.667 149 214 419 604c6 8.66699 19 13 39 13c38.667 0 58 -10.333 58 -31l-647 -897
c-5.33301 -7.33301 -8 -13.666 -8 -18.999c0 -9.33301 8.66699 -14 26 -14h389c14 0 21 7 21 21v444c0 10 25.333 15 76 15c51.333 0 77 -5 77 -15v-444c0 -14 7.66699 -21 23 -21h116c12 0 18 -14.333 18 -43s-6 -43 -18 -43z" />
    <glyph glyph-name="uni248C" unicode="&#x35;&#x2e;" horiz-adv-x="1476" 
d="M1095 98c0 34 11.999 61.334 35.999 82.001s54.333 31 91 31s65 -12.333 85 -37s30 -53.834 30 -87.501s-11.5 -60.667 -34.5 -81s-52.167 -30.5 -87.5 -30.5s-64.166 12 -86.499 36s-33.5 53 -33.5 87zM812.999 496.001c0 -143.333 -43.667 -263.667 -131 -361
c-90.667 -100.667 -206.667 -151 -348 -151c-94 0 -162.667 17.667 -206 53c-24 20.667 -36 45.334 -36 74.001c0 54.667 27.333 82 82 82c26 0 62.333 -21.333 109 -64c45.333 -40.667 90.333 -61 135 -61c74.667 0 138 38.667 190 116c45.333 67.333 68 141.333 68 222
c0 138.667 -47 235.667 -141 291c-52 30.667 -115.667 46 -191 46c-33.333 0 -76.333 -6 -129 -18h-13c-10 0 -15 7.66699 -15 23c0 3.33301 0.333008 6.66602 1 9.99902l93 530c3.33301 19.333 14 29 32 29h471c4.66699 0 7 -5.66699 7 -17
c0 -35.333 -8.66699 -71 -26 -107c-6 -12.667 -11 -19 -15 -19h-383c-19.333 0 -30.333 -9 -33 -27l-43 -234c-2 -15.333 2 -23 12 -23l80 5c155.333 0 271 -46.333 347 -139c55.333 -67.333 83 -154 83 -260z" />
    <glyph glyph-name="uni248D" unicode="&#x36;&#x2e;" horiz-adv-x="1476" 
d="M1095 98c0 34 11.999 61.334 35.999 82.001s54.333 31 91 31s65 -12.333 85 -37s30 -53.834 30 -87.501s-11.5 -60.667 -34.5 -81s-52.167 -30.5 -87.5 -30.5s-64.166 12 -86.499 36s-33.5 53 -33.5 87zM472.999 -15.999c-127.333 0 -224.667 53.332 -292 159.999
c-54 85.333 -81 192.333 -81 321c0 190.667 66.333 372.334 199 545.001c130.667 169.333 281.667 292 453 368h9c15.333 -4.66699 23 -17 23 -37c0 -6 -2 -10 -6 -12c-195.333 -110.667 -333.666 -253 -414.999 -427c-38.667 -82 -66 -173 -82 -273
c101.333 91.333 190.666 137 267.999 137c94.667 0 171.667 -39.667 231 -119c56 -72.667 84 -158 84 -256c0 -112 -35.333 -206.667 -106 -284c-74 -82 -169 -123 -285 -123zM497.998 63c68.667 0 123.333 32 164 96c31.333 48.667 47 105.667 47 171
c0 97.333 -24.333 177 -73 239c-44 56 -99.667 84 -167 84c-75.333 0 -141.666 -36.667 -198.999 -110c-4 -28.667 -6 -56 -6 -82c0 -178 37.667 -297.333 113 -358c33.333 -26.667 73.666 -40 120.999 -40z" />
    <glyph glyph-name="uni248E" unicode="&#x37;&#x2e;" horiz-adv-x="1476" 
d="M1095 98c0 34 11.999 61.334 35.999 82.001s54.333 31 91 31s65 -12.333 85 -37s30 -53.834 30 -87.501s-11.5 -60.667 -34.5 -81s-52.167 -30.5 -87.5 -30.5s-64.166 12 -86.499 36s-33.5 53 -33.5 87zM888.999 1264l-509.999 -1264c-4.66699 -9.33301 -32 -14 -82 -14
c-45.333 0 -68 4.66699 -68 14c8.66699 14.667 25.667 48 51 100l62 138l397 901c6 14.667 9 24 9 28c0 10 -11 15 -33 15h-215c-108.667 0 -179 -4.33301 -211 -13c-70.667 -19.333 -119.334 -63 -146.001 -131c-4 -9.33301 -15.333 -14 -34 -14
c-16 0 -24.333 4.66699 -25 14l51 248c4 20.667 17.667 31 41 31h682c26 0 39 -7.66699 39 -23c0 -7.33301 -2.66699 -17.333 -8 -30z" />
    <glyph glyph-name="uni248F" unicode="&#x38;&#x2e;" horiz-adv-x="1476" 
d="M1095 98c0 34 11.999 61.334 35.999 82.001s54.333 31 91 31s65 -12.333 85 -37s30 -53.834 30 -87.501s-11.5 -60.667 -34.5 -81s-52.167 -30.5 -87.5 -30.5s-64.166 12 -86.499 36s-33.5 53 -33.5 87zM476.999 -15.999c-114 0 -206 32.665 -276 97.998
c-64.667 60 -97 137.667 -97 233c0 139.333 91 257 273 353c-84.667 54.667 -140 101.667 -166 141c-46.667 62 -70 128.333 -70 199c0 89.333 33 167 99 233c62 61.333 141 92 237 92c122 0 212.333 -36 271 -108c40.667 -49.333 61 -111.666 61 -186.999
c0 -138.667 -75.667 -247.667 -227 -327c180 -115.333 270 -241.666 270 -378.999c0 -102.667 -37.667 -186.667 -113 -252c-72 -64 -159.333 -96 -262 -96zM257.999 1075c0 -85.333 52.999 -167.333 158.999 -246c22 -16.667 59 -41.667 111 -75
c94.667 66.667 142 147.667 142 243c0 86.667 -25 154.667 -75 204c-35.333 37.333 -82.666 56 -141.999 56c-68 0 -120.667 -23.667 -158 -71c-24.667 -32 -37 -69 -37 -111zM708.998 259.999c0 85.333 -29.332 156.333 -87.999 213c-56.667 54 -109.334 98 -158.001 132
l-29 20c-116 -67.333 -174 -163.666 -174 -288.999c0 -74.667 22.667 -140.334 68 -197.001c47.333 -58.667 107.333 -88 180 -88c67.333 0 120.333 25.667 159 77c28 37.333 42 81.333 42 132z" />
    <glyph glyph-name="uni2490" unicode="&#x39;&#x2e;" horiz-adv-x="1476" 
d="M1095 98c0 34 11.999 61.334 35.999 82.001s54.333 31 91 31s65 -12.333 85 -37s30 -53.834 30 -87.501s-11.5 -60.667 -34.5 -81s-52.167 -30.5 -87.5 -30.5s-64.166 12 -86.499 36s-33.5 53 -33.5 87zM482.999 1333c118.667 0 212.333 -48.333 281 -145
c61.333 -86 92 -194 92 -324c0 -208 -79.333 -403.333 -238 -586c-112.667 -128.667 -247.667 -233 -405 -313l-8 -1c-10.667 3.33301 -19.667 15 -27 35c-2.66699 6.66699 -4 12.334 -4 17.001c0 4 2 7.66699 6 11c126.667 74 236 164 328 270
c78 89.333 133.333 219 166 389c-85.333 -90 -171.333 -135 -258 -135c-89.333 0 -165.333 34.333 -228 103c-62 73.333 -94 157.666 -96 252.999c0 128 36.667 231.667 110 311c71.333 76.667 165 115 281 115zM247.998 975.001c0 -90 23.332 -165.665 69.999 -226.998
c43.333 -57.333 97.666 -86 162.999 -86c74.667 0 142.334 37.333 203.001 112c4 29.333 6 58.666 6 87.999c0 156 -32.667 267 -98 333c-23.333 22 -69.666 40.667 -138.999 56c-72.667 0 -128 -35.333 -166 -106c-26 -48.667 -39 -105.334 -39 -170.001z" />
    <glyph glyph-name="uni2491" unicode="&#x31;&#x30;&#x2e;" horiz-adv-x="2432" 
d="M2051 98c0 34 12 61.334 36 82.001s54.333 31 91 31s65 -12.333 85 -37s30 -53.834 30 -87.501s-11.5 -60.667 -34.5 -81s-52.167 -30.5 -87.5 -30.5s-64.166 12 -86.5 36c-22.333 24 -33.5 53 -33.5 87zM1435 1333c146 0 254.668 -79.3311 326.001 -237.998
c54.667 -120.667 82 -271.334 82 -452.001c0 -179.333 -32 -329.333 -96 -450c-74.667 -139.333 -179.334 -209 -314.001 -209c-151.333 0 -262.333 82.667 -333 248c-49.333 117.333 -74 262.666 -74 435.999c0 201.333 36 362.333 108 483c72 121.333 172.333 182 301 182
zM1665 631.003c0 155.333 -13.667 300.667 -41 436c-26.667 134 -89 201 -187 201c-93.333 0 -159.333 -79.333 -198 -238c-26 -98 -39 -214 -39 -348c0 -141.333 5.33301 -246.333 16 -315c30 -175.333 85.667 -278 167 -308c15.333 -5.33301 31.333 -8 48 -8
c156 0 234 193.333 234 580zM756.001 -7.99609c-52.667 5.33301 -139.998 8.00098 -261.998 8.00098c-124 0 -212.333 -2.66699 -265 -8c-9.33301 0 -14 9.33301 -14 28c0 19.333 4.66699 29 14 29c78 0 128 9 150 27c30 26 45 87.333 45 184v870c0 31.333 -7 47 -21 47
c-5.33301 0 -13.333 -2.66699 -24 -8l-129 -59c-13.333 0 -22 7.33301 -26 22c-1.33301 6 -1.33301 11 0 15s3.66602 7.33301 6.99902 10c130.667 63.333 238.667 133.666 324 210.999c4 4 9.33301 6 16 6c8 0 12.333 -4.66699 13 -14c-4 -60 -6 -117.333 -6 -172v-926
c0 -80.667 8 -134 24 -160c23.333 -35.333 74.666 -53 153.999 -53c9.33301 0 14 -9.33301 14 -28c0 -19.333 -4.66699 -29 -14 -29z" />
    <glyph glyph-name="uni2492" unicode="&#x31;&#x31;&#x2e;" horiz-adv-x="2432" 
d="M2051 98c0 34 12 61.334 36 82.001s54.333 31 91 31s65 -12.333 85 -37s30 -53.834 30 -87.501s-11.5 -60.667 -34.5 -81s-52.167 -30.5 -87.5 -30.5s-64.166 12 -86.5 36c-22.333 24 -33.5 53 -33.5 87zM1712 -7.99902
c-52.667 5.33301 -139.998 8.00098 -261.998 8.00098c-124 0 -212.333 -2.66699 -265 -8c-9.33301 0 -14 9.33301 -14 28c0 19.333 4.66699 29 14 29c78 0 128 9 150 27c30 26 45 87.333 45 184v870c0 31.333 -7 47 -21 47c-5.33301 0 -13.333 -2.66699 -24 -8l-129 -59
c-13.333 0 -22 7.33301 -26 22c-1.33301 6 -1.33301 11 0 15s3.66602 7.33301 6.99902 10c130.667 63.333 238.667 133.666 324 210.999c4 4 9.33301 6 16 6c8 0 12.333 -4.66699 13 -14c-4 -60 -6 -117.333 -6 -172v-926c0 -80.667 8 -134 24 -160
c23.333 -35.333 74.666 -53 153.999 -53c9.33301 0 14 -9.33301 14 -28c0 -19.333 -4.66699 -29 -14 -29zM756.002 -7.99805c-52.667 5.33301 -139.998 8.00098 -261.998 8.00098c-124 0 -212.333 -2.66699 -265 -8c-9.33301 0 -14 9.33301 -14 28
c0 19.333 4.66699 29 14 29c78 0 128 9 150 27c30 26 45 87.333 45 184v870c0 31.333 -7 47 -21 47c-5.33301 0 -13.333 -2.66699 -24 -8l-129 -59c-13.333 0 -22 7.33301 -26 22c-1.33301 6 -1.33301 11 0 15s3.66602 7.33301 6.99902 10
c130.667 63.333 238.667 133.666 324 210.999c4 4 9.33301 6 16 6c8 0 12.333 -4.66699 13 -14c-4 -60 -6 -117.333 -6 -172v-926c0 -80.667 8 -134 24 -160c23.333 -35.333 74.666 -53 153.999 -53c9.33301 0 14 -9.33301 14 -28c0 -19.333 -4.66699 -29 -14 -29z" />
    <glyph glyph-name="uni2493" unicode="&#x31;&#x32;&#x2e;" horiz-adv-x="2432" 
d="M2051 98c0 34 12 61.334 36 82.001s54.333 31 91 31s65 -12.333 85 -37s30 -53.834 30 -87.501s-11.5 -60.667 -34.5 -81s-52.167 -30.5 -87.5 -30.5s-64.166 12 -86.5 36c-22.333 24 -33.5 53 -33.5 87zM1837 244.001l-101.002 -219c-10 -22 -27 -33 -51 -33
c-90 5.33301 -197.667 8 -323 8c-119.333 0 -239 -2.66699 -359 -8c-27.333 0 -41 13 -41 39c0 6 3.33301 12 10 18c294.667 307.333 485.334 562 572.001 764c24.667 54 37 115.333 37 184c0 70.667 -25.333 126 -76 166c-36.667 28.667 -81 43 -133 43
c-96 0 -178 -60.667 -246 -182c-2.66699 -2.66699 -6 -4 -10 -4c-14 0 -27 5.66699 -39 17c-6 5.33301 -9 10 -9 14c0 1.33301 0.333008 2.66602 1 3.99902c39.333 79.333 89.666 142.666 150.999 189.999c70.667 58.667 148 88 232 88c100 0 179.333 -35.333 238 -106
c48.667 -54.667 73 -127.667 73 -219c0 -97.333 -37 -197.666 -111 -300.999c-40 -54.667 -96 -124.334 -168 -209.001l-284 -318c-10.667 -11.333 -16 -20.666 -16 -27.999c0 -10 10 -15 30 -15h297c108.667 0 184.334 20 227.001 60c18 16.667 32.333 37.667 43 63
c0.666992 4 6.33398 6 17.001 6c20.667 -0.666992 33.667 -5.33398 39 -14.001c0.666992 -1.33301 1 -2.66602 1 -3.99902s-0.333008 -2.66602 -1 -3.99902zM755.998 -7.99902c-52.667 5.33301 -139.998 8.00098 -261.998 8.00098c-124 0 -212.333 -2.66699 -265 -8
c-9.33301 0 -14 9.33301 -14 28c0 19.333 4.66699 29 14 29c78 0 128 9 150 27c30 26 45 87.333 45 184v870c0 31.333 -7 47 -21 47c-5.33301 0 -13.333 -2.66699 -24 -8l-129 -59c-13.333 0 -22 7.33301 -26 22c-1.33301 6 -1.33301 11 0 15s3.66602 7.33301 6.99902 10
c130.667 63.333 238.667 133.666 324 210.999c4 4 9.33301 6 16 6c8 0 12.333 -4.66699 13 -14c-4 -60 -6 -117.333 -6 -172v-926c0 -80.667 8 -134 24 -160c23.333 -35.333 74.666 -53 153.999 -53c9.33301 0 14 -9.33301 14 -28c0 -19.333 -4.66699 -29 -14 -29z" />
    <glyph glyph-name="uni2494" unicode="&#x31;&#x33;&#x2e;" horiz-adv-x="2432" 
d="M2051 98c0 34 12 61.334 36 82.001s54.333 31 91 31s65 -12.333 85 -37s30 -53.834 30 -87.501s-11.5 -60.667 -34.5 -81s-52.167 -30.5 -87.5 -30.5s-64.166 12 -86.5 36c-22.333 24 -33.5 53 -33.5 87zM1775 414.001c0 -123.333 -44.332 -227.336 -132.999 -312.003
c-87.333 -83.333 -192.333 -125 -315 -125c-94 0 -167 18 -219 54c-37.333 25.333 -56 57.333 -56 96c0 25.333 12.667 46 38 62c13.333 8 27.333 12 42 12c24 0 58 -24.667 102 -74c46 -49.333 94.667 -74 146 -74c72 0 130 39 174 117c34 62.667 51 135 51 217
c0 86.667 -24.667 158.334 -74 215.001c-50 58.667 -119.333 88 -208 88c-43.333 0 -81 -5.33301 -113 -16c-9.33301 0 -14 13.667 -14 41c0 26 4.66699 39 14 39c120 0 211.667 31 275 93c47.333 46.667 71 106.334 71 179.001c0 67.333 -23 120.333 -69 159
c-33.333 28 -73 42 -119 42c-78.667 0 -147.667 -45.667 -207 -137c-0.666992 -2 -2.66699 -3 -6 -3c-14.667 0 -27.667 7.33301 -39 22c-5.33301 6 -8 11.667 -8 17c0 1.33301 0.666992 2.66602 2 3.99902c91.333 135.333 199.666 203 324.999 203
c76.667 0 141 -28 193 -84c53.333 -56.667 80 -122 80 -196c0 -111.333 -61 -201.666 -183 -270.999c-21.333 -12 -32 -20.333 -32 -25c0 -7.33301 9.33301 -12.666 28 -15.999c169.333 -34 254 -143 254 -327zM756.001 -8.00195
c-52.667 5.33301 -139.998 8.00098 -261.998 8.00098c-124 0 -212.333 -2.66699 -265 -8c-9.33301 0 -14 9.33301 -14 28c0 19.333 4.66699 29 14 29c78 0 128 9 150 27c30 26 45 87.333 45 184v870c0 31.333 -7 47 -21 47c-5.33301 0 -13.333 -2.66699 -24 -8l-129 -59
c-13.333 0 -22 7.33301 -26 22c-1.33301 6 -1.33301 11 0 15s3.66602 7.33301 6.99902 10c130.667 63.333 238.667 133.666 324 210.999c4 4 9.33301 6 16 6c8 0 12.333 -4.66699 13 -14c-4 -60 -6 -117.333 -6 -172v-926c0 -80.667 8 -134 24 -160
c23.333 -35.333 74.666 -53 153.999 -53c9.33301 0 14 -9.33301 14 -28c0 -19.333 -4.66699 -29 -14 -29z" />
    <glyph glyph-name="uni2495" unicode="&#x31;&#x34;&#x2e;" horiz-adv-x="2432" 
d="M2051 98c0 34 12 61.334 36 82.001s54.333 31 91 31s65 -12.333 85 -37s30 -53.834 30 -87.501s-11.5 -60.667 -34.5 -81s-52.167 -30.5 -87.5 -30.5s-64.166 12 -86.5 36c-22.333 24 -33.5 53 -33.5 87zM1826 391.001l-116.001 0.000976562
c-15.333 0 -23 -6.66699 -23 -20v-244c0 -52 40.333 -78 121 -78c9.33301 0 14 -9.33301 14 -28c0 -19.333 -4.66699 -29 -14 -29c-51.333 5.33301 -114.666 8 -189.999 8c-110 0 -190.667 -2.66699 -242 -8c-9.33301 0 -14 9.33301 -14 28c0 19.333 4.66699 29 14 29
c105.333 0 158 26 158 78v244c0 13.333 -7 20 -21 20h-477c-44.667 0 -67 12.333 -67 37c0 7.33301 2.33301 16.666 7 27.999c7.33301 17.333 20.333 38.666 39 63.999l222 301c9.33301 12.667 149 214 419 604c6 8.66699 19 13 39 13c38.667 0 58 -10.333 58 -31l-647 -897
c-5.33301 -7.33301 -8 -13.666 -8 -18.999c0 -9.33301 8.66699 -14 26 -14h389c14 0 21 7 21 21v444c0 10 25.333 15 76 15c51.333 0 77 -5 77 -15v-444c0 -14 7.66699 -21 23 -21h116c12 0 18 -14.333 18 -43s-6 -43 -18 -43zM755.999 -7.99805
c-52.667 5.33301 -139.998 8.00098 -261.998 8.00098c-124 0 -212.333 -2.66699 -265 -8c-9.33301 0 -14 9.33301 -14 28c0 19.333 4.66699 29 14 29c78 0 128 9 150 27c30 26 45 87.333 45 184v870c0 31.333 -7 47 -21 47c-5.33301 0 -13.333 -2.66699 -24 -8l-129 -59
c-13.333 0 -22 7.33301 -26 22c-1.33301 6 -1.33301 11 0 15s3.66602 7.33301 6.99902 10c130.667 63.333 238.667 133.666 324 210.999c4 4 9.33301 6 16 6c8 0 12.333 -4.66699 13 -14c-4 -60 -6 -117.333 -6 -172v-926c0 -80.667 8 -134 24 -160
c23.333 -35.333 74.666 -53 153.999 -53c9.33301 0 14 -9.33301 14 -28c0 -19.333 -4.66699 -29 -14 -29z" />
    <glyph glyph-name="uni2496" unicode="&#x31;&#x35;&#x2e;" horiz-adv-x="2432" 
d="M2051 98c0 34 12 61.334 36 82.001s54.333 31 91 31s65 -12.333 85 -37s30 -53.834 30 -87.501s-11.5 -60.667 -34.5 -81s-52.167 -30.5 -87.5 -30.5s-64.166 12 -86.5 36c-22.333 24 -33.5 53 -33.5 87zM1769 496.001c0 -143.333 -43.667 -263.667 -131 -361
c-90.667 -100.667 -206.667 -151 -348 -151c-94 0 -162.667 17.667 -206 53c-24 20.667 -36 45.334 -36 74.001c0 54.667 27.333 82 82 82c26 0 62.333 -21.333 109 -64c45.333 -40.667 90.333 -61 135 -61c74.667 0 138 38.667 190 116c45.333 67.333 68 141.333 68 222
c0 138.667 -47 235.667 -141 291c-52 30.667 -115.667 46 -191 46c-33.333 0 -76.333 -6 -129 -18h-13c-10 0 -15 7.66699 -15 23c0 3.33301 0.333008 6.66602 1 9.99902l93 530c3.33301 19.333 14 29 32 29h471c4.66699 0 7 -5.66699 7 -17
c0 -35.333 -8.66699 -71 -26 -107c-6 -12.667 -11 -19 -15 -19h-383c-19.333 0 -30.333 -9 -33 -27l-43 -234c-2 -15.333 2 -23 12 -23l80 5c155.333 0 271 -46.333 347 -139c55.333 -67.333 83 -154 83 -260zM756 -8c-52.667 5.33301 -139.998 8.00098 -261.998 8.00098
c-124 0 -212.333 -2.66699 -265 -8c-9.33301 0 -14 9.33301 -14 28c0 19.333 4.66699 29 14 29c78 0 128 9 150 27c30 26 45 87.333 45 184v870c0 31.333 -7 47 -21 47c-5.33301 0 -13.333 -2.66699 -24 -8l-129 -59c-13.333 0 -22 7.33301 -26 22
c-1.33301 6 -1.33301 11 0 15s3.66602 7.33301 6.99902 10c130.667 63.333 238.667 133.666 324 210.999c4 4 9.33301 6 16 6c8 0 12.333 -4.66699 13 -14c-4 -60 -6 -117.333 -6 -172v-926c0 -80.667 8 -134 24 -160c23.333 -35.333 74.666 -53 153.999 -53
c9.33301 0 14 -9.33301 14 -28c0 -19.333 -4.66699 -29 -14 -29z" />
    <glyph glyph-name="uni2497" unicode="&#x31;&#x36;&#x2e;" horiz-adv-x="2432" 
d="M2051 98c0 34 12 61.334 36 82.001s54.333 31 91 31s65 -12.333 85 -37s30 -53.834 30 -87.501s-11.5 -60.667 -34.5 -81s-52.167 -30.5 -87.5 -30.5s-64.166 12 -86.5 36c-22.333 24 -33.5 53 -33.5 87zM1429 -15.999c-127.333 0 -224.667 53.332 -292 159.999
c-54 85.333 -81 192.333 -81 321c0 190.667 66.333 372.334 199 545.001c130.667 169.333 281.667 292 453 368h9c15.333 -4.66699 23 -17 23 -37c0 -6 -2 -10 -6 -12c-195.333 -110.667 -333.666 -253 -414.999 -427c-38.667 -82 -66 -173 -82 -273
c101.333 91.333 190.666 137 267.999 137c94.667 0 171.667 -39.667 231 -119c56 -72.667 84 -158 84 -256c0 -112 -35.333 -206.667 -106 -284c-74 -82 -169 -123 -285 -123zM1454 63c68.667 0 123.333 32 164 96c31.333 48.667 47 105.667 47 171
c0 97.333 -24.333 177 -73 239c-44 56 -99.667 84 -167 84c-75.333 0 -141.666 -36.667 -198.999 -110c-4 -28.667 -6 -56 -6 -82c0 -178 37.667 -297.333 113 -358c33.333 -26.667 73.666 -40 120.999 -40zM755.998 -8c-52.667 5.33301 -139.998 8.00098 -261.998 8.00098
c-124 0 -212.333 -2.66699 -265 -8c-9.33301 0 -14 9.33301 -14 28c0 19.333 4.66699 29 14 29c78 0 128 9 150 27c30 26 45 87.333 45 184v870c0 31.333 -7 47 -21 47c-5.33301 0 -13.333 -2.66699 -24 -8l-129 -59c-13.333 0 -22 7.33301 -26 22
c-1.33301 6 -1.33301 11 0 15s3.66602 7.33301 6.99902 10c130.667 63.333 238.667 133.666 324 210.999c4 4 9.33301 6 16 6c8 0 12.333 -4.66699 13 -14c-4 -60 -6 -117.333 -6 -172v-926c0 -80.667 8 -134 24 -160c23.333 -35.333 74.666 -53 153.999 -53
c9.33301 0 14 -9.33301 14 -28c0 -19.333 -4.66699 -29 -14 -29z" />
    <glyph glyph-name="uni2498" unicode="&#x31;&#x37;&#x2e;" horiz-adv-x="2432" 
d="M2051 98c0 34 12 61.334 36 82.001s54.333 31 91 31s65 -12.333 85 -37s30 -53.834 30 -87.501s-11.5 -60.667 -34.5 -81s-52.167 -30.5 -87.5 -30.5s-64.166 12 -86.5 36c-22.333 24 -33.5 53 -33.5 87zM1845 1264l-509.999 -1264c-4.66699 -9.33301 -32 -14 -82 -14
c-45.333 0 -68 4.66699 -68 14c8.66699 14.667 25.667 48 51 100l62 138l397 901c6 14.667 9 24 9 28c0 10 -11 15 -33 15h-215c-108.667 0 -179 -4.33301 -211 -13c-70.667 -19.333 -119.334 -63 -146.001 -131c-4 -9.33301 -15.333 -14 -34 -14
c-16 0 -24.333 4.66699 -25 14l51 248c4 20.667 17.667 31 41 31h682c26 0 39 -7.66699 39 -23c0 -7.33301 -2.66699 -17.333 -8 -30zM756.001 -7.99902c-52.667 5.33301 -139.998 8.00098 -261.998 8.00098c-124 0 -212.333 -2.66699 -265 -8
c-9.33301 0 -14 9.33301 -14 28c0 19.333 4.66699 29 14 29c78 0 128 9 150 27c30 26 45 87.333 45 184v870c0 31.333 -7 47 -21 47c-5.33301 0 -13.333 -2.66699 -24 -8l-129 -59c-13.333 0 -22 7.33301 -26 22c-1.33301 6 -1.33301 11 0 15s3.66602 7.33301 6.99902 10
c130.667 63.333 238.667 133.666 324 210.999c4 4 9.33301 6 16 6c8 0 12.333 -4.66699 13 -14c-4 -60 -6 -117.333 -6 -172v-926c0 -80.667 8 -134 24 -160c23.333 -35.333 74.666 -53 153.999 -53c9.33301 0 14 -9.33301 14 -28c0 -19.333 -4.66699 -29 -14 -29z" />
    <glyph glyph-name="uni2499" unicode="&#x31;&#x38;&#x2e;" horiz-adv-x="2432" 
d="M2051 98c0 34 12 61.334 36 82.001s54.333 31 91 31s65 -12.333 85 -37s30 -53.834 30 -87.501s-11.5 -60.667 -34.5 -81s-52.167 -30.5 -87.5 -30.5s-64.166 12 -86.5 36c-22.333 24 -33.5 53 -33.5 87zM1433 -15.999c-114 0 -206 32.665 -276 97.998
c-64.667 60 -97 137.667 -97 233c0 139.333 91 257 273 353c-84.667 54.667 -140 101.667 -166 141c-46.667 62 -70 128.333 -70 199c0 89.333 33 167 99 233c62 61.333 141 92 237 92c122 0 212.333 -36 271 -108c40.667 -49.333 61 -111.666 61 -186.999
c0 -138.667 -75.667 -247.667 -227 -327c180 -115.333 270 -241.666 270 -378.999c0 -102.667 -37.667 -186.667 -113 -252c-72 -64 -159.333 -96 -262 -96zM1214 1075c0 -85.333 52.999 -167.333 158.999 -246c22 -16.667 59 -41.667 111 -75
c94.667 66.667 142 147.667 142 243c0 86.667 -25 154.667 -75 204c-35.333 37.333 -82.666 56 -141.999 56c-68 0 -120.667 -23.667 -158 -71c-24.667 -32 -37 -69 -37 -111zM1665 259.999c0 85.333 -29.332 156.333 -87.999 213c-56.667 54 -109.334 98 -158.001 132
l-29 20c-116 -67.333 -174 -163.666 -174 -288.999c0 -74.667 22.667 -140.334 68 -197.001c47.333 -58.667 107.333 -88 180 -88c67.333 0 120.333 25.667 159 77c28 37.333 42 81.333 42 132zM756 -8.00098c-52.667 5.33301 -139.998 8.00098 -261.998 8.00098
c-124 -0 -212.333 -2.66699 -265 -8c-9.33301 0 -14 9.33301 -14 28c0 19.333 4.66699 29 14 29c78 0 128 9 150 27c30 26 45 87.333 45 184v870c0 31.333 -7 47 -21 47c-5.33301 0 -13.333 -2.66699 -24 -8l-129 -59c-13.333 0 -22 7.33301 -26 22
c-1.33301 6 -1.33301 11 0 15s3.66602 7.33301 6.99902 10c130.667 63.333 238.667 133.666 324 210.999c4 4 9.33301 6 16 6c8 0 12.333 -4.66699 13 -14c-4 -60 -6 -117.333 -6 -172v-926c0 -80.667 8 -134 24 -160c23.333 -35.333 74.666 -53 153.999 -53
c9.33301 0 14 -9.33301 14 -28c0 -19.333 -4.66699 -29 -14 -29z" />
    <glyph glyph-name="uni249A" unicode="&#x31;&#x39;&#x2e;" horiz-adv-x="2432" 
d="M2051 98c0 34 12 61.334 36 82.001s54.333 31 91 31s65 -12.333 85 -37s30 -53.834 30 -87.501s-11.5 -60.667 -34.5 -81s-52.167 -30.5 -87.5 -30.5s-64.166 12 -86.5 36c-22.333 24 -33.5 53 -33.5 87zM1439 1333c118.667 0 212.333 -48.333 281 -145
c61.333 -86 92 -194 92 -324c0 -208 -79.333 -403.333 -238 -586c-112.667 -128.667 -247.667 -233 -405 -313l-8 -1c-10.667 3.33301 -19.667 15 -27 35c-2.66699 6.66699 -4 12.334 -4 17.001c0 4 2 7.66699 6 11c126.667 74 236 164 328 270
c78 89.333 133.333 219 166 389c-85.333 -90 -171.333 -135 -258 -135c-89.333 0 -165.333 34.333 -228 103c-62 73.333 -94 157.666 -96 252.999c0 128 36.667 231.667 110 311c71.333 76.667 165 115 281 115zM1204 975.001c0 -90 23.332 -165.665 69.999 -226.998
c43.333 -57.333 97.666 -86 162.999 -86c74.667 0 142.334 37.333 203.001 112c4 29.333 6 58.666 6 87.999c0 156 -32.667 267 -98 333c-23.333 22 -69.666 40.667 -138.999 56c-72.667 0 -128 -35.333 -166 -106c-26 -48.667 -39 -105.334 -39 -170.001zM755.998 -7.99707
c-52.667 5.33301 -139.998 8.00098 -261.998 8.00098c-124 0 -212.333 -2.66699 -265 -8c-9.33301 0 -14 9.33301 -14 28c0 19.333 4.66699 29 14 29c78 0 128 9 150 27c30 26 45 87.333 45 184v870c0 31.333 -7 47 -21 47c-5.33301 0 -13.333 -2.66699 -24 -8l-129 -59
c-13.333 0 -22 7.33301 -26 22c-1.33301 6 -1.33301 11 0 15s3.66602 7.33301 6.99902 10c130.667 63.333 238.667 133.666 324 210.999c4 4 9.33301 6 16 6c8 0 12.333 -4.66699 13 -14c-4 -60 -6 -117.333 -6 -172v-926c0 -80.667 8 -134 24 -160
c23.333 -35.333 74.666 -53 153.999 -53c9.33301 0 14 -9.33301 14 -28c0 -19.333 -4.66699 -29 -14 -29z" />
    <glyph glyph-name="uni249B" unicode="&#x32;&#x30;&#x2e;" horiz-adv-x="2432" 
d="M2051 98c0 34 12 61.334 36 82.001s54.333 31 91 31s65 -12.333 85 -37s30 -53.834 30 -87.501s-11.5 -60.667 -34.5 -81s-52.167 -30.5 -87.5 -30.5s-64.166 12 -86.5 36c-22.333 24 -33.5 53 -33.5 87zM1435 1333c146 0 254.668 -79.3311 326.001 -237.998
c54.667 -120.667 82 -271.334 82 -452.001c0 -179.333 -32 -329.333 -96 -450c-74.667 -139.333 -179.334 -209 -314.001 -209c-151.333 0 -262.333 82.667 -333 248c-49.333 117.333 -74 262.666 -74 435.999c0 201.333 36 362.333 108 483c72 121.333 172.333 182 301 182
zM1665 631.003c0 155.333 -13.667 300.667 -41 436c-26.667 134 -89 201 -187 201c-93.333 0 -159.333 -79.333 -198 -238c-26 -98 -39 -214 -39 -348c0 -141.333 5.33301 -246.333 16 -315c30 -175.333 85.667 -278 167 -308c15.333 -5.33301 31.333 -8 48 -8
c156 0 234 193.333 234 580zM881.001 244.004l-101.002 -219c-10 -22 -27 -33 -51 -33c-90 5.33301 -197.667 8 -323 8c-119.333 0 -239 -2.66699 -359 -8c-27.333 0 -41 13 -41 39c0 6 3.33301 12 10 18c294.667 307.333 485.334 562 572.001 764
c24.667 54 37 115.333 37 184c0 70.667 -25.333 126 -76 166c-36.667 28.667 -81 43 -133 43c-96 0 -178 -60.667 -246 -182c-2.66699 -2.66699 -6 -4 -10 -4c-14 0 -27 5.66699 -39 17c-6 5.33301 -9 10 -9 14c0 1.33301 0.333008 2.66602 1 3.99902
c39.333 79.333 89.666 142.666 150.999 189.999c70.667 58.667 148 88 232 88c100 0 179.333 -35.333 238 -106c48.667 -54.667 73 -127.667 73 -219c0 -97.333 -37 -197.666 -111 -300.999c-40 -54.667 -96 -124.334 -168 -209.001l-284 -318
c-10.667 -11.333 -16 -20.666 -16 -27.999c0 -10 10 -15 30 -15h297c108.667 0 184.334 20 227.001 60c18 16.667 32.333 37.667 43 63c0.666992 4 6.33398 6 17.001 6c20.667 -0.666992 33.667 -5.33398 39 -14.001c0.666992 -1.33301 1 -2.66602 1 -3.99902
s-0.333008 -2.66602 -1 -3.99902z" />
    <glyph glyph-name="uni249C" unicode="&#x28;a&#x29;" horiz-adv-x="2124" 
d="M1983 588c0 -174.667 -45.667 -360.999 -137 -558.999c-64 -136.667 -154 -259 -270 -367c-10.667 -10.667 -23.667 -16 -39 -16c-12.667 0 -24.334 6 -35.001 18c-4 4 -6 8 -6 12c0 11.333 6 23 18 35c220 228 330 520.333 330 877c0 354 -110.667 645.333 -332 874
c-10.667 10.667 -16 23.667 -16 39c0 8 8 16 24 24c6.66699 3.33301 12.334 5 17.001 5c15.333 0 28.333 -4.66699 39 -14c129.333 -121.333 225.333 -245 288 -371c79.333 -160.667 119 -346.334 119 -557.001zM1157 199.001v215c0 14.667 -4.66699 22 -14 22
c-4.66699 0 -24.667 -8.66699 -60 -26c-113.333 -57.333 -170 -131.333 -170 -222c0 -32.667 10.5 -59.167 31.5 -79.5s50.167 -30.5 87.5 -30.5c26.667 0 54.167 14.167 82.5 42.5s42.5 54.5 42.5 78.5zM1457 123.001c14.667 -2 24.335 -11.999 29.002 -29.999
c0 -2 -0.333008 -3.66699 -1 -5c-27.333 -46 -52.666 -76 -75.999 -90s-54 -21 -92 -21c-70.667 0 -118.334 45.333 -143.001 136c-50.667 -50.667 -91 -86 -121 -106s-74 -30 -132 -30c-37.333 0 -68.333 10.333 -93 31s-42.167 44.5 -52.5 71.5s-15.5 54.5 -15.5 82.5
c0 27.333 6.66699 54.666 20 81.999s33.166 52 59.499 74s48.166 37.667 65.499 47l232 129c13.333 7.33301 20 18 20 32v181c0 58.667 -44.333 88 -133 88c-64.667 0 -109.667 -16.667 -135 -50c-5.33301 -8.66699 -10.333 -39.667 -15 -93
c-9.33301 -66 -32.333 -99 -69 -99s-55 18.667 -55 56s13.5 74.833 40.5 112.5s50.167 62.167 69.5 73.5c85.333 50 167.333 75 246 75c48 0 94.167 -13.333 138.5 -40s66.5 -59.667 66.5 -99v-532c0 -76.667 22.333 -115 67 -115c21.333 0 45.333 12.333 72 37
c2 1.33301 4.33301 2 7 2zM647.001 -323.998c0 -8.66699 -8.33301 -17.001 -25 -25.001l-16 -5c-12.667 0 -25.667 5.33301 -39 16c-128.667 116 -224.667 239 -288 369c-79.333 160 -119 345.667 -119 557c0 174.667 45.667 361 137 559
c60.667 132.667 150.667 255.667 270 369c10.667 9.33301 23.667 14 39 14c12 0 23.667 -5.66699 35 -17c4 -4.66699 6 -8.66699 6 -12c0 -11.333 -6 -23.666 -18 -36.999c-220 -230.667 -330 -522.667 -330 -876c0 -350 111.333 -642.333 334 -877
c9.33301 -9.33301 14 -21 14 -35z" />
    <glyph glyph-name="uni249D" unicode="&#x28;b&#x29;" horiz-adv-x="2328" 
d="M2187 588c0 -174.667 -45.667 -360.999 -137 -558.999c-64 -136.667 -154 -259 -270 -367c-10.667 -10.667 -23.667 -16 -39 -16c-12.667 0 -24.334 6 -35.001 18c-4 4 -6 8 -6 12c0 11.333 6 23 18 35c220 228 330 520.333 330 877c0 354 -110.667 645.333 -332 874
c-10.667 10.667 -16 23.667 -16 39c0 8 8 16 24 24c6.66699 3.33301 12.334 5 17.001 5c15.333 0 28.333 -4.66699 39 -14c129.333 -121.333 225.333 -245 288 -371c79.333 -160.667 119 -346.334 119 -557.001zM1606 430.001c0 -145.333 -37.168 -257.167 -111.501 -335.5
s-172.5 -117.5 -294.5 -117.5c-39.333 0 -91 15.333 -155 46c-16 6.66699 -35.333 10 -58 10s-54.667 -18.667 -96 -56c-2 -1.33301 -5 -2 -9 -2s-11 2 -21 6c-20.667 8 -31 14.333 -31 19c2.66699 40.667 4 127.334 4 260.001v918c0 88.667 -30.667 133 -92 133
c-11.333 0 -17 9.16699 -17 27.5s5.66699 27.5 17 27.5c16.667 0 51.667 13.667 105 41s86.833 47.166 100.5 59.499s24.5 18.5 32.5 18.5c8.66699 0 13 -8.33301 13 -25l-6 -124v-500c0 -18 4.33301 -27 13 -27c6 0 12.667 2 20 6c62.667 36.667 121.334 55 176.001 55
c117.333 0 215 -43.833 293 -131.5s117 -190.5 117 -308.5zM1432 414c0 104 -25.501 192.833 -76.501 266.5s-117.167 110.5 -198.5 110.5c-57.333 0 -106.333 -16.667 -147 -50c-15.333 -12 -23 -43.333 -23 -94v-346c0 -54 25.167 -111.5 75.5 -172.5
s107.5 -91.5 171.5 -91.5c64.667 0 113.834 37 147.501 111s50.5 162.667 50.5 266zM646.998 -324c0 -8.66699 -8.33301 -17.001 -25 -25.001l-16 -5c-12.667 0 -25.667 5.33301 -39 16c-128.667 116 -224.667 239 -288 369c-79.333 160 -119 345.667 -119 557
c0 174.667 45.667 361 137 559c60.667 132.667 150.667 255.667 270 369c10.667 9.33301 23.667 14 39 14c12 0 23.667 -5.66699 35 -17c4 -4.66699 6 -8.66699 6 -12c0 -11.333 -6 -23.666 -18 -36.999c-220 -230.667 -330 -522.667 -330 -876
c0 -350 111.333 -642.333 334 -877c9.33301 -9.33301 14 -21 14 -35z" />
    <glyph glyph-name="uni249E" unicode="&#x28;c&#x29;" horiz-adv-x="2144" 
d="M2003 588c0 -174.667 -45.667 -360.999 -137 -558.999c-64 -136.667 -154 -259 -270 -367c-10.667 -10.667 -23.667 -16 -39 -16c-12.667 0 -24.334 6 -35.001 18c-4 4 -6 8 -6 12c0 11.333 6 23 18 35c220 228 330 520.333 330 877c0 354 -110.667 645.333 -332 874
c-10.667 10.667 -16 23.667 -16 39c0 8 8 16 24 24c6.66699 3.33301 12.334 5 17.001 5c15.333 0 28.333 -4.66699 39 -14c129.333 -121.333 225.333 -245 288 -371c79.333 -160.667 119 -346.334 119 -557.001zM1419 152.001
c7.33301 3.33301 15.4971 -1.83203 24.4971 -15.499s13.5 -23.167 13.5 -28.5c0 -4 -1.66699 -7.66699 -5 -11c-17.333 -16 -53.166 -40 -107.499 -72s-128.5 -48 -222.5 -48c-98 0 -182.5 39 -253.5 117s-106.5 178.667 -106.5 302s40.667 233.166 122 329.499
s186.333 144.5 315 144.5c130.667 0 208.334 -24.333 233.001 -73c4 -8 6 -21.667 6 -41c0 -12.667 -7.33301 -28.167 -22 -46.5s-27.667 -27.5 -39 -27.5s-20.333 4.66699 -27 14c-52 71.333 -109.667 107 -173 107s-121.166 -34 -173.499 -102s-78.5 -155 -78.5 -261
c0 -105.333 29.833 -190 89.5 -254s123.5 -96 191.5 -96c51.333 0 122.333 20.667 213 62zM646.997 -323.997c0 -8.66699 -8.33301 -17.001 -25 -25.001l-16 -5c-12.667 0 -25.667 5.33301 -39 16c-128.667 116 -224.667 239 -288 369c-79.333 160 -119 345.667 -119 557
c0 174.667 45.667 361 137 559c60.667 132.667 150.667 255.667 270 369c10.667 9.33301 23.667 14 39 14c12 0 23.667 -5.66699 35 -17c4 -4.66699 6 -8.66699 6 -12c0 -11.333 -6 -23.666 -18 -36.999c-220 -230.667 -330 -522.667 -330 -876
c0 -350 111.333 -642.333 334 -877c9.33301 -9.33301 14 -21 14 -35z" />
    <glyph glyph-name="uni249F" unicode="&#x28;d&#x29;" horiz-adv-x="2339" 
d="M2198 588c0 -174.667 -45.667 -360.999 -137 -558.999c-64 -136.667 -154 -259 -270 -367c-10.667 -10.667 -23.667 -16 -39 -16c-12.667 0 -24.334 6 -35.001 18c-4 4 -6 8 -6 12c0 11.333 6 23 18 35c220 228 330 520.333 330 877c0 354 -110.667 645.333 -332 874
c-10.667 10.667 -16 23.667 -16 39c0 8 8 16 24 24c6.66699 3.33301 12.334 5 17.001 5c15.333 0 28.333 -4.66699 39 -14c129.333 -121.333 225.333 -245 288 -371c79.333 -160.667 119 -346.334 119 -557.001zM1518 231.001c0 -99.333 27.333 -148.998 82 -148.998
c14.667 0 30.334 2 47.001 6c8 1.33301 14 -11 18 -37c1.33301 -12.667 -0.666992 -19.334 -6 -20.001c-24.667 -3.33301 -75.834 -13.833 -153.501 -31.5s-119.167 -28.5 -124.5 -32.5c-11.333 0 -17 16.333 -17 49v41c0 15.333 -3.83301 23 -11.5 23
s-16.834 -4.66699 -27.501 -14c-62.667 -59.333 -128 -89 -196 -89c-131.333 0 -228.666 40.833 -291.999 122.5s-95 185.5 -95 311.5s44 234 132 324s202.333 135 343 135c46.667 0 84.667 -4.66699 114 -14c8 -2.66699 14.333 -4 19 -4c9.33301 0 14 8.33301 14 25v294
c0 93.333 -30.667 140 -92 140c-11.333 0 -17 9.16699 -17 27.5s5.66699 27.5 17 27.5c16.667 0 49.334 12.167 98.001 36.5s83.167 44.166 103.5 59.499s33.833 23 40.5 23c7.33301 0 10.666 -5 9.99902 -15l-6 -108v-1131zM1364 199.003l-0.000976562 468.999
c0 50 -7.33301 81.333 -22 94c-39.333 32.667 -88.666 49 -147.999 49c-89.333 0 -159.833 -37.167 -211.5 -111.5s-77.5 -160.833 -77.5 -259.5c0 -99.333 27.667 -185.166 83 -257.499s119.333 -108.5 192 -108.5c52 0 95.667 13.667 131 41s53 55.333 53 84z
M646.999 -323.998c0 -8.66699 -8.33301 -17.001 -25 -25.001l-16 -5c-12.667 0 -25.667 5.33301 -39 16c-128.667 116 -224.667 239 -288 369c-79.333 160 -119 345.667 -119 557c0 174.667 45.667 361 137 559c60.667 132.667 150.667 255.667 270 369
c10.667 9.33301 23.667 14 39 14c12 0 23.667 -5.66699 35 -17c4 -4.66699 6 -8.66699 6 -12c0 -11.333 -6 -23.666 -18 -36.999c-220 -230.667 -330 -522.667 -330 -876c0 -350 111.333 -642.333 334 -877c9.33301 -9.33301 14 -21 14 -35z" />
    <glyph glyph-name="uni24A0" unicode="&#x28;e&#x29;" horiz-adv-x="2165" 
d="M2024 588c0 -174.667 -45.667 -360.999 -137 -558.999c-64 -136.667 -154 -259 -270 -367c-10.667 -10.667 -23.667 -16 -39 -16c-12.667 0 -24.334 6 -35.001 18c-4 4 -6 8 -6 12c0 11.333 6 23 18 35c220 228 330 520.333 330 877c0 354 -110.667 645.333 -332 874
c-10.667 10.667 -16 23.667 -16 39c0 8 8 16 24 24c6.66699 3.33301 12.334 5 17.001 5c15.333 0 28.333 -4.66699 39 -14c129.333 -121.333 225.333 -245 288 -371c79.333 -160.667 119 -346.334 119 -557.001zM761 431.001c0 118.667 37.833 221.499 113.5 308.499
s160.5 130.5 254.5 130.5s170 -32.667 228 -98s87 -118.666 87 -159.999c0 -42 -17 -63 -51 -63h-449c-20 0 -30 -22 -30 -66c0 -106.667 25.5 -198.167 76.5 -274.5s121.5 -114.5 211.5 -114.5c67.333 0 134.333 20 201 60c3.33301 2 7 3 11 3c8 0 15 -3.66699 21 -11
c4.66699 -4.66699 7 -11.667 7 -21c0 -3.33301 -1.33301 -6 -4 -8c-105.333 -93.333 -209 -140 -311 -140s-188.5 46 -259.5 138s-106.5 197.333 -106.5 316zM937 630c0 -9.33301 7.99902 -14 23.999 -14h321c10 0 15 5.66699 15 17c0 29.333 -18.167 66.333 -54.5 111
s-74.166 67 -113.499 67c-43.333 0 -80.833 -14.5 -112.5 -43.5s-57.167 -69.833 -76.5 -122.5c-2 -5.33301 -3 -10.333 -3 -15zM646.999 -324c0 -8.66699 -8.33301 -17.001 -25 -25.001l-16 -5c-12.667 0 -25.667 5.33301 -39 16c-128.667 116 -224.667 239 -288 369
c-79.333 160 -119 345.667 -119 557c0 174.667 45.667 361 137 559c60.667 132.667 150.667 255.667 270 369c10.667 9.33301 23.667 14 39 14c12 0 23.667 -5.66699 35 -17c4 -4.66699 6 -8.66699 6 -12c0 -11.333 -6 -23.666 -18 -36.999
c-220 -230.667 -330 -522.667 -330 -876c0 -350 111.333 -642.333 334 -877c9.33301 -9.33301 14 -21 14 -35z" />
    <glyph glyph-name="uni24A1" unicode="&#x28;f&#x29;" horiz-adv-x="2151" 
d="M2010 588c0 -174.667 -45.667 -360.999 -137 -558.999c-64 -136.667 -154 -259 -270 -367c-10.667 -10.667 -23.667 -16 -39 -16c-12.667 0 -24.334 6 -35.001 18c-4 4 -6 8 -6 12c0 11.333 6 23 18 35c220 228 330 520.333 330 877c0 354 -110.667 645.333 -332 874
c-10.667 10.667 -16 23.667 -16 39c0 8 8 16 24 24c6.66699 3.33301 12.334 5 17.001 5c15.333 0 28.333 -4.66699 39 -14c129.333 -121.333 225.333 -245 288 -371c79.333 -160.667 119 -346.334 119 -557.001zM877 127.001l-0.00195312 600c0 24.667 -12.333 37 -37 37
h-74c-10 0 -15 9.16699 -15 27.5s5 27.5 15 27.5c74 0 111 28.667 111 86v19c0 166.667 47 302.167 141 406.5s204 156.5 330 156.5c35.333 0 67.333 -4.33301 96 -13s50.834 -21.667 66.501 -39s23.5 -39.666 23.5 -66.999c0 -20.667 -9.16699 -39.834 -27.5 -57.501
s-37.833 -26.5 -58.5 -26.5c-37.333 0 -71.166 18.167 -101.499 54.5s-63.5 54.5 -99.5 54.5c-70.667 0 -124.5 -28.333 -161.5 -85s-55.5 -125.667 -55.5 -207v-214c0 -24.667 12.333 -37 37 -37h203c10 0 15 -14.333 15 -43s-5 -43 -15 -43h-203
c-24.667 0 -37 -12.333 -37 -37v-600c0 -52 49.333 -78 148 -78c9.33301 0 14 -9.5 14 -28.5s-4.66699 -28.5 -14 -28.5c-56.667 5.33301 -127 8 -211 8s-153 -2.66699 -207 -8c-9.33301 0 -14 9.5 -14 28.5s4.66699 28.5 14 28.5c78 0 117 26 117 78zM646.998 -323.999
c0 -8.66699 -8.33301 -17.001 -25 -25.001l-16 -5c-12.667 0 -25.667 5.33301 -39 16c-128.667 116 -224.667 239 -288 369c-79.333 160 -119 345.667 -119 557c0 174.667 45.667 361 137 559c60.667 132.667 150.667 255.667 270 369c10.667 9.33301 23.667 14 39 14
c12 0 23.667 -5.66699 35 -17c4 -4.66699 6 -8.66699 6 -12c0 -11.333 -6 -23.666 -18 -36.999c-220 -230.667 -330 -522.667 -330 -876c0 -350 111.333 -642.333 334 -877c9.33301 -9.33301 14 -21 14 -35z" />
    <glyph glyph-name="uni24A2" unicode="&#x28;g&#x29;" horiz-adv-x="2275" 
d="M2134 588c0 -174.667 -45.667 -360.999 -137 -558.999c-64 -136.667 -154 -259 -270 -367c-10.667 -10.667 -23.667 -16 -39 -16c-12.667 0 -24.334 6 -35.001 18c-4 4 -6 8 -6 12c0 11.333 6 23 18 35c220 228 330 520.333 330 877c0 354 -110.667 645.333 -332 874
c-10.667 10.667 -16 23.667 -16 39c0 8 8 16 24 24c6.66699 3.33301 12.334 5 17.001 5c15.333 0 28.333 -4.66699 39 -14c129.333 -121.333 225.333 -245 288 -371c79.333 -160.667 119 -346.334 119 -557.001zM735 -307.999c0 66 62.334 144 187.001 234
c10.667 8.66699 16 16 16 22c-1.33301 7.33301 -8 12.333 -20 15c-90.667 26 -136 75.333 -136 148c0 34 38 77.667 114 131c6.66699 4.66699 14.5 9.66699 23.5 15s13.5 12 13.5 20s-5 15.333 -15 22c-97.333 61.333 -146 141 -146 239c0 97.333 33.5 177 100.5 239
s142.833 93 227.5 93s156 -12.833 214 -38.5s104 -38.5 138 -38.5h172c10 0 15 -14.333 15 -43s-5 -43 -15 -43h-166c2.66699 -24.667 4 -61 4 -109c0 -96.667 -31.333 -177.167 -94 -241.5s-150 -96.5 -262 -96.5c-22 0 -47.333 1.33301 -76 4
c-14 0 -28.333 -4.66699 -43 -14c-46 -30 -69 -63.333 -69 -100c0 -53.333 49.667 -80 149 -80h254c198 0 297 -76 297 -228c0 -113.333 -53.167 -208.5 -159.5 -285.5s-224.5 -115.5 -354.5 -115.5c-120.667 0 -212.334 23.5 -275.001 70.5s-94 107.167 -94 180.5z
M895.001 -251.999c0 -65.333 24.332 -117.833 72.999 -157.5s119 -59.5 211 -59.5s167.667 22.167 227 66.5s89 97.833 89 160.5c0 124.667 -81.333 187 -244 187h-184c-23.333 0 -43.666 -6.33301 -60.999 -19c-74 -54 -111 -113.333 -111 -178zM926 569.001
c0 -72.667 22 -132.5 66 -179.5s92.333 -70.5 145 -70.5c113.333 0 170 74.667 170 224c0 114.667 -28.667 193.667 -86 237c-27.333 20.667 -64 31 -110 31s-88.333 -22.167 -127 -66.5s-58 -102.833 -58 -175.5zM647 -323.999c0 -8.66699 -8.33301 -17.001 -25 -25.001
l-16 -5c-12.667 0 -25.667 5.33301 -39 16c-128.667 116 -224.667 239 -288 369c-79.333 160 -119 345.667 -119 557c0 174.667 45.667 361 137 559c60.667 132.667 150.667 255.667 270 369c10.667 9.33301 23.667 14 39 14c12 0 23.667 -5.66699 35 -17
c4 -4.66699 6 -8.66699 6 -12c0 -11.333 -6 -23.666 -18 -36.999c-220 -230.667 -330 -522.667 -330 -876c0 -350 111.333 -642.333 334 -877c9.33301 -9.33301 14 -21 14 -35z" />
    <glyph glyph-name="uni24A3" unicode="&#x28;h&#x29;" horiz-adv-x="2421" 
d="M2280 588c0 -174.667 -45.666 -360.999 -136.999 -558.999c-64 -136.667 -154 -259 -270 -367c-10.667 -10.667 -23.667 -16 -39 -16c-12.667 0 -24.334 6 -35.001 18c-4 4 -6 8 -6 12c0 11.333 6 23 18 35c220 228 330 520.333 330 877c0 354 -110.667 645.333 -332 874
c-10.667 10.667 -16 23.667 -16 39c0 8 8 16 24 24c6.66699 3.33301 12.334 5 17.001 5c15.333 0 28.333 -4.66699 39 -14c129.333 -121.333 225.333 -245 287.999 -371c79.333 -160.667 119 -346.334 119 -557.001zM1598 127.001c0 -52 42.332 -78.001 126.999 -78.001
c9.33301 0 14 -9.5 14 -28.5s-4.66699 -28.5 -14 -28.5c-54 5.33301 -120 8 -198 8s-143.333 -2.66699 -196 -8c-9.33301 0 -14 9.5 -14 28.5s4.66699 28.5 14 28.5c75.333 0 113 26 113 78v420c0 64.667 -19.667 119.667 -59 165s-87 68 -143 68
c-56.667 0 -106.167 -17 -148.5 -51s-63.5 -67.333 -63.5 -100v-502c0 -52 37 -78 111 -78c9.33301 0 14 -9.5 14 -28.5s-4.66699 -28.5 -14 -28.5c-70 5.33301 -138.333 8 -205 8s-126.667 -2.66699 -180 -8c-9.33301 0 -14 9.5 -14 28.5s4.66699 28.5 14 28.5
c80.667 0 121 26 121 78v1047c0 92.667 -30.667 139 -92 139c-11.333 0 -17 9.16699 -17 27.5s5.66699 27.5 17 27.5c22 0 54.5 11.333 97.5 34s75.5 42.5 97.5 59.5s36.667 25.5 44 25.5c8 0 12 -5.66699 12 -17c-4 -71.333 -6 -126.333 -6 -165v-514
c0 -16.667 5.33301 -25 16 -25c6 0 11.667 2.66699 17 8c60.667 64 141 96 241 96c96.667 0 169.834 -35.167 219.501 -105.5s74.5 -142.166 74.5 -215.499v-422zM647 -324c0 -8.66699 -8.33301 -17.001 -25 -25.001l-16 -5c-12.667 0 -25.667 5.33301 -39 16
c-128.667 116 -224.667 239 -288 369c-79.333 160 -119 345.667 -119 557c0 174.667 45.667 361 137 559c60.667 132.667 150.667 255.667 270 369c10.667 9.33301 23.667 14 39 14c12 0 23.667 -5.66699 35 -17c4 -4.66699 6 -8.66699 6 -12
c0 -11.333 -6 -23.666 -18 -36.999c-220 -230.667 -330 -522.667 -330 -876c0 -350 111.333 -642.333 334 -877c9.33301 -9.33301 14 -21 14 -35z" />
    <glyph glyph-name="uni24A4" unicode="&#x28;i&#x29;" horiz-adv-x="1851" 
d="M1710 588c0 -174.667 -45.667 -360.999 -137 -558.999c-64 -136.667 -154 -259 -270 -367c-10.667 -10.667 -23.667 -16 -39 -16c-12.667 0 -24.334 6 -35.001 18c-4 4 -6 8 -6 12c0 11.333 6 23 18 35c220 228 330 520.333 330 877c0 354 -110.667 645.333 -332 874
c-10.667 10.667 -16 23.667 -16 39c0 8 8 16 24 24c6.66699 3.33301 12.334 5 17.001 5c15.333 0 28.333 -4.66699 39 -14c129.333 -121.333 225.333 -245 288 -371c79.333 -160.667 119 -346.334 119 -557.001zM1143 -7.99902c-50.667 5.33301 -113 7.99902 -187 7.99902
s-138 -2.66699 -192 -8c-9.33301 0 -14 9.5 -14 28.5s4.66699 28.5 14 28.5c75.333 0 113 26 113 78v444c0 92 -30.667 138 -92 138c-11.333 0 -17 9.33301 -17 28s5.66699 28 17 28c22 0 54.5 11.333 97.5 34s75.5 42.334 97.5 59.001s36.667 25 44 25
c8 0 12 -5.33301 12 -16c-4 -72 -6 -127.333 -6 -166v-574c0 -52 37.667 -78 113 -78c9.33301 0 14 -9.5 14 -28.5s-4.66699 -28.5 -14 -28.5zM1009 1232.5c21.333 -20.333 32 -45.5 32 -75.5s-10.667 -55.667 -32 -77s-47 -32 -77 -32s-55.167 10.667 -75.5 32
s-30.5 47 -30.5 77s10.167 55.167 30.5 75.5s45.5 30.5 75.5 30.5s55.667 -10.167 77 -30.5zM647 -324c0 -8.66699 -8.33301 -17.001 -25 -25.001l-16 -5c-12.667 0 -25.667 5.33301 -39 16c-128.667 116 -224.667 239 -288 369c-79.333 160 -119 345.667 -119 557
c0 174.667 45.667 361 137 559c60.667 132.667 150.667 255.667 270 369c10.667 9.33301 23.667 14 39 14c12 0 23.667 -5.66699 35 -17c4 -4.66699 6 -8.66699 6 -12c0 -11.333 -6 -23.666 -18 -36.999c-220 -230.667 -330 -522.667 -330 -876
c0 -350 111.333 -642.333 334 -877c9.33301 -9.33301 14 -21 14 -35z" />
    <glyph glyph-name="uni24A5" unicode="&#x28;j&#x29;" horiz-adv-x="1845" 
d="M1704 588c0 -174.667 -45.667 -360.999 -137 -558.999c-64 -136.667 -154 -259 -270 -367c-10.667 -10.667 -23.667 -16 -39 -16c-12.667 0 -24.334 6 -35.001 18c-4 4 -6 8 -6 12c0 11.333 6 23 18 35c220 228 330 520.333 330 877c0 354 -110.667 645.333 -332 874
c-10.667 10.667 -16 23.667 -16 39c0 8 8 16 24 24c6.66699 3.33301 12.334 5 17.001 5c15.333 0 28.333 -4.66699 39 -14c129.333 -121.333 225.333 -245 288 -371c79.333 -160.667 119 -346.334 119 -557.001zM1041 1157c0 -30 -10.667 -55.667 -32 -77s-47 -32 -77 -32
s-55.167 10.667 -75.5 32s-30.5 47 -30.5 77s10.167 55.167 30.5 75.5s45.5 30.5 75.5 30.5s55.667 -10.167 77 -30.5s32 -45.5 32 -75.5zM1034 59.001c0 -219.333 -36.666 -380.335 -109.999 -483.002c-62 -87.333 -144.667 -131 -248 -131
c-33.333 0 -62.5 9.33301 -87.5 28s-37.5 41.334 -37.5 68.001c0 22 8.16699 39.167 24.5 51.5s34.166 18.5 53.499 18.5c32.667 0 62.167 -13 88.5 -39s47.833 -39 64.5 -39c66 0 99 71 99 213v825c0 92 -30.667 138 -92 138c-11.333 0 -17 9.33301 -17 28
s5.66699 28 17 28c22 0 54.5 11.333 97.5 34s75.5 42.334 97.5 59.001s36.667 25 44 25c8 0 12 -5.33301 12 -16c-4 -72 -6 -127.333 -6 -166v-642zM647.001 -324.001c0 -8.66699 -8.33301 -17.001 -25 -25.001l-16 -5c-12.667 0 -25.667 5.33301 -39 16
c-128.667 116 -224.667 239 -288 369c-79.333 160 -119 345.667 -119 557c0 174.667 45.667 361 137 559c60.667 132.667 150.667 255.667 270 369c10.667 9.33301 23.667 14 39 14c12 0 23.667 -5.66699 35 -17c4 -4.66699 6 -8.66699 6 -12
c0 -11.333 -6 -23.666 -18 -36.999c-220 -230.667 -330 -522.667 -330 -876c0 -350 111.333 -642.333 334 -877c9.33301 -9.33301 14 -21 14 -35z" />
    <glyph glyph-name="uni24A6" unicode="&#x28;k&#x29;" horiz-adv-x="2335" 
d="M2194 588c0 -174.667 -45.667 -360.999 -137 -558.999c-64 -136.667 -154 -259 -270 -367c-10.667 -10.667 -23.667 -16 -39 -16c-12.667 0 -24.334 6 -35.001 18c-4 4 -6 8 -6 12c0 11.333 6 23 18 35c220 228 330 520.333 330 877c0 354 -110.667 645.333 -332 874
c-10.667 10.667 -16 23.667 -16 39c0 8 8 16 24 24c6.66699 3.33301 12.334 5 17.001 5c15.333 0 28.333 -4.66699 39 -14c129.333 -121.333 225.333 -245 288 -371c79.333 -160.667 119 -346.334 119 -557.001zM1340 723.001c17.333 19.333 26 35 26 47c0 22 -32 33 -96 33
c-9.33301 0 -14 8.83301 -14 26.5s4.66699 26.5 14 26.5c61.333 -4 124.666 -6 189.999 -6s123.333 2 174 6c9.33301 0 14 -8.83301 14 -26.5s-4.66699 -26.5 -14 -26.5c-61.333 0 -115.666 -22.667 -162.999 -68l-213 -205c-12.667 -12 -19 -23.333 -19 -34
s5.66699 -22.334 17 -35.001l321 -367c26 -30 69 -45 129 -45c9.33301 0 14 -9.5 14 -28.5s-4.66699 -28.5 -14 -28.5c-63.333 5.33301 -130.666 8 -201.999 8s-138.333 -2.66699 -201 -8c-9.33301 0 -14 9.5 -14 28.5s4.66699 28.5 14 28.5c54.667 0 82 9.66699 82 29
c0 8.66699 -10.333 25 -31 49l-221 254c-10.667 12 -22.5 20.167 -35.5 24.5s-24.5 6.5 -34.5 6.5s-18 -2.66699 -24 -8s-9 -17 -9 -35v-242c0 -52 39.667 -78 119 -78c9.33301 0 14 -9.5 14 -28.5s-4.66699 -28.5 -14 -28.5c-69.333 5.33301 -135.333 8 -198 8
s-125.667 -2.66699 -189 -8c-9.33301 0 -13.833 9.5 -13.5 28.5s4.83301 28.5 13.5 28.5c76.667 0 115 26 115 78v1048c0 92 -30.667 138 -92 138c-12 0 -17.833 9.33301 -17.5 28s6.16602 28 17.499 28c22 0 54.5 11.333 97.5 34s75.5 42.334 97.5 59.001s36.667 25 44 25
c8 0 12 -5.33301 12 -16c-4 -70 -6 -125.333 -6 -166v-783c0 -28.667 15.333 -43 46 -43s53 7.66699 67 23zM647 -323.999c0 -8.66699 -8.33301 -17.001 -25 -25.001l-16 -5c-12.667 0 -25.667 5.33301 -39 16c-128.667 116 -224.667 239 -288 369
c-79.333 160 -119 345.667 -119 557c0 174.667 45.667 361 137 559c60.667 132.667 150.667 255.667 270 369c10.667 9.33301 23.667 14 39 14c12 0 23.667 -5.66699 35 -17c4 -4.66699 6 -8.66699 6 -12c0 -11.333 -6 -23.666 -18 -36.999
c-220 -230.667 -330 -522.667 -330 -876c0 -350 111.333 -642.333 334 -877c9.33301 -9.33301 14 -21 14 -35z" />
    <glyph glyph-name="uni24A7" unicode="&#x28;l&#x29;" horiz-adv-x="1851" 
d="M1710 588c0 -174.667 -45.667 -360.999 -137 -558.999c-64 -136.667 -154 -259 -270 -367c-10.667 -10.667 -23.667 -16 -39 -16c-12.667 0 -24.334 6 -35.001 18c-4 4 -6 8 -6 12c0 11.333 6 23 18 35c220 228 330 520.333 330 877c0 354 -110.667 645.333 -332 874
c-10.667 10.667 -16 23.667 -16 39c0 8 8 16 24 24c6.66699 3.33301 12.334 5 17.001 5c15.333 0 28.333 -4.66699 39 -14c129.333 -121.333 225.333 -245 288 -371c79.333 -160.667 119 -346.334 119 -557.001zM1030 127.001c0 -52 39.665 -78 118.998 -78
c9.33301 0 14 -9.5 14 -28.5s-4.66699 -28.5 -14 -28.5c-51.333 5.33301 -115.5 8 -192.5 8s-142.5 -2.66699 -196.5 -8c-9.33301 0 -14 9.5 -14 28.5s4.66699 28.5 14 28.5c78 0 117 26 117 78v1044c0 93.333 -30.667 140 -92 140c-11.333 0 -17 9.16699 -17 27.5
s5.66699 27.5 17 27.5c30.667 0 85.667 24.667 165 74c22.667 14 39.334 25 50.001 33s19.334 12 26.001 12s10 -5 10 -15c-4 -38 -6 -70.333 -6 -97v-1246zM646.998 -323.999c0 -8.66699 -8.33301 -17.001 -25 -25.001l-16 -5c-12.667 0 -25.667 5.33301 -39 16
c-128.667 116 -224.667 239 -288 369c-79.333 160 -119 345.667 -119 557c0 174.667 45.667 361 137 559c60.667 132.667 150.667 255.667 270 369c10.667 9.33301 23.667 14 39 14c12 0 23.667 -5.66699 35 -17c4 -4.66699 6 -8.66699 6 -12
c0 -11.333 -6 -23.666 -18 -36.999c-220 -230.667 -330 -522.667 -330 -876c0 -350 111.333 -642.333 334 -877c9.33301 -9.33301 14 -21 14 -35z" />
    <glyph glyph-name="uni24A8" unicode="&#x28;m&#x29;" horiz-adv-x="2937" 
d="M2796 588c0 -174.667 -45.667 -360.999 -137 -558.999c-64 -136.667 -154 -259 -270 -367c-10.667 -10.667 -23.667 -16 -39 -16c-12.667 0 -24.334 6 -35 18c-4 4 -6 8 -6 12c0 11.333 6 23 18 35c220 228 330 520.333 330 877c0 354 -110.667 645.333 -332 874
c-10.667 10.667 -16 23.667 -16 39c0 8 8 16 24 24c6.66699 3.33301 12.334 5 17 5c15.333 0 28.333 -4.66699 39 -14c129.333 -121.333 225.333 -245 288 -371c79.333 -160.667 119 -346.334 119 -557.001zM2232 -7.99902
c-51.333 5.33301 -114.666 8.00195 -189.999 8.00195s-138.666 -2.66699 -189.999 -8c-9.33301 0 -14 9.5 -14 28.5s4.66699 28.5 14 28.5c73.333 0 110 26 110 78v453c0 78 -18.833 130.833 -56.5 158.5s-85.167 41.5 -142.5 41.5c-58 0 -104.167 -27.333 -138.5 -82
s-51.5 -128.334 -51.5 -221.001v-350c0 -52 38.333 -78 115 -78c9.33301 0 14 -9.5 14 -28.5s-4.66699 -28.5 -14 -28.5c-53.333 5.33301 -117 8 -191 8s-136.667 -2.66699 -188 -8c-9.33301 0 -14 9.5 -14 28.5s4.66699 28.5 14 28.5c73.333 0 110 26 110 78v405
c0 60 -5.16699 109 -15.5 147s-26.5 64.333 -48.5 79s-57.667 22 -107 22c-29.333 0 -55 -5.66699 -77 -17s-43.333 -25 -64 -41s-38.5 -35.333 -53.5 -58s-22.5 -47.334 -22.5 -74.001v-463c0 -52 35.333 -78 106 -78c9.33301 0 14 -9.5 14 -28.5s-4.66699 -28.5 -14 -28.5
c-51.333 5.33301 -114.333 8 -189 8s-138.667 -2.66699 -192 -8c-9.33301 0 -14 9.5 -14 28.5s4.66699 28.5 14 28.5c80.667 0 121 26 121 78v451c0 82.667 -28 124 -84 124c-11.333 0 -17 9.33301 -17 28s5.66699 28 17 28c16.667 0 43 10.333 79 31s67.5 41.5 94.5 62.5
s44.833 31.5 53.5 31.5c9.33301 0 14 -9 14 -27c-2.66699 -34 -4 -61.667 -4 -83c0 -14 4 -21 12 -21c6 0 11.667 2.66699 17 8c69.333 73.333 153.333 110 252 110c95.333 0 167.666 -40.667 216.999 -122c7.33301 -10.667 13.833 -16 19.5 -16s12.167 4.33301 19.5 13
c75.333 83.333 166.666 125 273.999 125c81.333 0 142 -22.667 182 -68s65.5 -84.833 76.5 -118.5s16.5 -73.167 16.5 -118.5v-438c0 -52 38.667 -78 116 -78c9.33301 0 14 -9.5 14 -28.5s-4.66699 -28.5 -14 -28.5zM647 -323.997c0 -8.66699 -8.33301 -17.001 -25 -25.001
l-16 -5c-12.667 0 -25.667 5.33301 -39 16c-128.667 116 -224.667 239 -288 369c-79.333 160 -119 345.667 -119 557c0 174.667 45.667 361 137 559c60.667 132.667 150.667 255.667 270 369c10.667 9.33301 23.667 14 39 14c12 0 23.667 -5.66699 35 -17
c4 -4.66699 6 -8.66699 6 -12c0 -11.333 -6 -23.666 -18 -36.999c-220 -230.667 -330 -522.667 -330 -876c0 -350 111.333 -642.333 334 -877c9.33301 -9.33301 14 -21 14 -35z" />
    <glyph glyph-name="uni24A9" unicode="&#x28;n&#x29;" horiz-adv-x="2396" 
d="M2255 588c0 -174.667 -45.666 -360.999 -136.999 -558.999c-64 -136.667 -154 -259 -270 -367c-10.667 -10.667 -23.667 -16 -39 -16c-12.667 0 -24.334 6 -35.001 18c-4 4 -6 8 -6 12c0 11.333 6 23 18 35c220 228 330 520.333 330 877c0 354 -110.667 645.333 -332 874
c-10.667 10.667 -16 23.667 -16 39c0 8 8 16 24 24c6.66699 3.33301 12.334 5 17.001 5c15.333 0 28.333 -4.66699 39 -14c129.333 -121.333 225.333 -245 287.999 -371c79.333 -160.667 119 -346.334 119 -557.001zM1573 127.001c0 -52 38.335 -78 115.002 -78
c9.33301 0 14 -9.5 14 -28.5s-4.66699 -28.5 -14 -28.5c-51.333 5.33301 -114 8 -188 8s-137.667 -2.66699 -191 -8c-9.33301 0 -14 9.5 -14 28.5s4.66699 28.5 14 28.5c73.333 0 110 26 110 78v403c0 56 -4.83301 103.5 -14.5 142.5s-24.834 66.667 -45.501 83
s-57 24.5 -109 24.5c-28 0 -53.333 -5.66699 -76 -17s-44.834 -24.833 -66.501 -40.5s-40 -35 -55 -58s-22.5 -47.833 -22.5 -74.5v-463c0 -52 35.667 -78 107 -78c9.33301 0 14 -9.5 14 -28.5s-4.66699 -28.5 -14 -28.5c-51.333 5.33301 -113.5 8 -186.5 8
s-135.833 -2.66699 -188.5 -8c-9.33301 0 -14 9.5 -14 28.5s4.66699 28.5 14 28.5c76.667 0 115 26 115 78v447c0 85.333 -28 128 -84 128c-11.333 0 -17 9.33301 -17 28s5.66699 28 17 28c26 0 55.333 10 88 30s61.334 40.833 86.001 62.5s42 32.5 52 32.5
c9.33301 0 13.666 -10.333 12.999 -31l-2 -73c0 -14 4.66699 -21 14 -21c5.33301 0 10.333 2 15 6c70.667 70.667 157 106 259 106c101.333 0 175.333 -49 222 -147c22 -44 33 -126.667 33 -248v-348zM647.003 -323.999c0 -8.66699 -8.33301 -17.001 -25 -25.001l-16 -5
c-12.667 0 -25.667 5.33301 -39 16c-128.667 116 -224.667 239 -288 369c-79.333 160 -119 345.667 -119 557c0 174.667 45.667 361 137 559c60.667 132.667 150.667 255.667 270 369c10.667 9.33301 23.667 14 39 14c12 0 23.667 -5.66699 35 -17
c4 -4.66699 6 -8.66699 6 -12c0 -11.333 -6 -23.666 -18 -36.999c-220 -230.667 -330 -522.667 -330 -876c0 -350 111.333 -642.333 334 -877c9.33301 -9.33301 14 -21 14 -35z" />
    <glyph glyph-name="uni24AA" unicode="&#x28;o&#x29;" horiz-adv-x="2322" 
d="M2181 588c0 -174.667 -45.667 -360.999 -137 -558.999c-64 -136.667 -154 -259 -270 -367c-10.667 -10.667 -23.667 -16 -39 -16c-12.667 0 -24.334 6 -35.001 18c-4 4 -6 8 -6 12c0 11.333 6 23 18 35c220 228 330 520.333 330 877c0 354 -110.667 645.333 -332 874
c-10.667 10.667 -16 23.667 -16 39c0 8 8 16 24 24c6.66699 3.33301 12.334 5 17.001 5c15.333 0 28.333 -4.66699 39 -14c129.333 -121.333 225.333 -245 288 -371c79.333 -160.667 119 -346.334 119 -557.001zM760 428.001c0 112 41.666 213.667 124.999 305
s183 137 299 137c115.333 0 213.5 -45.5 294.5 -136.5s121.5 -195.5 121.5 -313.5c0 -117.333 -37 -220.5 -111 -309.5s-173 -133.5 -297 -133.5c-123.333 0 -226.166 47.333 -308.499 142s-123.5 197.667 -123.5 309zM922.999 422.001c0 -118 27.166 -210.667 81.499 -278
s112.833 -101 175.5 -101s121.167 33.667 175.5 101s81.5 160 81.5 278c0 117.333 -26.667 211.5 -80 282.5s-111.666 106.5 -174.999 106.5c-64 0 -123.167 -35.167 -177.5 -105.5s-81.5 -164.833 -81.5 -283.5zM646.998 -323.999c0 -8.66699 -8.33301 -17.001 -25 -25.001
l-16 -5c-12.667 0 -25.667 5.33301 -39 16c-128.667 116 -224.667 239 -288 369c-79.333 160 -119 345.667 -119 557c0 174.667 45.667 361 137 559c60.667 132.667 150.667 255.667 270 369c10.667 9.33301 23.667 14 39 14c12 0 23.667 -5.66699 35 -17
c4 -4.66699 6 -8.66699 6 -12c0 -11.333 -6 -23.666 -18 -36.999c-220 -230.667 -330 -522.667 -330 -876c0 -350 111.333 -642.333 334 -877c9.33301 -9.33301 14 -21 14 -35z" />
    <glyph glyph-name="uni24AB" unicode="&#x28;p&#x29;" horiz-adv-x="2298" 
d="M2157 588c0 -174.667 -45.667 -360.999 -137 -558.999c-64 -136.667 -154 -259 -270 -367c-10.667 -10.667 -23.667 -16 -39 -16c-12.667 0 -24.334 6 -35.001 18c-4 4 -6 8 -6 12c0 11.333 6 23 18 35c220 228 330 520.333 330 877c0 354 -110.667 645.333 -332 874
c-10.667 10.667 -16 23.667 -16 39c0 8 8 16 24 24c6.66699 3.33301 12.334 5 17.001 5c15.333 0 28.333 -4.66699 39 -14c129.333 -121.333 225.333 -245 288 -371c79.333 -160.667 119 -346.334 119 -557.001zM1622 418.001c0 -131.333 -36.5 -237.665 -109.5 -318.998
s-174.5 -122 -304.5 -122c-73.333 0 -129 6.33301 -167 19c-4 1.33301 -7.66699 2 -11 2c-17.333 0 -26 -11 -26 -33v-381c0 -57.333 50.333 -86 151 -86c9.33301 0 14 -9.5 14 -28.5s-4.66699 -28.5 -14 -28.5c-56.667 5.33301 -127.5 8 -212.5 8
s-154.167 -2.66699 -207.5 -8c-9.33301 0 -14 9.5 -14 28.5s4.66699 28.5 14 28.5c76.667 0 115 28 115 84v999c0 82.667 -28.667 124 -86 124c-11.333 0 -17 9.16699 -17 27.5s5.66699 27.5 17 27.5c19.333 0 52.666 13.333 99.999 40s78 47.167 92 61.5s27 21.5 39 21.5
c8.66699 0 13 -9 13 -27l-4 -68c0 -13.333 5.33301 -20 16 -20c6 0 12 2.66699 18 8c54.667 62.667 117 94 187 94c74.667 0 143.334 -22.833 206.001 -68.5s110.167 -96.834 142.5 -153.501s48.5 -133.334 48.5 -230.001zM1448 420.002c0 245.333 -88 367.999 -264 367.999
c-56 0 -109.333 -33.333 -160 -100c-13.333 -17.333 -20 -48.666 -20 -93.999v-389c0 -109.333 63.333 -164 190 -164c93.333 0 159 37 197 111s57 163.333 57 268zM647 -323.999c0 -8.66699 -8.33301 -17.001 -25 -25.001l-16 -5c-12.667 0 -25.667 5.33301 -39 16
c-128.667 116 -224.667 239 -288 369c-79.333 160 -119 345.667 -119 557c0 174.667 45.667 361 137 559c60.667 132.667 150.667 255.667 270 369c10.667 9.33301 23.667 14 39 14c12 0 23.667 -5.66699 35 -17c4 -4.66699 6 -8.66699 6 -12
c0 -11.333 -6 -23.666 -18 -36.999c-220 -230.667 -330 -522.667 -330 -876c0 -350 111.333 -642.333 334 -877c9.33301 -9.33301 14 -21 14 -35z" />
    <glyph glyph-name="uni24AC" unicode="&#x28;q&#x29;" horiz-adv-x="2259" 
d="M2118 588c0 -174.667 -45.667 -360.999 -137 -558.999c-64 -136.667 -154 -259 -270 -367c-10.667 -10.667 -23.667 -16 -39 -16c-12.667 0 -24.334 6 -35.001 18c-4 4 -6 8 -6 12c0 11.333 6 23 18 35c220 228 330 520.333 330 877c0 354 -110.667 645.333 -332 874
c-10.667 10.667 -16 23.667 -16 39c0 8 8 16 24 24c6.66699 3.33301 12.334 5 17.001 5c15.333 0 28.333 -4.66699 39 -14c129.333 -121.333 225.333 -245 288 -371c79.333 -160.667 119 -346.334 119 -557.001zM1345 0.000976562
c-42.667 -14.667 -119.666 -22.333 -230.999 -23c-116 0 -207 38.833 -273 116.5s-99 185.167 -99 322.5c0 141.333 40.5 252.333 121.5 333s169.167 121 264.5 121s181.666 -19.667 258.999 -59l119 55c30.667 -1.33301 43.667 -16.333 39 -45
c-18 -18 -27 -117.667 -27 -299v-940c0 -56 44.333 -84 133 -84c9.33301 0 14 -9.5 14 -28.5s-4.66699 -28.5 -14 -28.5c-55.333 5.33301 -125.333 8 -210 8s-154.667 -2.66699 -210 -8c-9.33301 0 -14 9.5 -14 28.5s4.66699 28.5 14 28.5c88.667 0 133 28.667 133 86v379
c0 24.667 -6.33301 37 -19 37zM1364 205.002v417.999c0 24.667 -4.66699 44.334 -14 59.001c-44 70.667 -94.667 106 -152 106c-195.333 0.666992 -293 -117 -293 -353c0 -106 20.167 -198.167 60.5 -276.5s101.833 -117.5 184.5 -117.5c142.667 0 214 54.667 214 164z
M647.001 -323.999c0 -8.66699 -8.33301 -17.001 -25 -25.001l-16 -5c-12.667 0 -25.667 5.33301 -39 16c-128.667 116 -224.667 239 -288 369c-79.333 160 -119 345.667 -119 557c0 174.667 45.667 361 137 559c60.667 132.667 150.667 255.667 270 369
c10.667 9.33301 23.667 14 39 14c12 0 23.667 -5.66699 35 -17c4 -4.66699 6 -8.66699 6 -12c0 -11.333 -6 -23.666 -18 -36.999c-220 -230.667 -330 -522.667 -330 -876c0 -350 111.333 -642.333 334 -877c9.33301 -9.33301 14 -21 14 -35z" />
    <glyph glyph-name="uni24AD" unicode="&#x28;r&#x29;" horiz-adv-x="2023" 
d="M1882 588c0 -174.667 -45.667 -360.999 -137 -558.999c-64 -136.667 -154 -259 -270 -367c-10.667 -10.667 -23.667 -16 -39 -16c-12.667 0 -24.334 6 -35.001 18c-4 4 -6 8 -6 12c0 11.333 6 23 18 35c220 228 330 520.333 330 877c0 354 -110.667 645.333 -332 874
c-10.667 10.667 -16 23.667 -16 39c0 8 8 16 24 24c6.66699 3.33301 12.334 5 17.001 5c15.333 0 28.333 -4.66699 39 -14c129.333 -121.333 225.333 -245 288 -371c79.333 -160.667 119 -346.334 119 -557.001zM1258 870.001c21.333 0 39.001 -3.66992 53.001 -11.0029
s27 -18.666 39 -33.999s18 -37.666 18 -66.999c0 -8 -3.33301 -19.5 -10 -34.5s-17 -27.667 -31 -38s-28.333 -15.5 -43 -15.5c-14 0 -36.167 8.16699 -66.5 24.5s-53.166 24.5 -68.499 24.5c-40.667 0 -75 -20.167 -103 -60.5s-42 -95.166 -42 -164.499v-367
c0 -52 50.333 -78 151 -78c9.33301 0 14 -9.5 14 -28.5s-4.66699 -28.5 -14 -28.5c-56 5.33301 -126.167 8 -210.5 8s-154.166 -2.66699 -209.499 -8c-9.33301 0 -14 9.5 -14 28.5s4.66699 28.5 14 28.5c76.667 0 115 26 115 78v462c0 75.333 -28 113 -84 113
c-11.333 0 -17 9.33301 -17 28s5.66699 28 17 28c25.333 0 60.166 14.5 104.499 43.5s73.666 49.833 87.999 62.5s25.166 19 32.499 19c11.333 0 17 -8.33301 17 -25c-2.66699 -32.667 -4 -62.5 -4 -89.5s4.5 -40.5 13.5 -40.5s18.167 6.66699 27.5 20
c59.333 81.333 130.333 122 213 122zM647.001 -324.002c0 -8.66699 -8.33301 -17.001 -25 -25.001l-16 -5c-12.667 0 -25.667 5.33301 -39 16c-128.667 116 -224.667 239 -288 369c-79.333 160 -119 345.667 -119 557c0 174.667 45.667 361 137 559
c60.667 132.667 150.667 255.667 270 369c10.667 9.33301 23.667 14 39 14c12 0 23.667 -5.66699 35 -17c4 -4.66699 6 -8.66699 6 -12c0 -11.333 -6 -23.666 -18 -36.999c-220 -230.667 -330 -522.667 -330 -876c0 -350 111.333 -642.333 334 -877
c9.33301 -9.33301 14 -21 14 -35z" />
    <glyph glyph-name="uni24AE" unicode="&#x28;s&#x29;" horiz-adv-x="2034" 
d="M1893 588c0 -174.667 -45.667 -360.999 -137 -558.999c-64 -136.667 -154 -259 -270 -367c-10.667 -10.667 -23.667 -16 -39 -16c-12.667 0 -24.334 6 -35.001 18c-4 4 -6 8 -6 12c0 11.333 6 23 18 35c220 228 330 520.333 330 877c0 354 -110.667 645.333 -332 874
c-10.667 10.667 -16 23.667 -16 39c0 8 8 16 24 24c6.66699 3.33301 12.334 5 17.001 5c15.333 0 28.333 -4.66699 39 -14c129.333 -121.333 225.333 -245 288 -371c79.333 -160.667 119 -346.334 119 -557.001zM1325 246.001c0 -54 -14.002 -102.168 -42.002 -144.501
s-66.333 -74 -115 -95s-100 -31.5 -154 -31.5c-104 0 -184 20 -240 60c-13.333 42 -20 99.333 -20 172v45c0 10 7.83301 15 23.5 15s24.167 -5 25.5 -15c3.33301 -26 25 -68 65 -126s99.667 -87 179 -87c39.333 0 76 12.333 110 37s51 60.334 51 107.001
s-14.333 84.167 -43 112.5s-79.667 52.333 -153 72s-132.333 51.167 -177 94.5s-67 98.333 -67 165c0 68 28 125.5 84 172.5s127 70.5 213 70.5s155 -12 207 -36c20.667 -56 31 -112.667 31 -170v-11c0 -9.33301 -7.33301 -14 -22 -14s-23 4.66699 -25 14
c-6.66699 36 -29.167 71 -67.5 105s-83.166 51 -134.499 51s-92.666 -12.5 -123.999 -37.5s-47 -58.833 -47 -101.5c0 -40.667 11.167 -72 33.5 -94s77.833 -45.833 166.5 -71.5s151.167 -58 187.5 -97s54.5 -92.833 54.5 -161.5zM646.998 -324
c0 -8.66699 -8.33301 -17.001 -25 -25.001l-16 -5c-12.667 0 -25.667 5.33301 -39 16c-128.667 116 -224.667 239 -288 369c-79.333 160 -119 345.667 -119 557c0 174.667 45.667 361 137 559c60.667 132.667 150.667 255.667 270 369c10.667 9.33301 23.667 14 39 14
c12 0 23.667 -5.66699 35 -17c4 -4.66699 6 -8.66699 6 -12c0 -11.333 -6 -23.666 -18 -36.999c-220 -230.667 -330 -522.667 -330 -876c0 -350 111.333 -642.333 334 -877c9.33301 -9.33301 14 -21 14 -35z" />
    <glyph glyph-name="uni24AF" unicode="&#x28;t&#x29;" horiz-adv-x="2001" 
d="M1860 588c0 -174.667 -45.667 -360.999 -137 -558.999c-64 -136.667 -154 -259 -270 -367c-10.667 -10.667 -23.667 -16 -39 -16c-12.667 0 -24.334 6 -35.001 18c-4 4 -6 8 -6 12c0 11.333 6 23 18 35c220 228 330 520.333 330 877c0 354 -110.667 645.333 -332 874
c-10.667 10.667 -16 23.667 -16 39c0 8 8 16 24 24c6.66699 3.33301 12.334 5 17.001 5c15.333 0 28.333 -4.66699 39 -14c129.333 -121.333 225.333 -245 288 -371c79.333 -160.667 119 -346.334 119 -557.001zM869 213.001l-0.000976562 506.998
c0 26.667 -13.333 40 -40 40h-73c-9.33301 0 -14 7.66699 -14 23s4.66699 23 14 23c30 0 61 11.833 93 35.5s58.667 49.667 80 78s37.333 55.5 48 81.5c2.66699 6 7.33398 9 14.001 9s13.5 -1.66699 20.5 -5s10.5 -8 10.5 -14v-98c0 -28.667 13.667 -43 41 -43h244
c9.33301 0 14 -15 14 -45s-4.66699 -45 -14 -45h-244c-27.333 0 -41 -13.333 -41 -40v-403c0 -87.333 12.5 -149.666 37.5 -186.999s66.5 -56 124.5 -56c34.667 0 70.667 13 108 39c9.33301 6.66699 16.5 5.33398 21.5 -3.99902s7.5 -16.333 7.5 -21s-0.666992 -8 -2 -10
c-56 -67.333 -129.333 -101 -220 -101c-83.333 0 -142.5 18.167 -177.5 54.5s-52.5 96.833 -52.5 181.5zM646.999 -324.001c0 -8.66699 -8.33301 -17.001 -25 -25.001l-16 -5c-12.667 0 -25.667 5.33301 -39 16c-128.667 116 -224.667 239 -288 369
c-79.333 160 -119 345.667 -119 557c0 174.667 45.667 361 137 559c60.667 132.667 150.667 255.667 270 369c10.667 9.33301 23.667 14 39 14c12 0 23.667 -5.66699 35 -17c4 -4.66699 6 -8.66699 6 -12c0 -11.333 -6 -23.666 -18 -36.999
c-220 -230.667 -330 -522.667 -330 -876c0 -350 111.333 -642.333 334 -877c9.33301 -9.33301 14 -21 14 -35z" />
    <glyph glyph-name="uni24B0" unicode="&#x28;u&#x29;" horiz-adv-x="2363" 
d="M2222 588c0 -174.667 -45.667 -360.999 -137 -558.999c-64 -136.667 -154 -259 -270 -367c-10.667 -10.667 -23.667 -16 -39 -16c-12.667 0 -24.334 6 -35.001 18c-4 4 -6 8 -6 12c0 11.333 6 23 18 35c220 228 330 520.333 330 877c0 354 -110.667 645.333 -332 874
c-10.667 10.667 -16 23.667 -16 39c0 8 8 16 24 24c6.66699 3.33301 12.334 5 17.001 5c15.333 0 28.333 -4.66699 39 -14c129.333 -121.333 225.333 -245 288 -371c79.333 -160.667 119 -346.334 119 -557.001zM1686 31.001c-18.667 -2 -64.165 -11.1689 -136.498 -27.502
s-118.166 -28.166 -137.499 -35.499c-2 -0.666992 -4.33301 -1 -7 -1c-10.667 0 -16 15 -16 45v45c0 16 -3.83301 24 -11.5 24s-16.834 -5 -27.501 -15c-63.333 -59.333 -141.333 -89 -234 -89c-70 0 -131.833 35.333 -185.5 106s-80.5 143.334 -80.5 218.001v335
c0 98 -37 147 -111 147c-10 0 -15 9.33301 -15 28s5 28 15 28c70.667 0 127.5 3 170.5 9s70.833 9 83.5 9s19 -5.33301 19 -16c-5.33301 -71.333 -8 -122 -8 -152v-355c0 -76.667 13.167 -139.167 39.5 -187.5s66.5 -72.5 120.5 -72.5c59.333 0 111.666 17.333 156.999 52
s68 76.667 68 126v384c0 98 -37 147 -111 147c-10 0 -15 9.33301 -15 28s5 28 15 28c82 0 142.167 3 180.5 9s61.5 9 69.5 9c13.333 0 20 -9 20 -27c-4 -40 -6 -86.333 -6 -139v-464c0 -96.667 27.333 -145 82 -145l47 6c11.333 1.33301 18.666 -7.66699 21.999 -27
c0.666992 -6 1 -11 1 -15c0 -9.33301 -2.66699 -14.333 -8 -15zM647.002 -324.001c0 -8.66699 -8.33301 -17.001 -25 -25.001l-16 -5c-12.667 0 -25.667 5.33301 -39 16c-128.667 116 -224.667 239 -288 369c-79.333 160 -119 345.667 -119 557
c0 174.667 45.667 361 137 559c60.667 132.667 150.667 255.667 270 369c10.667 9.33301 23.667 14 39 14c12 0 23.667 -5.66699 35 -17c4 -4.66699 6 -8.66699 6 -12c0 -11.333 -6 -23.666 -18 -36.999c-220 -230.667 -330 -522.667 -330 -876
c0 -350 111.333 -642.333 334 -877c9.33301 -9.33301 14 -21 14 -35z" />
    <glyph glyph-name="uni24B1" unicode="&#x28;v&#x29;" horiz-adv-x="2165" 
d="M2024 588c0 -174.667 -45.667 -360.999 -137 -558.999c-64 -136.667 -154 -259 -270 -367c-10.667 -10.667 -23.667 -16 -39 -16c-12.667 0 -24.334 6 -35.001 18c-4 4 -6 8 -6 12c0 11.333 6 23 18 35c220 228 330 520.333 330 877c0 354 -110.667 645.333 -332 874
c-10.667 10.667 -16 23.667 -16 39c0 8 8 16 24 24c6.66699 3.33301 12.334 5 17.001 5c15.333 0 28.333 -4.66699 39 -14c129.333 -121.333 225.333 -245 288 -371c79.333 -160.667 119 -346.334 119 -557.001zM791 731.001c-19.333 48 -53.668 71.999 -103.001 71.999
c-9.33301 0 -14 8.83301 -14 26.5s4.66699 26.5 14 26.5c38.667 -4 97.5 -6 176.5 -6s138.5 2 178.5 6c9.33301 0 14 -8.83301 14 -26.5s-4.66699 -26.5 -14 -26.5c-52 0 -78 -18.333 -78 -55c0 -11.333 1.33301 -21 4 -29l160 -490c4 -12 8.66699 -18 14 -18s10 6 14 18
l170 498c2.66699 6.66699 4 14.334 4 23.001c0 35.333 -32 53 -96 53c-9.33301 0 -14 8.83301 -14 26.5s4.66699 26.5 14 26.5c38 -4 85.667 -6 143 -6s106 2 146 6c9.33301 0 14 -8.83301 14 -26.5s-4.66699 -26.5 -14 -26.5c-64 0 -104.333 -24 -121 -72l-250 -715
c-8.66699 -26 -22.667 -39 -42 -39s-32.666 9 -39.999 27zM646.998 -324c0 -8.66699 -8.33301 -17.001 -25 -25.001l-16 -5c-12.667 0 -25.667 5.33301 -39 16c-128.667 116 -224.667 239 -288 369c-79.333 160 -119 345.667 -119 557c0 174.667 45.667 361 137 559
c60.667 132.667 150.667 255.667 270 369c10.667 9.33301 23.667 14 39 14c12 0 23.667 -5.66699 35 -17c4 -4.66699 6 -8.66699 6 -12c0 -11.333 -6 -23.666 -18 -36.999c-220 -230.667 -330 -522.667 -330 -876c0 -350 111.333 -642.333 334 -877
c9.33301 -9.33301 14 -21 14 -35z" />
    <glyph glyph-name="uni24B2" unicode="&#x28;w&#x29;" horiz-adv-x="2658" 
d="M2517 588c0 -174.667 -45.666 -360.999 -136.999 -558.999c-64 -136.667 -154 -259 -270 -367c-10.667 -10.667 -23.667 -16 -39 -16c-12.667 0 -24.334 6 -35.001 18c-4 4 -6 8 -6 12c0 11.333 6 23 18 35c220 228 330 520.333 330 877c0 354 -110.667 645.333 -332 874
c-10.667 10.667 -16 23.667 -16 39c0 8 8 16 24 24c6.66699 3.33301 12.334 5 17 5c15.333 0 28.333 -4.66699 39 -14c129.333 -121.333 225.333 -245 288 -371c79.333 -160.667 119 -346.334 119 -557.001zM791.001 731.001c-19.333 48 -53.668 72.001 -103.001 72.001
c-9.33301 0 -14 8.83301 -14 26.5s4.66699 26.5 14 26.5c38.667 -4 97.5 -6 176.5 -6s138.5 2 178.5 6c9.33301 0 14 -8.83301 14 -26.5s-4.66699 -26.5 -14 -26.5c-52 0 -78 -18.333 -78 -55c0 -11.333 1.33301 -21 4 -29l160 -490c4 -12 8.66699 -18 14 -18s10 6 14 18
l150 435c4 13.333 6 22.666 6 27.999c0 39.333 -17 70.666 -51 93.999c-18 11.333 -38.667 17 -62 17c-9.33301 0 -14 8.83301 -14 26.5s4.66699 26.5 14 26.5c38.667 -4 97.5 -6 176.5 -6s138.5 2 178.5 6c9.33301 0 14 -8.83301 14 -26.5s-4.66699 -26.5 -14 -26.5
c-52 0 -78 -18.333 -78 -55c0 -11.333 1.33301 -21 4 -29l160 -490c4 -12 8.66699 -18 14 -18s10 6 14 18l170 498c2.66699 6.66699 4 14.334 4 23.001c0 35.333 -32 53 -96 53c-9.33301 0 -14 8.83301 -14 26.5s4.66699 26.5 14 26.5c38 -4 85.667 -6 143 -6s106 2 146 6
c9.33301 0 14 -8.83301 14 -26.5s-4.66699 -26.5 -14 -26.5c-64 0 -104.333 -24 -121 -72l-250 -715c-8.66699 -26 -22.667 -39 -42 -39s-32.666 9 -39.999 27l-213 549c-5.33301 13.333 -10 20 -14 20c-4.66699 0 -9.33398 -6.66699 -14.001 -20l-189 -537
c-8.66699 -26 -22.667 -39 -42 -39s-32.666 9 -39.999 27zM646.999 -323.998c0 -8.66699 -8.33301 -17.001 -25 -25.001l-16 -5c-12.667 0 -25.667 5.33301 -39 16c-128.667 116 -224.667 239 -288 369c-79.333 160 -119 345.667 -119 557c0 174.667 45.667 361 137 559
c60.667 132.667 150.667 255.667 270 369c10.667 9.33301 23.667 14 39 14c12 0 23.667 -5.66699 35 -17c4 -4.66699 6 -8.66699 6 -12c0 -11.333 -6 -23.666 -18 -36.999c-220 -230.667 -330 -522.667 -330 -876c0 -350 111.333 -642.333 334 -877
c9.33301 -9.33301 14 -21 14 -35z" />
    <glyph glyph-name="uni24B3" unicode="&#x28;x&#x29;" horiz-adv-x="2245" 
d="M2104 588c0 -174.667 -45.667 -360.999 -137 -558.999c-64 -136.667 -154 -259 -270 -367c-10.667 -10.667 -23.667 -16 -39 -16c-12.667 0 -24.334 6 -35.001 18c-4 4 -6 8 -6 12c0 11.333 6 23 18 35c220 228 330 520.333 330 877c0 354 -110.667 645.333 -332 874
c-10.667 10.667 -16 23.667 -16 39c0 8 8 16 24 24c6.66699 3.33301 12.334 5 17.001 5c15.333 0 28.333 -4.66699 39 -14c129.333 -121.333 225.333 -245 288 -371c79.333 -160.667 119 -346.334 119 -557.001zM864 733.001c-34 46.667 -66.6709 70 -98.0039 70
c-9.33301 0 -14 8.83301 -14 26.5s4.66699 26.5 14 26.5c38 -4 94.833 -6 170.5 -6s132.834 2 171.501 6c9.33301 0 14 -8.83301 14 -26.5s-4.66699 -26.5 -14 -26.5c-50.667 0 -76 -12.333 -76 -37c0 -12 5.66699 -27 17 -45l110 -176c6 -10 12.333 -15 19 -15
s13.334 5 20.001 15l121 160c18 23.333 27 42.333 27 57c0 27.333 -27.333 41 -82 41c-9.33301 0 -14 8.83301 -14 26.5s4.66699 26.5 14 26.5c38 -4 86.667 -6 146 -6s109 2 149 6c9.33301 0 14 -8.83301 14 -26.5s-4.66699 -26.5 -14 -26.5
c-44.667 0 -86.334 -24 -125.001 -72l-195 -237c-9.33301 -11.333 -14 -21 -14 -29s3.33301 -17 10 -27l211 -305c38.667 -56 88 -84 148 -84c9.33301 0 14 -9.5 14 -28.5s-4.66699 -28.5 -14 -28.5c-50.667 5.33301 -115.167 8 -193.5 8s-145.166 -2.66699 -200.499 -8
c-9.33301 0 -14 9.5 -14 28.5s4.66699 28.5 14 28.5c64.667 0 97 11 97 33c0 8 -7.66699 23.667 -23 47l-137 215c-5.33301 8 -11 12 -17 12c-5.33301 0 -10.666 -4 -15.999 -12l-143 -199c-22 -31.333 -33 -53.666 -33 -66.999c0 -19.333 21.667 -29 65 -29
c9.33301 0 14 -9.5 14 -28.5s-4.66699 -28.5 -14 -28.5c-53.333 5.33301 -103.166 8 -149.499 8s-94.5 -2.66699 -144.5 -8c-9.33301 0 -14 9.5 -14 28.5s4.66699 28.5 14 28.5c62.667 0 111.667 22.667 147 68l225 282c5.33301 7.33301 8 14.666 8 21.999
s-2.66699 15 -8 23zM646.996 -323.999c0 -8.66699 -8.33301 -17.001 -25 -25.001l-16 -5c-12.667 0 -25.667 5.33301 -39 16c-128.667 116 -224.667 239 -288 369c-79.333 160 -119 345.667 -119 557c0 174.667 45.667 361 137 559c60.667 132.667 150.667 255.667 270 369
c10.667 9.33301 23.667 14 39 14c12 0 23.667 -5.66699 35 -17c4 -4.66699 6 -8.66699 6 -12c0 -11.333 -6 -23.666 -18 -36.999c-220 -230.667 -330 -522.667 -330 -876c0 -350 111.333 -642.333 334 -877c9.33301 -9.33301 14 -21 14 -35z" />
    <glyph glyph-name="uni24B4" unicode="&#x28;y&#x29;" horiz-adv-x="2165" 
d="M2024 588c0 -174.667 -45.667 -360.999 -137 -558.999c-64 -136.667 -154 -259 -270 -367c-10.667 -10.667 -23.667 -16 -39 -16c-12.667 0 -24.334 6 -35.001 18c-4 4 -6 8 -6 12c0 11.333 6 23 18 35c220 228 330 520.333 330 877c0 354 -110.667 645.333 -332 874
c-10.667 10.667 -16 23.667 -16 39c0 8 8 16 24 24c6.66699 3.33301 12.334 5 17.001 5c15.333 0 28.333 -4.66699 39 -14c129.333 -121.333 225.333 -245 288 -371c79.333 -160.667 119 -346.334 119 -557.001zM758 731.001c-17.333 48 -57.668 72.001 -121.001 72.001
c-9.33301 0 -14 8.83301 -14 26.5s4.66699 26.5 14 26.5c38 -4 99.333 -6 184 -6s147 2 187 6c9.33301 0 14 -8.83301 14 -26.5s-4.66699 -26.5 -14 -26.5c-64 0 -96 -18.333 -96 -55c0 -10.667 1.33301 -20.334 4 -29.001l174 -504c6.66699 -20.667 15 -31 25 -31
s19.333 11 28 33l195 502c4 8.66699 6 17.334 6 26.001c0 38.667 -43 58 -129 58c-9.33301 0 -14 8.83301 -14 26.5s4.66699 26.5 14 26.5c38 -4 92.333 -6 163 -6s125.334 2 164.001 6c9.33301 0 14 -8.83301 14 -26.5s-4.66699 -26.5 -14 -26.5
c-64 0 -105.667 -24 -125 -72l-442 -1149c-16.667 -42.667 -41.167 -75.834 -73.5 -99.501s-67.166 -35.5 -104.499 -35.5c-26.667 0 -48.334 8.33301 -65.001 25s-25 33.667 -25 51c0 50.667 31.5 76 94.5 76s103.167 21 120.5 63l96 240c7.33301 16.667 11 29.667 11 39
s-4.33301 26.333 -13 51zM646.998 -323.998c0 -8.66699 -8.33301 -17.001 -25 -25.001l-16 -5c-12.667 0 -25.667 5.33301 -39 16c-128.667 116 -224.667 239 -288 369c-79.333 160 -119 345.667 -119 557c0 174.667 45.667 361 137 559
c60.667 132.667 150.667 255.667 270 369c10.667 9.33301 23.667 14 39 14c12 0 23.667 -5.66699 35 -17c4 -4.66699 6 -8.66699 6 -12c0 -11.333 -6 -23.666 -18 -36.999c-220 -230.667 -330 -522.667 -330 -876c0 -350 111.333 -642.333 334 -877
c9.33301 -9.33301 14 -21 14 -35z" />
    <glyph glyph-name="uni24B5" unicode="&#x28;&#x7a;&#x29;" horiz-adv-x="2062" 
d="M1921 588c0 -174.667 -45.667 -360.999 -137 -558.999c-64 -136.667 -154 -259 -270 -367c-10.667 -10.667 -23.667 -16 -39 -16c-12.667 0 -24.334 6 -35.001 18c-4 4 -6 8 -6 12c0 11.333 6 23 18 35c220 228 330 520.333 330 877c0 354 -110.667 645.333 -332 874
c-10.667 10.667 -16 23.667 -16 39c0 8 8 16 24 24c6.66699 3.33301 12.334 5 17.001 5c15.333 0 28.333 -4.66699 39 -14c129.333 -121.333 225.333 -245 288 -371c79.333 -160.667 119 -346.334 119 -557.001zM1389 276.001
c-20.667 -152.667 -31.0029 -241.333 -31.0029 -266s-9 -37 -27 -37c-6.66699 0 -29.5 4.5 -68.5 13.5s-70.5 13.5 -94.5 13.5h-420c-11.333 0 -17 4.66699 -17 14c0 4 0.666992 7 2 9l398 729c5.33301 10 8 17.667 8 23c0 12 -9.66699 18 -29 18h-158
c-52 0 -95.667 -35.667 -131 -107l-61 -123c-2 -4 -6.5 -4.83301 -13.5 -2.5s-10.167 5.16602 -9.5 8.49902l37 267c3.33301 24.667 11 36 23 34l103 -16c17.333 -2.66699 43 -4 77 -4h346c10 0 15 -2.33301 15 -7s-1.66699 -10 -5 -16l-397 -723
c-4 -7.33301 -6 -13.333 -6 -18c0 -12 9 -19.333 27 -22s40.833 -4 68.5 -4s51.834 0.333008 72.501 1c70.667 0 127.334 24 170.001 72c16 18 42.667 68.667 80 152c2.66699 6 10.334 7.33301 23.001 4s18.667 -7.66602 18 -12.999zM646.997 -323.998
c0 -8.66699 -8.33301 -17.001 -25 -25.001l-16 -5c-12.667 0 -25.667 5.33301 -39 16c-128.667 116 -224.667 239 -288 369c-79.333 160 -119 345.667 -119 557c0 174.667 45.667 361 137 559c60.667 132.667 150.667 255.667 270 369c10.667 9.33301 23.667 14 39 14
c12 0 23.667 -5.66699 35 -17c4 -4.66699 6 -8.66699 6 -12c0 -11.333 -6 -23.666 -18 -36.999c-220 -230.667 -330 -522.667 -330 -876c0 -350 111.333 -642.333 334 -877c9.33301 -9.33301 14 -21 14 -35z" />
    <glyph glyph-name="f_j" unicode="fj" horiz-adv-x="1067" 
d="M896 59c0 -220 -36.334 -381.001 -109.001 -483.001c-62 -87.333 -144.667 -131 -248 -131c-39.333 0 -72.666 13 -99.999 39c-16.667 16 -25 35 -25 57c0 28.667 14 49.334 42 62.001c11.333 5.33301 23.333 8 36 8c32.667 0 62 -13 88 -39s47.667 -39 65 -39
c66 0 99 71 99 213l-1 903c0 76.667 -13.667 115 -41 115h-309c-24.667 0 -37 -12.333 -37 -37v-600c0 -52 39 -78 117 -78c9.33301 0 14 -9.66699 14 -29c0 -18.667 -4.66699 -28 -14 -28c-60.667 5.33301 -122.667 8 -186 8c-69.333 -0 -136.333 -2.66699 -201 -8
c-10.667 0 -16 9.33301 -16 28c0 19.333 5.33301 29 16 29c78 0 117 26 117 78v600c0 24.667 -11 37 -33 37h-78c-9.33301 0 -14 9.66699 -14 29c0 17.333 4.66699 26 14 26c74 0 111 28 111 84v21c0 161.333 48.833 295.5 146.5 402.5s209.167 160.5 334.5 160.5
c151.333 0 227 -37.667 227 -113c0 -32.667 -14.333 -58 -43 -76c-14.667 -9.33301 -29 -14 -43 -14c-39.333 0 -74.666 19.667 -105.999 59c-27.333 33.333 -72.333 50 -135 50c-96 0 -161.667 -52.667 -197 -158c-20.667 -62.667 -31 -159 -31 -289v-59
c0 -24.667 12.333 -37 37 -37h309c50.667 0 106 9.66699 166 29c8 2.66699 15 4 21 4c9.33301 0 13.666 -9 12.999 -27c-4 -60 -6 -110.333 -6 -151v-646z" />
    <glyph glyph-name="slong_b" unicode="&#x17f;b" horiz-adv-x="1564" 
d="M1319 418c0 101.333 -25 188.333 -75 261c-52 74.667 -118.667 112 -200 112c-57.333 0 -106.333 -16.667 -147 -50c-15.333 -12 -23 -43.333 -23 -94v-346c0 -54 24 -110.667 72 -170c52.667 -62.667 112.667 -94 180 -94c61.333 0 110 39 146 117
c31.333 70 47 158 47 264zM1493 430c0 -154 -43.332 -271.67 -129.999 -353.003c-46.667 -44 -103.334 -73.667 -170.001 -89c-33.333 -7.33301 -68.666 -11 -105.999 -11c-30 0 -81.667 15.333 -155 46c-16 6.66699 -35.333 10 -58 10s-54.667 -18.667 -96 -56l-9 -2l-21 6
c-2.66699 1.33301 -6.33398 3 -11.001 5c-13.333 6 -20 10.667 -20 14c2.66699 86.667 4 173.334 4 260.001v914c0 146 -43.667 219 -131 219c-65.333 0 -116.666 -24.667 -153.999 -74c-44.667 -59.333 -66.334 -166.333 -65.001 -321l1 -871c0 -52 38.667 -78 116 -78
c14 0 19.333 -11.667 16 -35c-2 -13.333 -7.33301 -20.666 -16 -21.999c-54 5.33301 -116.667 8 -188 8c-77.333 0 -143.333 -2.66699 -198 -8c-13.333 0 -18.333 11.667 -15 35c2 14.667 7 22 15 22c78 0 117 25.333 117 76v555c0 22 -10.333 33 -31 33h-75
c-12.667 0 -18 10.667 -16 32c1.33301 15.333 6.66602 23 15.999 23c30.667 0 57.334 17.667 80.001 53c17.333 26.667 26 61 26 103c0 134 42 264 126 390c2.66699 4 5.66699 7.66699 9 11c98.667 108 210.667 162 336 162c41.333 0 81.333 -9.66699 120 -29
c42.667 -21.333 64 -54.666 64 -99.999v-522c0 -16.667 4.33301 -25.667 13 -27l14 3c2 0.666992 4 1.66699 6 3c55.333 36.667 114 55 176 55c118.667 0 217.667 -45 297 -135c75.333 -85.333 113 -187 113 -305z" />
    <glyph glyph-name="slong_h" unicode="&#x17f;h" horiz-adv-x="1615" 
d="M1571 -8c-54.667 5.33301 -119.002 7.99609 -193.002 7.99609c-80.667 0 -148 -2.66699 -202 -8c-12.667 0 -17.667 11.667 -15 35c1.33301 14.667 6.33301 22 15 22c76 0 114 26 114 78v420c0 71.333 -25.333 132 -76 182c-34.667 34 -74 51 -118 51
c-82.667 0 -147.334 -29 -194.001 -87c-18.667 -23.333 -28 -44.666 -28 -63.999v-502c10.667 -47.333 48.334 -73.333 113.001 -78c12.667 0 17.667 -11.667 15 -35c-1.33301 -13.333 -6.33301 -20.666 -15 -21.999c-54.667 5.33301 -114.667 8 -180 8
c-78 0 -144.333 -2.66699 -199 -8c-12 0 -17 11.667 -15 35c2 14.667 7 22 15 22c66 0 103.333 20.667 112 62c0.666992 4.66699 1 9.33398 1 14.001v1049c0 146 -43.667 219 -131 219c-65.333 0 -116.666 -24.667 -153.999 -74
c-43.333 -55.333 -64.666 -162.333 -63.999 -321l1 -97v-774c6 -49.333 44.667 -75.333 116 -78c12.667 0 18 -11.667 16 -35c-2 -13.333 -7.33301 -20.666 -16 -21.999c-54 5.33301 -116.667 8 -188 8c-78 -0 -144.333 -2.66699 -199 -8c-12 0 -17 11.667 -15 35
c2 14.667 7 22 15 22c76 0 115 25.333 117 76v555c0 20.667 -10.333 31.667 -31 33h-75c-13.333 0 -18.666 10.667 -15.999 32c1.33301 15.333 6.66602 23 15.999 23c31.333 0 58 17.667 80 53c17.333 26.667 26 61 26 103c0 160 42 290 126 390
c2.66699 4 5.66699 7.66699 9 11c98.667 108 210.667 162 336 162c116.667 -8 178 -51 184 -129v-563c0 -20 6 -29.333 18 -28c6 1.33301 12.333 5.66602 19 12.999c60 60 141.333 90 244 90c120 0 205.667 -59 257 -177c21.333 -48.667 32 -96.667 32 -144v-422
c0 -42 32 -67.333 96 -76c10.667 -1.33301 21 -2 31 -2c12 0 17 -11.667 15 -35c-1.33301 -13.333 -6.33301 -20.666 -15 -21.999z" />
    <glyph glyph-name="slong_i" unicode="&#x17f;i" horiz-adv-x="1037" 
d="M980 -8c-50.667 5.33301 -111.332 8 -181.999 8c-77.333 -0 -143 -2.66699 -197 -8c-9.33301 0 -14 9.33301 -14 28c0 19.333 4.66699 29 14 29c75.333 0 113 26 113 78v405c0 76 -8 124.667 -24 146c-12 16 -32 24 -60 24c-11.333 0 -17 9 -17 27
c0 19.333 5.66699 29 17 29c39.333 0 106.666 38 201.999 114c10 7.33301 17.667 11 23 11c12 0 18 -7 18 -21c-4 -43.333 -6 -87 -6 -131v-604c0 -52 37.667 -78 113 -78c9.33301 0 14 -9.33301 14 -28c0 -19.333 -4.66699 -29 -14 -29zM839.002 1430
c12.667 -16 18.999 -36.1689 18.999 -60.502s-10.667 -44.666 -32 -60.999s-39.333 -24.5 -54 -24.5c-37.333 0 -71.166 18.167 -101.499 54.5s-63.5 54.5 -99.5 54.5c-61.333 0 -112.833 -25.333 -154.5 -76s-62.5 -155.667 -62.5 -315v-875c0 -52 48 -78 144 -78
c10 0 15 -9.5 15 -28.5s-5 -28.5 -15 -28.5c-55.333 5.33301 -124.666 8 -207.999 8s-152 -2.66699 -206 -8c-11.333 0 -17 9.5 -17 28.5s5.66699 28.5 17 28.5c78 0 117 26 117 78v565c0 14 -8.33301 21 -25 21h-86c-10 0 -15 9.16699 -15 27.5s5 27.5 15 27.5
c23.333 0 47.666 12.333 72.999 37s38 64.334 38 119.001c0 168 47 303.833 141 407.5s204 155.5 330 155.5c82 0 137.667 -19 167 -57z" />
    <glyph glyph-name="slong_k" unicode="&#x17f;k" horiz-adv-x="1519" 
d="M1184 719c50 56 26.6689 83.998 -69.998 83.998c-12.667 0 -17.667 11 -15 33c2 13.333 7 20 15 20c41.333 -4 102 -6 182 -6c82 0 143.667 2 185 6c12.667 0 17.667 -11 15 -33c-2 -13.333 -7 -20 -15 -20c-56.667 0 -111.334 -24 -164.001 -72l-217 -205
c-19.333 -19.333 -19.333 -41 0 -65l313 -367c25.333 -30 68.333 -45 129 -45c12.667 0 17.667 -11.667 15 -35c-1.33301 -13.333 -6.33301 -20.666 -15 -21.999c-54.667 5.33301 -122.334 8 -203.001 8c-78.667 0 -145.334 -2.66699 -200.001 -8
c-12.667 0 -17.667 11.667 -15 35c1.33301 14.667 6.33301 22 15 22c56.667 0 84 10.333 82 31c-0.666992 6.66699 -11 22.334 -31 47.001l-213 254c-17.333 23.333 -45.333 33.666 -84 30.999c-12.667 -2.66699 -19 -17 -19 -43v-242c0 -52 39.667 -78 119 -78
c12.667 0 17.667 -11.667 15 -35c-1.33301 -13.333 -6.33301 -20.666 -15 -21.999c-54.667 5.33301 -116.667 8 -186 8c-80.667 -0 -148.334 -2.66699 -203.001 -8c-12.667 0 -17.667 11.667 -15 35c1.33301 14.667 6.33301 22 15 22c78 0 117 25.333 117 76v1178
c0 57.333 -32.333 87 -97 89c-3.33301 0.666992 -14.666 1 -33.999 1c-65.333 0 -116.666 -24.667 -153.999 -74c-43.333 -55.333 -64.666 -163.333 -63.999 -324l1 -96v-772c0 -52 38.667 -78 116 -78c12.667 0 18 -11.667 16 -35c-2 -13.333 -7.33301 -20.666 -16 -21.999
c-54 5.33301 -116 8 -186 8c-79.333 0 -146.333 -2.66699 -201 -8c-12 0 -17 11.667 -15 35c2 14.667 7 22 15 22c76 0 115 25.333 117 76v561c-6 16.667 -14.667 25.667 -26 27h-80c-13.333 0 -18.666 10.667 -15.999 32c1.33301 15.333 6.66602 23 15.999 23
c31.333 0 58 17.667 80 53c17.333 26.667 26 61 26 103c0 160 42 290 126 390c2.66699 4 5.66699 7.66699 9 11c98.667 108 210.667 162 336 162c90.667 0 149 -24 175 -72c6 -12.667 9 -26.334 9 -41.001v-852c0 -26.667 11 -41 33 -43c35.333 -2 62.666 5.66699 81.999 23
z" />
    <glyph glyph-name="slong_l" unicode="&#x17f;l" horiz-adv-x="1069" 
d="M745 1180c0 110.667 -23 176.997 -69 198.997c-19.333 9.33301 -46.666 14 -81.999 14c-77.333 0 -135.333 -24.667 -174 -74c-42.667 -55.333 -64 -162.333 -64 -321v-871c0 -52 39 -78 117 -78c12.667 0 17.667 -11.667 15 -35
c-1.33301 -13.333 -6.33301 -20.666 -15 -21.999c-54.667 5.33301 -119.334 8 -194.001 8c-74 0 -138.333 -2.66699 -193 -8c-12.667 0 -17.667 11.667 -15 35c1.33301 14.667 6.33301 22 15 22c78 0 117 25.333 117 76v563c0 16.667 -8.33301 25 -25 25h-82
c-12 0 -17 10.667 -15 32c1.33301 15.333 6.33301 23 15 23c44 0 75.667 28 95 84c8 23.333 12 47.333 12 72c0 160 41.667 290 125 390c3.33301 4 6.66602 7.66699 9.99902 11c98.667 108 217.334 162 356.001 162c48.667 0 95.667 -12.333 141 -37
c21.333 13.333 34 22.333 38 27c6 5.33301 12.333 8 19 8c8.66699 0 12.667 -5 12 -15c-4 -45.333 -6 -102.666 -6 -171.999v-1171c0 -52 39.667 -78 119 -78c12.667 0 17.667 -11.667 15 -35c-1.33301 -13.333 -6.33301 -20.666 -15 -21.999
c-54.667 5.33301 -117.667 8 -189 8c-78 -0 -144.333 -2.66699 -199 -8c-12.667 0 -17.667 11.667 -15 35c1.33301 14.667 6.33301 22 15 22c77.333 0 116 26 116 78v1053z" />
    <glyph glyph-name="slong_slong" unicode="&#x17f;&#x17f;" horiz-adv-x="1067" 
d="M1372 1374c0 -35.333 -18.9961 -62.6699 -56.9961 -82.0029c-10.667 -5.33301 -20.334 -8 -29.001 -8c-38 0 -73.333 19.667 -106 59c-27.333 33.333 -59 50 -95 50c-64.667 0 -116.334 -24.667 -155.001 -74c-42.667 -55.333 -63.334 -163.333 -62.001 -324v-94v-774
c0 -51.333 47.333 -77.333 142 -78c12 0 17 -11.667 15 -35c-1.33301 -13.333 -6.33301 -20.666 -15 -21.999c-54.667 5.33301 -126.334 8 -215.001 8c-76.667 0 -142.334 -2.66699 -197.001 -8c-12.667 0 -17.667 11.667 -15 35c1.33301 14.667 6.33301 22 15 22
c62.667 0 100.334 18.333 113.001 55c2.66699 6.66699 4 13.667 4 21v565c0 14.667 -8.33301 22.334 -25 23.001h-84c-12.667 0 -18 10.667 -16 32c2 15.333 7.33301 23 16 23c32.667 0 60.334 17.667 83.001 53c17.333 26.667 26 61 26 103c0 125.333 23 227 69 305
c-35.333 70 -81.333 110.667 -138 122c-16 3.33301 -34 5 -54 5c-64.667 0 -117.334 -24.667 -158.001 -74c-41.333 -52.667 -61.666 -141.667 -60.999 -267l2 -114v-774c0 -52 39 -78 117 -78c12 0 17 -11.667 15 -35c-2 -13.333 -7 -20.666 -15 -21.999
c-54.667 5.33301 -119.667 8 -195 8c-74 -0 -138.333 -2.66699 -193 -8c-12 0 -17 11.667 -15 35c2 14.667 7 22 15 22c62.667 0 100.667 18.333 114 55c2 6.66699 3 13.667 3 21v563c0 16.667 -8 25 -24 25h-82c-13.333 0 -18.666 10.667 -15.999 32
c1.33301 15.333 6.66602 23 15.999 23c31.333 0 58 17.667 80 53c17.333 26.667 26 61 26 103c0 146.667 43.667 268 131 364c95.333 108 208.666 162 339.999 162c74 0 135.667 -31.333 185 -94c90.667 87.333 193.667 131 309 131c94 0 153 -24.667 177 -74
c6 -12 9 -25 9 -39z" />
    <glyph glyph-name="slong_slong_i" unicode="&#x17f;&#x17f;i" horiz-adv-x="1574" 
d="M1515 -8c-50.667 5.33301 -111.332 8 -181.999 8c-77.333 -0 -143 -2.66699 -197 -8c-9.33301 0 -14 9.33301 -14 28c0 19.333 4.66699 29 14 29c75.333 0 113 26 113 78v405c0 76 -8 124.667 -24 146c-12 16 -32 24 -60 24c-11.333 0 -17 9 -17 27
c0 19.333 5.66699 29 17 29c39.333 0 106.666 38 201.999 114c10 7.33301 17.667 11 23 11c12 0 18 -7 18 -21c-4 -43.333 -6 -87 -6 -131v-604c0 -52 37.667 -78 113 -78c9.33301 0 14 -9.33301 14 -28c0 -19.333 -4.66699 -29 -14 -29zM1372 1374
c0 -35.333 -18.9961 -62.6699 -56.9961 -82.0029c-10.667 -5.33301 -20.334 -8 -29.001 -8c-38 0 -73.333 19.667 -106 59c-27.333 33.333 -59 50 -95 50c-64.667 0 -116.334 -24.667 -155.001 -74c-42.667 -55.333 -63.334 -163.333 -62.001 -324v-94v-774
c0 -51.333 47.333 -77.333 142 -78c12 0 17 -11.667 15 -35c-1.33301 -13.333 -6.33301 -20.666 -15 -21.999c-54.667 5.33301 -126.334 8 -215.001 8c-76.667 0 -142.334 -2.66699 -197.001 -8c-12.667 0 -17.667 11.667 -15 35c1.33301 14.667 6.33301 22 15 22
c62.667 0 100.334 18.333 113.001 55c2.66699 6.66699 4 13.667 4 21v565c0 14.667 -8.33301 22.334 -25 23.001h-84c-12.667 0 -18 10.667 -16 32c2 15.333 7.33301 23 16 23c32.667 0 60.334 17.667 83.001 53c17.333 26.667 26 61 26 103c0 125.333 23 227 69 305
c-35.333 70 -81.333 110.667 -138 122c-16 3.33301 -34 5 -54 5c-64.667 0 -117.334 -24.667 -158.001 -74c-41.333 -52.667 -61.666 -141.667 -60.999 -267l2 -114v-774c0 -52 39 -78 117 -78c12 0 17 -11.667 15 -35c-2 -13.333 -7 -20.666 -15 -21.999
c-54.667 5.33301 -119.667 8 -195 8c-74 -0 -138.333 -2.66699 -193 -8c-12 0 -17 11.667 -15 35c2 14.667 7 22 15 22c62.667 0 100.667 18.333 114 55c2 6.66699 3 13.667 3 21v563c0 16.667 -8 25 -24 25h-82c-13.333 0 -18.666 10.667 -15.999 32
c1.33301 15.333 6.66602 23 15.999 23c31.333 0 58 17.667 80 53c17.333 26.667 26 61 26 103c0 146.667 43.667 268 131 364c95.333 108 208.666 162 339.999 162c74 0 135.667 -31.333 185 -94c90.667 87.333 193.667 131 309 131c94 0 153 -24.667 177 -74
c6 -12 9 -25 9 -39z" />
    </font>
</defs>
</svg>
